G04 #@! TF.GenerationSoftware,KiCad,Pcbnew,5.1.4+dfsg1-1*
G04 #@! TF.CreationDate,2019-09-03T22:58:18+09:00*
G04 #@! TF.ProjectId,breadbee,62726561-6462-4656-952e-6b696361645f,rev?*
G04 #@! TF.SameCoordinates,Original*
G04 #@! TF.FileFunction,Paste,Bot*
G04 #@! TF.FilePolarity,Positive*
%FSLAX46Y46*%
G04 Gerber Fmt 4.6, Leading zero omitted, Abs format (unit mm)*
G04 Created by KiCad (PCBNEW 5.1.4+dfsg1-1) date 2019-09-03 22:58:18*
%MOMM*%
%LPD*%
G04 APERTURE LIST*
%ADD10R,4.600000X0.810000*%
%ADD11R,4.600000X0.610000*%
%ADD12R,1.950000X1.250000*%
%ADD13R,1.060000X0.650000*%
%ADD14C,0.150000*%
%ADD15C,0.590000*%
G04 APERTURE END LIST*
D10*
X153860000Y-80450000D03*
X153860000Y-82250000D03*
D11*
X153860000Y-83430000D03*
X153860000Y-84450000D03*
X153860000Y-85470000D03*
X153860000Y-86490000D03*
X153860000Y-87510000D03*
X153860000Y-88530000D03*
X153860000Y-89550000D03*
X153860000Y-90570000D03*
D10*
X153860000Y-91750000D03*
X153860000Y-93550000D03*
D12*
X132820000Y-95120000D03*
X134780000Y-95120000D03*
X134780000Y-78870000D03*
X132820000Y-78870000D03*
D13*
X157945000Y-96770000D03*
X157945000Y-97720000D03*
X157945000Y-95820000D03*
X155745000Y-95820000D03*
X155745000Y-96770000D03*
X155745000Y-97720000D03*
D14*
G36*
X157316958Y-77800710D02*
G01*
X157331276Y-77802834D01*
X157345317Y-77806351D01*
X157358946Y-77811228D01*
X157372031Y-77817417D01*
X157384447Y-77824858D01*
X157396073Y-77833481D01*
X157406798Y-77843202D01*
X157416519Y-77853927D01*
X157425142Y-77865553D01*
X157432583Y-77877969D01*
X157438772Y-77891054D01*
X157443649Y-77904683D01*
X157447166Y-77918724D01*
X157449290Y-77933042D01*
X157450000Y-77947500D01*
X157450000Y-78242500D01*
X157449290Y-78256958D01*
X157447166Y-78271276D01*
X157443649Y-78285317D01*
X157438772Y-78298946D01*
X157432583Y-78312031D01*
X157425142Y-78324447D01*
X157416519Y-78336073D01*
X157406798Y-78346798D01*
X157396073Y-78356519D01*
X157384447Y-78365142D01*
X157372031Y-78372583D01*
X157358946Y-78378772D01*
X157345317Y-78383649D01*
X157331276Y-78387166D01*
X157316958Y-78389290D01*
X157302500Y-78390000D01*
X156957500Y-78390000D01*
X156943042Y-78389290D01*
X156928724Y-78387166D01*
X156914683Y-78383649D01*
X156901054Y-78378772D01*
X156887969Y-78372583D01*
X156875553Y-78365142D01*
X156863927Y-78356519D01*
X156853202Y-78346798D01*
X156843481Y-78336073D01*
X156834858Y-78324447D01*
X156827417Y-78312031D01*
X156821228Y-78298946D01*
X156816351Y-78285317D01*
X156812834Y-78271276D01*
X156810710Y-78256958D01*
X156810000Y-78242500D01*
X156810000Y-77947500D01*
X156810710Y-77933042D01*
X156812834Y-77918724D01*
X156816351Y-77904683D01*
X156821228Y-77891054D01*
X156827417Y-77877969D01*
X156834858Y-77865553D01*
X156843481Y-77853927D01*
X156853202Y-77843202D01*
X156863927Y-77833481D01*
X156875553Y-77824858D01*
X156887969Y-77817417D01*
X156901054Y-77811228D01*
X156914683Y-77806351D01*
X156928724Y-77802834D01*
X156943042Y-77800710D01*
X156957500Y-77800000D01*
X157302500Y-77800000D01*
X157316958Y-77800710D01*
X157316958Y-77800710D01*
G37*
D15*
X157130000Y-78095000D03*
D14*
G36*
X157316958Y-78770710D02*
G01*
X157331276Y-78772834D01*
X157345317Y-78776351D01*
X157358946Y-78781228D01*
X157372031Y-78787417D01*
X157384447Y-78794858D01*
X157396073Y-78803481D01*
X157406798Y-78813202D01*
X157416519Y-78823927D01*
X157425142Y-78835553D01*
X157432583Y-78847969D01*
X157438772Y-78861054D01*
X157443649Y-78874683D01*
X157447166Y-78888724D01*
X157449290Y-78903042D01*
X157450000Y-78917500D01*
X157450000Y-79212500D01*
X157449290Y-79226958D01*
X157447166Y-79241276D01*
X157443649Y-79255317D01*
X157438772Y-79268946D01*
X157432583Y-79282031D01*
X157425142Y-79294447D01*
X157416519Y-79306073D01*
X157406798Y-79316798D01*
X157396073Y-79326519D01*
X157384447Y-79335142D01*
X157372031Y-79342583D01*
X157358946Y-79348772D01*
X157345317Y-79353649D01*
X157331276Y-79357166D01*
X157316958Y-79359290D01*
X157302500Y-79360000D01*
X156957500Y-79360000D01*
X156943042Y-79359290D01*
X156928724Y-79357166D01*
X156914683Y-79353649D01*
X156901054Y-79348772D01*
X156887969Y-79342583D01*
X156875553Y-79335142D01*
X156863927Y-79326519D01*
X156853202Y-79316798D01*
X156843481Y-79306073D01*
X156834858Y-79294447D01*
X156827417Y-79282031D01*
X156821228Y-79268946D01*
X156816351Y-79255317D01*
X156812834Y-79241276D01*
X156810710Y-79226958D01*
X156810000Y-79212500D01*
X156810000Y-78917500D01*
X156810710Y-78903042D01*
X156812834Y-78888724D01*
X156816351Y-78874683D01*
X156821228Y-78861054D01*
X156827417Y-78847969D01*
X156834858Y-78835553D01*
X156843481Y-78823927D01*
X156853202Y-78813202D01*
X156863927Y-78803481D01*
X156875553Y-78794858D01*
X156887969Y-78787417D01*
X156901054Y-78781228D01*
X156914683Y-78776351D01*
X156928724Y-78772834D01*
X156943042Y-78770710D01*
X156957500Y-78770000D01*
X157302500Y-78770000D01*
X157316958Y-78770710D01*
X157316958Y-78770710D01*
G37*
D15*
X157130000Y-79065000D03*
D14*
G36*
X158256958Y-78770710D02*
G01*
X158271276Y-78772834D01*
X158285317Y-78776351D01*
X158298946Y-78781228D01*
X158312031Y-78787417D01*
X158324447Y-78794858D01*
X158336073Y-78803481D01*
X158346798Y-78813202D01*
X158356519Y-78823927D01*
X158365142Y-78835553D01*
X158372583Y-78847969D01*
X158378772Y-78861054D01*
X158383649Y-78874683D01*
X158387166Y-78888724D01*
X158389290Y-78903042D01*
X158390000Y-78917500D01*
X158390000Y-79212500D01*
X158389290Y-79226958D01*
X158387166Y-79241276D01*
X158383649Y-79255317D01*
X158378772Y-79268946D01*
X158372583Y-79282031D01*
X158365142Y-79294447D01*
X158356519Y-79306073D01*
X158346798Y-79316798D01*
X158336073Y-79326519D01*
X158324447Y-79335142D01*
X158312031Y-79342583D01*
X158298946Y-79348772D01*
X158285317Y-79353649D01*
X158271276Y-79357166D01*
X158256958Y-79359290D01*
X158242500Y-79360000D01*
X157897500Y-79360000D01*
X157883042Y-79359290D01*
X157868724Y-79357166D01*
X157854683Y-79353649D01*
X157841054Y-79348772D01*
X157827969Y-79342583D01*
X157815553Y-79335142D01*
X157803927Y-79326519D01*
X157793202Y-79316798D01*
X157783481Y-79306073D01*
X157774858Y-79294447D01*
X157767417Y-79282031D01*
X157761228Y-79268946D01*
X157756351Y-79255317D01*
X157752834Y-79241276D01*
X157750710Y-79226958D01*
X157750000Y-79212500D01*
X157750000Y-78917500D01*
X157750710Y-78903042D01*
X157752834Y-78888724D01*
X157756351Y-78874683D01*
X157761228Y-78861054D01*
X157767417Y-78847969D01*
X157774858Y-78835553D01*
X157783481Y-78823927D01*
X157793202Y-78813202D01*
X157803927Y-78803481D01*
X157815553Y-78794858D01*
X157827969Y-78787417D01*
X157841054Y-78781228D01*
X157854683Y-78776351D01*
X157868724Y-78772834D01*
X157883042Y-78770710D01*
X157897500Y-78770000D01*
X158242500Y-78770000D01*
X158256958Y-78770710D01*
X158256958Y-78770710D01*
G37*
D15*
X158070000Y-79065000D03*
D14*
G36*
X158256958Y-77800710D02*
G01*
X158271276Y-77802834D01*
X158285317Y-77806351D01*
X158298946Y-77811228D01*
X158312031Y-77817417D01*
X158324447Y-77824858D01*
X158336073Y-77833481D01*
X158346798Y-77843202D01*
X158356519Y-77853927D01*
X158365142Y-77865553D01*
X158372583Y-77877969D01*
X158378772Y-77891054D01*
X158383649Y-77904683D01*
X158387166Y-77918724D01*
X158389290Y-77933042D01*
X158390000Y-77947500D01*
X158390000Y-78242500D01*
X158389290Y-78256958D01*
X158387166Y-78271276D01*
X158383649Y-78285317D01*
X158378772Y-78298946D01*
X158372583Y-78312031D01*
X158365142Y-78324447D01*
X158356519Y-78336073D01*
X158346798Y-78346798D01*
X158336073Y-78356519D01*
X158324447Y-78365142D01*
X158312031Y-78372583D01*
X158298946Y-78378772D01*
X158285317Y-78383649D01*
X158271276Y-78387166D01*
X158256958Y-78389290D01*
X158242500Y-78390000D01*
X157897500Y-78390000D01*
X157883042Y-78389290D01*
X157868724Y-78387166D01*
X157854683Y-78383649D01*
X157841054Y-78378772D01*
X157827969Y-78372583D01*
X157815553Y-78365142D01*
X157803927Y-78356519D01*
X157793202Y-78346798D01*
X157783481Y-78336073D01*
X157774858Y-78324447D01*
X157767417Y-78312031D01*
X157761228Y-78298946D01*
X157756351Y-78285317D01*
X157752834Y-78271276D01*
X157750710Y-78256958D01*
X157750000Y-78242500D01*
X157750000Y-77947500D01*
X157750710Y-77933042D01*
X157752834Y-77918724D01*
X157756351Y-77904683D01*
X157761228Y-77891054D01*
X157767417Y-77877969D01*
X157774858Y-77865553D01*
X157783481Y-77853927D01*
X157793202Y-77843202D01*
X157803927Y-77833481D01*
X157815553Y-77824858D01*
X157827969Y-77817417D01*
X157841054Y-77811228D01*
X157854683Y-77806351D01*
X157868724Y-77802834D01*
X157883042Y-77800710D01*
X157897500Y-77800000D01*
X158242500Y-77800000D01*
X158256958Y-77800710D01*
X158256958Y-77800710D01*
G37*
D15*
X158070000Y-78095000D03*
D14*
G36*
X152796958Y-95320710D02*
G01*
X152811276Y-95322834D01*
X152825317Y-95326351D01*
X152838946Y-95331228D01*
X152852031Y-95337417D01*
X152864447Y-95344858D01*
X152876073Y-95353481D01*
X152886798Y-95363202D01*
X152896519Y-95373927D01*
X152905142Y-95385553D01*
X152912583Y-95397969D01*
X152918772Y-95411054D01*
X152923649Y-95424683D01*
X152927166Y-95438724D01*
X152929290Y-95453042D01*
X152930000Y-95467500D01*
X152930000Y-95762500D01*
X152929290Y-95776958D01*
X152927166Y-95791276D01*
X152923649Y-95805317D01*
X152918772Y-95818946D01*
X152912583Y-95832031D01*
X152905142Y-95844447D01*
X152896519Y-95856073D01*
X152886798Y-95866798D01*
X152876073Y-95876519D01*
X152864447Y-95885142D01*
X152852031Y-95892583D01*
X152838946Y-95898772D01*
X152825317Y-95903649D01*
X152811276Y-95907166D01*
X152796958Y-95909290D01*
X152782500Y-95910000D01*
X152437500Y-95910000D01*
X152423042Y-95909290D01*
X152408724Y-95907166D01*
X152394683Y-95903649D01*
X152381054Y-95898772D01*
X152367969Y-95892583D01*
X152355553Y-95885142D01*
X152343927Y-95876519D01*
X152333202Y-95866798D01*
X152323481Y-95856073D01*
X152314858Y-95844447D01*
X152307417Y-95832031D01*
X152301228Y-95818946D01*
X152296351Y-95805317D01*
X152292834Y-95791276D01*
X152290710Y-95776958D01*
X152290000Y-95762500D01*
X152290000Y-95467500D01*
X152290710Y-95453042D01*
X152292834Y-95438724D01*
X152296351Y-95424683D01*
X152301228Y-95411054D01*
X152307417Y-95397969D01*
X152314858Y-95385553D01*
X152323481Y-95373927D01*
X152333202Y-95363202D01*
X152343927Y-95353481D01*
X152355553Y-95344858D01*
X152367969Y-95337417D01*
X152381054Y-95331228D01*
X152394683Y-95326351D01*
X152408724Y-95322834D01*
X152423042Y-95320710D01*
X152437500Y-95320000D01*
X152782500Y-95320000D01*
X152796958Y-95320710D01*
X152796958Y-95320710D01*
G37*
D15*
X152610000Y-95615000D03*
D14*
G36*
X152796958Y-96290710D02*
G01*
X152811276Y-96292834D01*
X152825317Y-96296351D01*
X152838946Y-96301228D01*
X152852031Y-96307417D01*
X152864447Y-96314858D01*
X152876073Y-96323481D01*
X152886798Y-96333202D01*
X152896519Y-96343927D01*
X152905142Y-96355553D01*
X152912583Y-96367969D01*
X152918772Y-96381054D01*
X152923649Y-96394683D01*
X152927166Y-96408724D01*
X152929290Y-96423042D01*
X152930000Y-96437500D01*
X152930000Y-96732500D01*
X152929290Y-96746958D01*
X152927166Y-96761276D01*
X152923649Y-96775317D01*
X152918772Y-96788946D01*
X152912583Y-96802031D01*
X152905142Y-96814447D01*
X152896519Y-96826073D01*
X152886798Y-96836798D01*
X152876073Y-96846519D01*
X152864447Y-96855142D01*
X152852031Y-96862583D01*
X152838946Y-96868772D01*
X152825317Y-96873649D01*
X152811276Y-96877166D01*
X152796958Y-96879290D01*
X152782500Y-96880000D01*
X152437500Y-96880000D01*
X152423042Y-96879290D01*
X152408724Y-96877166D01*
X152394683Y-96873649D01*
X152381054Y-96868772D01*
X152367969Y-96862583D01*
X152355553Y-96855142D01*
X152343927Y-96846519D01*
X152333202Y-96836798D01*
X152323481Y-96826073D01*
X152314858Y-96814447D01*
X152307417Y-96802031D01*
X152301228Y-96788946D01*
X152296351Y-96775317D01*
X152292834Y-96761276D01*
X152290710Y-96746958D01*
X152290000Y-96732500D01*
X152290000Y-96437500D01*
X152290710Y-96423042D01*
X152292834Y-96408724D01*
X152296351Y-96394683D01*
X152301228Y-96381054D01*
X152307417Y-96367969D01*
X152314858Y-96355553D01*
X152323481Y-96343927D01*
X152333202Y-96333202D01*
X152343927Y-96323481D01*
X152355553Y-96314858D01*
X152367969Y-96307417D01*
X152381054Y-96301228D01*
X152394683Y-96296351D01*
X152408724Y-96292834D01*
X152423042Y-96290710D01*
X152437500Y-96290000D01*
X152782500Y-96290000D01*
X152796958Y-96290710D01*
X152796958Y-96290710D01*
G37*
D15*
X152610000Y-96585000D03*
D14*
G36*
X136606958Y-96380710D02*
G01*
X136621276Y-96382834D01*
X136635317Y-96386351D01*
X136648946Y-96391228D01*
X136662031Y-96397417D01*
X136674447Y-96404858D01*
X136686073Y-96413481D01*
X136696798Y-96423202D01*
X136706519Y-96433927D01*
X136715142Y-96445553D01*
X136722583Y-96457969D01*
X136728772Y-96471054D01*
X136733649Y-96484683D01*
X136737166Y-96498724D01*
X136739290Y-96513042D01*
X136740000Y-96527500D01*
X136740000Y-96822500D01*
X136739290Y-96836958D01*
X136737166Y-96851276D01*
X136733649Y-96865317D01*
X136728772Y-96878946D01*
X136722583Y-96892031D01*
X136715142Y-96904447D01*
X136706519Y-96916073D01*
X136696798Y-96926798D01*
X136686073Y-96936519D01*
X136674447Y-96945142D01*
X136662031Y-96952583D01*
X136648946Y-96958772D01*
X136635317Y-96963649D01*
X136621276Y-96967166D01*
X136606958Y-96969290D01*
X136592500Y-96970000D01*
X136247500Y-96970000D01*
X136233042Y-96969290D01*
X136218724Y-96967166D01*
X136204683Y-96963649D01*
X136191054Y-96958772D01*
X136177969Y-96952583D01*
X136165553Y-96945142D01*
X136153927Y-96936519D01*
X136143202Y-96926798D01*
X136133481Y-96916073D01*
X136124858Y-96904447D01*
X136117417Y-96892031D01*
X136111228Y-96878946D01*
X136106351Y-96865317D01*
X136102834Y-96851276D01*
X136100710Y-96836958D01*
X136100000Y-96822500D01*
X136100000Y-96527500D01*
X136100710Y-96513042D01*
X136102834Y-96498724D01*
X136106351Y-96484683D01*
X136111228Y-96471054D01*
X136117417Y-96457969D01*
X136124858Y-96445553D01*
X136133481Y-96433927D01*
X136143202Y-96423202D01*
X136153927Y-96413481D01*
X136165553Y-96404858D01*
X136177969Y-96397417D01*
X136191054Y-96391228D01*
X136204683Y-96386351D01*
X136218724Y-96382834D01*
X136233042Y-96380710D01*
X136247500Y-96380000D01*
X136592500Y-96380000D01*
X136606958Y-96380710D01*
X136606958Y-96380710D01*
G37*
D15*
X136420000Y-96675000D03*
D14*
G36*
X136606958Y-95410710D02*
G01*
X136621276Y-95412834D01*
X136635317Y-95416351D01*
X136648946Y-95421228D01*
X136662031Y-95427417D01*
X136674447Y-95434858D01*
X136686073Y-95443481D01*
X136696798Y-95453202D01*
X136706519Y-95463927D01*
X136715142Y-95475553D01*
X136722583Y-95487969D01*
X136728772Y-95501054D01*
X136733649Y-95514683D01*
X136737166Y-95528724D01*
X136739290Y-95543042D01*
X136740000Y-95557500D01*
X136740000Y-95852500D01*
X136739290Y-95866958D01*
X136737166Y-95881276D01*
X136733649Y-95895317D01*
X136728772Y-95908946D01*
X136722583Y-95922031D01*
X136715142Y-95934447D01*
X136706519Y-95946073D01*
X136696798Y-95956798D01*
X136686073Y-95966519D01*
X136674447Y-95975142D01*
X136662031Y-95982583D01*
X136648946Y-95988772D01*
X136635317Y-95993649D01*
X136621276Y-95997166D01*
X136606958Y-95999290D01*
X136592500Y-96000000D01*
X136247500Y-96000000D01*
X136233042Y-95999290D01*
X136218724Y-95997166D01*
X136204683Y-95993649D01*
X136191054Y-95988772D01*
X136177969Y-95982583D01*
X136165553Y-95975142D01*
X136153927Y-95966519D01*
X136143202Y-95956798D01*
X136133481Y-95946073D01*
X136124858Y-95934447D01*
X136117417Y-95922031D01*
X136111228Y-95908946D01*
X136106351Y-95895317D01*
X136102834Y-95881276D01*
X136100710Y-95866958D01*
X136100000Y-95852500D01*
X136100000Y-95557500D01*
X136100710Y-95543042D01*
X136102834Y-95528724D01*
X136106351Y-95514683D01*
X136111228Y-95501054D01*
X136117417Y-95487969D01*
X136124858Y-95475553D01*
X136133481Y-95463927D01*
X136143202Y-95453202D01*
X136153927Y-95443481D01*
X136165553Y-95434858D01*
X136177969Y-95427417D01*
X136191054Y-95421228D01*
X136204683Y-95416351D01*
X136218724Y-95412834D01*
X136233042Y-95410710D01*
X136247500Y-95410000D01*
X136592500Y-95410000D01*
X136606958Y-95410710D01*
X136606958Y-95410710D01*
G37*
D15*
X136420000Y-95705000D03*
D14*
G36*
X151856958Y-96290710D02*
G01*
X151871276Y-96292834D01*
X151885317Y-96296351D01*
X151898946Y-96301228D01*
X151912031Y-96307417D01*
X151924447Y-96314858D01*
X151936073Y-96323481D01*
X151946798Y-96333202D01*
X151956519Y-96343927D01*
X151965142Y-96355553D01*
X151972583Y-96367969D01*
X151978772Y-96381054D01*
X151983649Y-96394683D01*
X151987166Y-96408724D01*
X151989290Y-96423042D01*
X151990000Y-96437500D01*
X151990000Y-96732500D01*
X151989290Y-96746958D01*
X151987166Y-96761276D01*
X151983649Y-96775317D01*
X151978772Y-96788946D01*
X151972583Y-96802031D01*
X151965142Y-96814447D01*
X151956519Y-96826073D01*
X151946798Y-96836798D01*
X151936073Y-96846519D01*
X151924447Y-96855142D01*
X151912031Y-96862583D01*
X151898946Y-96868772D01*
X151885317Y-96873649D01*
X151871276Y-96877166D01*
X151856958Y-96879290D01*
X151842500Y-96880000D01*
X151497500Y-96880000D01*
X151483042Y-96879290D01*
X151468724Y-96877166D01*
X151454683Y-96873649D01*
X151441054Y-96868772D01*
X151427969Y-96862583D01*
X151415553Y-96855142D01*
X151403927Y-96846519D01*
X151393202Y-96836798D01*
X151383481Y-96826073D01*
X151374858Y-96814447D01*
X151367417Y-96802031D01*
X151361228Y-96788946D01*
X151356351Y-96775317D01*
X151352834Y-96761276D01*
X151350710Y-96746958D01*
X151350000Y-96732500D01*
X151350000Y-96437500D01*
X151350710Y-96423042D01*
X151352834Y-96408724D01*
X151356351Y-96394683D01*
X151361228Y-96381054D01*
X151367417Y-96367969D01*
X151374858Y-96355553D01*
X151383481Y-96343927D01*
X151393202Y-96333202D01*
X151403927Y-96323481D01*
X151415553Y-96314858D01*
X151427969Y-96307417D01*
X151441054Y-96301228D01*
X151454683Y-96296351D01*
X151468724Y-96292834D01*
X151483042Y-96290710D01*
X151497500Y-96290000D01*
X151842500Y-96290000D01*
X151856958Y-96290710D01*
X151856958Y-96290710D01*
G37*
D15*
X151670000Y-96585000D03*
D14*
G36*
X151856958Y-95320710D02*
G01*
X151871276Y-95322834D01*
X151885317Y-95326351D01*
X151898946Y-95331228D01*
X151912031Y-95337417D01*
X151924447Y-95344858D01*
X151936073Y-95353481D01*
X151946798Y-95363202D01*
X151956519Y-95373927D01*
X151965142Y-95385553D01*
X151972583Y-95397969D01*
X151978772Y-95411054D01*
X151983649Y-95424683D01*
X151987166Y-95438724D01*
X151989290Y-95453042D01*
X151990000Y-95467500D01*
X151990000Y-95762500D01*
X151989290Y-95776958D01*
X151987166Y-95791276D01*
X151983649Y-95805317D01*
X151978772Y-95818946D01*
X151972583Y-95832031D01*
X151965142Y-95844447D01*
X151956519Y-95856073D01*
X151946798Y-95866798D01*
X151936073Y-95876519D01*
X151924447Y-95885142D01*
X151912031Y-95892583D01*
X151898946Y-95898772D01*
X151885317Y-95903649D01*
X151871276Y-95907166D01*
X151856958Y-95909290D01*
X151842500Y-95910000D01*
X151497500Y-95910000D01*
X151483042Y-95909290D01*
X151468724Y-95907166D01*
X151454683Y-95903649D01*
X151441054Y-95898772D01*
X151427969Y-95892583D01*
X151415553Y-95885142D01*
X151403927Y-95876519D01*
X151393202Y-95866798D01*
X151383481Y-95856073D01*
X151374858Y-95844447D01*
X151367417Y-95832031D01*
X151361228Y-95818946D01*
X151356351Y-95805317D01*
X151352834Y-95791276D01*
X151350710Y-95776958D01*
X151350000Y-95762500D01*
X151350000Y-95467500D01*
X151350710Y-95453042D01*
X151352834Y-95438724D01*
X151356351Y-95424683D01*
X151361228Y-95411054D01*
X151367417Y-95397969D01*
X151374858Y-95385553D01*
X151383481Y-95373927D01*
X151393202Y-95363202D01*
X151403927Y-95353481D01*
X151415553Y-95344858D01*
X151427969Y-95337417D01*
X151441054Y-95331228D01*
X151454683Y-95326351D01*
X151468724Y-95322834D01*
X151483042Y-95320710D01*
X151497500Y-95320000D01*
X151842500Y-95320000D01*
X151856958Y-95320710D01*
X151856958Y-95320710D01*
G37*
D15*
X151670000Y-95615000D03*
M02*
