G04 #@! TF.GenerationSoftware,KiCad,Pcbnew,5.1.5+dfsg1-2+b1*
G04 #@! TF.CreationDate,2020-05-20T20:10:29+09:00*
G04 #@! TF.ProjectId,breadbee,62726561-6462-4656-952e-6b696361645f,rev?*
G04 #@! TF.SameCoordinates,Original*
G04 #@! TF.FileFunction,Copper,L3,Inr*
G04 #@! TF.FilePolarity,Positive*
%FSLAX46Y46*%
G04 Gerber Fmt 4.6, Leading zero omitted, Abs format (unit mm)*
G04 Created by KiCad (PCBNEW 5.1.5+dfsg1-2+b1) date 2020-05-20 20:10:29*
%MOMM*%
%LPD*%
G04 APERTURE LIST*
%ADD10C,0.825000*%
%ADD11R,1.700000X1.700000*%
%ADD12O,1.700000X1.700000*%
%ADD13R,1.950000X1.250000*%
%ADD14C,0.500000*%
%ADD15R,0.850000X0.850000*%
%ADD16O,0.850000X0.850000*%
%ADD17C,0.452400*%
%ADD18C,0.800000*%
%ADD19C,0.309000*%
%ADD20C,0.600000*%
%ADD21C,0.154500*%
%ADD22C,0.154000*%
G04 APERTURE END LIST*
D10*
X140715000Y-94065000D03*
X142365000Y-94065000D03*
X144015000Y-94065000D03*
X145665000Y-94065000D03*
X140715000Y-92415000D03*
X142365000Y-92415000D03*
X144015000Y-92415000D03*
X145665000Y-92415000D03*
X140715000Y-90765000D03*
X142365000Y-90765000D03*
X144015000Y-90765000D03*
X145665000Y-90765000D03*
X140715000Y-89115000D03*
X142365000Y-89115000D03*
X144015000Y-89115000D03*
X145665000Y-89115000D03*
D11*
X129000000Y-103000000D03*
D12*
X129000000Y-100460000D03*
X131540000Y-103000000D03*
X131540000Y-100460000D03*
X134080000Y-103000000D03*
X134080000Y-100460000D03*
X136620000Y-103000000D03*
X136620000Y-100460000D03*
X139160000Y-103000000D03*
X139160000Y-100460000D03*
X141700000Y-103000000D03*
X141700000Y-100460000D03*
X144240000Y-103000000D03*
X144240000Y-100460000D03*
X146780000Y-103000000D03*
X146780000Y-100460000D03*
X149320000Y-103000000D03*
X149320000Y-100460000D03*
X151860000Y-103000000D03*
X151860000Y-100460000D03*
X154400000Y-103000000D03*
X154400000Y-100460000D03*
X156940000Y-103000000D03*
X156940000Y-100460000D03*
D13*
X134780000Y-96380000D03*
X132820000Y-96380000D03*
X132820000Y-77600000D03*
X134780000Y-77600000D03*
D14*
X145075000Y-81925000D03*
X143725000Y-81925000D03*
X145075000Y-80575000D03*
X143725000Y-80575000D03*
D15*
X137990000Y-76140000D03*
D16*
X138990000Y-76140000D03*
X139990000Y-76140000D03*
X140990000Y-76140000D03*
X141990000Y-76140000D03*
X142990000Y-76140000D03*
X143990000Y-76140000D03*
X144990000Y-76140000D03*
X145990000Y-76140000D03*
X146990000Y-76140000D03*
X147990000Y-76140000D03*
X148990000Y-76140000D03*
X149990000Y-76140000D03*
X150990000Y-76140000D03*
X151990000Y-76140000D03*
X152990000Y-76140000D03*
X153990000Y-76140000D03*
X154990000Y-76140000D03*
X155990000Y-76140000D03*
X156990000Y-76140000D03*
X157990000Y-76140000D03*
D17*
X151125442Y-83395587D03*
X151168325Y-84292744D03*
X150812571Y-86287408D03*
X150814500Y-85708000D03*
D18*
X131977002Y-88300000D03*
D17*
X135640000Y-80000000D03*
X158080000Y-77380000D03*
X153460000Y-96500000D03*
X152310000Y-92650000D03*
X136433862Y-92658642D03*
X128400000Y-77200000D03*
X147290000Y-84740000D03*
X156513290Y-87000000D03*
X136950004Y-98570000D03*
X145520000Y-99169999D03*
X138227572Y-83078029D03*
X137854715Y-85522164D03*
X140570000Y-99270000D03*
X148338000Y-97900000D03*
X150624000Y-98662000D03*
X158498000Y-104504000D03*
X149212820Y-86900438D03*
X136074434Y-89919494D03*
X144040000Y-85605274D03*
X150620000Y-95440000D03*
X150900000Y-88590000D03*
X157640000Y-98770000D03*
X157414375Y-77324375D03*
X135632824Y-80612111D03*
X138165938Y-87125851D03*
X131960000Y-80260000D03*
X148311447Y-86150255D03*
X135450000Y-98920000D03*
X141670597Y-96950000D03*
X147110811Y-97786645D03*
X151206798Y-80330000D03*
X141030000Y-96950000D03*
X139204246Y-97005462D03*
X139017912Y-86299380D03*
X138129241Y-90284550D03*
X147480000Y-87790000D03*
X130489382Y-80460618D03*
X140420000Y-96950000D03*
X142340000Y-96930000D03*
X145819382Y-79919382D03*
X143139948Y-82850052D03*
D18*
X131992997Y-85822969D03*
D17*
X143029381Y-79479383D03*
X145889999Y-82850001D03*
X148020000Y-102400000D03*
X133990312Y-83497138D03*
X134456788Y-83153454D03*
X149354000Y-99170000D03*
X149320000Y-84660000D03*
X134298602Y-86097370D03*
X138522466Y-84641929D03*
X130185617Y-99215619D03*
X134290000Y-85510000D03*
X138070000Y-84280000D03*
X149039990Y-84010010D03*
X129290000Y-99200000D03*
X132610000Y-89800000D03*
X132274378Y-90283240D03*
X135320500Y-99932000D03*
X132253529Y-90862277D03*
X132526504Y-91486500D03*
X149190930Y-88792080D03*
X148840911Y-88330339D03*
X148299302Y-88863494D03*
X147980002Y-88380002D03*
X146248188Y-86203492D03*
X145659587Y-86339274D03*
X145529056Y-85719683D03*
X144798662Y-86382368D03*
X144950000Y-85740000D03*
X143929784Y-86636909D03*
X149400000Y-92090000D03*
X136760000Y-93490000D03*
X135724401Y-90393146D03*
X135213522Y-89729235D03*
X134706272Y-90009263D03*
X134308932Y-90430974D03*
X133914007Y-90854946D03*
X133446595Y-91197355D03*
X145111375Y-96751769D03*
X138450000Y-96930000D03*
X128370000Y-97380000D03*
X135828987Y-93383589D03*
X135828500Y-93963000D03*
X142794849Y-83336818D03*
X142526573Y-82823256D03*
X141952684Y-82743445D03*
X141375513Y-82692539D03*
X140797851Y-82647543D03*
X140206182Y-82642393D03*
X139824162Y-83078029D03*
X141396221Y-85289988D03*
X148300000Y-93250000D03*
X156250000Y-78610030D03*
X156080000Y-79240000D03*
X148391209Y-94474900D03*
X145670230Y-96904730D03*
D19*
X135632825Y-80612157D02*
X135632824Y-80612156D01*
X135632824Y-80612156D02*
X135632824Y-80612111D01*
X153274227Y-77324375D02*
X157414375Y-77324375D01*
X135707001Y-84666914D02*
X138165938Y-87125851D01*
X135707001Y-80653201D02*
X135707001Y-84666914D01*
D20*
X150620000Y-97116738D02*
X150620000Y-95440000D01*
X152273262Y-98770000D02*
X150620000Y-97116738D01*
X157640000Y-98770000D02*
X152273262Y-98770000D01*
X158110000Y-78520000D02*
X158110000Y-79530000D01*
X157414375Y-77824375D02*
X158110000Y-78520000D01*
X157414375Y-77324375D02*
X157414375Y-77824375D01*
D19*
X132990702Y-82431501D02*
X131960000Y-81400799D01*
X131960000Y-81400799D02*
X131960000Y-80260000D01*
X135632824Y-81433798D02*
X134635121Y-82431501D01*
X134635121Y-82431501D02*
X132990702Y-82431501D01*
X135632824Y-80612111D02*
X135632824Y-81433798D01*
X142187347Y-97786645D02*
X147110811Y-97786645D01*
X141670597Y-97269895D02*
X142187347Y-97786645D01*
X141670597Y-96950000D02*
X141670597Y-97269895D01*
X149329037Y-98407701D02*
X147731867Y-98407701D01*
X150620000Y-97116738D02*
X149329037Y-98407701D01*
X147731867Y-98407701D02*
X147110811Y-97786645D01*
X133945378Y-98920000D02*
X135450000Y-98920000D01*
X132780500Y-100084878D02*
X133945378Y-98920000D01*
X132780500Y-100894122D02*
X132780500Y-100084878D01*
X132083121Y-101591501D02*
X132780500Y-100894122D01*
X149329037Y-98407701D02*
X148020500Y-99716238D01*
X148020500Y-99716238D02*
X148020500Y-101011500D01*
X148020500Y-101011500D02*
X147322000Y-101710000D01*
X147322000Y-101710000D02*
X132201620Y-101710000D01*
X132201620Y-101710000D02*
X132083121Y-101591501D01*
X130250000Y-101710000D02*
X129000000Y-100460000D01*
X132201620Y-101710000D02*
X130250000Y-101710000D01*
D20*
X155860089Y-81779911D02*
X158110000Y-79530000D01*
X155860089Y-87660089D02*
X155860089Y-81779911D01*
X156950000Y-88750000D02*
X155860089Y-87660089D01*
X157640000Y-94090000D02*
X156950000Y-93400000D01*
X157640000Y-98770000D02*
X157640000Y-94090000D01*
X156950000Y-93400000D02*
X156950000Y-88750000D01*
X148796483Y-86150255D02*
X148311447Y-86150255D01*
X150033751Y-80402059D02*
X150033751Y-84912987D01*
X153111435Y-77324375D02*
X150033751Y-80402059D01*
X150033751Y-84912987D02*
X148796483Y-86150255D01*
X157414375Y-77324375D02*
X153111435Y-77324375D01*
X150900000Y-87620880D02*
X150033751Y-86754631D01*
X150033751Y-86754631D02*
X150033751Y-84912987D01*
X150900000Y-88590000D02*
X150900000Y-87620880D01*
D19*
X146606606Y-88008490D02*
X139048577Y-88008490D01*
X147969311Y-89371195D02*
X146606606Y-88008490D01*
X139048577Y-88008490D02*
X138392137Y-87352050D01*
X138392137Y-87352050D02*
X138165938Y-87125851D01*
X150118805Y-89371195D02*
X147969311Y-89371195D01*
X150900000Y-88590000D02*
X150118805Y-89371195D01*
D20*
X152620000Y-81743202D02*
X152620000Y-89890000D01*
X151206798Y-80330000D02*
X152620000Y-81743202D01*
X151750000Y-90760000D02*
X151750000Y-90784288D01*
X152620000Y-89890000D02*
X151750000Y-90760000D01*
D19*
X140768386Y-97531509D02*
X141030000Y-97269895D01*
X139410398Y-97531509D02*
X140768386Y-97531509D01*
X141030000Y-97269895D02*
X141030000Y-96950000D01*
X139204246Y-97325357D02*
X139410398Y-97531509D01*
X139204246Y-97005462D02*
X139204246Y-97325357D01*
D20*
X149330000Y-94502847D02*
X147972847Y-95860000D01*
X151750000Y-90760000D02*
X149330000Y-93180000D01*
X149330000Y-93180000D02*
X149330000Y-94502847D01*
X147972847Y-95860000D02*
X142100000Y-95860000D01*
D19*
X141030000Y-96630105D02*
X141030000Y-96950000D01*
X141800105Y-95860000D02*
X141030000Y-96630105D01*
X142100000Y-95860000D02*
X141800105Y-95860000D01*
X138993801Y-86433805D02*
X138993801Y-86323491D01*
X138993801Y-86323491D02*
X139017912Y-86299380D01*
D20*
X138129241Y-94702442D02*
X140376799Y-96950000D01*
X138129241Y-90284550D02*
X138129241Y-94702442D01*
X135882852Y-76440000D02*
X136300000Y-76857148D01*
X130489382Y-77562016D02*
X131611398Y-76440000D01*
X131611398Y-76440000D02*
X135882852Y-76440000D01*
X130489382Y-80460618D02*
X130489382Y-77562016D01*
X136300000Y-77658146D02*
X136300000Y-76857148D01*
X138880773Y-80238919D02*
X136300000Y-77658146D01*
X138880773Y-83391566D02*
X138880773Y-80238919D01*
X140145512Y-87426980D02*
X139017912Y-86299380D01*
X147480000Y-87790000D02*
X147116980Y-87426980D01*
X147116980Y-87426980D02*
X140145512Y-87426980D01*
X139244111Y-83754904D02*
X138880773Y-83391566D01*
X139244111Y-86073181D02*
X139244111Y-83754904D01*
X139017912Y-86299380D02*
X139244111Y-86073181D01*
X134044737Y-84297999D02*
X131907999Y-84297999D01*
X131907999Y-84297999D02*
X130489382Y-82879382D01*
X138129241Y-90284550D02*
X138129241Y-88382503D01*
X130489382Y-82879382D02*
X130489382Y-80460618D01*
X138129241Y-88382503D02*
X134044737Y-84297999D01*
D21*
X143250000Y-82740000D02*
X143139948Y-82850052D01*
D20*
X131992997Y-85822969D02*
X130414979Y-85822969D01*
X130414979Y-85822969D02*
X129002010Y-84410000D01*
X129002010Y-93337990D02*
X129002010Y-84410000D01*
X127502010Y-94837990D02*
X129002010Y-93337990D01*
X129000000Y-103000000D02*
X127550000Y-103000000D01*
X127502010Y-102952010D02*
X127502010Y-94837990D01*
X127550000Y-103000000D02*
X127502010Y-102952010D01*
X139149383Y-79479383D02*
X143029381Y-79479383D01*
X129002010Y-84410000D02*
X129002010Y-77564728D01*
X130891738Y-75675000D02*
X136145999Y-75675000D01*
X137137999Y-76666999D02*
X137137999Y-77467999D01*
X136145999Y-75675000D02*
X137137999Y-76666999D01*
X129002010Y-77564728D02*
X130891738Y-75675000D01*
X137137999Y-77467999D02*
X139149383Y-79479383D01*
X146990000Y-76741040D02*
X146990000Y-76140000D01*
X144251657Y-79479383D02*
X146990000Y-76741040D01*
X143029381Y-79479383D02*
X144251657Y-79479383D01*
X145379383Y-79479383D02*
X144251657Y-79479383D01*
X145819382Y-79919382D02*
X145379383Y-79479383D01*
X145819382Y-82779384D02*
X145889999Y-82850001D01*
X145819382Y-79919382D02*
X145819382Y-82779384D01*
X143274770Y-82850001D02*
X143207384Y-82782615D01*
X145889999Y-82850001D02*
X143274770Y-82850001D01*
D22*
G36*
X158284736Y-94157001D02*
G01*
X158310377Y-94167570D01*
X158335869Y-94178495D01*
X158339950Y-94179759D01*
X158620204Y-94264373D01*
X158647415Y-94269761D01*
X158674539Y-94275526D01*
X158678788Y-94275973D01*
X158694001Y-94277465D01*
X158694000Y-104694000D01*
X127306000Y-104694000D01*
X127306000Y-103471673D01*
X127345812Y-103492953D01*
X127445906Y-103523317D01*
X127523916Y-103531000D01*
X127523925Y-103531000D01*
X127549999Y-103533568D01*
X127576073Y-103531000D01*
X127917883Y-103531000D01*
X127917883Y-103850000D01*
X127922343Y-103895284D01*
X127935552Y-103938827D01*
X127957002Y-103978957D01*
X127985868Y-104014132D01*
X128021043Y-104042998D01*
X128061173Y-104064448D01*
X128104716Y-104077657D01*
X128150000Y-104082117D01*
X129850000Y-104082117D01*
X129895284Y-104077657D01*
X129938827Y-104064448D01*
X129978957Y-104042998D01*
X130014132Y-104014132D01*
X130042998Y-103978957D01*
X130064448Y-103938827D01*
X130077657Y-103895284D01*
X130082117Y-103850000D01*
X130082117Y-103397591D01*
X130161172Y-103397591D01*
X130265232Y-103658947D01*
X130418280Y-103894980D01*
X130614435Y-104096620D01*
X130846159Y-104256118D01*
X131104547Y-104367344D01*
X131142410Y-104378821D01*
X131363000Y-104276537D01*
X131363000Y-103177000D01*
X131717000Y-103177000D01*
X131717000Y-104276537D01*
X131937590Y-104378821D01*
X131975453Y-104367344D01*
X132233841Y-104256118D01*
X132465565Y-104096620D01*
X132661720Y-103894980D01*
X132814768Y-103658947D01*
X132918828Y-103397591D01*
X132817799Y-103177000D01*
X131717000Y-103177000D01*
X131363000Y-103177000D01*
X130262201Y-103177000D01*
X130161172Y-103397591D01*
X130082117Y-103397591D01*
X130082117Y-102150000D01*
X130077657Y-102104716D01*
X130064448Y-102061173D01*
X130054541Y-102042639D01*
X130058716Y-102044870D01*
X130101762Y-102067879D01*
X130174429Y-102089922D01*
X130231064Y-102095500D01*
X130231074Y-102095500D01*
X130250000Y-102097364D01*
X130268926Y-102095500D01*
X130427541Y-102095500D01*
X130418280Y-102105020D01*
X130265232Y-102341053D01*
X130161172Y-102602409D01*
X130262201Y-102823000D01*
X131363000Y-102823000D01*
X131363000Y-102803000D01*
X131717000Y-102803000D01*
X131717000Y-102823000D01*
X132817799Y-102823000D01*
X132918828Y-102602409D01*
X132814768Y-102341053D01*
X132661720Y-102105020D01*
X132652459Y-102095500D01*
X133487933Y-102095500D01*
X133390903Y-102160333D01*
X133240333Y-102310903D01*
X133122031Y-102487955D01*
X133040543Y-102684684D01*
X132999000Y-102893531D01*
X132999000Y-103106469D01*
X133040543Y-103315316D01*
X133122031Y-103512045D01*
X133240333Y-103689097D01*
X133390903Y-103839667D01*
X133567955Y-103957969D01*
X133764684Y-104039457D01*
X133973531Y-104081000D01*
X134186469Y-104081000D01*
X134395316Y-104039457D01*
X134592045Y-103957969D01*
X134769097Y-103839667D01*
X134919667Y-103689097D01*
X135037969Y-103512045D01*
X135119457Y-103315316D01*
X135161000Y-103106469D01*
X135161000Y-102893531D01*
X135119457Y-102684684D01*
X135037969Y-102487955D01*
X134919667Y-102310903D01*
X134769097Y-102160333D01*
X134672067Y-102095500D01*
X136027933Y-102095500D01*
X135930903Y-102160333D01*
X135780333Y-102310903D01*
X135662031Y-102487955D01*
X135580543Y-102684684D01*
X135539000Y-102893531D01*
X135539000Y-103106469D01*
X135580543Y-103315316D01*
X135662031Y-103512045D01*
X135780333Y-103689097D01*
X135930903Y-103839667D01*
X136107955Y-103957969D01*
X136304684Y-104039457D01*
X136513531Y-104081000D01*
X136726469Y-104081000D01*
X136935316Y-104039457D01*
X137132045Y-103957969D01*
X137309097Y-103839667D01*
X137459667Y-103689097D01*
X137577969Y-103512045D01*
X137659457Y-103315316D01*
X137701000Y-103106469D01*
X137701000Y-102893531D01*
X137659457Y-102684684D01*
X137577969Y-102487955D01*
X137459667Y-102310903D01*
X137309097Y-102160333D01*
X137212067Y-102095500D01*
X138567933Y-102095500D01*
X138470903Y-102160333D01*
X138320333Y-102310903D01*
X138202031Y-102487955D01*
X138120543Y-102684684D01*
X138079000Y-102893531D01*
X138079000Y-103106469D01*
X138120543Y-103315316D01*
X138202031Y-103512045D01*
X138320333Y-103689097D01*
X138470903Y-103839667D01*
X138647955Y-103957969D01*
X138844684Y-104039457D01*
X139053531Y-104081000D01*
X139266469Y-104081000D01*
X139475316Y-104039457D01*
X139672045Y-103957969D01*
X139849097Y-103839667D01*
X139999667Y-103689097D01*
X140117969Y-103512045D01*
X140199457Y-103315316D01*
X140241000Y-103106469D01*
X140241000Y-102893531D01*
X140199457Y-102684684D01*
X140117969Y-102487955D01*
X139999667Y-102310903D01*
X139849097Y-102160333D01*
X139752067Y-102095500D01*
X141107933Y-102095500D01*
X141010903Y-102160333D01*
X140860333Y-102310903D01*
X140742031Y-102487955D01*
X140660543Y-102684684D01*
X140619000Y-102893531D01*
X140619000Y-103106469D01*
X140660543Y-103315316D01*
X140742031Y-103512045D01*
X140860333Y-103689097D01*
X141010903Y-103839667D01*
X141187955Y-103957969D01*
X141384684Y-104039457D01*
X141593531Y-104081000D01*
X141806469Y-104081000D01*
X142015316Y-104039457D01*
X142212045Y-103957969D01*
X142389097Y-103839667D01*
X142539667Y-103689097D01*
X142657969Y-103512045D01*
X142739457Y-103315316D01*
X142781000Y-103106469D01*
X142781000Y-102893531D01*
X142739457Y-102684684D01*
X142657969Y-102487955D01*
X142539667Y-102310903D01*
X142389097Y-102160333D01*
X142292067Y-102095500D01*
X143647933Y-102095500D01*
X143550903Y-102160333D01*
X143400333Y-102310903D01*
X143282031Y-102487955D01*
X143200543Y-102684684D01*
X143159000Y-102893531D01*
X143159000Y-103106469D01*
X143200543Y-103315316D01*
X143282031Y-103512045D01*
X143400333Y-103689097D01*
X143550903Y-103839667D01*
X143727955Y-103957969D01*
X143924684Y-104039457D01*
X144133531Y-104081000D01*
X144346469Y-104081000D01*
X144555316Y-104039457D01*
X144752045Y-103957969D01*
X144929097Y-103839667D01*
X145079667Y-103689097D01*
X145197969Y-103512045D01*
X145279457Y-103315316D01*
X145321000Y-103106469D01*
X145321000Y-102893531D01*
X145279457Y-102684684D01*
X145197969Y-102487955D01*
X145079667Y-102310903D01*
X144929097Y-102160333D01*
X144832067Y-102095500D01*
X146187933Y-102095500D01*
X146090903Y-102160333D01*
X145940333Y-102310903D01*
X145822031Y-102487955D01*
X145740543Y-102684684D01*
X145699000Y-102893531D01*
X145699000Y-103106469D01*
X145740543Y-103315316D01*
X145822031Y-103512045D01*
X145940333Y-103689097D01*
X146090903Y-103839667D01*
X146267955Y-103957969D01*
X146464684Y-104039457D01*
X146673531Y-104081000D01*
X146886469Y-104081000D01*
X147095316Y-104039457D01*
X147292045Y-103957969D01*
X147469097Y-103839667D01*
X147619667Y-103689097D01*
X147737969Y-103512045D01*
X147819457Y-103315316D01*
X147861000Y-103106469D01*
X147861000Y-102893531D01*
X147847013Y-102823216D01*
X147886640Y-102839630D01*
X147974970Y-102857200D01*
X148065030Y-102857200D01*
X148153360Y-102839630D01*
X148236565Y-102805165D01*
X148259645Y-102789744D01*
X148239000Y-102893531D01*
X148239000Y-103106469D01*
X148280543Y-103315316D01*
X148362031Y-103512045D01*
X148480333Y-103689097D01*
X148630903Y-103839667D01*
X148807955Y-103957969D01*
X149004684Y-104039457D01*
X149213531Y-104081000D01*
X149426469Y-104081000D01*
X149635316Y-104039457D01*
X149832045Y-103957969D01*
X150009097Y-103839667D01*
X150159667Y-103689097D01*
X150277969Y-103512045D01*
X150359457Y-103315316D01*
X150401000Y-103106469D01*
X150401000Y-102893531D01*
X150779000Y-102893531D01*
X150779000Y-103106469D01*
X150820543Y-103315316D01*
X150902031Y-103512045D01*
X151020333Y-103689097D01*
X151170903Y-103839667D01*
X151347955Y-103957969D01*
X151544684Y-104039457D01*
X151753531Y-104081000D01*
X151966469Y-104081000D01*
X152175316Y-104039457D01*
X152372045Y-103957969D01*
X152549097Y-103839667D01*
X152699667Y-103689097D01*
X152817969Y-103512045D01*
X152899457Y-103315316D01*
X152941000Y-103106469D01*
X152941000Y-102893531D01*
X153319000Y-102893531D01*
X153319000Y-103106469D01*
X153360543Y-103315316D01*
X153442031Y-103512045D01*
X153560333Y-103689097D01*
X153710903Y-103839667D01*
X153887955Y-103957969D01*
X154084684Y-104039457D01*
X154293531Y-104081000D01*
X154506469Y-104081000D01*
X154715316Y-104039457D01*
X154912045Y-103957969D01*
X155089097Y-103839667D01*
X155239667Y-103689097D01*
X155357969Y-103512045D01*
X155439457Y-103315316D01*
X155481000Y-103106469D01*
X155481000Y-102893531D01*
X155859000Y-102893531D01*
X155859000Y-103106469D01*
X155900543Y-103315316D01*
X155982031Y-103512045D01*
X156100333Y-103689097D01*
X156250903Y-103839667D01*
X156427955Y-103957969D01*
X156624684Y-104039457D01*
X156833531Y-104081000D01*
X157046469Y-104081000D01*
X157255316Y-104039457D01*
X157452045Y-103957969D01*
X157629097Y-103839667D01*
X157779667Y-103689097D01*
X157897969Y-103512045D01*
X157979457Y-103315316D01*
X158021000Y-103106469D01*
X158021000Y-102893531D01*
X157979457Y-102684684D01*
X157897969Y-102487955D01*
X157779667Y-102310903D01*
X157629097Y-102160333D01*
X157452045Y-102042031D01*
X157255316Y-101960543D01*
X157046469Y-101919000D01*
X156833531Y-101919000D01*
X156624684Y-101960543D01*
X156427955Y-102042031D01*
X156250903Y-102160333D01*
X156100333Y-102310903D01*
X155982031Y-102487955D01*
X155900543Y-102684684D01*
X155859000Y-102893531D01*
X155481000Y-102893531D01*
X155439457Y-102684684D01*
X155357969Y-102487955D01*
X155239667Y-102310903D01*
X155089097Y-102160333D01*
X154912045Y-102042031D01*
X154715316Y-101960543D01*
X154506469Y-101919000D01*
X154293531Y-101919000D01*
X154084684Y-101960543D01*
X153887955Y-102042031D01*
X153710903Y-102160333D01*
X153560333Y-102310903D01*
X153442031Y-102487955D01*
X153360543Y-102684684D01*
X153319000Y-102893531D01*
X152941000Y-102893531D01*
X152899457Y-102684684D01*
X152817969Y-102487955D01*
X152699667Y-102310903D01*
X152549097Y-102160333D01*
X152372045Y-102042031D01*
X152175316Y-101960543D01*
X151966469Y-101919000D01*
X151753531Y-101919000D01*
X151544684Y-101960543D01*
X151347955Y-102042031D01*
X151170903Y-102160333D01*
X151020333Y-102310903D01*
X150902031Y-102487955D01*
X150820543Y-102684684D01*
X150779000Y-102893531D01*
X150401000Y-102893531D01*
X150359457Y-102684684D01*
X150277969Y-102487955D01*
X150159667Y-102310903D01*
X150009097Y-102160333D01*
X149832045Y-102042031D01*
X149635316Y-101960543D01*
X149426469Y-101919000D01*
X149213531Y-101919000D01*
X149004684Y-101960543D01*
X148807955Y-102042031D01*
X148630903Y-102160333D01*
X148480333Y-102310903D01*
X148471164Y-102324625D01*
X148459630Y-102266640D01*
X148425165Y-102183435D01*
X148375130Y-102108552D01*
X148311448Y-102044870D01*
X148236565Y-101994835D01*
X148153360Y-101960370D01*
X148065030Y-101942800D01*
X147974970Y-101942800D01*
X147886640Y-101960370D01*
X147803435Y-101994835D01*
X147728552Y-102044870D01*
X147664870Y-102108552D01*
X147614835Y-102183435D01*
X147580370Y-102266640D01*
X147579546Y-102270782D01*
X147469097Y-102160333D01*
X147368068Y-102092828D01*
X147397571Y-102089922D01*
X147470238Y-102067879D01*
X147537208Y-102032082D01*
X147595908Y-101983908D01*
X147607981Y-101969197D01*
X148279707Y-101297472D01*
X148294408Y-101285408D01*
X148306472Y-101270708D01*
X148306479Y-101270701D01*
X148342582Y-101226709D01*
X148361716Y-101190912D01*
X148378379Y-101159738D01*
X148400422Y-101087071D01*
X148405364Y-101036897D01*
X148480333Y-101149097D01*
X148630903Y-101299667D01*
X148807955Y-101417969D01*
X149004684Y-101499457D01*
X149213531Y-101541000D01*
X149426469Y-101541000D01*
X149635316Y-101499457D01*
X149832045Y-101417969D01*
X150009097Y-101299667D01*
X150159667Y-101149097D01*
X150277969Y-100972045D01*
X150359457Y-100775316D01*
X150401000Y-100566469D01*
X150401000Y-100353531D01*
X150779000Y-100353531D01*
X150779000Y-100566469D01*
X150820543Y-100775316D01*
X150902031Y-100972045D01*
X151020333Y-101149097D01*
X151170903Y-101299667D01*
X151347955Y-101417969D01*
X151544684Y-101499457D01*
X151753531Y-101541000D01*
X151966469Y-101541000D01*
X152175316Y-101499457D01*
X152372045Y-101417969D01*
X152549097Y-101299667D01*
X152699667Y-101149097D01*
X152817969Y-100972045D01*
X152899457Y-100775316D01*
X152941000Y-100566469D01*
X152941000Y-100353531D01*
X153319000Y-100353531D01*
X153319000Y-100566469D01*
X153360543Y-100775316D01*
X153442031Y-100972045D01*
X153560333Y-101149097D01*
X153710903Y-101299667D01*
X153887955Y-101417969D01*
X154084684Y-101499457D01*
X154293531Y-101541000D01*
X154506469Y-101541000D01*
X154715316Y-101499457D01*
X154912045Y-101417969D01*
X155089097Y-101299667D01*
X155239667Y-101149097D01*
X155357969Y-100972045D01*
X155439457Y-100775316D01*
X155481000Y-100566469D01*
X155481000Y-100353531D01*
X155859000Y-100353531D01*
X155859000Y-100566469D01*
X155900543Y-100775316D01*
X155982031Y-100972045D01*
X156100333Y-101149097D01*
X156250903Y-101299667D01*
X156427955Y-101417969D01*
X156624684Y-101499457D01*
X156833531Y-101541000D01*
X157046469Y-101541000D01*
X157255316Y-101499457D01*
X157452045Y-101417969D01*
X157629097Y-101299667D01*
X157779667Y-101149097D01*
X157897969Y-100972045D01*
X157979457Y-100775316D01*
X158021000Y-100566469D01*
X158021000Y-100353531D01*
X157979457Y-100144684D01*
X157897969Y-99947955D01*
X157779667Y-99770903D01*
X157629097Y-99620333D01*
X157452045Y-99502031D01*
X157255316Y-99420543D01*
X157046469Y-99379000D01*
X156833531Y-99379000D01*
X156624684Y-99420543D01*
X156427955Y-99502031D01*
X156250903Y-99620333D01*
X156100333Y-99770903D01*
X155982031Y-99947955D01*
X155900543Y-100144684D01*
X155859000Y-100353531D01*
X155481000Y-100353531D01*
X155439457Y-100144684D01*
X155357969Y-99947955D01*
X155239667Y-99770903D01*
X155089097Y-99620333D01*
X154912045Y-99502031D01*
X154715316Y-99420543D01*
X154506469Y-99379000D01*
X154293531Y-99379000D01*
X154084684Y-99420543D01*
X153887955Y-99502031D01*
X153710903Y-99620333D01*
X153560333Y-99770903D01*
X153442031Y-99947955D01*
X153360543Y-100144684D01*
X153319000Y-100353531D01*
X152941000Y-100353531D01*
X152899457Y-100144684D01*
X152817969Y-99947955D01*
X152699667Y-99770903D01*
X152549097Y-99620333D01*
X152372045Y-99502031D01*
X152175316Y-99420543D01*
X151966469Y-99379000D01*
X151753531Y-99379000D01*
X151544684Y-99420543D01*
X151347955Y-99502031D01*
X151170903Y-99620333D01*
X151020333Y-99770903D01*
X150902031Y-99947955D01*
X150820543Y-100144684D01*
X150779000Y-100353531D01*
X150401000Y-100353531D01*
X150359457Y-100144684D01*
X150277969Y-99947955D01*
X150159667Y-99770903D01*
X150009097Y-99620333D01*
X149832045Y-99502031D01*
X149714536Y-99453357D01*
X149759165Y-99386565D01*
X149793630Y-99303360D01*
X149811200Y-99215030D01*
X149811200Y-99124970D01*
X149793630Y-99036640D01*
X149759165Y-98953435D01*
X149709130Y-98878552D01*
X149645448Y-98814870D01*
X149570565Y-98764835D01*
X149532747Y-98749170D01*
X149588239Y-98693678D01*
X149602945Y-98681609D01*
X149615016Y-98666901D01*
X149615020Y-98666896D01*
X150517117Y-97764801D01*
X151879350Y-99127036D01*
X151895972Y-99147290D01*
X151916226Y-99163912D01*
X151916232Y-99163918D01*
X151976826Y-99213646D01*
X152069074Y-99262953D01*
X152169168Y-99293317D01*
X152247178Y-99301000D01*
X152247188Y-99301000D01*
X152273262Y-99303568D01*
X152299336Y-99301000D01*
X157613916Y-99301000D01*
X157640000Y-99303569D01*
X157666084Y-99301000D01*
X157744094Y-99293317D01*
X157844188Y-99262953D01*
X157936435Y-99213646D01*
X158017290Y-99147290D01*
X158083646Y-99066435D01*
X158132953Y-98974188D01*
X158163317Y-98874094D01*
X158173569Y-98770000D01*
X158171000Y-98743916D01*
X158171000Y-94116073D01*
X158172829Y-94097499D01*
X158284736Y-94157001D01*
G37*
X158284736Y-94157001D02*
X158310377Y-94167570D01*
X158335869Y-94178495D01*
X158339950Y-94179759D01*
X158620204Y-94264373D01*
X158647415Y-94269761D01*
X158674539Y-94275526D01*
X158678788Y-94275973D01*
X158694001Y-94277465D01*
X158694000Y-104694000D01*
X127306000Y-104694000D01*
X127306000Y-103471673D01*
X127345812Y-103492953D01*
X127445906Y-103523317D01*
X127523916Y-103531000D01*
X127523925Y-103531000D01*
X127549999Y-103533568D01*
X127576073Y-103531000D01*
X127917883Y-103531000D01*
X127917883Y-103850000D01*
X127922343Y-103895284D01*
X127935552Y-103938827D01*
X127957002Y-103978957D01*
X127985868Y-104014132D01*
X128021043Y-104042998D01*
X128061173Y-104064448D01*
X128104716Y-104077657D01*
X128150000Y-104082117D01*
X129850000Y-104082117D01*
X129895284Y-104077657D01*
X129938827Y-104064448D01*
X129978957Y-104042998D01*
X130014132Y-104014132D01*
X130042998Y-103978957D01*
X130064448Y-103938827D01*
X130077657Y-103895284D01*
X130082117Y-103850000D01*
X130082117Y-103397591D01*
X130161172Y-103397591D01*
X130265232Y-103658947D01*
X130418280Y-103894980D01*
X130614435Y-104096620D01*
X130846159Y-104256118D01*
X131104547Y-104367344D01*
X131142410Y-104378821D01*
X131363000Y-104276537D01*
X131363000Y-103177000D01*
X131717000Y-103177000D01*
X131717000Y-104276537D01*
X131937590Y-104378821D01*
X131975453Y-104367344D01*
X132233841Y-104256118D01*
X132465565Y-104096620D01*
X132661720Y-103894980D01*
X132814768Y-103658947D01*
X132918828Y-103397591D01*
X132817799Y-103177000D01*
X131717000Y-103177000D01*
X131363000Y-103177000D01*
X130262201Y-103177000D01*
X130161172Y-103397591D01*
X130082117Y-103397591D01*
X130082117Y-102150000D01*
X130077657Y-102104716D01*
X130064448Y-102061173D01*
X130054541Y-102042639D01*
X130058716Y-102044870D01*
X130101762Y-102067879D01*
X130174429Y-102089922D01*
X130231064Y-102095500D01*
X130231074Y-102095500D01*
X130250000Y-102097364D01*
X130268926Y-102095500D01*
X130427541Y-102095500D01*
X130418280Y-102105020D01*
X130265232Y-102341053D01*
X130161172Y-102602409D01*
X130262201Y-102823000D01*
X131363000Y-102823000D01*
X131363000Y-102803000D01*
X131717000Y-102803000D01*
X131717000Y-102823000D01*
X132817799Y-102823000D01*
X132918828Y-102602409D01*
X132814768Y-102341053D01*
X132661720Y-102105020D01*
X132652459Y-102095500D01*
X133487933Y-102095500D01*
X133390903Y-102160333D01*
X133240333Y-102310903D01*
X133122031Y-102487955D01*
X133040543Y-102684684D01*
X132999000Y-102893531D01*
X132999000Y-103106469D01*
X133040543Y-103315316D01*
X133122031Y-103512045D01*
X133240333Y-103689097D01*
X133390903Y-103839667D01*
X133567955Y-103957969D01*
X133764684Y-104039457D01*
X133973531Y-104081000D01*
X134186469Y-104081000D01*
X134395316Y-104039457D01*
X134592045Y-103957969D01*
X134769097Y-103839667D01*
X134919667Y-103689097D01*
X135037969Y-103512045D01*
X135119457Y-103315316D01*
X135161000Y-103106469D01*
X135161000Y-102893531D01*
X135119457Y-102684684D01*
X135037969Y-102487955D01*
X134919667Y-102310903D01*
X134769097Y-102160333D01*
X134672067Y-102095500D01*
X136027933Y-102095500D01*
X135930903Y-102160333D01*
X135780333Y-102310903D01*
X135662031Y-102487955D01*
X135580543Y-102684684D01*
X135539000Y-102893531D01*
X135539000Y-103106469D01*
X135580543Y-103315316D01*
X135662031Y-103512045D01*
X135780333Y-103689097D01*
X135930903Y-103839667D01*
X136107955Y-103957969D01*
X136304684Y-104039457D01*
X136513531Y-104081000D01*
X136726469Y-104081000D01*
X136935316Y-104039457D01*
X137132045Y-103957969D01*
X137309097Y-103839667D01*
X137459667Y-103689097D01*
X137577969Y-103512045D01*
X137659457Y-103315316D01*
X137701000Y-103106469D01*
X137701000Y-102893531D01*
X137659457Y-102684684D01*
X137577969Y-102487955D01*
X137459667Y-102310903D01*
X137309097Y-102160333D01*
X137212067Y-102095500D01*
X138567933Y-102095500D01*
X138470903Y-102160333D01*
X138320333Y-102310903D01*
X138202031Y-102487955D01*
X138120543Y-102684684D01*
X138079000Y-102893531D01*
X138079000Y-103106469D01*
X138120543Y-103315316D01*
X138202031Y-103512045D01*
X138320333Y-103689097D01*
X138470903Y-103839667D01*
X138647955Y-103957969D01*
X138844684Y-104039457D01*
X139053531Y-104081000D01*
X139266469Y-104081000D01*
X139475316Y-104039457D01*
X139672045Y-103957969D01*
X139849097Y-103839667D01*
X139999667Y-103689097D01*
X140117969Y-103512045D01*
X140199457Y-103315316D01*
X140241000Y-103106469D01*
X140241000Y-102893531D01*
X140199457Y-102684684D01*
X140117969Y-102487955D01*
X139999667Y-102310903D01*
X139849097Y-102160333D01*
X139752067Y-102095500D01*
X141107933Y-102095500D01*
X141010903Y-102160333D01*
X140860333Y-102310903D01*
X140742031Y-102487955D01*
X140660543Y-102684684D01*
X140619000Y-102893531D01*
X140619000Y-103106469D01*
X140660543Y-103315316D01*
X140742031Y-103512045D01*
X140860333Y-103689097D01*
X141010903Y-103839667D01*
X141187955Y-103957969D01*
X141384684Y-104039457D01*
X141593531Y-104081000D01*
X141806469Y-104081000D01*
X142015316Y-104039457D01*
X142212045Y-103957969D01*
X142389097Y-103839667D01*
X142539667Y-103689097D01*
X142657969Y-103512045D01*
X142739457Y-103315316D01*
X142781000Y-103106469D01*
X142781000Y-102893531D01*
X142739457Y-102684684D01*
X142657969Y-102487955D01*
X142539667Y-102310903D01*
X142389097Y-102160333D01*
X142292067Y-102095500D01*
X143647933Y-102095500D01*
X143550903Y-102160333D01*
X143400333Y-102310903D01*
X143282031Y-102487955D01*
X143200543Y-102684684D01*
X143159000Y-102893531D01*
X143159000Y-103106469D01*
X143200543Y-103315316D01*
X143282031Y-103512045D01*
X143400333Y-103689097D01*
X143550903Y-103839667D01*
X143727955Y-103957969D01*
X143924684Y-104039457D01*
X144133531Y-104081000D01*
X144346469Y-104081000D01*
X144555316Y-104039457D01*
X144752045Y-103957969D01*
X144929097Y-103839667D01*
X145079667Y-103689097D01*
X145197969Y-103512045D01*
X145279457Y-103315316D01*
X145321000Y-103106469D01*
X145321000Y-102893531D01*
X145279457Y-102684684D01*
X145197969Y-102487955D01*
X145079667Y-102310903D01*
X144929097Y-102160333D01*
X144832067Y-102095500D01*
X146187933Y-102095500D01*
X146090903Y-102160333D01*
X145940333Y-102310903D01*
X145822031Y-102487955D01*
X145740543Y-102684684D01*
X145699000Y-102893531D01*
X145699000Y-103106469D01*
X145740543Y-103315316D01*
X145822031Y-103512045D01*
X145940333Y-103689097D01*
X146090903Y-103839667D01*
X146267955Y-103957969D01*
X146464684Y-104039457D01*
X146673531Y-104081000D01*
X146886469Y-104081000D01*
X147095316Y-104039457D01*
X147292045Y-103957969D01*
X147469097Y-103839667D01*
X147619667Y-103689097D01*
X147737969Y-103512045D01*
X147819457Y-103315316D01*
X147861000Y-103106469D01*
X147861000Y-102893531D01*
X147847013Y-102823216D01*
X147886640Y-102839630D01*
X147974970Y-102857200D01*
X148065030Y-102857200D01*
X148153360Y-102839630D01*
X148236565Y-102805165D01*
X148259645Y-102789744D01*
X148239000Y-102893531D01*
X148239000Y-103106469D01*
X148280543Y-103315316D01*
X148362031Y-103512045D01*
X148480333Y-103689097D01*
X148630903Y-103839667D01*
X148807955Y-103957969D01*
X149004684Y-104039457D01*
X149213531Y-104081000D01*
X149426469Y-104081000D01*
X149635316Y-104039457D01*
X149832045Y-103957969D01*
X150009097Y-103839667D01*
X150159667Y-103689097D01*
X150277969Y-103512045D01*
X150359457Y-103315316D01*
X150401000Y-103106469D01*
X150401000Y-102893531D01*
X150779000Y-102893531D01*
X150779000Y-103106469D01*
X150820543Y-103315316D01*
X150902031Y-103512045D01*
X151020333Y-103689097D01*
X151170903Y-103839667D01*
X151347955Y-103957969D01*
X151544684Y-104039457D01*
X151753531Y-104081000D01*
X151966469Y-104081000D01*
X152175316Y-104039457D01*
X152372045Y-103957969D01*
X152549097Y-103839667D01*
X152699667Y-103689097D01*
X152817969Y-103512045D01*
X152899457Y-103315316D01*
X152941000Y-103106469D01*
X152941000Y-102893531D01*
X153319000Y-102893531D01*
X153319000Y-103106469D01*
X153360543Y-103315316D01*
X153442031Y-103512045D01*
X153560333Y-103689097D01*
X153710903Y-103839667D01*
X153887955Y-103957969D01*
X154084684Y-104039457D01*
X154293531Y-104081000D01*
X154506469Y-104081000D01*
X154715316Y-104039457D01*
X154912045Y-103957969D01*
X155089097Y-103839667D01*
X155239667Y-103689097D01*
X155357969Y-103512045D01*
X155439457Y-103315316D01*
X155481000Y-103106469D01*
X155481000Y-102893531D01*
X155859000Y-102893531D01*
X155859000Y-103106469D01*
X155900543Y-103315316D01*
X155982031Y-103512045D01*
X156100333Y-103689097D01*
X156250903Y-103839667D01*
X156427955Y-103957969D01*
X156624684Y-104039457D01*
X156833531Y-104081000D01*
X157046469Y-104081000D01*
X157255316Y-104039457D01*
X157452045Y-103957969D01*
X157629097Y-103839667D01*
X157779667Y-103689097D01*
X157897969Y-103512045D01*
X157979457Y-103315316D01*
X158021000Y-103106469D01*
X158021000Y-102893531D01*
X157979457Y-102684684D01*
X157897969Y-102487955D01*
X157779667Y-102310903D01*
X157629097Y-102160333D01*
X157452045Y-102042031D01*
X157255316Y-101960543D01*
X157046469Y-101919000D01*
X156833531Y-101919000D01*
X156624684Y-101960543D01*
X156427955Y-102042031D01*
X156250903Y-102160333D01*
X156100333Y-102310903D01*
X155982031Y-102487955D01*
X155900543Y-102684684D01*
X155859000Y-102893531D01*
X155481000Y-102893531D01*
X155439457Y-102684684D01*
X155357969Y-102487955D01*
X155239667Y-102310903D01*
X155089097Y-102160333D01*
X154912045Y-102042031D01*
X154715316Y-101960543D01*
X154506469Y-101919000D01*
X154293531Y-101919000D01*
X154084684Y-101960543D01*
X153887955Y-102042031D01*
X153710903Y-102160333D01*
X153560333Y-102310903D01*
X153442031Y-102487955D01*
X153360543Y-102684684D01*
X153319000Y-102893531D01*
X152941000Y-102893531D01*
X152899457Y-102684684D01*
X152817969Y-102487955D01*
X152699667Y-102310903D01*
X152549097Y-102160333D01*
X152372045Y-102042031D01*
X152175316Y-101960543D01*
X151966469Y-101919000D01*
X151753531Y-101919000D01*
X151544684Y-101960543D01*
X151347955Y-102042031D01*
X151170903Y-102160333D01*
X151020333Y-102310903D01*
X150902031Y-102487955D01*
X150820543Y-102684684D01*
X150779000Y-102893531D01*
X150401000Y-102893531D01*
X150359457Y-102684684D01*
X150277969Y-102487955D01*
X150159667Y-102310903D01*
X150009097Y-102160333D01*
X149832045Y-102042031D01*
X149635316Y-101960543D01*
X149426469Y-101919000D01*
X149213531Y-101919000D01*
X149004684Y-101960543D01*
X148807955Y-102042031D01*
X148630903Y-102160333D01*
X148480333Y-102310903D01*
X148471164Y-102324625D01*
X148459630Y-102266640D01*
X148425165Y-102183435D01*
X148375130Y-102108552D01*
X148311448Y-102044870D01*
X148236565Y-101994835D01*
X148153360Y-101960370D01*
X148065030Y-101942800D01*
X147974970Y-101942800D01*
X147886640Y-101960370D01*
X147803435Y-101994835D01*
X147728552Y-102044870D01*
X147664870Y-102108552D01*
X147614835Y-102183435D01*
X147580370Y-102266640D01*
X147579546Y-102270782D01*
X147469097Y-102160333D01*
X147368068Y-102092828D01*
X147397571Y-102089922D01*
X147470238Y-102067879D01*
X147537208Y-102032082D01*
X147595908Y-101983908D01*
X147607981Y-101969197D01*
X148279707Y-101297472D01*
X148294408Y-101285408D01*
X148306472Y-101270708D01*
X148306479Y-101270701D01*
X148342582Y-101226709D01*
X148361716Y-101190912D01*
X148378379Y-101159738D01*
X148400422Y-101087071D01*
X148405364Y-101036897D01*
X148480333Y-101149097D01*
X148630903Y-101299667D01*
X148807955Y-101417969D01*
X149004684Y-101499457D01*
X149213531Y-101541000D01*
X149426469Y-101541000D01*
X149635316Y-101499457D01*
X149832045Y-101417969D01*
X150009097Y-101299667D01*
X150159667Y-101149097D01*
X150277969Y-100972045D01*
X150359457Y-100775316D01*
X150401000Y-100566469D01*
X150401000Y-100353531D01*
X150779000Y-100353531D01*
X150779000Y-100566469D01*
X150820543Y-100775316D01*
X150902031Y-100972045D01*
X151020333Y-101149097D01*
X151170903Y-101299667D01*
X151347955Y-101417969D01*
X151544684Y-101499457D01*
X151753531Y-101541000D01*
X151966469Y-101541000D01*
X152175316Y-101499457D01*
X152372045Y-101417969D01*
X152549097Y-101299667D01*
X152699667Y-101149097D01*
X152817969Y-100972045D01*
X152899457Y-100775316D01*
X152941000Y-100566469D01*
X152941000Y-100353531D01*
X153319000Y-100353531D01*
X153319000Y-100566469D01*
X153360543Y-100775316D01*
X153442031Y-100972045D01*
X153560333Y-101149097D01*
X153710903Y-101299667D01*
X153887955Y-101417969D01*
X154084684Y-101499457D01*
X154293531Y-101541000D01*
X154506469Y-101541000D01*
X154715316Y-101499457D01*
X154912045Y-101417969D01*
X155089097Y-101299667D01*
X155239667Y-101149097D01*
X155357969Y-100972045D01*
X155439457Y-100775316D01*
X155481000Y-100566469D01*
X155481000Y-100353531D01*
X155859000Y-100353531D01*
X155859000Y-100566469D01*
X155900543Y-100775316D01*
X155982031Y-100972045D01*
X156100333Y-101149097D01*
X156250903Y-101299667D01*
X156427955Y-101417969D01*
X156624684Y-101499457D01*
X156833531Y-101541000D01*
X157046469Y-101541000D01*
X157255316Y-101499457D01*
X157452045Y-101417969D01*
X157629097Y-101299667D01*
X157779667Y-101149097D01*
X157897969Y-100972045D01*
X157979457Y-100775316D01*
X158021000Y-100566469D01*
X158021000Y-100353531D01*
X157979457Y-100144684D01*
X157897969Y-99947955D01*
X157779667Y-99770903D01*
X157629097Y-99620333D01*
X157452045Y-99502031D01*
X157255316Y-99420543D01*
X157046469Y-99379000D01*
X156833531Y-99379000D01*
X156624684Y-99420543D01*
X156427955Y-99502031D01*
X156250903Y-99620333D01*
X156100333Y-99770903D01*
X155982031Y-99947955D01*
X155900543Y-100144684D01*
X155859000Y-100353531D01*
X155481000Y-100353531D01*
X155439457Y-100144684D01*
X155357969Y-99947955D01*
X155239667Y-99770903D01*
X155089097Y-99620333D01*
X154912045Y-99502031D01*
X154715316Y-99420543D01*
X154506469Y-99379000D01*
X154293531Y-99379000D01*
X154084684Y-99420543D01*
X153887955Y-99502031D01*
X153710903Y-99620333D01*
X153560333Y-99770903D01*
X153442031Y-99947955D01*
X153360543Y-100144684D01*
X153319000Y-100353531D01*
X152941000Y-100353531D01*
X152899457Y-100144684D01*
X152817969Y-99947955D01*
X152699667Y-99770903D01*
X152549097Y-99620333D01*
X152372045Y-99502031D01*
X152175316Y-99420543D01*
X151966469Y-99379000D01*
X151753531Y-99379000D01*
X151544684Y-99420543D01*
X151347955Y-99502031D01*
X151170903Y-99620333D01*
X151020333Y-99770903D01*
X150902031Y-99947955D01*
X150820543Y-100144684D01*
X150779000Y-100353531D01*
X150401000Y-100353531D01*
X150359457Y-100144684D01*
X150277969Y-99947955D01*
X150159667Y-99770903D01*
X150009097Y-99620333D01*
X149832045Y-99502031D01*
X149714536Y-99453357D01*
X149759165Y-99386565D01*
X149793630Y-99303360D01*
X149811200Y-99215030D01*
X149811200Y-99124970D01*
X149793630Y-99036640D01*
X149759165Y-98953435D01*
X149709130Y-98878552D01*
X149645448Y-98814870D01*
X149570565Y-98764835D01*
X149532747Y-98749170D01*
X149588239Y-98693678D01*
X149602945Y-98681609D01*
X149615016Y-98666901D01*
X149615020Y-98666896D01*
X150517117Y-97764801D01*
X151879350Y-99127036D01*
X151895972Y-99147290D01*
X151916226Y-99163912D01*
X151916232Y-99163918D01*
X151976826Y-99213646D01*
X152069074Y-99262953D01*
X152169168Y-99293317D01*
X152247178Y-99301000D01*
X152247188Y-99301000D01*
X152273262Y-99303568D01*
X152299336Y-99301000D01*
X157613916Y-99301000D01*
X157640000Y-99303569D01*
X157666084Y-99301000D01*
X157744094Y-99293317D01*
X157844188Y-99262953D01*
X157936435Y-99213646D01*
X158017290Y-99147290D01*
X158083646Y-99066435D01*
X158132953Y-98974188D01*
X158163317Y-98874094D01*
X158173569Y-98770000D01*
X158171000Y-98743916D01*
X158171000Y-94116073D01*
X158172829Y-94097499D01*
X158284736Y-94157001D01*
G36*
X134092663Y-85096871D02*
G01*
X134073435Y-85104835D01*
X133998552Y-85154870D01*
X133934870Y-85218552D01*
X133884835Y-85293435D01*
X133850370Y-85376640D01*
X133832800Y-85464970D01*
X133832800Y-85555030D01*
X133850370Y-85643360D01*
X133884835Y-85726565D01*
X133934870Y-85801448D01*
X133941819Y-85808397D01*
X133893437Y-85880805D01*
X133858972Y-85964010D01*
X133841402Y-86052340D01*
X133841402Y-86142400D01*
X133858972Y-86230730D01*
X133893437Y-86313935D01*
X133943472Y-86388818D01*
X134007154Y-86452500D01*
X134082037Y-86502535D01*
X134165242Y-86537000D01*
X134253572Y-86554570D01*
X134343632Y-86554570D01*
X134431962Y-86537000D01*
X134515167Y-86502535D01*
X134590050Y-86452500D01*
X134653732Y-86388818D01*
X134703767Y-86313935D01*
X134738232Y-86230730D01*
X134755802Y-86142400D01*
X134755802Y-86052340D01*
X134738232Y-85964010D01*
X134703767Y-85880805D01*
X134653732Y-85805922D01*
X134646783Y-85798973D01*
X134695165Y-85726565D01*
X134703129Y-85707338D01*
X137598242Y-88602451D01*
X137598241Y-90258466D01*
X137598241Y-90258467D01*
X137598242Y-94676358D01*
X137595673Y-94702442D01*
X137605925Y-94806535D01*
X137636288Y-94906629D01*
X137685595Y-94998877D01*
X137735324Y-95059471D01*
X137751952Y-95079732D01*
X137772212Y-95096359D01*
X139224114Y-96548262D01*
X139159216Y-96548262D01*
X139070886Y-96565832D01*
X138987681Y-96600297D01*
X138912798Y-96650332D01*
X138852974Y-96710156D01*
X138805130Y-96638552D01*
X138741448Y-96574870D01*
X138666565Y-96524835D01*
X138583360Y-96490370D01*
X138495030Y-96472800D01*
X138404970Y-96472800D01*
X138316640Y-96490370D01*
X138233435Y-96524835D01*
X138158552Y-96574870D01*
X138094870Y-96638552D01*
X138044835Y-96713435D01*
X138010370Y-96796640D01*
X137992800Y-96884970D01*
X137992800Y-96975030D01*
X138010370Y-97063360D01*
X138044835Y-97146565D01*
X138094870Y-97221448D01*
X138158552Y-97285130D01*
X138233435Y-97335165D01*
X138316640Y-97369630D01*
X138404970Y-97387200D01*
X138495030Y-97387200D01*
X138583360Y-97369630D01*
X138666565Y-97335165D01*
X138741448Y-97285130D01*
X138801272Y-97225306D01*
X138818746Y-97251458D01*
X138818746Y-97306431D01*
X138816882Y-97325357D01*
X138818746Y-97344283D01*
X138818746Y-97344293D01*
X138824324Y-97400928D01*
X138846367Y-97473595D01*
X138864266Y-97507080D01*
X138882164Y-97540565D01*
X138918267Y-97584556D01*
X138918270Y-97584559D01*
X138930339Y-97599265D01*
X138945045Y-97611334D01*
X139124417Y-97790706D01*
X139136490Y-97805417D01*
X139195190Y-97853591D01*
X139262160Y-97889388D01*
X139334827Y-97911431D01*
X139391462Y-97917009D01*
X139391472Y-97917009D01*
X139410398Y-97918873D01*
X139429324Y-97917009D01*
X140749460Y-97917009D01*
X140768386Y-97918873D01*
X140787312Y-97917009D01*
X140787322Y-97917009D01*
X140843957Y-97911431D01*
X140916624Y-97889388D01*
X140983594Y-97853591D01*
X141042294Y-97805417D01*
X141054367Y-97790706D01*
X141289203Y-97555871D01*
X141303908Y-97543803D01*
X141315979Y-97529095D01*
X141350299Y-97487277D01*
X141384618Y-97529094D01*
X141384619Y-97529095D01*
X141396690Y-97543803D01*
X141411395Y-97555871D01*
X141901370Y-98045847D01*
X141913439Y-98060553D01*
X141928145Y-98072622D01*
X141928147Y-98072624D01*
X141972138Y-98108727D01*
X141996450Y-98121722D01*
X142039109Y-98144524D01*
X142111776Y-98166567D01*
X142168411Y-98172145D01*
X142168421Y-98172145D01*
X142187347Y-98174009D01*
X142206273Y-98172145D01*
X146864815Y-98172145D01*
X146894246Y-98191810D01*
X146977451Y-98226275D01*
X147012168Y-98233181D01*
X147445888Y-98666901D01*
X147457959Y-98681609D01*
X147472665Y-98693678D01*
X147472667Y-98693680D01*
X147516658Y-98729783D01*
X147552455Y-98748917D01*
X147583629Y-98765580D01*
X147656296Y-98787623D01*
X147712931Y-98793201D01*
X147712941Y-98793201D01*
X147731867Y-98795065D01*
X147750793Y-98793201D01*
X148398359Y-98793201D01*
X147761303Y-99430257D01*
X147746592Y-99442330D01*
X147727517Y-99465573D01*
X147698418Y-99501030D01*
X147684625Y-99526835D01*
X147662621Y-99568001D01*
X147640578Y-99640668D01*
X147635000Y-99697303D01*
X147635000Y-99697312D01*
X147633136Y-99716238D01*
X147635000Y-99735164D01*
X147635000Y-99793851D01*
X147619667Y-99770903D01*
X147469097Y-99620333D01*
X147292045Y-99502031D01*
X147095316Y-99420543D01*
X146886469Y-99379000D01*
X146673531Y-99379000D01*
X146464684Y-99420543D01*
X146267955Y-99502031D01*
X146090903Y-99620333D01*
X145940333Y-99770903D01*
X145822031Y-99947955D01*
X145740543Y-100144684D01*
X145699000Y-100353531D01*
X145699000Y-100566469D01*
X145740543Y-100775316D01*
X145822031Y-100972045D01*
X145940333Y-101149097D01*
X146090903Y-101299667D01*
X146128068Y-101324500D01*
X144891932Y-101324500D01*
X144929097Y-101299667D01*
X145079667Y-101149097D01*
X145197969Y-100972045D01*
X145279457Y-100775316D01*
X145321000Y-100566469D01*
X145321000Y-100353531D01*
X145279457Y-100144684D01*
X145197969Y-99947955D01*
X145079667Y-99770903D01*
X144929097Y-99620333D01*
X144752045Y-99502031D01*
X144555316Y-99420543D01*
X144346469Y-99379000D01*
X144133531Y-99379000D01*
X143924684Y-99420543D01*
X143727955Y-99502031D01*
X143550903Y-99620333D01*
X143400333Y-99770903D01*
X143282031Y-99947955D01*
X143200543Y-100144684D01*
X143159000Y-100353531D01*
X143159000Y-100566469D01*
X143200543Y-100775316D01*
X143282031Y-100972045D01*
X143400333Y-101149097D01*
X143550903Y-101299667D01*
X143588068Y-101324500D01*
X142351932Y-101324500D01*
X142389097Y-101299667D01*
X142539667Y-101149097D01*
X142657969Y-100972045D01*
X142739457Y-100775316D01*
X142781000Y-100566469D01*
X142781000Y-100353531D01*
X142739457Y-100144684D01*
X142657969Y-99947955D01*
X142539667Y-99770903D01*
X142389097Y-99620333D01*
X142212045Y-99502031D01*
X142015316Y-99420543D01*
X141806469Y-99379000D01*
X141593531Y-99379000D01*
X141384684Y-99420543D01*
X141187955Y-99502031D01*
X141010903Y-99620333D01*
X140860333Y-99770903D01*
X140742031Y-99947955D01*
X140660543Y-100144684D01*
X140619000Y-100353531D01*
X140619000Y-100566469D01*
X140660543Y-100775316D01*
X140742031Y-100972045D01*
X140860333Y-101149097D01*
X141010903Y-101299667D01*
X141048068Y-101324500D01*
X139811932Y-101324500D01*
X139849097Y-101299667D01*
X139999667Y-101149097D01*
X140117969Y-100972045D01*
X140199457Y-100775316D01*
X140241000Y-100566469D01*
X140241000Y-100353531D01*
X140199457Y-100144684D01*
X140117969Y-99947955D01*
X139999667Y-99770903D01*
X139849097Y-99620333D01*
X139672045Y-99502031D01*
X139475316Y-99420543D01*
X139266469Y-99379000D01*
X139053531Y-99379000D01*
X138844684Y-99420543D01*
X138647955Y-99502031D01*
X138470903Y-99620333D01*
X138320333Y-99770903D01*
X138202031Y-99947955D01*
X138120543Y-100144684D01*
X138079000Y-100353531D01*
X138079000Y-100566469D01*
X138120543Y-100775316D01*
X138202031Y-100972045D01*
X138320333Y-101149097D01*
X138470903Y-101299667D01*
X138508068Y-101324500D01*
X137271932Y-101324500D01*
X137309097Y-101299667D01*
X137459667Y-101149097D01*
X137577969Y-100972045D01*
X137659457Y-100775316D01*
X137701000Y-100566469D01*
X137701000Y-100353531D01*
X137659457Y-100144684D01*
X137577969Y-99947955D01*
X137459667Y-99770903D01*
X137309097Y-99620333D01*
X137132045Y-99502031D01*
X136935316Y-99420543D01*
X136726469Y-99379000D01*
X136513531Y-99379000D01*
X136304684Y-99420543D01*
X136107955Y-99502031D01*
X135930903Y-99620333D01*
X135780333Y-99770903D01*
X135760513Y-99800566D01*
X135760130Y-99798640D01*
X135725665Y-99715435D01*
X135675630Y-99640552D01*
X135611948Y-99576870D01*
X135537065Y-99526835D01*
X135453860Y-99492370D01*
X135365530Y-99474800D01*
X135275470Y-99474800D01*
X135187140Y-99492370D01*
X135103935Y-99526835D01*
X135029052Y-99576870D01*
X134965370Y-99640552D01*
X134915335Y-99715435D01*
X134900358Y-99751594D01*
X134769097Y-99620333D01*
X134592045Y-99502031D01*
X134395316Y-99420543D01*
X134186469Y-99379000D01*
X134031558Y-99379000D01*
X134105058Y-99305500D01*
X135204004Y-99305500D01*
X135233435Y-99325165D01*
X135316640Y-99359630D01*
X135404970Y-99377200D01*
X135495030Y-99377200D01*
X135583360Y-99359630D01*
X135666565Y-99325165D01*
X135741448Y-99275130D01*
X135805130Y-99211448D01*
X135855165Y-99136565D01*
X135889630Y-99053360D01*
X135907200Y-98965030D01*
X135907200Y-98874970D01*
X135889630Y-98786640D01*
X135855165Y-98703435D01*
X135805130Y-98628552D01*
X135741448Y-98564870D01*
X135666565Y-98514835D01*
X135583360Y-98480370D01*
X135495030Y-98462800D01*
X135404970Y-98462800D01*
X135316640Y-98480370D01*
X135233435Y-98514835D01*
X135204004Y-98534500D01*
X133964303Y-98534500D01*
X133945377Y-98532636D01*
X133926451Y-98534500D01*
X133926442Y-98534500D01*
X133869807Y-98540078D01*
X133797140Y-98562121D01*
X133790235Y-98565812D01*
X133730169Y-98597918D01*
X133686177Y-98634021D01*
X133686170Y-98634028D01*
X133671470Y-98646092D01*
X133659406Y-98660792D01*
X132521298Y-99798902D01*
X132506593Y-99810970D01*
X132494524Y-99825676D01*
X132494521Y-99825679D01*
X132458418Y-99869670D01*
X132452748Y-99880277D01*
X132379667Y-99770903D01*
X132229097Y-99620333D01*
X132052045Y-99502031D01*
X131855316Y-99420543D01*
X131646469Y-99379000D01*
X131433531Y-99379000D01*
X131224684Y-99420543D01*
X131027955Y-99502031D01*
X130850903Y-99620333D01*
X130700333Y-99770903D01*
X130582031Y-99947955D01*
X130500543Y-100144684D01*
X130459000Y-100353531D01*
X130459000Y-100566469D01*
X130500543Y-100775316D01*
X130582031Y-100972045D01*
X130700333Y-101149097D01*
X130850903Y-101299667D01*
X130888068Y-101324500D01*
X130409679Y-101324500D01*
X129987040Y-100901861D01*
X130039457Y-100775316D01*
X130081000Y-100566469D01*
X130081000Y-100353531D01*
X130039457Y-100144684D01*
X129957969Y-99947955D01*
X129839667Y-99770903D01*
X129689097Y-99620333D01*
X129585480Y-99551098D01*
X129645130Y-99491448D01*
X129695165Y-99416565D01*
X129729630Y-99333360D01*
X129736255Y-99300054D01*
X129745987Y-99348979D01*
X129780452Y-99432184D01*
X129830487Y-99507067D01*
X129894169Y-99570749D01*
X129969052Y-99620784D01*
X130052257Y-99655249D01*
X130140587Y-99672819D01*
X130230647Y-99672819D01*
X130318977Y-99655249D01*
X130402182Y-99620784D01*
X130477065Y-99570749D01*
X130540747Y-99507067D01*
X130590782Y-99432184D01*
X130625247Y-99348979D01*
X130642817Y-99260649D01*
X130642817Y-99170589D01*
X130625247Y-99082259D01*
X130590782Y-98999054D01*
X130540747Y-98924171D01*
X130477065Y-98860489D01*
X130402182Y-98810454D01*
X130318977Y-98775989D01*
X130230647Y-98758419D01*
X130140587Y-98758419D01*
X130052257Y-98775989D01*
X129969052Y-98810454D01*
X129894169Y-98860489D01*
X129830487Y-98924171D01*
X129780452Y-98999054D01*
X129745987Y-99082259D01*
X129739362Y-99115565D01*
X129729630Y-99066640D01*
X129695165Y-98983435D01*
X129645130Y-98908552D01*
X129581448Y-98844870D01*
X129506565Y-98794835D01*
X129423360Y-98760370D01*
X129335030Y-98742800D01*
X129244970Y-98742800D01*
X129156640Y-98760370D01*
X129073435Y-98794835D01*
X128998552Y-98844870D01*
X128934870Y-98908552D01*
X128884835Y-98983435D01*
X128850370Y-99066640D01*
X128832800Y-99154970D01*
X128832800Y-99245030D01*
X128850370Y-99333360D01*
X128871121Y-99383458D01*
X128684684Y-99420543D01*
X128487955Y-99502031D01*
X128310903Y-99620333D01*
X128160333Y-99770903D01*
X128042031Y-99947955D01*
X128033010Y-99969734D01*
X128033010Y-97689588D01*
X128078552Y-97735130D01*
X128153435Y-97785165D01*
X128236640Y-97819630D01*
X128324970Y-97837200D01*
X128415030Y-97837200D01*
X128503360Y-97819630D01*
X128586565Y-97785165D01*
X128661448Y-97735130D01*
X128725130Y-97671448D01*
X128775165Y-97596565D01*
X128809630Y-97513360D01*
X128827200Y-97425030D01*
X128827200Y-97334970D01*
X128809630Y-97246640D01*
X128775165Y-97163435D01*
X128725130Y-97088552D01*
X128661448Y-97024870D01*
X128586565Y-96974835D01*
X128503360Y-96940370D01*
X128415030Y-96922800D01*
X128324970Y-96922800D01*
X128236640Y-96940370D01*
X128153435Y-96974835D01*
X128078552Y-97024870D01*
X128033010Y-97070412D01*
X128033010Y-95755000D01*
X131612883Y-95755000D01*
X131612883Y-97005000D01*
X131617343Y-97050284D01*
X131630552Y-97093827D01*
X131652002Y-97133957D01*
X131680868Y-97169132D01*
X131716043Y-97197998D01*
X131756173Y-97219448D01*
X131799716Y-97232657D01*
X131845000Y-97237117D01*
X133795000Y-97237117D01*
X133800000Y-97236625D01*
X133805000Y-97237117D01*
X135755000Y-97237117D01*
X135800284Y-97232657D01*
X135843827Y-97219448D01*
X135883957Y-97197998D01*
X135919132Y-97169132D01*
X135947998Y-97133957D01*
X135969448Y-97093827D01*
X135982657Y-97050284D01*
X135987117Y-97005000D01*
X135987117Y-95755000D01*
X135982657Y-95709716D01*
X135969448Y-95666173D01*
X135947998Y-95626043D01*
X135919132Y-95590868D01*
X135883957Y-95562002D01*
X135843827Y-95540552D01*
X135800284Y-95527343D01*
X135755000Y-95522883D01*
X133805000Y-95522883D01*
X133800000Y-95523375D01*
X133795000Y-95522883D01*
X131845000Y-95522883D01*
X131799716Y-95527343D01*
X131756173Y-95540552D01*
X131716043Y-95562002D01*
X131680868Y-95590868D01*
X131652002Y-95626043D01*
X131630552Y-95666173D01*
X131617343Y-95709716D01*
X131612883Y-95755000D01*
X128033010Y-95755000D01*
X128033010Y-95057936D01*
X129359040Y-93731907D01*
X129379300Y-93715280D01*
X129396762Y-93694002D01*
X129445656Y-93634426D01*
X129469805Y-93589245D01*
X129494963Y-93542178D01*
X129525327Y-93442084D01*
X129533010Y-93364074D01*
X129533010Y-93364065D01*
X129535578Y-93337991D01*
X129533010Y-93311917D01*
X129533010Y-93179511D01*
X132049000Y-93179511D01*
X132049000Y-93520489D01*
X132115521Y-93854914D01*
X132246007Y-94169936D01*
X132435444Y-94453448D01*
X132676552Y-94694556D01*
X132960064Y-94883993D01*
X133275086Y-95014479D01*
X133609511Y-95081000D01*
X133950489Y-95081000D01*
X134284914Y-95014479D01*
X134599936Y-94883993D01*
X134883448Y-94694556D01*
X135124556Y-94453448D01*
X135313993Y-94169936D01*
X135374465Y-94023943D01*
X135388870Y-94096360D01*
X135423335Y-94179565D01*
X135473370Y-94254448D01*
X135537052Y-94318130D01*
X135611935Y-94368165D01*
X135695140Y-94402630D01*
X135783470Y-94420200D01*
X135873530Y-94420200D01*
X135961860Y-94402630D01*
X136045065Y-94368165D01*
X136119948Y-94318130D01*
X136183630Y-94254448D01*
X136233665Y-94179565D01*
X136268130Y-94096360D01*
X136285700Y-94008030D01*
X136285700Y-93917970D01*
X136268130Y-93829640D01*
X136233665Y-93746435D01*
X136185038Y-93673659D01*
X136234152Y-93600154D01*
X136268617Y-93516949D01*
X136282934Y-93444970D01*
X136302800Y-93444970D01*
X136302800Y-93535030D01*
X136320370Y-93623360D01*
X136354835Y-93706565D01*
X136404870Y-93781448D01*
X136468552Y-93845130D01*
X136543435Y-93895165D01*
X136626640Y-93929630D01*
X136714970Y-93947200D01*
X136805030Y-93947200D01*
X136893360Y-93929630D01*
X136976565Y-93895165D01*
X137051448Y-93845130D01*
X137115130Y-93781448D01*
X137165165Y-93706565D01*
X137199630Y-93623360D01*
X137217200Y-93535030D01*
X137217200Y-93444970D01*
X137199630Y-93356640D01*
X137165165Y-93273435D01*
X137115130Y-93198552D01*
X137051448Y-93134870D01*
X136976565Y-93084835D01*
X136893360Y-93050370D01*
X136805030Y-93032800D01*
X136714970Y-93032800D01*
X136626640Y-93050370D01*
X136543435Y-93084835D01*
X136468552Y-93134870D01*
X136404870Y-93198552D01*
X136354835Y-93273435D01*
X136320370Y-93356640D01*
X136302800Y-93444970D01*
X136282934Y-93444970D01*
X136286187Y-93428619D01*
X136286187Y-93338559D01*
X136268617Y-93250229D01*
X136234152Y-93167024D01*
X136184117Y-93092141D01*
X136120435Y-93028459D01*
X136045552Y-92978424D01*
X135962347Y-92943959D01*
X135874017Y-92926389D01*
X135783957Y-92926389D01*
X135695627Y-92943959D01*
X135612422Y-92978424D01*
X135537539Y-93028459D01*
X135490342Y-93075656D01*
X135444479Y-92845086D01*
X135313993Y-92530064D01*
X135124556Y-92246552D01*
X134883448Y-92005444D01*
X134599936Y-91816007D01*
X134284914Y-91685521D01*
X133950489Y-91619000D01*
X133623374Y-91619000D01*
X133663160Y-91602520D01*
X133738043Y-91552485D01*
X133801725Y-91488803D01*
X133851760Y-91413920D01*
X133886225Y-91330715D01*
X133889919Y-91312146D01*
X133959037Y-91312146D01*
X134047367Y-91294576D01*
X134130572Y-91260111D01*
X134205455Y-91210076D01*
X134269137Y-91146394D01*
X134319172Y-91071511D01*
X134353637Y-90988306D01*
X134371207Y-90899976D01*
X134371207Y-90884744D01*
X134442292Y-90870604D01*
X134525497Y-90836139D01*
X134600380Y-90786104D01*
X134664062Y-90722422D01*
X134714097Y-90647539D01*
X134748562Y-90564334D01*
X134766132Y-90476004D01*
X134766132Y-90463513D01*
X134839632Y-90448893D01*
X134922837Y-90414428D01*
X134997720Y-90364393D01*
X135061402Y-90300711D01*
X135111437Y-90225828D01*
X135130855Y-90178949D01*
X135168492Y-90186435D01*
X135258552Y-90186435D01*
X135320944Y-90174024D01*
X135319236Y-90176581D01*
X135284771Y-90259786D01*
X135267201Y-90348116D01*
X135267201Y-90438176D01*
X135284771Y-90526506D01*
X135319236Y-90609711D01*
X135369271Y-90684594D01*
X135432953Y-90748276D01*
X135507836Y-90798311D01*
X135591041Y-90832776D01*
X135679371Y-90850346D01*
X135769431Y-90850346D01*
X135857761Y-90832776D01*
X135940966Y-90798311D01*
X136015849Y-90748276D01*
X136079531Y-90684594D01*
X136129566Y-90609711D01*
X136164031Y-90526506D01*
X136181601Y-90438176D01*
X136181601Y-90348116D01*
X136164031Y-90259786D01*
X136129566Y-90176581D01*
X136079531Y-90101698D01*
X136015849Y-90038016D01*
X135940966Y-89987981D01*
X135857761Y-89953516D01*
X135769431Y-89935946D01*
X135679371Y-89935946D01*
X135616979Y-89948357D01*
X135618687Y-89945800D01*
X135653152Y-89862595D01*
X135670722Y-89774265D01*
X135670722Y-89684205D01*
X135653152Y-89595875D01*
X135618687Y-89512670D01*
X135568652Y-89437787D01*
X135504970Y-89374105D01*
X135430087Y-89324070D01*
X135346882Y-89289605D01*
X135258552Y-89272035D01*
X135168492Y-89272035D01*
X135080162Y-89289605D01*
X134996957Y-89324070D01*
X134922074Y-89374105D01*
X134858392Y-89437787D01*
X134808357Y-89512670D01*
X134788939Y-89559549D01*
X134751302Y-89552063D01*
X134661242Y-89552063D01*
X134572912Y-89569633D01*
X134489707Y-89604098D01*
X134414824Y-89654133D01*
X134351142Y-89717815D01*
X134301107Y-89792698D01*
X134266642Y-89875903D01*
X134249072Y-89964233D01*
X134249072Y-89976724D01*
X134175572Y-89991344D01*
X134092367Y-90025809D01*
X134017484Y-90075844D01*
X133953802Y-90139526D01*
X133903767Y-90214409D01*
X133869302Y-90297614D01*
X133851732Y-90385944D01*
X133851732Y-90401176D01*
X133780647Y-90415316D01*
X133697442Y-90449781D01*
X133622559Y-90499816D01*
X133558877Y-90563498D01*
X133508842Y-90638381D01*
X133474377Y-90721586D01*
X133470683Y-90740155D01*
X133401565Y-90740155D01*
X133313235Y-90757725D01*
X133230030Y-90792190D01*
X133155147Y-90842225D01*
X133091465Y-90905907D01*
X133041430Y-90980790D01*
X133006965Y-91063995D01*
X132989395Y-91152325D01*
X132989395Y-91242385D01*
X133006965Y-91330715D01*
X133041430Y-91413920D01*
X133091465Y-91488803D01*
X133155147Y-91552485D01*
X133230030Y-91602520D01*
X133313235Y-91636985D01*
X133401565Y-91654555D01*
X133430763Y-91654555D01*
X133275086Y-91685521D01*
X132960064Y-91816007D01*
X132676552Y-92005444D01*
X132435444Y-92246552D01*
X132246007Y-92530064D01*
X132115521Y-92845086D01*
X132049000Y-93179511D01*
X129533010Y-93179511D01*
X129533010Y-90817247D01*
X131796329Y-90817247D01*
X131796329Y-90907307D01*
X131813899Y-90995637D01*
X131848364Y-91078842D01*
X131898399Y-91153725D01*
X131962081Y-91217407D01*
X132036964Y-91267442D01*
X132109864Y-91297638D01*
X132086874Y-91353140D01*
X132069304Y-91441470D01*
X132069304Y-91531530D01*
X132086874Y-91619860D01*
X132121339Y-91703065D01*
X132171374Y-91777948D01*
X132235056Y-91841630D01*
X132309939Y-91891665D01*
X132393144Y-91926130D01*
X132481474Y-91943700D01*
X132571534Y-91943700D01*
X132659864Y-91926130D01*
X132743069Y-91891665D01*
X132817952Y-91841630D01*
X132881634Y-91777948D01*
X132931669Y-91703065D01*
X132966134Y-91619860D01*
X132983704Y-91531530D01*
X132983704Y-91441470D01*
X132966134Y-91353140D01*
X132931669Y-91269935D01*
X132881634Y-91195052D01*
X132817952Y-91131370D01*
X132743069Y-91081335D01*
X132670169Y-91051139D01*
X132693159Y-90995637D01*
X132710729Y-90907307D01*
X132710729Y-90817247D01*
X132693159Y-90728917D01*
X132658694Y-90645712D01*
X132618556Y-90585640D01*
X132629508Y-90574688D01*
X132679543Y-90499805D01*
X132714008Y-90416600D01*
X132731578Y-90328270D01*
X132731578Y-90241974D01*
X132743360Y-90239630D01*
X132826565Y-90205165D01*
X132901448Y-90155130D01*
X132965130Y-90091448D01*
X133015165Y-90016565D01*
X133049630Y-89933360D01*
X133067200Y-89845030D01*
X133067200Y-89754970D01*
X133049630Y-89666640D01*
X133015165Y-89583435D01*
X132965130Y-89508552D01*
X132901448Y-89444870D01*
X132898214Y-89442709D01*
X132972556Y-89393036D01*
X133043036Y-89322556D01*
X133098411Y-89239681D01*
X133136554Y-89147595D01*
X133156000Y-89049837D01*
X133156000Y-88950163D01*
X133136554Y-88852405D01*
X133098411Y-88760319D01*
X133043036Y-88677444D01*
X132972556Y-88606964D01*
X132889681Y-88551589D01*
X132797595Y-88513446D01*
X132699837Y-88494000D01*
X132600163Y-88494000D01*
X132502405Y-88513446D01*
X132410319Y-88551589D01*
X132327444Y-88606964D01*
X132256964Y-88677444D01*
X132201589Y-88760319D01*
X132163446Y-88852405D01*
X132144000Y-88950163D01*
X132144000Y-89049837D01*
X132163446Y-89147595D01*
X132201589Y-89239681D01*
X132256964Y-89322556D01*
X132327444Y-89393036D01*
X132361786Y-89415982D01*
X132318552Y-89444870D01*
X132254870Y-89508552D01*
X132204835Y-89583435D01*
X132170370Y-89666640D01*
X132152800Y-89754970D01*
X132152800Y-89841266D01*
X132141018Y-89843610D01*
X132057813Y-89878075D01*
X131982930Y-89928110D01*
X131919248Y-89991792D01*
X131869213Y-90066675D01*
X131834748Y-90149880D01*
X131817178Y-90238210D01*
X131817178Y-90328270D01*
X131834748Y-90416600D01*
X131869213Y-90499805D01*
X131909351Y-90559877D01*
X131898399Y-90570829D01*
X131848364Y-90645712D01*
X131813899Y-90728917D01*
X131796329Y-90817247D01*
X129533010Y-90817247D01*
X129533010Y-85691947D01*
X130021062Y-86179999D01*
X130037689Y-86200259D01*
X130057949Y-86216886D01*
X130118543Y-86266615D01*
X130207074Y-86313935D01*
X130210791Y-86315922D01*
X130310885Y-86346286D01*
X130388895Y-86353969D01*
X130388905Y-86353969D01*
X130414979Y-86356537D01*
X130441053Y-86353969D01*
X131651924Y-86353969D01*
X131694106Y-86382154D01*
X131808941Y-86429720D01*
X131930849Y-86453969D01*
X132055145Y-86453969D01*
X132177053Y-86429720D01*
X132291888Y-86382154D01*
X132395236Y-86313099D01*
X132483127Y-86225208D01*
X132552182Y-86121860D01*
X132599748Y-86007025D01*
X132623997Y-85885117D01*
X132623997Y-85760821D01*
X132599748Y-85638913D01*
X132552182Y-85524078D01*
X132530896Y-85492221D01*
X132600163Y-85506000D01*
X132699837Y-85506000D01*
X132797595Y-85486554D01*
X132889681Y-85448411D01*
X132972556Y-85393036D01*
X133043036Y-85322556D01*
X133098411Y-85239681D01*
X133136554Y-85147595D01*
X133156000Y-85049837D01*
X133156000Y-84950163D01*
X133136554Y-84852405D01*
X133126859Y-84828999D01*
X133824791Y-84828999D01*
X134092663Y-85096871D01*
G37*
X134092663Y-85096871D02*
X134073435Y-85104835D01*
X133998552Y-85154870D01*
X133934870Y-85218552D01*
X133884835Y-85293435D01*
X133850370Y-85376640D01*
X133832800Y-85464970D01*
X133832800Y-85555030D01*
X133850370Y-85643360D01*
X133884835Y-85726565D01*
X133934870Y-85801448D01*
X133941819Y-85808397D01*
X133893437Y-85880805D01*
X133858972Y-85964010D01*
X133841402Y-86052340D01*
X133841402Y-86142400D01*
X133858972Y-86230730D01*
X133893437Y-86313935D01*
X133943472Y-86388818D01*
X134007154Y-86452500D01*
X134082037Y-86502535D01*
X134165242Y-86537000D01*
X134253572Y-86554570D01*
X134343632Y-86554570D01*
X134431962Y-86537000D01*
X134515167Y-86502535D01*
X134590050Y-86452500D01*
X134653732Y-86388818D01*
X134703767Y-86313935D01*
X134738232Y-86230730D01*
X134755802Y-86142400D01*
X134755802Y-86052340D01*
X134738232Y-85964010D01*
X134703767Y-85880805D01*
X134653732Y-85805922D01*
X134646783Y-85798973D01*
X134695165Y-85726565D01*
X134703129Y-85707338D01*
X137598242Y-88602451D01*
X137598241Y-90258466D01*
X137598241Y-90258467D01*
X137598242Y-94676358D01*
X137595673Y-94702442D01*
X137605925Y-94806535D01*
X137636288Y-94906629D01*
X137685595Y-94998877D01*
X137735324Y-95059471D01*
X137751952Y-95079732D01*
X137772212Y-95096359D01*
X139224114Y-96548262D01*
X139159216Y-96548262D01*
X139070886Y-96565832D01*
X138987681Y-96600297D01*
X138912798Y-96650332D01*
X138852974Y-96710156D01*
X138805130Y-96638552D01*
X138741448Y-96574870D01*
X138666565Y-96524835D01*
X138583360Y-96490370D01*
X138495030Y-96472800D01*
X138404970Y-96472800D01*
X138316640Y-96490370D01*
X138233435Y-96524835D01*
X138158552Y-96574870D01*
X138094870Y-96638552D01*
X138044835Y-96713435D01*
X138010370Y-96796640D01*
X137992800Y-96884970D01*
X137992800Y-96975030D01*
X138010370Y-97063360D01*
X138044835Y-97146565D01*
X138094870Y-97221448D01*
X138158552Y-97285130D01*
X138233435Y-97335165D01*
X138316640Y-97369630D01*
X138404970Y-97387200D01*
X138495030Y-97387200D01*
X138583360Y-97369630D01*
X138666565Y-97335165D01*
X138741448Y-97285130D01*
X138801272Y-97225306D01*
X138818746Y-97251458D01*
X138818746Y-97306431D01*
X138816882Y-97325357D01*
X138818746Y-97344283D01*
X138818746Y-97344293D01*
X138824324Y-97400928D01*
X138846367Y-97473595D01*
X138864266Y-97507080D01*
X138882164Y-97540565D01*
X138918267Y-97584556D01*
X138918270Y-97584559D01*
X138930339Y-97599265D01*
X138945045Y-97611334D01*
X139124417Y-97790706D01*
X139136490Y-97805417D01*
X139195190Y-97853591D01*
X139262160Y-97889388D01*
X139334827Y-97911431D01*
X139391462Y-97917009D01*
X139391472Y-97917009D01*
X139410398Y-97918873D01*
X139429324Y-97917009D01*
X140749460Y-97917009D01*
X140768386Y-97918873D01*
X140787312Y-97917009D01*
X140787322Y-97917009D01*
X140843957Y-97911431D01*
X140916624Y-97889388D01*
X140983594Y-97853591D01*
X141042294Y-97805417D01*
X141054367Y-97790706D01*
X141289203Y-97555871D01*
X141303908Y-97543803D01*
X141315979Y-97529095D01*
X141350299Y-97487277D01*
X141384618Y-97529094D01*
X141384619Y-97529095D01*
X141396690Y-97543803D01*
X141411395Y-97555871D01*
X141901370Y-98045847D01*
X141913439Y-98060553D01*
X141928145Y-98072622D01*
X141928147Y-98072624D01*
X141972138Y-98108727D01*
X141996450Y-98121722D01*
X142039109Y-98144524D01*
X142111776Y-98166567D01*
X142168411Y-98172145D01*
X142168421Y-98172145D01*
X142187347Y-98174009D01*
X142206273Y-98172145D01*
X146864815Y-98172145D01*
X146894246Y-98191810D01*
X146977451Y-98226275D01*
X147012168Y-98233181D01*
X147445888Y-98666901D01*
X147457959Y-98681609D01*
X147472665Y-98693678D01*
X147472667Y-98693680D01*
X147516658Y-98729783D01*
X147552455Y-98748917D01*
X147583629Y-98765580D01*
X147656296Y-98787623D01*
X147712931Y-98793201D01*
X147712941Y-98793201D01*
X147731867Y-98795065D01*
X147750793Y-98793201D01*
X148398359Y-98793201D01*
X147761303Y-99430257D01*
X147746592Y-99442330D01*
X147727517Y-99465573D01*
X147698418Y-99501030D01*
X147684625Y-99526835D01*
X147662621Y-99568001D01*
X147640578Y-99640668D01*
X147635000Y-99697303D01*
X147635000Y-99697312D01*
X147633136Y-99716238D01*
X147635000Y-99735164D01*
X147635000Y-99793851D01*
X147619667Y-99770903D01*
X147469097Y-99620333D01*
X147292045Y-99502031D01*
X147095316Y-99420543D01*
X146886469Y-99379000D01*
X146673531Y-99379000D01*
X146464684Y-99420543D01*
X146267955Y-99502031D01*
X146090903Y-99620333D01*
X145940333Y-99770903D01*
X145822031Y-99947955D01*
X145740543Y-100144684D01*
X145699000Y-100353531D01*
X145699000Y-100566469D01*
X145740543Y-100775316D01*
X145822031Y-100972045D01*
X145940333Y-101149097D01*
X146090903Y-101299667D01*
X146128068Y-101324500D01*
X144891932Y-101324500D01*
X144929097Y-101299667D01*
X145079667Y-101149097D01*
X145197969Y-100972045D01*
X145279457Y-100775316D01*
X145321000Y-100566469D01*
X145321000Y-100353531D01*
X145279457Y-100144684D01*
X145197969Y-99947955D01*
X145079667Y-99770903D01*
X144929097Y-99620333D01*
X144752045Y-99502031D01*
X144555316Y-99420543D01*
X144346469Y-99379000D01*
X144133531Y-99379000D01*
X143924684Y-99420543D01*
X143727955Y-99502031D01*
X143550903Y-99620333D01*
X143400333Y-99770903D01*
X143282031Y-99947955D01*
X143200543Y-100144684D01*
X143159000Y-100353531D01*
X143159000Y-100566469D01*
X143200543Y-100775316D01*
X143282031Y-100972045D01*
X143400333Y-101149097D01*
X143550903Y-101299667D01*
X143588068Y-101324500D01*
X142351932Y-101324500D01*
X142389097Y-101299667D01*
X142539667Y-101149097D01*
X142657969Y-100972045D01*
X142739457Y-100775316D01*
X142781000Y-100566469D01*
X142781000Y-100353531D01*
X142739457Y-100144684D01*
X142657969Y-99947955D01*
X142539667Y-99770903D01*
X142389097Y-99620333D01*
X142212045Y-99502031D01*
X142015316Y-99420543D01*
X141806469Y-99379000D01*
X141593531Y-99379000D01*
X141384684Y-99420543D01*
X141187955Y-99502031D01*
X141010903Y-99620333D01*
X140860333Y-99770903D01*
X140742031Y-99947955D01*
X140660543Y-100144684D01*
X140619000Y-100353531D01*
X140619000Y-100566469D01*
X140660543Y-100775316D01*
X140742031Y-100972045D01*
X140860333Y-101149097D01*
X141010903Y-101299667D01*
X141048068Y-101324500D01*
X139811932Y-101324500D01*
X139849097Y-101299667D01*
X139999667Y-101149097D01*
X140117969Y-100972045D01*
X140199457Y-100775316D01*
X140241000Y-100566469D01*
X140241000Y-100353531D01*
X140199457Y-100144684D01*
X140117969Y-99947955D01*
X139999667Y-99770903D01*
X139849097Y-99620333D01*
X139672045Y-99502031D01*
X139475316Y-99420543D01*
X139266469Y-99379000D01*
X139053531Y-99379000D01*
X138844684Y-99420543D01*
X138647955Y-99502031D01*
X138470903Y-99620333D01*
X138320333Y-99770903D01*
X138202031Y-99947955D01*
X138120543Y-100144684D01*
X138079000Y-100353531D01*
X138079000Y-100566469D01*
X138120543Y-100775316D01*
X138202031Y-100972045D01*
X138320333Y-101149097D01*
X138470903Y-101299667D01*
X138508068Y-101324500D01*
X137271932Y-101324500D01*
X137309097Y-101299667D01*
X137459667Y-101149097D01*
X137577969Y-100972045D01*
X137659457Y-100775316D01*
X137701000Y-100566469D01*
X137701000Y-100353531D01*
X137659457Y-100144684D01*
X137577969Y-99947955D01*
X137459667Y-99770903D01*
X137309097Y-99620333D01*
X137132045Y-99502031D01*
X136935316Y-99420543D01*
X136726469Y-99379000D01*
X136513531Y-99379000D01*
X136304684Y-99420543D01*
X136107955Y-99502031D01*
X135930903Y-99620333D01*
X135780333Y-99770903D01*
X135760513Y-99800566D01*
X135760130Y-99798640D01*
X135725665Y-99715435D01*
X135675630Y-99640552D01*
X135611948Y-99576870D01*
X135537065Y-99526835D01*
X135453860Y-99492370D01*
X135365530Y-99474800D01*
X135275470Y-99474800D01*
X135187140Y-99492370D01*
X135103935Y-99526835D01*
X135029052Y-99576870D01*
X134965370Y-99640552D01*
X134915335Y-99715435D01*
X134900358Y-99751594D01*
X134769097Y-99620333D01*
X134592045Y-99502031D01*
X134395316Y-99420543D01*
X134186469Y-99379000D01*
X134031558Y-99379000D01*
X134105058Y-99305500D01*
X135204004Y-99305500D01*
X135233435Y-99325165D01*
X135316640Y-99359630D01*
X135404970Y-99377200D01*
X135495030Y-99377200D01*
X135583360Y-99359630D01*
X135666565Y-99325165D01*
X135741448Y-99275130D01*
X135805130Y-99211448D01*
X135855165Y-99136565D01*
X135889630Y-99053360D01*
X135907200Y-98965030D01*
X135907200Y-98874970D01*
X135889630Y-98786640D01*
X135855165Y-98703435D01*
X135805130Y-98628552D01*
X135741448Y-98564870D01*
X135666565Y-98514835D01*
X135583360Y-98480370D01*
X135495030Y-98462800D01*
X135404970Y-98462800D01*
X135316640Y-98480370D01*
X135233435Y-98514835D01*
X135204004Y-98534500D01*
X133964303Y-98534500D01*
X133945377Y-98532636D01*
X133926451Y-98534500D01*
X133926442Y-98534500D01*
X133869807Y-98540078D01*
X133797140Y-98562121D01*
X133790235Y-98565812D01*
X133730169Y-98597918D01*
X133686177Y-98634021D01*
X133686170Y-98634028D01*
X133671470Y-98646092D01*
X133659406Y-98660792D01*
X132521298Y-99798902D01*
X132506593Y-99810970D01*
X132494524Y-99825676D01*
X132494521Y-99825679D01*
X132458418Y-99869670D01*
X132452748Y-99880277D01*
X132379667Y-99770903D01*
X132229097Y-99620333D01*
X132052045Y-99502031D01*
X131855316Y-99420543D01*
X131646469Y-99379000D01*
X131433531Y-99379000D01*
X131224684Y-99420543D01*
X131027955Y-99502031D01*
X130850903Y-99620333D01*
X130700333Y-99770903D01*
X130582031Y-99947955D01*
X130500543Y-100144684D01*
X130459000Y-100353531D01*
X130459000Y-100566469D01*
X130500543Y-100775316D01*
X130582031Y-100972045D01*
X130700333Y-101149097D01*
X130850903Y-101299667D01*
X130888068Y-101324500D01*
X130409679Y-101324500D01*
X129987040Y-100901861D01*
X130039457Y-100775316D01*
X130081000Y-100566469D01*
X130081000Y-100353531D01*
X130039457Y-100144684D01*
X129957969Y-99947955D01*
X129839667Y-99770903D01*
X129689097Y-99620333D01*
X129585480Y-99551098D01*
X129645130Y-99491448D01*
X129695165Y-99416565D01*
X129729630Y-99333360D01*
X129736255Y-99300054D01*
X129745987Y-99348979D01*
X129780452Y-99432184D01*
X129830487Y-99507067D01*
X129894169Y-99570749D01*
X129969052Y-99620784D01*
X130052257Y-99655249D01*
X130140587Y-99672819D01*
X130230647Y-99672819D01*
X130318977Y-99655249D01*
X130402182Y-99620784D01*
X130477065Y-99570749D01*
X130540747Y-99507067D01*
X130590782Y-99432184D01*
X130625247Y-99348979D01*
X130642817Y-99260649D01*
X130642817Y-99170589D01*
X130625247Y-99082259D01*
X130590782Y-98999054D01*
X130540747Y-98924171D01*
X130477065Y-98860489D01*
X130402182Y-98810454D01*
X130318977Y-98775989D01*
X130230647Y-98758419D01*
X130140587Y-98758419D01*
X130052257Y-98775989D01*
X129969052Y-98810454D01*
X129894169Y-98860489D01*
X129830487Y-98924171D01*
X129780452Y-98999054D01*
X129745987Y-99082259D01*
X129739362Y-99115565D01*
X129729630Y-99066640D01*
X129695165Y-98983435D01*
X129645130Y-98908552D01*
X129581448Y-98844870D01*
X129506565Y-98794835D01*
X129423360Y-98760370D01*
X129335030Y-98742800D01*
X129244970Y-98742800D01*
X129156640Y-98760370D01*
X129073435Y-98794835D01*
X128998552Y-98844870D01*
X128934870Y-98908552D01*
X128884835Y-98983435D01*
X128850370Y-99066640D01*
X128832800Y-99154970D01*
X128832800Y-99245030D01*
X128850370Y-99333360D01*
X128871121Y-99383458D01*
X128684684Y-99420543D01*
X128487955Y-99502031D01*
X128310903Y-99620333D01*
X128160333Y-99770903D01*
X128042031Y-99947955D01*
X128033010Y-99969734D01*
X128033010Y-97689588D01*
X128078552Y-97735130D01*
X128153435Y-97785165D01*
X128236640Y-97819630D01*
X128324970Y-97837200D01*
X128415030Y-97837200D01*
X128503360Y-97819630D01*
X128586565Y-97785165D01*
X128661448Y-97735130D01*
X128725130Y-97671448D01*
X128775165Y-97596565D01*
X128809630Y-97513360D01*
X128827200Y-97425030D01*
X128827200Y-97334970D01*
X128809630Y-97246640D01*
X128775165Y-97163435D01*
X128725130Y-97088552D01*
X128661448Y-97024870D01*
X128586565Y-96974835D01*
X128503360Y-96940370D01*
X128415030Y-96922800D01*
X128324970Y-96922800D01*
X128236640Y-96940370D01*
X128153435Y-96974835D01*
X128078552Y-97024870D01*
X128033010Y-97070412D01*
X128033010Y-95755000D01*
X131612883Y-95755000D01*
X131612883Y-97005000D01*
X131617343Y-97050284D01*
X131630552Y-97093827D01*
X131652002Y-97133957D01*
X131680868Y-97169132D01*
X131716043Y-97197998D01*
X131756173Y-97219448D01*
X131799716Y-97232657D01*
X131845000Y-97237117D01*
X133795000Y-97237117D01*
X133800000Y-97236625D01*
X133805000Y-97237117D01*
X135755000Y-97237117D01*
X135800284Y-97232657D01*
X135843827Y-97219448D01*
X135883957Y-97197998D01*
X135919132Y-97169132D01*
X135947998Y-97133957D01*
X135969448Y-97093827D01*
X135982657Y-97050284D01*
X135987117Y-97005000D01*
X135987117Y-95755000D01*
X135982657Y-95709716D01*
X135969448Y-95666173D01*
X135947998Y-95626043D01*
X135919132Y-95590868D01*
X135883957Y-95562002D01*
X135843827Y-95540552D01*
X135800284Y-95527343D01*
X135755000Y-95522883D01*
X133805000Y-95522883D01*
X133800000Y-95523375D01*
X133795000Y-95522883D01*
X131845000Y-95522883D01*
X131799716Y-95527343D01*
X131756173Y-95540552D01*
X131716043Y-95562002D01*
X131680868Y-95590868D01*
X131652002Y-95626043D01*
X131630552Y-95666173D01*
X131617343Y-95709716D01*
X131612883Y-95755000D01*
X128033010Y-95755000D01*
X128033010Y-95057936D01*
X129359040Y-93731907D01*
X129379300Y-93715280D01*
X129396762Y-93694002D01*
X129445656Y-93634426D01*
X129469805Y-93589245D01*
X129494963Y-93542178D01*
X129525327Y-93442084D01*
X129533010Y-93364074D01*
X129533010Y-93364065D01*
X129535578Y-93337991D01*
X129533010Y-93311917D01*
X129533010Y-93179511D01*
X132049000Y-93179511D01*
X132049000Y-93520489D01*
X132115521Y-93854914D01*
X132246007Y-94169936D01*
X132435444Y-94453448D01*
X132676552Y-94694556D01*
X132960064Y-94883993D01*
X133275086Y-95014479D01*
X133609511Y-95081000D01*
X133950489Y-95081000D01*
X134284914Y-95014479D01*
X134599936Y-94883993D01*
X134883448Y-94694556D01*
X135124556Y-94453448D01*
X135313993Y-94169936D01*
X135374465Y-94023943D01*
X135388870Y-94096360D01*
X135423335Y-94179565D01*
X135473370Y-94254448D01*
X135537052Y-94318130D01*
X135611935Y-94368165D01*
X135695140Y-94402630D01*
X135783470Y-94420200D01*
X135873530Y-94420200D01*
X135961860Y-94402630D01*
X136045065Y-94368165D01*
X136119948Y-94318130D01*
X136183630Y-94254448D01*
X136233665Y-94179565D01*
X136268130Y-94096360D01*
X136285700Y-94008030D01*
X136285700Y-93917970D01*
X136268130Y-93829640D01*
X136233665Y-93746435D01*
X136185038Y-93673659D01*
X136234152Y-93600154D01*
X136268617Y-93516949D01*
X136282934Y-93444970D01*
X136302800Y-93444970D01*
X136302800Y-93535030D01*
X136320370Y-93623360D01*
X136354835Y-93706565D01*
X136404870Y-93781448D01*
X136468552Y-93845130D01*
X136543435Y-93895165D01*
X136626640Y-93929630D01*
X136714970Y-93947200D01*
X136805030Y-93947200D01*
X136893360Y-93929630D01*
X136976565Y-93895165D01*
X137051448Y-93845130D01*
X137115130Y-93781448D01*
X137165165Y-93706565D01*
X137199630Y-93623360D01*
X137217200Y-93535030D01*
X137217200Y-93444970D01*
X137199630Y-93356640D01*
X137165165Y-93273435D01*
X137115130Y-93198552D01*
X137051448Y-93134870D01*
X136976565Y-93084835D01*
X136893360Y-93050370D01*
X136805030Y-93032800D01*
X136714970Y-93032800D01*
X136626640Y-93050370D01*
X136543435Y-93084835D01*
X136468552Y-93134870D01*
X136404870Y-93198552D01*
X136354835Y-93273435D01*
X136320370Y-93356640D01*
X136302800Y-93444970D01*
X136282934Y-93444970D01*
X136286187Y-93428619D01*
X136286187Y-93338559D01*
X136268617Y-93250229D01*
X136234152Y-93167024D01*
X136184117Y-93092141D01*
X136120435Y-93028459D01*
X136045552Y-92978424D01*
X135962347Y-92943959D01*
X135874017Y-92926389D01*
X135783957Y-92926389D01*
X135695627Y-92943959D01*
X135612422Y-92978424D01*
X135537539Y-93028459D01*
X135490342Y-93075656D01*
X135444479Y-92845086D01*
X135313993Y-92530064D01*
X135124556Y-92246552D01*
X134883448Y-92005444D01*
X134599936Y-91816007D01*
X134284914Y-91685521D01*
X133950489Y-91619000D01*
X133623374Y-91619000D01*
X133663160Y-91602520D01*
X133738043Y-91552485D01*
X133801725Y-91488803D01*
X133851760Y-91413920D01*
X133886225Y-91330715D01*
X133889919Y-91312146D01*
X133959037Y-91312146D01*
X134047367Y-91294576D01*
X134130572Y-91260111D01*
X134205455Y-91210076D01*
X134269137Y-91146394D01*
X134319172Y-91071511D01*
X134353637Y-90988306D01*
X134371207Y-90899976D01*
X134371207Y-90884744D01*
X134442292Y-90870604D01*
X134525497Y-90836139D01*
X134600380Y-90786104D01*
X134664062Y-90722422D01*
X134714097Y-90647539D01*
X134748562Y-90564334D01*
X134766132Y-90476004D01*
X134766132Y-90463513D01*
X134839632Y-90448893D01*
X134922837Y-90414428D01*
X134997720Y-90364393D01*
X135061402Y-90300711D01*
X135111437Y-90225828D01*
X135130855Y-90178949D01*
X135168492Y-90186435D01*
X135258552Y-90186435D01*
X135320944Y-90174024D01*
X135319236Y-90176581D01*
X135284771Y-90259786D01*
X135267201Y-90348116D01*
X135267201Y-90438176D01*
X135284771Y-90526506D01*
X135319236Y-90609711D01*
X135369271Y-90684594D01*
X135432953Y-90748276D01*
X135507836Y-90798311D01*
X135591041Y-90832776D01*
X135679371Y-90850346D01*
X135769431Y-90850346D01*
X135857761Y-90832776D01*
X135940966Y-90798311D01*
X136015849Y-90748276D01*
X136079531Y-90684594D01*
X136129566Y-90609711D01*
X136164031Y-90526506D01*
X136181601Y-90438176D01*
X136181601Y-90348116D01*
X136164031Y-90259786D01*
X136129566Y-90176581D01*
X136079531Y-90101698D01*
X136015849Y-90038016D01*
X135940966Y-89987981D01*
X135857761Y-89953516D01*
X135769431Y-89935946D01*
X135679371Y-89935946D01*
X135616979Y-89948357D01*
X135618687Y-89945800D01*
X135653152Y-89862595D01*
X135670722Y-89774265D01*
X135670722Y-89684205D01*
X135653152Y-89595875D01*
X135618687Y-89512670D01*
X135568652Y-89437787D01*
X135504970Y-89374105D01*
X135430087Y-89324070D01*
X135346882Y-89289605D01*
X135258552Y-89272035D01*
X135168492Y-89272035D01*
X135080162Y-89289605D01*
X134996957Y-89324070D01*
X134922074Y-89374105D01*
X134858392Y-89437787D01*
X134808357Y-89512670D01*
X134788939Y-89559549D01*
X134751302Y-89552063D01*
X134661242Y-89552063D01*
X134572912Y-89569633D01*
X134489707Y-89604098D01*
X134414824Y-89654133D01*
X134351142Y-89717815D01*
X134301107Y-89792698D01*
X134266642Y-89875903D01*
X134249072Y-89964233D01*
X134249072Y-89976724D01*
X134175572Y-89991344D01*
X134092367Y-90025809D01*
X134017484Y-90075844D01*
X133953802Y-90139526D01*
X133903767Y-90214409D01*
X133869302Y-90297614D01*
X133851732Y-90385944D01*
X133851732Y-90401176D01*
X133780647Y-90415316D01*
X133697442Y-90449781D01*
X133622559Y-90499816D01*
X133558877Y-90563498D01*
X133508842Y-90638381D01*
X133474377Y-90721586D01*
X133470683Y-90740155D01*
X133401565Y-90740155D01*
X133313235Y-90757725D01*
X133230030Y-90792190D01*
X133155147Y-90842225D01*
X133091465Y-90905907D01*
X133041430Y-90980790D01*
X133006965Y-91063995D01*
X132989395Y-91152325D01*
X132989395Y-91242385D01*
X133006965Y-91330715D01*
X133041430Y-91413920D01*
X133091465Y-91488803D01*
X133155147Y-91552485D01*
X133230030Y-91602520D01*
X133313235Y-91636985D01*
X133401565Y-91654555D01*
X133430763Y-91654555D01*
X133275086Y-91685521D01*
X132960064Y-91816007D01*
X132676552Y-92005444D01*
X132435444Y-92246552D01*
X132246007Y-92530064D01*
X132115521Y-92845086D01*
X132049000Y-93179511D01*
X129533010Y-93179511D01*
X129533010Y-90817247D01*
X131796329Y-90817247D01*
X131796329Y-90907307D01*
X131813899Y-90995637D01*
X131848364Y-91078842D01*
X131898399Y-91153725D01*
X131962081Y-91217407D01*
X132036964Y-91267442D01*
X132109864Y-91297638D01*
X132086874Y-91353140D01*
X132069304Y-91441470D01*
X132069304Y-91531530D01*
X132086874Y-91619860D01*
X132121339Y-91703065D01*
X132171374Y-91777948D01*
X132235056Y-91841630D01*
X132309939Y-91891665D01*
X132393144Y-91926130D01*
X132481474Y-91943700D01*
X132571534Y-91943700D01*
X132659864Y-91926130D01*
X132743069Y-91891665D01*
X132817952Y-91841630D01*
X132881634Y-91777948D01*
X132931669Y-91703065D01*
X132966134Y-91619860D01*
X132983704Y-91531530D01*
X132983704Y-91441470D01*
X132966134Y-91353140D01*
X132931669Y-91269935D01*
X132881634Y-91195052D01*
X132817952Y-91131370D01*
X132743069Y-91081335D01*
X132670169Y-91051139D01*
X132693159Y-90995637D01*
X132710729Y-90907307D01*
X132710729Y-90817247D01*
X132693159Y-90728917D01*
X132658694Y-90645712D01*
X132618556Y-90585640D01*
X132629508Y-90574688D01*
X132679543Y-90499805D01*
X132714008Y-90416600D01*
X132731578Y-90328270D01*
X132731578Y-90241974D01*
X132743360Y-90239630D01*
X132826565Y-90205165D01*
X132901448Y-90155130D01*
X132965130Y-90091448D01*
X133015165Y-90016565D01*
X133049630Y-89933360D01*
X133067200Y-89845030D01*
X133067200Y-89754970D01*
X133049630Y-89666640D01*
X133015165Y-89583435D01*
X132965130Y-89508552D01*
X132901448Y-89444870D01*
X132898214Y-89442709D01*
X132972556Y-89393036D01*
X133043036Y-89322556D01*
X133098411Y-89239681D01*
X133136554Y-89147595D01*
X133156000Y-89049837D01*
X133156000Y-88950163D01*
X133136554Y-88852405D01*
X133098411Y-88760319D01*
X133043036Y-88677444D01*
X132972556Y-88606964D01*
X132889681Y-88551589D01*
X132797595Y-88513446D01*
X132699837Y-88494000D01*
X132600163Y-88494000D01*
X132502405Y-88513446D01*
X132410319Y-88551589D01*
X132327444Y-88606964D01*
X132256964Y-88677444D01*
X132201589Y-88760319D01*
X132163446Y-88852405D01*
X132144000Y-88950163D01*
X132144000Y-89049837D01*
X132163446Y-89147595D01*
X132201589Y-89239681D01*
X132256964Y-89322556D01*
X132327444Y-89393036D01*
X132361786Y-89415982D01*
X132318552Y-89444870D01*
X132254870Y-89508552D01*
X132204835Y-89583435D01*
X132170370Y-89666640D01*
X132152800Y-89754970D01*
X132152800Y-89841266D01*
X132141018Y-89843610D01*
X132057813Y-89878075D01*
X131982930Y-89928110D01*
X131919248Y-89991792D01*
X131869213Y-90066675D01*
X131834748Y-90149880D01*
X131817178Y-90238210D01*
X131817178Y-90328270D01*
X131834748Y-90416600D01*
X131869213Y-90499805D01*
X131909351Y-90559877D01*
X131898399Y-90570829D01*
X131848364Y-90645712D01*
X131813899Y-90728917D01*
X131796329Y-90817247D01*
X129533010Y-90817247D01*
X129533010Y-85691947D01*
X130021062Y-86179999D01*
X130037689Y-86200259D01*
X130057949Y-86216886D01*
X130118543Y-86266615D01*
X130207074Y-86313935D01*
X130210791Y-86315922D01*
X130310885Y-86346286D01*
X130388895Y-86353969D01*
X130388905Y-86353969D01*
X130414979Y-86356537D01*
X130441053Y-86353969D01*
X131651924Y-86353969D01*
X131694106Y-86382154D01*
X131808941Y-86429720D01*
X131930849Y-86453969D01*
X132055145Y-86453969D01*
X132177053Y-86429720D01*
X132291888Y-86382154D01*
X132395236Y-86313099D01*
X132483127Y-86225208D01*
X132552182Y-86121860D01*
X132599748Y-86007025D01*
X132623997Y-85885117D01*
X132623997Y-85760821D01*
X132599748Y-85638913D01*
X132552182Y-85524078D01*
X132530896Y-85492221D01*
X132600163Y-85506000D01*
X132699837Y-85506000D01*
X132797595Y-85486554D01*
X132889681Y-85448411D01*
X132972556Y-85393036D01*
X133043036Y-85322556D01*
X133098411Y-85239681D01*
X133136554Y-85147595D01*
X133156000Y-85049837D01*
X133156000Y-84950163D01*
X133136554Y-84852405D01*
X133126859Y-84828999D01*
X133824791Y-84828999D01*
X134092663Y-85096871D01*
G36*
X156891059Y-77928469D02*
G01*
X156895169Y-77942018D01*
X156921422Y-78028562D01*
X156970729Y-78120810D01*
X157011427Y-78170400D01*
X157037086Y-78201665D01*
X157057345Y-78218292D01*
X157579000Y-78739947D01*
X157579001Y-79310051D01*
X155503060Y-81385994D01*
X155482800Y-81402621D01*
X155466173Y-81422881D01*
X155466172Y-81422882D01*
X155416443Y-81483476D01*
X155367136Y-81575724D01*
X155346528Y-81643659D01*
X155336773Y-81675817D01*
X155335910Y-81684580D01*
X155326521Y-81779911D01*
X155329090Y-81805995D01*
X155329089Y-87634015D01*
X155326521Y-87660089D01*
X155329089Y-87686163D01*
X155329089Y-87686172D01*
X155336772Y-87764182D01*
X155367136Y-87864276D01*
X155416443Y-87956524D01*
X155482799Y-88037379D01*
X155503064Y-88054010D01*
X156419001Y-88969948D01*
X156419000Y-93373926D01*
X156416432Y-93400000D01*
X156419000Y-93426074D01*
X156419000Y-93426083D01*
X156426683Y-93504093D01*
X156457047Y-93604187D01*
X156506354Y-93696435D01*
X156572710Y-93777290D01*
X156592975Y-93793921D01*
X157109001Y-94309948D01*
X157109000Y-98239000D01*
X152493210Y-98239000D01*
X151151000Y-96896792D01*
X151151000Y-95413916D01*
X151143317Y-95335906D01*
X151112953Y-95235812D01*
X151063646Y-95143565D01*
X150997290Y-95062710D01*
X150916435Y-94996354D01*
X150824188Y-94947047D01*
X150724094Y-94916683D01*
X150620000Y-94906431D01*
X150515907Y-94916683D01*
X150415813Y-94947047D01*
X150323566Y-94996354D01*
X150242711Y-95062710D01*
X150176355Y-95143565D01*
X150127048Y-95235812D01*
X150096684Y-95335906D01*
X150089001Y-95413916D01*
X150089000Y-97090664D01*
X150087701Y-97103858D01*
X149169359Y-98022201D01*
X147891546Y-98022201D01*
X147557347Y-97688002D01*
X147550441Y-97653285D01*
X147515976Y-97570080D01*
X147465941Y-97495197D01*
X147402259Y-97431515D01*
X147327376Y-97381480D01*
X147244171Y-97347015D01*
X147155841Y-97329445D01*
X147065781Y-97329445D01*
X146977451Y-97347015D01*
X146894246Y-97381480D01*
X146864815Y-97401145D01*
X142347026Y-97401145D01*
X142333081Y-97387200D01*
X142385030Y-97387200D01*
X142473360Y-97369630D01*
X142556565Y-97335165D01*
X142631448Y-97285130D01*
X142695130Y-97221448D01*
X142745165Y-97146565D01*
X142779630Y-97063360D01*
X142797200Y-96975030D01*
X142797200Y-96884970D01*
X142779630Y-96796640D01*
X142745165Y-96713435D01*
X142695130Y-96638552D01*
X142631448Y-96574870D01*
X142556565Y-96524835D01*
X142473360Y-96490370D01*
X142385030Y-96472800D01*
X142294970Y-96472800D01*
X142206640Y-96490370D01*
X142123435Y-96524835D01*
X142048552Y-96574870D01*
X141995299Y-96628124D01*
X141962045Y-96594870D01*
X141887162Y-96544835D01*
X141803957Y-96510370D01*
X141715627Y-96492800D01*
X141712484Y-96492800D01*
X141867476Y-96337807D01*
X141895812Y-96352953D01*
X141995906Y-96383317D01*
X142073916Y-96391000D01*
X144828366Y-96391000D01*
X144819927Y-96396639D01*
X144756245Y-96460321D01*
X144706210Y-96535204D01*
X144671745Y-96618409D01*
X144654175Y-96706739D01*
X144654175Y-96796799D01*
X144671745Y-96885129D01*
X144706210Y-96968334D01*
X144756245Y-97043217D01*
X144819927Y-97106899D01*
X144894810Y-97156934D01*
X144978015Y-97191399D01*
X145066345Y-97208969D01*
X145156405Y-97208969D01*
X145244735Y-97191399D01*
X145297346Y-97169607D01*
X145315100Y-97196178D01*
X145378782Y-97259860D01*
X145453665Y-97309895D01*
X145536870Y-97344360D01*
X145625200Y-97361930D01*
X145715260Y-97361930D01*
X145803590Y-97344360D01*
X145886795Y-97309895D01*
X145961678Y-97259860D01*
X146025360Y-97196178D01*
X146075395Y-97121295D01*
X146109860Y-97038090D01*
X146127430Y-96949760D01*
X146127430Y-96859700D01*
X146109860Y-96771370D01*
X146075395Y-96688165D01*
X146025360Y-96613282D01*
X145961678Y-96549600D01*
X145886795Y-96499565D01*
X145803590Y-96465100D01*
X145715260Y-96447530D01*
X145625200Y-96447530D01*
X145536870Y-96465100D01*
X145484259Y-96486892D01*
X145466505Y-96460321D01*
X145402823Y-96396639D01*
X145394384Y-96391000D01*
X147946773Y-96391000D01*
X147972847Y-96393568D01*
X147998921Y-96391000D01*
X147998931Y-96391000D01*
X148076941Y-96383317D01*
X148177035Y-96352953D01*
X148269282Y-96303646D01*
X148350137Y-96237290D01*
X148366768Y-96217025D01*
X149687030Y-94896764D01*
X149707290Y-94880137D01*
X149763286Y-94811906D01*
X149773646Y-94799283D01*
X149822953Y-94707035D01*
X149824346Y-94702442D01*
X149853317Y-94606941D01*
X149861000Y-94528931D01*
X149861000Y-94528922D01*
X149863568Y-94502848D01*
X149861000Y-94476774D01*
X149861000Y-93399946D01*
X152017603Y-91243345D01*
X152046435Y-91227934D01*
X152127290Y-91161578D01*
X152193646Y-91080723D01*
X152209059Y-91051888D01*
X152977035Y-90283913D01*
X152997290Y-90267290D01*
X153013912Y-90247036D01*
X153013918Y-90247030D01*
X153063646Y-90186436D01*
X153112953Y-90094188D01*
X153127090Y-90047585D01*
X153143317Y-89994094D01*
X153151000Y-89916084D01*
X153151000Y-89916074D01*
X153153568Y-89890000D01*
X153151000Y-89863926D01*
X153151000Y-81769273D01*
X153153568Y-81743201D01*
X153151000Y-81717129D01*
X153151000Y-81717118D01*
X153143317Y-81639108D01*
X153112953Y-81539014D01*
X153069406Y-81457543D01*
X153063646Y-81446766D01*
X153013917Y-81386172D01*
X152997290Y-81365912D01*
X152977030Y-81349285D01*
X151563827Y-79936083D01*
X151503233Y-79886354D01*
X151410985Y-79837047D01*
X151363971Y-79822785D01*
X151991786Y-79194970D01*
X155622800Y-79194970D01*
X155622800Y-79285030D01*
X155640370Y-79373360D01*
X155674835Y-79456565D01*
X155724870Y-79531448D01*
X155788552Y-79595130D01*
X155863435Y-79645165D01*
X155946640Y-79679630D01*
X156034970Y-79697200D01*
X156125030Y-79697200D01*
X156213360Y-79679630D01*
X156296565Y-79645165D01*
X156371448Y-79595130D01*
X156435130Y-79531448D01*
X156485165Y-79456565D01*
X156519630Y-79373360D01*
X156537200Y-79285030D01*
X156537200Y-79194970D01*
X156519630Y-79106640D01*
X156485165Y-79023435D01*
X156475618Y-79009146D01*
X156541448Y-78965160D01*
X156605130Y-78901478D01*
X156655165Y-78826595D01*
X156689630Y-78743390D01*
X156707200Y-78655060D01*
X156707200Y-78565000D01*
X156689630Y-78476670D01*
X156655165Y-78393465D01*
X156605130Y-78318582D01*
X156541448Y-78254900D01*
X156466565Y-78204865D01*
X156383360Y-78170400D01*
X156295030Y-78152830D01*
X156204970Y-78152830D01*
X156116640Y-78170400D01*
X156033435Y-78204865D01*
X155958552Y-78254900D01*
X155894870Y-78318582D01*
X155844835Y-78393465D01*
X155810370Y-78476670D01*
X155792800Y-78565000D01*
X155792800Y-78655060D01*
X155810370Y-78743390D01*
X155844835Y-78826595D01*
X155854382Y-78840884D01*
X155788552Y-78884870D01*
X155724870Y-78948552D01*
X155674835Y-79023435D01*
X155640370Y-79106640D01*
X155622800Y-79194970D01*
X151991786Y-79194970D01*
X153331382Y-77855375D01*
X156883859Y-77855375D01*
X156891059Y-77928469D01*
G37*
X156891059Y-77928469D02*
X156895169Y-77942018D01*
X156921422Y-78028562D01*
X156970729Y-78120810D01*
X157011427Y-78170400D01*
X157037086Y-78201665D01*
X157057345Y-78218292D01*
X157579000Y-78739947D01*
X157579001Y-79310051D01*
X155503060Y-81385994D01*
X155482800Y-81402621D01*
X155466173Y-81422881D01*
X155466172Y-81422882D01*
X155416443Y-81483476D01*
X155367136Y-81575724D01*
X155346528Y-81643659D01*
X155336773Y-81675817D01*
X155335910Y-81684580D01*
X155326521Y-81779911D01*
X155329090Y-81805995D01*
X155329089Y-87634015D01*
X155326521Y-87660089D01*
X155329089Y-87686163D01*
X155329089Y-87686172D01*
X155336772Y-87764182D01*
X155367136Y-87864276D01*
X155416443Y-87956524D01*
X155482799Y-88037379D01*
X155503064Y-88054010D01*
X156419001Y-88969948D01*
X156419000Y-93373926D01*
X156416432Y-93400000D01*
X156419000Y-93426074D01*
X156419000Y-93426083D01*
X156426683Y-93504093D01*
X156457047Y-93604187D01*
X156506354Y-93696435D01*
X156572710Y-93777290D01*
X156592975Y-93793921D01*
X157109001Y-94309948D01*
X157109000Y-98239000D01*
X152493210Y-98239000D01*
X151151000Y-96896792D01*
X151151000Y-95413916D01*
X151143317Y-95335906D01*
X151112953Y-95235812D01*
X151063646Y-95143565D01*
X150997290Y-95062710D01*
X150916435Y-94996354D01*
X150824188Y-94947047D01*
X150724094Y-94916683D01*
X150620000Y-94906431D01*
X150515907Y-94916683D01*
X150415813Y-94947047D01*
X150323566Y-94996354D01*
X150242711Y-95062710D01*
X150176355Y-95143565D01*
X150127048Y-95235812D01*
X150096684Y-95335906D01*
X150089001Y-95413916D01*
X150089000Y-97090664D01*
X150087701Y-97103858D01*
X149169359Y-98022201D01*
X147891546Y-98022201D01*
X147557347Y-97688002D01*
X147550441Y-97653285D01*
X147515976Y-97570080D01*
X147465941Y-97495197D01*
X147402259Y-97431515D01*
X147327376Y-97381480D01*
X147244171Y-97347015D01*
X147155841Y-97329445D01*
X147065781Y-97329445D01*
X146977451Y-97347015D01*
X146894246Y-97381480D01*
X146864815Y-97401145D01*
X142347026Y-97401145D01*
X142333081Y-97387200D01*
X142385030Y-97387200D01*
X142473360Y-97369630D01*
X142556565Y-97335165D01*
X142631448Y-97285130D01*
X142695130Y-97221448D01*
X142745165Y-97146565D01*
X142779630Y-97063360D01*
X142797200Y-96975030D01*
X142797200Y-96884970D01*
X142779630Y-96796640D01*
X142745165Y-96713435D01*
X142695130Y-96638552D01*
X142631448Y-96574870D01*
X142556565Y-96524835D01*
X142473360Y-96490370D01*
X142385030Y-96472800D01*
X142294970Y-96472800D01*
X142206640Y-96490370D01*
X142123435Y-96524835D01*
X142048552Y-96574870D01*
X141995299Y-96628124D01*
X141962045Y-96594870D01*
X141887162Y-96544835D01*
X141803957Y-96510370D01*
X141715627Y-96492800D01*
X141712484Y-96492800D01*
X141867476Y-96337807D01*
X141895812Y-96352953D01*
X141995906Y-96383317D01*
X142073916Y-96391000D01*
X144828366Y-96391000D01*
X144819927Y-96396639D01*
X144756245Y-96460321D01*
X144706210Y-96535204D01*
X144671745Y-96618409D01*
X144654175Y-96706739D01*
X144654175Y-96796799D01*
X144671745Y-96885129D01*
X144706210Y-96968334D01*
X144756245Y-97043217D01*
X144819927Y-97106899D01*
X144894810Y-97156934D01*
X144978015Y-97191399D01*
X145066345Y-97208969D01*
X145156405Y-97208969D01*
X145244735Y-97191399D01*
X145297346Y-97169607D01*
X145315100Y-97196178D01*
X145378782Y-97259860D01*
X145453665Y-97309895D01*
X145536870Y-97344360D01*
X145625200Y-97361930D01*
X145715260Y-97361930D01*
X145803590Y-97344360D01*
X145886795Y-97309895D01*
X145961678Y-97259860D01*
X146025360Y-97196178D01*
X146075395Y-97121295D01*
X146109860Y-97038090D01*
X146127430Y-96949760D01*
X146127430Y-96859700D01*
X146109860Y-96771370D01*
X146075395Y-96688165D01*
X146025360Y-96613282D01*
X145961678Y-96549600D01*
X145886795Y-96499565D01*
X145803590Y-96465100D01*
X145715260Y-96447530D01*
X145625200Y-96447530D01*
X145536870Y-96465100D01*
X145484259Y-96486892D01*
X145466505Y-96460321D01*
X145402823Y-96396639D01*
X145394384Y-96391000D01*
X147946773Y-96391000D01*
X147972847Y-96393568D01*
X147998921Y-96391000D01*
X147998931Y-96391000D01*
X148076941Y-96383317D01*
X148177035Y-96352953D01*
X148269282Y-96303646D01*
X148350137Y-96237290D01*
X148366768Y-96217025D01*
X149687030Y-94896764D01*
X149707290Y-94880137D01*
X149763286Y-94811906D01*
X149773646Y-94799283D01*
X149822953Y-94707035D01*
X149824346Y-94702442D01*
X149853317Y-94606941D01*
X149861000Y-94528931D01*
X149861000Y-94528922D01*
X149863568Y-94502848D01*
X149861000Y-94476774D01*
X149861000Y-93399946D01*
X152017603Y-91243345D01*
X152046435Y-91227934D01*
X152127290Y-91161578D01*
X152193646Y-91080723D01*
X152209059Y-91051888D01*
X152977035Y-90283913D01*
X152997290Y-90267290D01*
X153013912Y-90247036D01*
X153013918Y-90247030D01*
X153063646Y-90186436D01*
X153112953Y-90094188D01*
X153127090Y-90047585D01*
X153143317Y-89994094D01*
X153151000Y-89916084D01*
X153151000Y-89916074D01*
X153153568Y-89890000D01*
X153151000Y-89863926D01*
X153151000Y-81769273D01*
X153153568Y-81743201D01*
X153151000Y-81717129D01*
X153151000Y-81717118D01*
X153143317Y-81639108D01*
X153112953Y-81539014D01*
X153069406Y-81457543D01*
X153063646Y-81446766D01*
X153013917Y-81386172D01*
X152997290Y-81365912D01*
X152977030Y-81349285D01*
X151563827Y-79936083D01*
X151503233Y-79886354D01*
X151410985Y-79837047D01*
X151363971Y-79822785D01*
X151991786Y-79194970D01*
X155622800Y-79194970D01*
X155622800Y-79285030D01*
X155640370Y-79373360D01*
X155674835Y-79456565D01*
X155724870Y-79531448D01*
X155788552Y-79595130D01*
X155863435Y-79645165D01*
X155946640Y-79679630D01*
X156034970Y-79697200D01*
X156125030Y-79697200D01*
X156213360Y-79679630D01*
X156296565Y-79645165D01*
X156371448Y-79595130D01*
X156435130Y-79531448D01*
X156485165Y-79456565D01*
X156519630Y-79373360D01*
X156537200Y-79285030D01*
X156537200Y-79194970D01*
X156519630Y-79106640D01*
X156485165Y-79023435D01*
X156475618Y-79009146D01*
X156541448Y-78965160D01*
X156605130Y-78901478D01*
X156655165Y-78826595D01*
X156689630Y-78743390D01*
X156707200Y-78655060D01*
X156707200Y-78565000D01*
X156689630Y-78476670D01*
X156655165Y-78393465D01*
X156605130Y-78318582D01*
X156541448Y-78254900D01*
X156466565Y-78204865D01*
X156383360Y-78170400D01*
X156295030Y-78152830D01*
X156204970Y-78152830D01*
X156116640Y-78170400D01*
X156033435Y-78204865D01*
X155958552Y-78254900D01*
X155894870Y-78318582D01*
X155844835Y-78393465D01*
X155810370Y-78476670D01*
X155792800Y-78565000D01*
X155792800Y-78655060D01*
X155810370Y-78743390D01*
X155844835Y-78826595D01*
X155854382Y-78840884D01*
X155788552Y-78884870D01*
X155724870Y-78948552D01*
X155674835Y-79023435D01*
X155640370Y-79106640D01*
X155622800Y-79194970D01*
X151991786Y-79194970D01*
X153331382Y-77855375D01*
X156883859Y-77855375D01*
X156891059Y-77928469D01*
G36*
X150713845Y-80534187D02*
G01*
X150763152Y-80626435D01*
X150812881Y-80687029D01*
X152089000Y-81963149D01*
X152089001Y-89670051D01*
X151392981Y-90366073D01*
X151392970Y-90366082D01*
X151392964Y-90366088D01*
X151372710Y-90382710D01*
X151356088Y-90402964D01*
X149828729Y-91930324D01*
X149805165Y-91873435D01*
X149755130Y-91798552D01*
X149691448Y-91734870D01*
X149616565Y-91684835D01*
X149533360Y-91650370D01*
X149445030Y-91632800D01*
X149354970Y-91632800D01*
X149266640Y-91650370D01*
X149183435Y-91684835D01*
X149108552Y-91734870D01*
X149044870Y-91798552D01*
X148994835Y-91873435D01*
X148960370Y-91956640D01*
X148942800Y-92044970D01*
X148942800Y-92135030D01*
X148960370Y-92223360D01*
X148994835Y-92306565D01*
X149044870Y-92381448D01*
X149108552Y-92445130D01*
X149183435Y-92495165D01*
X149240324Y-92518730D01*
X148972975Y-92786079D01*
X148952710Y-92802710D01*
X148886354Y-92883565D01*
X148837047Y-92975813D01*
X148806683Y-93075907D01*
X148799000Y-93153917D01*
X148799000Y-93153926D01*
X148796432Y-93180000D01*
X148799000Y-93206074D01*
X148799001Y-94264677D01*
X148796374Y-94258335D01*
X148746339Y-94183452D01*
X148682657Y-94119770D01*
X148607774Y-94069735D01*
X148524569Y-94035270D01*
X148436239Y-94017700D01*
X148346179Y-94017700D01*
X148257849Y-94035270D01*
X148174644Y-94069735D01*
X148099761Y-94119770D01*
X148036079Y-94183452D01*
X147986044Y-94258335D01*
X147951579Y-94341540D01*
X147934009Y-94429870D01*
X147934009Y-94519930D01*
X147951579Y-94608260D01*
X147986044Y-94691465D01*
X148036079Y-94766348D01*
X148099761Y-94830030D01*
X148174644Y-94880065D01*
X148193871Y-94888029D01*
X147752901Y-95329000D01*
X142073916Y-95329000D01*
X141995906Y-95336683D01*
X141895812Y-95367047D01*
X141803565Y-95416354D01*
X141726106Y-95479923D01*
X141724534Y-95480078D01*
X141651867Y-95502121D01*
X141620693Y-95518784D01*
X141584896Y-95537918D01*
X141540905Y-95574021D01*
X141540903Y-95574023D01*
X141526197Y-95586092D01*
X141514128Y-95600798D01*
X140770803Y-96344124D01*
X140756092Y-96356197D01*
X140744021Y-96370906D01*
X140707918Y-96414897D01*
X140690475Y-96447530D01*
X140672121Y-96481868D01*
X140669210Y-96491464D01*
X138960161Y-94782415D01*
X140247901Y-94782415D01*
X140278302Y-94967193D01*
X140462702Y-95035054D01*
X140656798Y-95065635D01*
X140853131Y-95057763D01*
X141044155Y-95011740D01*
X141151698Y-94967193D01*
X141182099Y-94782415D01*
X141897901Y-94782415D01*
X141928302Y-94967193D01*
X142112702Y-95035054D01*
X142306798Y-95065635D01*
X142503131Y-95057763D01*
X142694155Y-95011740D01*
X142801698Y-94967193D01*
X142832099Y-94782415D01*
X143547901Y-94782415D01*
X143578302Y-94967193D01*
X143762702Y-95035054D01*
X143956798Y-95065635D01*
X144153131Y-95057763D01*
X144344155Y-95011740D01*
X144451698Y-94967193D01*
X144482099Y-94782415D01*
X145197901Y-94782415D01*
X145228302Y-94967193D01*
X145412702Y-95035054D01*
X145606798Y-95065635D01*
X145803131Y-95057763D01*
X145994155Y-95011740D01*
X146101698Y-94967193D01*
X146132099Y-94782415D01*
X145665000Y-94315316D01*
X145197901Y-94782415D01*
X144482099Y-94782415D01*
X144015000Y-94315316D01*
X143547901Y-94782415D01*
X142832099Y-94782415D01*
X142365000Y-94315316D01*
X141897901Y-94782415D01*
X141182099Y-94782415D01*
X140715000Y-94315316D01*
X140247901Y-94782415D01*
X138960161Y-94782415D01*
X138660241Y-94482496D01*
X138660241Y-94006798D01*
X139714365Y-94006798D01*
X139722237Y-94203131D01*
X139768260Y-94394155D01*
X139812807Y-94501698D01*
X139997585Y-94532099D01*
X140464684Y-94065000D01*
X140965316Y-94065000D01*
X141432415Y-94532099D01*
X141540000Y-94514398D01*
X141647585Y-94532099D01*
X142114684Y-94065000D01*
X142615316Y-94065000D01*
X143082415Y-94532099D01*
X143190000Y-94514398D01*
X143297585Y-94532099D01*
X143764684Y-94065000D01*
X144265316Y-94065000D01*
X144732415Y-94532099D01*
X144840000Y-94514398D01*
X144947585Y-94532099D01*
X145414684Y-94065000D01*
X145915316Y-94065000D01*
X146382415Y-94532099D01*
X146567193Y-94501698D01*
X146635054Y-94317298D01*
X146665635Y-94123202D01*
X146657763Y-93926869D01*
X146611740Y-93735845D01*
X146567193Y-93628302D01*
X146382415Y-93597901D01*
X145915316Y-94065000D01*
X145414684Y-94065000D01*
X144947585Y-93597901D01*
X144840000Y-93615602D01*
X144732415Y-93597901D01*
X144265316Y-94065000D01*
X143764684Y-94065000D01*
X143297585Y-93597901D01*
X143190000Y-93615602D01*
X143082415Y-93597901D01*
X142615316Y-94065000D01*
X142114684Y-94065000D01*
X141647585Y-93597901D01*
X141540000Y-93615602D01*
X141432415Y-93597901D01*
X140965316Y-94065000D01*
X140464684Y-94065000D01*
X139997585Y-93597901D01*
X139812807Y-93628302D01*
X139744946Y-93812702D01*
X139714365Y-94006798D01*
X138660241Y-94006798D01*
X138660241Y-93132415D01*
X140247901Y-93132415D01*
X140265602Y-93240000D01*
X140247901Y-93347585D01*
X140715000Y-93814684D01*
X141182099Y-93347585D01*
X141164398Y-93240000D01*
X141182099Y-93132415D01*
X141897901Y-93132415D01*
X141915602Y-93240000D01*
X141897901Y-93347585D01*
X142365000Y-93814684D01*
X142832099Y-93347585D01*
X142814398Y-93240000D01*
X142832099Y-93132415D01*
X143547901Y-93132415D01*
X143565602Y-93240000D01*
X143547901Y-93347585D01*
X144015000Y-93814684D01*
X144482099Y-93347585D01*
X144464398Y-93240000D01*
X144482099Y-93132415D01*
X145197901Y-93132415D01*
X145215602Y-93240000D01*
X145197901Y-93347585D01*
X145665000Y-93814684D01*
X146132099Y-93347585D01*
X146114398Y-93240000D01*
X146120161Y-93204970D01*
X147842800Y-93204970D01*
X147842800Y-93295030D01*
X147860370Y-93383360D01*
X147894835Y-93466565D01*
X147944870Y-93541448D01*
X148008552Y-93605130D01*
X148083435Y-93655165D01*
X148166640Y-93689630D01*
X148254970Y-93707200D01*
X148345030Y-93707200D01*
X148433360Y-93689630D01*
X148516565Y-93655165D01*
X148591448Y-93605130D01*
X148655130Y-93541448D01*
X148705165Y-93466565D01*
X148739630Y-93383360D01*
X148757200Y-93295030D01*
X148757200Y-93204970D01*
X148739630Y-93116640D01*
X148705165Y-93033435D01*
X148655130Y-92958552D01*
X148591448Y-92894870D01*
X148516565Y-92844835D01*
X148433360Y-92810370D01*
X148345030Y-92792800D01*
X148254970Y-92792800D01*
X148166640Y-92810370D01*
X148083435Y-92844835D01*
X148008552Y-92894870D01*
X147944870Y-92958552D01*
X147894835Y-93033435D01*
X147860370Y-93116640D01*
X147842800Y-93204970D01*
X146120161Y-93204970D01*
X146132099Y-93132415D01*
X145665000Y-92665316D01*
X145197901Y-93132415D01*
X144482099Y-93132415D01*
X144015000Y-92665316D01*
X143547901Y-93132415D01*
X142832099Y-93132415D01*
X142365000Y-92665316D01*
X141897901Y-93132415D01*
X141182099Y-93132415D01*
X140715000Y-92665316D01*
X140247901Y-93132415D01*
X138660241Y-93132415D01*
X138660241Y-92356798D01*
X139714365Y-92356798D01*
X139722237Y-92553131D01*
X139768260Y-92744155D01*
X139812807Y-92851698D01*
X139997585Y-92882099D01*
X140464684Y-92415000D01*
X140965316Y-92415000D01*
X141432415Y-92882099D01*
X141540000Y-92864398D01*
X141647585Y-92882099D01*
X142114684Y-92415000D01*
X142615316Y-92415000D01*
X143082415Y-92882099D01*
X143190000Y-92864398D01*
X143297585Y-92882099D01*
X143764684Y-92415000D01*
X144265316Y-92415000D01*
X144732415Y-92882099D01*
X144840000Y-92864398D01*
X144947585Y-92882099D01*
X145414684Y-92415000D01*
X145915316Y-92415000D01*
X146382415Y-92882099D01*
X146567193Y-92851698D01*
X146635054Y-92667298D01*
X146665635Y-92473202D01*
X146657763Y-92276869D01*
X146611740Y-92085845D01*
X146567193Y-91978302D01*
X146382415Y-91947901D01*
X145915316Y-92415000D01*
X145414684Y-92415000D01*
X144947585Y-91947901D01*
X144840000Y-91965602D01*
X144732415Y-91947901D01*
X144265316Y-92415000D01*
X143764684Y-92415000D01*
X143297585Y-91947901D01*
X143190000Y-91965602D01*
X143082415Y-91947901D01*
X142615316Y-92415000D01*
X142114684Y-92415000D01*
X141647585Y-91947901D01*
X141540000Y-91965602D01*
X141432415Y-91947901D01*
X140965316Y-92415000D01*
X140464684Y-92415000D01*
X139997585Y-91947901D01*
X139812807Y-91978302D01*
X139744946Y-92162702D01*
X139714365Y-92356798D01*
X138660241Y-92356798D01*
X138660241Y-91482415D01*
X140247901Y-91482415D01*
X140265602Y-91590000D01*
X140247901Y-91697585D01*
X140715000Y-92164684D01*
X141182099Y-91697585D01*
X141164398Y-91590000D01*
X141182099Y-91482415D01*
X141897901Y-91482415D01*
X141915602Y-91590000D01*
X141897901Y-91697585D01*
X142365000Y-92164684D01*
X142832099Y-91697585D01*
X142814398Y-91590000D01*
X142832099Y-91482415D01*
X143547901Y-91482415D01*
X143565602Y-91590000D01*
X143547901Y-91697585D01*
X144015000Y-92164684D01*
X144482099Y-91697585D01*
X144464398Y-91590000D01*
X144482099Y-91482415D01*
X145197901Y-91482415D01*
X145215602Y-91590000D01*
X145197901Y-91697585D01*
X145665000Y-92164684D01*
X146132099Y-91697585D01*
X146114398Y-91590000D01*
X146132099Y-91482415D01*
X145665000Y-91015316D01*
X145197901Y-91482415D01*
X144482099Y-91482415D01*
X144015000Y-91015316D01*
X143547901Y-91482415D01*
X142832099Y-91482415D01*
X142365000Y-91015316D01*
X141897901Y-91482415D01*
X141182099Y-91482415D01*
X140715000Y-91015316D01*
X140247901Y-91482415D01*
X138660241Y-91482415D01*
X138660241Y-90706798D01*
X139714365Y-90706798D01*
X139722237Y-90903131D01*
X139768260Y-91094155D01*
X139812807Y-91201698D01*
X139997585Y-91232099D01*
X140464684Y-90765000D01*
X140965316Y-90765000D01*
X141432415Y-91232099D01*
X141540000Y-91214398D01*
X141647585Y-91232099D01*
X142114684Y-90765000D01*
X142615316Y-90765000D01*
X143082415Y-91232099D01*
X143190000Y-91214398D01*
X143297585Y-91232099D01*
X143764684Y-90765000D01*
X144265316Y-90765000D01*
X144732415Y-91232099D01*
X144840000Y-91214398D01*
X144947585Y-91232099D01*
X145414684Y-90765000D01*
X145915316Y-90765000D01*
X146382415Y-91232099D01*
X146567193Y-91201698D01*
X146635054Y-91017298D01*
X146665635Y-90823202D01*
X146657763Y-90626869D01*
X146611740Y-90435845D01*
X146567193Y-90328302D01*
X146382415Y-90297901D01*
X145915316Y-90765000D01*
X145414684Y-90765000D01*
X144947585Y-90297901D01*
X144840000Y-90315602D01*
X144732415Y-90297901D01*
X144265316Y-90765000D01*
X143764684Y-90765000D01*
X143297585Y-90297901D01*
X143190000Y-90315602D01*
X143082415Y-90297901D01*
X142615316Y-90765000D01*
X142114684Y-90765000D01*
X141647585Y-90297901D01*
X141540000Y-90315602D01*
X141432415Y-90297901D01*
X140965316Y-90765000D01*
X140464684Y-90765000D01*
X139997585Y-90297901D01*
X139812807Y-90328302D01*
X139744946Y-90512702D01*
X139714365Y-90706798D01*
X138660241Y-90706798D01*
X138660241Y-89832415D01*
X140247901Y-89832415D01*
X140265602Y-89940000D01*
X140247901Y-90047585D01*
X140715000Y-90514684D01*
X141182099Y-90047585D01*
X141164398Y-89940000D01*
X141182099Y-89832415D01*
X141897901Y-89832415D01*
X141915602Y-89940000D01*
X141897901Y-90047585D01*
X142365000Y-90514684D01*
X142832099Y-90047585D01*
X142814398Y-89940000D01*
X142832099Y-89832415D01*
X143547901Y-89832415D01*
X143565602Y-89940000D01*
X143547901Y-90047585D01*
X144015000Y-90514684D01*
X144482099Y-90047585D01*
X144464398Y-89940000D01*
X144482099Y-89832415D01*
X145197901Y-89832415D01*
X145215602Y-89940000D01*
X145197901Y-90047585D01*
X145665000Y-90514684D01*
X146132099Y-90047585D01*
X146114398Y-89940000D01*
X146132099Y-89832415D01*
X145665000Y-89365316D01*
X145197901Y-89832415D01*
X144482099Y-89832415D01*
X144015000Y-89365316D01*
X143547901Y-89832415D01*
X142832099Y-89832415D01*
X142365000Y-89365316D01*
X141897901Y-89832415D01*
X141182099Y-89832415D01*
X140715000Y-89365316D01*
X140247901Y-89832415D01*
X138660241Y-89832415D01*
X138660241Y-89056798D01*
X139714365Y-89056798D01*
X139722237Y-89253131D01*
X139768260Y-89444155D01*
X139812807Y-89551698D01*
X139997585Y-89582099D01*
X140464684Y-89115000D01*
X140965316Y-89115000D01*
X141432415Y-89582099D01*
X141540000Y-89564398D01*
X141647585Y-89582099D01*
X142114684Y-89115000D01*
X142615316Y-89115000D01*
X143082415Y-89582099D01*
X143190000Y-89564398D01*
X143297585Y-89582099D01*
X143764684Y-89115000D01*
X144265316Y-89115000D01*
X144732415Y-89582099D01*
X144840000Y-89564398D01*
X144947585Y-89582099D01*
X145414684Y-89115000D01*
X145915316Y-89115000D01*
X146382415Y-89582099D01*
X146567193Y-89551698D01*
X146635054Y-89367298D01*
X146665635Y-89173202D01*
X146657763Y-88976869D01*
X146611740Y-88785845D01*
X146567193Y-88678302D01*
X146382415Y-88647901D01*
X145915316Y-89115000D01*
X145414684Y-89115000D01*
X144947585Y-88647901D01*
X144840000Y-88665602D01*
X144732415Y-88647901D01*
X144265316Y-89115000D01*
X143764684Y-89115000D01*
X143297585Y-88647901D01*
X143190000Y-88665602D01*
X143082415Y-88647901D01*
X142615316Y-89115000D01*
X142114684Y-89115000D01*
X141647585Y-88647901D01*
X141540000Y-88665602D01*
X141432415Y-88647901D01*
X140965316Y-89115000D01*
X140464684Y-89115000D01*
X139997585Y-88647901D01*
X139812807Y-88678302D01*
X139744946Y-88862702D01*
X139714365Y-89056798D01*
X138660241Y-89056798D01*
X138660241Y-88408577D01*
X138662809Y-88382503D01*
X138660241Y-88356429D01*
X138660241Y-88356419D01*
X138652558Y-88278409D01*
X138622194Y-88178315D01*
X138572887Y-88086067D01*
X138535869Y-88040962D01*
X138762605Y-88267697D01*
X138774669Y-88282398D01*
X138789369Y-88294462D01*
X138789376Y-88294469D01*
X138815725Y-88316092D01*
X138833369Y-88330572D01*
X138900339Y-88366369D01*
X138973006Y-88388412D01*
X139029641Y-88393990D01*
X139029650Y-88393990D01*
X139048576Y-88395854D01*
X139067502Y-88393990D01*
X140248492Y-88393990D01*
X140247901Y-88397585D01*
X140715000Y-88864684D01*
X141182099Y-88397585D01*
X141181508Y-88393990D01*
X141898492Y-88393990D01*
X141897901Y-88397585D01*
X142365000Y-88864684D01*
X142832099Y-88397585D01*
X142831508Y-88393990D01*
X143548492Y-88393990D01*
X143547901Y-88397585D01*
X144015000Y-88864684D01*
X144482099Y-88397585D01*
X144481508Y-88393990D01*
X145198492Y-88393990D01*
X145197901Y-88397585D01*
X145665000Y-88864684D01*
X146132099Y-88397585D01*
X146131508Y-88393990D01*
X146446928Y-88393990D01*
X147683334Y-89630397D01*
X147695403Y-89645103D01*
X147710109Y-89657172D01*
X147710111Y-89657174D01*
X147754102Y-89693277D01*
X147789899Y-89712411D01*
X147821073Y-89729074D01*
X147893740Y-89751117D01*
X147950375Y-89756695D01*
X147950385Y-89756695D01*
X147969311Y-89758559D01*
X147988237Y-89756695D01*
X150099879Y-89756695D01*
X150118805Y-89758559D01*
X150137731Y-89756695D01*
X150137741Y-89756695D01*
X150194376Y-89751117D01*
X150267043Y-89729074D01*
X150334013Y-89693277D01*
X150392713Y-89645103D01*
X150404786Y-89630392D01*
X150912878Y-89122301D01*
X151004093Y-89113317D01*
X151104187Y-89082953D01*
X151196435Y-89033646D01*
X151277290Y-88967290D01*
X151343646Y-88886435D01*
X151392953Y-88794188D01*
X151423317Y-88694094D01*
X151431000Y-88616084D01*
X151431000Y-87646953D01*
X151433568Y-87620879D01*
X151431000Y-87594805D01*
X151431000Y-87594796D01*
X151423317Y-87516786D01*
X151392953Y-87416692D01*
X151364604Y-87363654D01*
X151343646Y-87324444D01*
X151293917Y-87263850D01*
X151277290Y-87243590D01*
X151257030Y-87226963D01*
X150774674Y-86744608D01*
X150857601Y-86744608D01*
X150945931Y-86727038D01*
X151029136Y-86692573D01*
X151104019Y-86642538D01*
X151167701Y-86578856D01*
X151217736Y-86503973D01*
X151252201Y-86420768D01*
X151269771Y-86332438D01*
X151269771Y-86242378D01*
X151252201Y-86154048D01*
X151217736Y-86070843D01*
X151169831Y-85999147D01*
X151219665Y-85924565D01*
X151254130Y-85841360D01*
X151271700Y-85753030D01*
X151271700Y-85662970D01*
X151254130Y-85574640D01*
X151219665Y-85491435D01*
X151169630Y-85416552D01*
X151105948Y-85352870D01*
X151031065Y-85302835D01*
X150947860Y-85268370D01*
X150859530Y-85250800D01*
X150769470Y-85250800D01*
X150681140Y-85268370D01*
X150597935Y-85302835D01*
X150564751Y-85325008D01*
X150564751Y-84939062D01*
X150567319Y-84912988D01*
X150564751Y-84886914D01*
X150564751Y-83350557D01*
X150668242Y-83350557D01*
X150668242Y-83440617D01*
X150685812Y-83528947D01*
X150720277Y-83612152D01*
X150770312Y-83687035D01*
X150833994Y-83750717D01*
X150908877Y-83800752D01*
X150992082Y-83835217D01*
X151058510Y-83848430D01*
X151034965Y-83853114D01*
X150951760Y-83887579D01*
X150876877Y-83937614D01*
X150813195Y-84001296D01*
X150763160Y-84076179D01*
X150728695Y-84159384D01*
X150711125Y-84247714D01*
X150711125Y-84337774D01*
X150728695Y-84426104D01*
X150763160Y-84509309D01*
X150813195Y-84584192D01*
X150876877Y-84647874D01*
X150951760Y-84697909D01*
X151034965Y-84732374D01*
X151123295Y-84749944D01*
X151213355Y-84749944D01*
X151301685Y-84732374D01*
X151384890Y-84697909D01*
X151459773Y-84647874D01*
X151523455Y-84584192D01*
X151573490Y-84509309D01*
X151607955Y-84426104D01*
X151625525Y-84337774D01*
X151625525Y-84247714D01*
X151607955Y-84159384D01*
X151573490Y-84076179D01*
X151523455Y-84001296D01*
X151459773Y-83937614D01*
X151384890Y-83887579D01*
X151301685Y-83853114D01*
X151235257Y-83839901D01*
X151258802Y-83835217D01*
X151342007Y-83800752D01*
X151416890Y-83750717D01*
X151480572Y-83687035D01*
X151530607Y-83612152D01*
X151565072Y-83528947D01*
X151582642Y-83440617D01*
X151582642Y-83350557D01*
X151565072Y-83262227D01*
X151530607Y-83179022D01*
X151480572Y-83104139D01*
X151416890Y-83040457D01*
X151342007Y-82990422D01*
X151258802Y-82955957D01*
X151170472Y-82938387D01*
X151080412Y-82938387D01*
X150992082Y-82955957D01*
X150908877Y-82990422D01*
X150833994Y-83040457D01*
X150770312Y-83104139D01*
X150720277Y-83179022D01*
X150685812Y-83262227D01*
X150668242Y-83350557D01*
X150564751Y-83350557D01*
X150564751Y-80622005D01*
X150699583Y-80487173D01*
X150713845Y-80534187D01*
G37*
X150713845Y-80534187D02*
X150763152Y-80626435D01*
X150812881Y-80687029D01*
X152089000Y-81963149D01*
X152089001Y-89670051D01*
X151392981Y-90366073D01*
X151392970Y-90366082D01*
X151392964Y-90366088D01*
X151372710Y-90382710D01*
X151356088Y-90402964D01*
X149828729Y-91930324D01*
X149805165Y-91873435D01*
X149755130Y-91798552D01*
X149691448Y-91734870D01*
X149616565Y-91684835D01*
X149533360Y-91650370D01*
X149445030Y-91632800D01*
X149354970Y-91632800D01*
X149266640Y-91650370D01*
X149183435Y-91684835D01*
X149108552Y-91734870D01*
X149044870Y-91798552D01*
X148994835Y-91873435D01*
X148960370Y-91956640D01*
X148942800Y-92044970D01*
X148942800Y-92135030D01*
X148960370Y-92223360D01*
X148994835Y-92306565D01*
X149044870Y-92381448D01*
X149108552Y-92445130D01*
X149183435Y-92495165D01*
X149240324Y-92518730D01*
X148972975Y-92786079D01*
X148952710Y-92802710D01*
X148886354Y-92883565D01*
X148837047Y-92975813D01*
X148806683Y-93075907D01*
X148799000Y-93153917D01*
X148799000Y-93153926D01*
X148796432Y-93180000D01*
X148799000Y-93206074D01*
X148799001Y-94264677D01*
X148796374Y-94258335D01*
X148746339Y-94183452D01*
X148682657Y-94119770D01*
X148607774Y-94069735D01*
X148524569Y-94035270D01*
X148436239Y-94017700D01*
X148346179Y-94017700D01*
X148257849Y-94035270D01*
X148174644Y-94069735D01*
X148099761Y-94119770D01*
X148036079Y-94183452D01*
X147986044Y-94258335D01*
X147951579Y-94341540D01*
X147934009Y-94429870D01*
X147934009Y-94519930D01*
X147951579Y-94608260D01*
X147986044Y-94691465D01*
X148036079Y-94766348D01*
X148099761Y-94830030D01*
X148174644Y-94880065D01*
X148193871Y-94888029D01*
X147752901Y-95329000D01*
X142073916Y-95329000D01*
X141995906Y-95336683D01*
X141895812Y-95367047D01*
X141803565Y-95416354D01*
X141726106Y-95479923D01*
X141724534Y-95480078D01*
X141651867Y-95502121D01*
X141620693Y-95518784D01*
X141584896Y-95537918D01*
X141540905Y-95574021D01*
X141540903Y-95574023D01*
X141526197Y-95586092D01*
X141514128Y-95600798D01*
X140770803Y-96344124D01*
X140756092Y-96356197D01*
X140744021Y-96370906D01*
X140707918Y-96414897D01*
X140690475Y-96447530D01*
X140672121Y-96481868D01*
X140669210Y-96491464D01*
X138960161Y-94782415D01*
X140247901Y-94782415D01*
X140278302Y-94967193D01*
X140462702Y-95035054D01*
X140656798Y-95065635D01*
X140853131Y-95057763D01*
X141044155Y-95011740D01*
X141151698Y-94967193D01*
X141182099Y-94782415D01*
X141897901Y-94782415D01*
X141928302Y-94967193D01*
X142112702Y-95035054D01*
X142306798Y-95065635D01*
X142503131Y-95057763D01*
X142694155Y-95011740D01*
X142801698Y-94967193D01*
X142832099Y-94782415D01*
X143547901Y-94782415D01*
X143578302Y-94967193D01*
X143762702Y-95035054D01*
X143956798Y-95065635D01*
X144153131Y-95057763D01*
X144344155Y-95011740D01*
X144451698Y-94967193D01*
X144482099Y-94782415D01*
X145197901Y-94782415D01*
X145228302Y-94967193D01*
X145412702Y-95035054D01*
X145606798Y-95065635D01*
X145803131Y-95057763D01*
X145994155Y-95011740D01*
X146101698Y-94967193D01*
X146132099Y-94782415D01*
X145665000Y-94315316D01*
X145197901Y-94782415D01*
X144482099Y-94782415D01*
X144015000Y-94315316D01*
X143547901Y-94782415D01*
X142832099Y-94782415D01*
X142365000Y-94315316D01*
X141897901Y-94782415D01*
X141182099Y-94782415D01*
X140715000Y-94315316D01*
X140247901Y-94782415D01*
X138960161Y-94782415D01*
X138660241Y-94482496D01*
X138660241Y-94006798D01*
X139714365Y-94006798D01*
X139722237Y-94203131D01*
X139768260Y-94394155D01*
X139812807Y-94501698D01*
X139997585Y-94532099D01*
X140464684Y-94065000D01*
X140965316Y-94065000D01*
X141432415Y-94532099D01*
X141540000Y-94514398D01*
X141647585Y-94532099D01*
X142114684Y-94065000D01*
X142615316Y-94065000D01*
X143082415Y-94532099D01*
X143190000Y-94514398D01*
X143297585Y-94532099D01*
X143764684Y-94065000D01*
X144265316Y-94065000D01*
X144732415Y-94532099D01*
X144840000Y-94514398D01*
X144947585Y-94532099D01*
X145414684Y-94065000D01*
X145915316Y-94065000D01*
X146382415Y-94532099D01*
X146567193Y-94501698D01*
X146635054Y-94317298D01*
X146665635Y-94123202D01*
X146657763Y-93926869D01*
X146611740Y-93735845D01*
X146567193Y-93628302D01*
X146382415Y-93597901D01*
X145915316Y-94065000D01*
X145414684Y-94065000D01*
X144947585Y-93597901D01*
X144840000Y-93615602D01*
X144732415Y-93597901D01*
X144265316Y-94065000D01*
X143764684Y-94065000D01*
X143297585Y-93597901D01*
X143190000Y-93615602D01*
X143082415Y-93597901D01*
X142615316Y-94065000D01*
X142114684Y-94065000D01*
X141647585Y-93597901D01*
X141540000Y-93615602D01*
X141432415Y-93597901D01*
X140965316Y-94065000D01*
X140464684Y-94065000D01*
X139997585Y-93597901D01*
X139812807Y-93628302D01*
X139744946Y-93812702D01*
X139714365Y-94006798D01*
X138660241Y-94006798D01*
X138660241Y-93132415D01*
X140247901Y-93132415D01*
X140265602Y-93240000D01*
X140247901Y-93347585D01*
X140715000Y-93814684D01*
X141182099Y-93347585D01*
X141164398Y-93240000D01*
X141182099Y-93132415D01*
X141897901Y-93132415D01*
X141915602Y-93240000D01*
X141897901Y-93347585D01*
X142365000Y-93814684D01*
X142832099Y-93347585D01*
X142814398Y-93240000D01*
X142832099Y-93132415D01*
X143547901Y-93132415D01*
X143565602Y-93240000D01*
X143547901Y-93347585D01*
X144015000Y-93814684D01*
X144482099Y-93347585D01*
X144464398Y-93240000D01*
X144482099Y-93132415D01*
X145197901Y-93132415D01*
X145215602Y-93240000D01*
X145197901Y-93347585D01*
X145665000Y-93814684D01*
X146132099Y-93347585D01*
X146114398Y-93240000D01*
X146120161Y-93204970D01*
X147842800Y-93204970D01*
X147842800Y-93295030D01*
X147860370Y-93383360D01*
X147894835Y-93466565D01*
X147944870Y-93541448D01*
X148008552Y-93605130D01*
X148083435Y-93655165D01*
X148166640Y-93689630D01*
X148254970Y-93707200D01*
X148345030Y-93707200D01*
X148433360Y-93689630D01*
X148516565Y-93655165D01*
X148591448Y-93605130D01*
X148655130Y-93541448D01*
X148705165Y-93466565D01*
X148739630Y-93383360D01*
X148757200Y-93295030D01*
X148757200Y-93204970D01*
X148739630Y-93116640D01*
X148705165Y-93033435D01*
X148655130Y-92958552D01*
X148591448Y-92894870D01*
X148516565Y-92844835D01*
X148433360Y-92810370D01*
X148345030Y-92792800D01*
X148254970Y-92792800D01*
X148166640Y-92810370D01*
X148083435Y-92844835D01*
X148008552Y-92894870D01*
X147944870Y-92958552D01*
X147894835Y-93033435D01*
X147860370Y-93116640D01*
X147842800Y-93204970D01*
X146120161Y-93204970D01*
X146132099Y-93132415D01*
X145665000Y-92665316D01*
X145197901Y-93132415D01*
X144482099Y-93132415D01*
X144015000Y-92665316D01*
X143547901Y-93132415D01*
X142832099Y-93132415D01*
X142365000Y-92665316D01*
X141897901Y-93132415D01*
X141182099Y-93132415D01*
X140715000Y-92665316D01*
X140247901Y-93132415D01*
X138660241Y-93132415D01*
X138660241Y-92356798D01*
X139714365Y-92356798D01*
X139722237Y-92553131D01*
X139768260Y-92744155D01*
X139812807Y-92851698D01*
X139997585Y-92882099D01*
X140464684Y-92415000D01*
X140965316Y-92415000D01*
X141432415Y-92882099D01*
X141540000Y-92864398D01*
X141647585Y-92882099D01*
X142114684Y-92415000D01*
X142615316Y-92415000D01*
X143082415Y-92882099D01*
X143190000Y-92864398D01*
X143297585Y-92882099D01*
X143764684Y-92415000D01*
X144265316Y-92415000D01*
X144732415Y-92882099D01*
X144840000Y-92864398D01*
X144947585Y-92882099D01*
X145414684Y-92415000D01*
X145915316Y-92415000D01*
X146382415Y-92882099D01*
X146567193Y-92851698D01*
X146635054Y-92667298D01*
X146665635Y-92473202D01*
X146657763Y-92276869D01*
X146611740Y-92085845D01*
X146567193Y-91978302D01*
X146382415Y-91947901D01*
X145915316Y-92415000D01*
X145414684Y-92415000D01*
X144947585Y-91947901D01*
X144840000Y-91965602D01*
X144732415Y-91947901D01*
X144265316Y-92415000D01*
X143764684Y-92415000D01*
X143297585Y-91947901D01*
X143190000Y-91965602D01*
X143082415Y-91947901D01*
X142615316Y-92415000D01*
X142114684Y-92415000D01*
X141647585Y-91947901D01*
X141540000Y-91965602D01*
X141432415Y-91947901D01*
X140965316Y-92415000D01*
X140464684Y-92415000D01*
X139997585Y-91947901D01*
X139812807Y-91978302D01*
X139744946Y-92162702D01*
X139714365Y-92356798D01*
X138660241Y-92356798D01*
X138660241Y-91482415D01*
X140247901Y-91482415D01*
X140265602Y-91590000D01*
X140247901Y-91697585D01*
X140715000Y-92164684D01*
X141182099Y-91697585D01*
X141164398Y-91590000D01*
X141182099Y-91482415D01*
X141897901Y-91482415D01*
X141915602Y-91590000D01*
X141897901Y-91697585D01*
X142365000Y-92164684D01*
X142832099Y-91697585D01*
X142814398Y-91590000D01*
X142832099Y-91482415D01*
X143547901Y-91482415D01*
X143565602Y-91590000D01*
X143547901Y-91697585D01*
X144015000Y-92164684D01*
X144482099Y-91697585D01*
X144464398Y-91590000D01*
X144482099Y-91482415D01*
X145197901Y-91482415D01*
X145215602Y-91590000D01*
X145197901Y-91697585D01*
X145665000Y-92164684D01*
X146132099Y-91697585D01*
X146114398Y-91590000D01*
X146132099Y-91482415D01*
X145665000Y-91015316D01*
X145197901Y-91482415D01*
X144482099Y-91482415D01*
X144015000Y-91015316D01*
X143547901Y-91482415D01*
X142832099Y-91482415D01*
X142365000Y-91015316D01*
X141897901Y-91482415D01*
X141182099Y-91482415D01*
X140715000Y-91015316D01*
X140247901Y-91482415D01*
X138660241Y-91482415D01*
X138660241Y-90706798D01*
X139714365Y-90706798D01*
X139722237Y-90903131D01*
X139768260Y-91094155D01*
X139812807Y-91201698D01*
X139997585Y-91232099D01*
X140464684Y-90765000D01*
X140965316Y-90765000D01*
X141432415Y-91232099D01*
X141540000Y-91214398D01*
X141647585Y-91232099D01*
X142114684Y-90765000D01*
X142615316Y-90765000D01*
X143082415Y-91232099D01*
X143190000Y-91214398D01*
X143297585Y-91232099D01*
X143764684Y-90765000D01*
X144265316Y-90765000D01*
X144732415Y-91232099D01*
X144840000Y-91214398D01*
X144947585Y-91232099D01*
X145414684Y-90765000D01*
X145915316Y-90765000D01*
X146382415Y-91232099D01*
X146567193Y-91201698D01*
X146635054Y-91017298D01*
X146665635Y-90823202D01*
X146657763Y-90626869D01*
X146611740Y-90435845D01*
X146567193Y-90328302D01*
X146382415Y-90297901D01*
X145915316Y-90765000D01*
X145414684Y-90765000D01*
X144947585Y-90297901D01*
X144840000Y-90315602D01*
X144732415Y-90297901D01*
X144265316Y-90765000D01*
X143764684Y-90765000D01*
X143297585Y-90297901D01*
X143190000Y-90315602D01*
X143082415Y-90297901D01*
X142615316Y-90765000D01*
X142114684Y-90765000D01*
X141647585Y-90297901D01*
X141540000Y-90315602D01*
X141432415Y-90297901D01*
X140965316Y-90765000D01*
X140464684Y-90765000D01*
X139997585Y-90297901D01*
X139812807Y-90328302D01*
X139744946Y-90512702D01*
X139714365Y-90706798D01*
X138660241Y-90706798D01*
X138660241Y-89832415D01*
X140247901Y-89832415D01*
X140265602Y-89940000D01*
X140247901Y-90047585D01*
X140715000Y-90514684D01*
X141182099Y-90047585D01*
X141164398Y-89940000D01*
X141182099Y-89832415D01*
X141897901Y-89832415D01*
X141915602Y-89940000D01*
X141897901Y-90047585D01*
X142365000Y-90514684D01*
X142832099Y-90047585D01*
X142814398Y-89940000D01*
X142832099Y-89832415D01*
X143547901Y-89832415D01*
X143565602Y-89940000D01*
X143547901Y-90047585D01*
X144015000Y-90514684D01*
X144482099Y-90047585D01*
X144464398Y-89940000D01*
X144482099Y-89832415D01*
X145197901Y-89832415D01*
X145215602Y-89940000D01*
X145197901Y-90047585D01*
X145665000Y-90514684D01*
X146132099Y-90047585D01*
X146114398Y-89940000D01*
X146132099Y-89832415D01*
X145665000Y-89365316D01*
X145197901Y-89832415D01*
X144482099Y-89832415D01*
X144015000Y-89365316D01*
X143547901Y-89832415D01*
X142832099Y-89832415D01*
X142365000Y-89365316D01*
X141897901Y-89832415D01*
X141182099Y-89832415D01*
X140715000Y-89365316D01*
X140247901Y-89832415D01*
X138660241Y-89832415D01*
X138660241Y-89056798D01*
X139714365Y-89056798D01*
X139722237Y-89253131D01*
X139768260Y-89444155D01*
X139812807Y-89551698D01*
X139997585Y-89582099D01*
X140464684Y-89115000D01*
X140965316Y-89115000D01*
X141432415Y-89582099D01*
X141540000Y-89564398D01*
X141647585Y-89582099D01*
X142114684Y-89115000D01*
X142615316Y-89115000D01*
X143082415Y-89582099D01*
X143190000Y-89564398D01*
X143297585Y-89582099D01*
X143764684Y-89115000D01*
X144265316Y-89115000D01*
X144732415Y-89582099D01*
X144840000Y-89564398D01*
X144947585Y-89582099D01*
X145414684Y-89115000D01*
X145915316Y-89115000D01*
X146382415Y-89582099D01*
X146567193Y-89551698D01*
X146635054Y-89367298D01*
X146665635Y-89173202D01*
X146657763Y-88976869D01*
X146611740Y-88785845D01*
X146567193Y-88678302D01*
X146382415Y-88647901D01*
X145915316Y-89115000D01*
X145414684Y-89115000D01*
X144947585Y-88647901D01*
X144840000Y-88665602D01*
X144732415Y-88647901D01*
X144265316Y-89115000D01*
X143764684Y-89115000D01*
X143297585Y-88647901D01*
X143190000Y-88665602D01*
X143082415Y-88647901D01*
X142615316Y-89115000D01*
X142114684Y-89115000D01*
X141647585Y-88647901D01*
X141540000Y-88665602D01*
X141432415Y-88647901D01*
X140965316Y-89115000D01*
X140464684Y-89115000D01*
X139997585Y-88647901D01*
X139812807Y-88678302D01*
X139744946Y-88862702D01*
X139714365Y-89056798D01*
X138660241Y-89056798D01*
X138660241Y-88408577D01*
X138662809Y-88382503D01*
X138660241Y-88356429D01*
X138660241Y-88356419D01*
X138652558Y-88278409D01*
X138622194Y-88178315D01*
X138572887Y-88086067D01*
X138535869Y-88040962D01*
X138762605Y-88267697D01*
X138774669Y-88282398D01*
X138789369Y-88294462D01*
X138789376Y-88294469D01*
X138815725Y-88316092D01*
X138833369Y-88330572D01*
X138900339Y-88366369D01*
X138973006Y-88388412D01*
X139029641Y-88393990D01*
X139029650Y-88393990D01*
X139048576Y-88395854D01*
X139067502Y-88393990D01*
X140248492Y-88393990D01*
X140247901Y-88397585D01*
X140715000Y-88864684D01*
X141182099Y-88397585D01*
X141181508Y-88393990D01*
X141898492Y-88393990D01*
X141897901Y-88397585D01*
X142365000Y-88864684D01*
X142832099Y-88397585D01*
X142831508Y-88393990D01*
X143548492Y-88393990D01*
X143547901Y-88397585D01*
X144015000Y-88864684D01*
X144482099Y-88397585D01*
X144481508Y-88393990D01*
X145198492Y-88393990D01*
X145197901Y-88397585D01*
X145665000Y-88864684D01*
X146132099Y-88397585D01*
X146131508Y-88393990D01*
X146446928Y-88393990D01*
X147683334Y-89630397D01*
X147695403Y-89645103D01*
X147710109Y-89657172D01*
X147710111Y-89657174D01*
X147754102Y-89693277D01*
X147789899Y-89712411D01*
X147821073Y-89729074D01*
X147893740Y-89751117D01*
X147950375Y-89756695D01*
X147950385Y-89756695D01*
X147969311Y-89758559D01*
X147988237Y-89756695D01*
X150099879Y-89756695D01*
X150118805Y-89758559D01*
X150137731Y-89756695D01*
X150137741Y-89756695D01*
X150194376Y-89751117D01*
X150267043Y-89729074D01*
X150334013Y-89693277D01*
X150392713Y-89645103D01*
X150404786Y-89630392D01*
X150912878Y-89122301D01*
X151004093Y-89113317D01*
X151104187Y-89082953D01*
X151196435Y-89033646D01*
X151277290Y-88967290D01*
X151343646Y-88886435D01*
X151392953Y-88794188D01*
X151423317Y-88694094D01*
X151431000Y-88616084D01*
X151431000Y-87646953D01*
X151433568Y-87620879D01*
X151431000Y-87594805D01*
X151431000Y-87594796D01*
X151423317Y-87516786D01*
X151392953Y-87416692D01*
X151364604Y-87363654D01*
X151343646Y-87324444D01*
X151293917Y-87263850D01*
X151277290Y-87243590D01*
X151257030Y-87226963D01*
X150774674Y-86744608D01*
X150857601Y-86744608D01*
X150945931Y-86727038D01*
X151029136Y-86692573D01*
X151104019Y-86642538D01*
X151167701Y-86578856D01*
X151217736Y-86503973D01*
X151252201Y-86420768D01*
X151269771Y-86332438D01*
X151269771Y-86242378D01*
X151252201Y-86154048D01*
X151217736Y-86070843D01*
X151169831Y-85999147D01*
X151219665Y-85924565D01*
X151254130Y-85841360D01*
X151271700Y-85753030D01*
X151271700Y-85662970D01*
X151254130Y-85574640D01*
X151219665Y-85491435D01*
X151169630Y-85416552D01*
X151105948Y-85352870D01*
X151031065Y-85302835D01*
X150947860Y-85268370D01*
X150859530Y-85250800D01*
X150769470Y-85250800D01*
X150681140Y-85268370D01*
X150597935Y-85302835D01*
X150564751Y-85325008D01*
X150564751Y-84939062D01*
X150567319Y-84912988D01*
X150564751Y-84886914D01*
X150564751Y-83350557D01*
X150668242Y-83350557D01*
X150668242Y-83440617D01*
X150685812Y-83528947D01*
X150720277Y-83612152D01*
X150770312Y-83687035D01*
X150833994Y-83750717D01*
X150908877Y-83800752D01*
X150992082Y-83835217D01*
X151058510Y-83848430D01*
X151034965Y-83853114D01*
X150951760Y-83887579D01*
X150876877Y-83937614D01*
X150813195Y-84001296D01*
X150763160Y-84076179D01*
X150728695Y-84159384D01*
X150711125Y-84247714D01*
X150711125Y-84337774D01*
X150728695Y-84426104D01*
X150763160Y-84509309D01*
X150813195Y-84584192D01*
X150876877Y-84647874D01*
X150951760Y-84697909D01*
X151034965Y-84732374D01*
X151123295Y-84749944D01*
X151213355Y-84749944D01*
X151301685Y-84732374D01*
X151384890Y-84697909D01*
X151459773Y-84647874D01*
X151523455Y-84584192D01*
X151573490Y-84509309D01*
X151607955Y-84426104D01*
X151625525Y-84337774D01*
X151625525Y-84247714D01*
X151607955Y-84159384D01*
X151573490Y-84076179D01*
X151523455Y-84001296D01*
X151459773Y-83937614D01*
X151384890Y-83887579D01*
X151301685Y-83853114D01*
X151235257Y-83839901D01*
X151258802Y-83835217D01*
X151342007Y-83800752D01*
X151416890Y-83750717D01*
X151480572Y-83687035D01*
X151530607Y-83612152D01*
X151565072Y-83528947D01*
X151582642Y-83440617D01*
X151582642Y-83350557D01*
X151565072Y-83262227D01*
X151530607Y-83179022D01*
X151480572Y-83104139D01*
X151416890Y-83040457D01*
X151342007Y-82990422D01*
X151258802Y-82955957D01*
X151170472Y-82938387D01*
X151080412Y-82938387D01*
X150992082Y-82955957D01*
X150908877Y-82990422D01*
X150833994Y-83040457D01*
X150770312Y-83104139D01*
X150720277Y-83179022D01*
X150685812Y-83262227D01*
X150668242Y-83350557D01*
X150564751Y-83350557D01*
X150564751Y-80622005D01*
X150699583Y-80487173D01*
X150713845Y-80534187D01*
G36*
X150167000Y-75963000D02*
G01*
X150187000Y-75963000D01*
X150187000Y-76317000D01*
X150167000Y-76317000D01*
X150167000Y-76985420D01*
X150320375Y-77094439D01*
X150431286Y-77048509D01*
X150600048Y-76944962D01*
X150745366Y-76810480D01*
X150779827Y-76762993D01*
X150798652Y-76770790D01*
X150925390Y-76796000D01*
X151054610Y-76796000D01*
X151181348Y-76770790D01*
X151300732Y-76721340D01*
X151408176Y-76649548D01*
X151490000Y-76567724D01*
X151571824Y-76649548D01*
X151679268Y-76721340D01*
X151798652Y-76770790D01*
X151925390Y-76796000D01*
X152054610Y-76796000D01*
X152181348Y-76770790D01*
X152300732Y-76721340D01*
X152408176Y-76649548D01*
X152490000Y-76567724D01*
X152571824Y-76649548D01*
X152679268Y-76721340D01*
X152798652Y-76770790D01*
X152925390Y-76796000D01*
X153054610Y-76796000D01*
X153181348Y-76770790D01*
X153300732Y-76721340D01*
X153408176Y-76649548D01*
X153490000Y-76567724D01*
X153571824Y-76649548D01*
X153679268Y-76721340D01*
X153798652Y-76770790D01*
X153912193Y-76793375D01*
X153137506Y-76793375D01*
X153111434Y-76790807D01*
X153085362Y-76793375D01*
X153085351Y-76793375D01*
X153007341Y-76801058D01*
X152907247Y-76831422D01*
X152881594Y-76845134D01*
X152814999Y-76880729D01*
X152810106Y-76884745D01*
X152734145Y-76947085D01*
X152717518Y-76967345D01*
X149676726Y-80008138D01*
X149656461Y-80024769D01*
X149590105Y-80105624D01*
X149540798Y-80197872D01*
X149510434Y-80297966D01*
X149502751Y-80375976D01*
X149502751Y-80375985D01*
X149500183Y-80402059D01*
X149502751Y-80428133D01*
X149502752Y-84240829D01*
X149453360Y-84220370D01*
X149448154Y-84219334D01*
X149479620Y-84143370D01*
X149497190Y-84055040D01*
X149497190Y-83964980D01*
X149479620Y-83876650D01*
X149445155Y-83793445D01*
X149395120Y-83718562D01*
X149331438Y-83654880D01*
X149256555Y-83604845D01*
X149173350Y-83570380D01*
X149085020Y-83552810D01*
X148994960Y-83552810D01*
X148906630Y-83570380D01*
X148823425Y-83604845D01*
X148748542Y-83654880D01*
X148684860Y-83718562D01*
X148634825Y-83793445D01*
X148600360Y-83876650D01*
X148582790Y-83964980D01*
X148582790Y-84055040D01*
X148600360Y-84143370D01*
X148634825Y-84226575D01*
X148684860Y-84301458D01*
X148748542Y-84365140D01*
X148823425Y-84415175D01*
X148906630Y-84449640D01*
X148911836Y-84450676D01*
X148880370Y-84526640D01*
X148862800Y-84614970D01*
X148862800Y-84705030D01*
X148880370Y-84793360D01*
X148914835Y-84876565D01*
X148964870Y-84951448D01*
X149028552Y-85015130D01*
X149103435Y-85065165D01*
X149122662Y-85073129D01*
X148576537Y-85619255D01*
X148285363Y-85619255D01*
X148207353Y-85626938D01*
X148107259Y-85657302D01*
X148015012Y-85706609D01*
X147934157Y-85772965D01*
X147867801Y-85853820D01*
X147818494Y-85946067D01*
X147788130Y-86046161D01*
X147777878Y-86150255D01*
X147788130Y-86254349D01*
X147818494Y-86354443D01*
X147867801Y-86446690D01*
X147934157Y-86527545D01*
X148015012Y-86593901D01*
X148107259Y-86643208D01*
X148207353Y-86673572D01*
X148285363Y-86681255D01*
X148770409Y-86681255D01*
X148796483Y-86683823D01*
X148822557Y-86681255D01*
X148822567Y-86681255D01*
X148900577Y-86673572D01*
X149000671Y-86643208D01*
X149092918Y-86593901D01*
X149173773Y-86527545D01*
X149190404Y-86507280D01*
X149502751Y-86194933D01*
X149502751Y-86728557D01*
X149500183Y-86754631D01*
X149502751Y-86780705D01*
X149502751Y-86780714D01*
X149510434Y-86858724D01*
X149540798Y-86958818D01*
X149590105Y-87051066D01*
X149656461Y-87131921D01*
X149676726Y-87148552D01*
X150369001Y-87840828D01*
X150369000Y-88575821D01*
X149959127Y-88985695D01*
X149605601Y-88985695D01*
X149630560Y-88925440D01*
X149648130Y-88837110D01*
X149648130Y-88747050D01*
X149630560Y-88658720D01*
X149596095Y-88575515D01*
X149546060Y-88500632D01*
X149482378Y-88436950D01*
X149407495Y-88386915D01*
X149324290Y-88352450D01*
X149298111Y-88347243D01*
X149298111Y-88285309D01*
X149280541Y-88196979D01*
X149246076Y-88113774D01*
X149196041Y-88038891D01*
X149132359Y-87975209D01*
X149057476Y-87925174D01*
X148974271Y-87890709D01*
X148885941Y-87873139D01*
X148795881Y-87873139D01*
X148707551Y-87890709D01*
X148624346Y-87925174D01*
X148549463Y-87975209D01*
X148485781Y-88038891D01*
X148435746Y-88113774D01*
X148401281Y-88196979D01*
X148400561Y-88200600D01*
X148385167Y-88163437D01*
X148335132Y-88088554D01*
X148271450Y-88024872D01*
X148196567Y-87974837D01*
X148113362Y-87940372D01*
X148025032Y-87922802D01*
X147994607Y-87922802D01*
X148003316Y-87894094D01*
X148013568Y-87790000D01*
X148003316Y-87685906D01*
X147972953Y-87585812D01*
X147923646Y-87493564D01*
X147873918Y-87432970D01*
X147510900Y-87069954D01*
X147494270Y-87049690D01*
X147413415Y-86983334D01*
X147321168Y-86934027D01*
X147221074Y-86903663D01*
X147143064Y-86895980D01*
X147143054Y-86895980D01*
X147116980Y-86893412D01*
X147090906Y-86895980D01*
X144306548Y-86895980D01*
X144334949Y-86853474D01*
X144369414Y-86770269D01*
X144386984Y-86681939D01*
X144386984Y-86591879D01*
X144383666Y-86575200D01*
X144393497Y-86598933D01*
X144443532Y-86673816D01*
X144507214Y-86737498D01*
X144582097Y-86787533D01*
X144665302Y-86821998D01*
X144753632Y-86839568D01*
X144843692Y-86839568D01*
X144932022Y-86821998D01*
X145015227Y-86787533D01*
X145090110Y-86737498D01*
X145153792Y-86673816D01*
X145203827Y-86598933D01*
X145238050Y-86516313D01*
X145254422Y-86555839D01*
X145304457Y-86630722D01*
X145368139Y-86694404D01*
X145443022Y-86744439D01*
X145526227Y-86778904D01*
X145614557Y-86796474D01*
X145704617Y-86796474D01*
X145792947Y-86778904D01*
X145876152Y-86744439D01*
X145951035Y-86694404D01*
X146014717Y-86630722D01*
X146030128Y-86607658D01*
X146031623Y-86608657D01*
X146114828Y-86643122D01*
X146203158Y-86660692D01*
X146293218Y-86660692D01*
X146381548Y-86643122D01*
X146464753Y-86608657D01*
X146539636Y-86558622D01*
X146603318Y-86494940D01*
X146653353Y-86420057D01*
X146687818Y-86336852D01*
X146705388Y-86248522D01*
X146705388Y-86158462D01*
X146687818Y-86070132D01*
X146653353Y-85986927D01*
X146603318Y-85912044D01*
X146539636Y-85848362D01*
X146464753Y-85798327D01*
X146381548Y-85763862D01*
X146293218Y-85746292D01*
X146203158Y-85746292D01*
X146114828Y-85763862D01*
X146031623Y-85798327D01*
X145971591Y-85838439D01*
X145986256Y-85764713D01*
X145986256Y-85674653D01*
X145968686Y-85586323D01*
X145934221Y-85503118D01*
X145884186Y-85428235D01*
X145820504Y-85364553D01*
X145745621Y-85314518D01*
X145662416Y-85280053D01*
X145574086Y-85262483D01*
X145484026Y-85262483D01*
X145395696Y-85280053D01*
X145312491Y-85314518D01*
X145237608Y-85364553D01*
X145226967Y-85375194D01*
X145166565Y-85334835D01*
X145083360Y-85300370D01*
X144995030Y-85282800D01*
X144904970Y-85282800D01*
X144816640Y-85300370D01*
X144733435Y-85334835D01*
X144658552Y-85384870D01*
X144594870Y-85448552D01*
X144544835Y-85523435D01*
X144510370Y-85606640D01*
X144492800Y-85694970D01*
X144492800Y-85785030D01*
X144510370Y-85873360D01*
X144544835Y-85956565D01*
X144565870Y-85988046D01*
X144507214Y-86027238D01*
X144443532Y-86090920D01*
X144393497Y-86165803D01*
X144359032Y-86249008D01*
X144341462Y-86337338D01*
X144341462Y-86427398D01*
X144344780Y-86444077D01*
X144334949Y-86420344D01*
X144284914Y-86345461D01*
X144221232Y-86281779D01*
X144146349Y-86231744D01*
X144063144Y-86197279D01*
X143974814Y-86179709D01*
X143884754Y-86179709D01*
X143796424Y-86197279D01*
X143713219Y-86231744D01*
X143638336Y-86281779D01*
X143574654Y-86345461D01*
X143524619Y-86420344D01*
X143490154Y-86503549D01*
X143472584Y-86591879D01*
X143472584Y-86681939D01*
X143490154Y-86770269D01*
X143524619Y-86853474D01*
X143553020Y-86895980D01*
X140365459Y-86895980D01*
X139739341Y-86269863D01*
X139767428Y-86177275D01*
X139775111Y-86099265D01*
X139775111Y-86099255D01*
X139777679Y-86073181D01*
X139775111Y-86047107D01*
X139775111Y-85244958D01*
X140939021Y-85244958D01*
X140939021Y-85335018D01*
X140956591Y-85423348D01*
X140991056Y-85506553D01*
X141041091Y-85581436D01*
X141104773Y-85645118D01*
X141179656Y-85695153D01*
X141262861Y-85729618D01*
X141351191Y-85747188D01*
X141441251Y-85747188D01*
X141529581Y-85729618D01*
X141612786Y-85695153D01*
X141687669Y-85645118D01*
X141751351Y-85581436D01*
X141801386Y-85506553D01*
X141835851Y-85423348D01*
X141853421Y-85335018D01*
X141853421Y-85244958D01*
X141835851Y-85156628D01*
X141801386Y-85073423D01*
X141751351Y-84998540D01*
X141687669Y-84934858D01*
X141612786Y-84884823D01*
X141529581Y-84850358D01*
X141441251Y-84832788D01*
X141351191Y-84832788D01*
X141262861Y-84850358D01*
X141179656Y-84884823D01*
X141104773Y-84934858D01*
X141041091Y-84998540D01*
X140991056Y-85073423D01*
X140956591Y-85156628D01*
X140939021Y-85244958D01*
X139775111Y-85244958D01*
X139775111Y-83780978D01*
X139777679Y-83754904D01*
X139775111Y-83728830D01*
X139775111Y-83728820D01*
X139767428Y-83650810D01*
X139737064Y-83550716D01*
X139722796Y-83524023D01*
X139779132Y-83535229D01*
X139869192Y-83535229D01*
X139957522Y-83517659D01*
X140040727Y-83483194D01*
X140115610Y-83433159D01*
X140179292Y-83369477D01*
X140229327Y-83294594D01*
X140263792Y-83211389D01*
X140281362Y-83123059D01*
X140281362Y-83093596D01*
X140339542Y-83082023D01*
X140422747Y-83047558D01*
X140497630Y-82997523D01*
X140499442Y-82995712D01*
X140506403Y-83002673D01*
X140581286Y-83052708D01*
X140664491Y-83087173D01*
X140752821Y-83104743D01*
X140842881Y-83104743D01*
X140931211Y-83087173D01*
X141014416Y-83052708D01*
X141059188Y-83022792D01*
X141084065Y-83047669D01*
X141158948Y-83097704D01*
X141242153Y-83132169D01*
X141330483Y-83149739D01*
X141420543Y-83149739D01*
X141508873Y-83132169D01*
X141592078Y-83097704D01*
X141633013Y-83070352D01*
X141661236Y-83098575D01*
X141736119Y-83148610D01*
X141819324Y-83183075D01*
X141907654Y-83200645D01*
X141997714Y-83200645D01*
X142086044Y-83183075D01*
X142169249Y-83148610D01*
X142190889Y-83134150D01*
X142235125Y-83178386D01*
X142310008Y-83228421D01*
X142347190Y-83243822D01*
X142337649Y-83291788D01*
X142337649Y-83381848D01*
X142355219Y-83470178D01*
X142389684Y-83553383D01*
X142439719Y-83628266D01*
X142503401Y-83691948D01*
X142578284Y-83741983D01*
X142661489Y-83776448D01*
X142749819Y-83794018D01*
X142839879Y-83794018D01*
X142928209Y-83776448D01*
X143011414Y-83741983D01*
X143086297Y-83691948D01*
X143149979Y-83628266D01*
X143200014Y-83553383D01*
X143234479Y-83470178D01*
X143252049Y-83381848D01*
X143252049Y-83381331D01*
X143274769Y-83383569D01*
X143300843Y-83381001D01*
X145863925Y-83381001D01*
X145889999Y-83383569D01*
X145916073Y-83381001D01*
X145916083Y-83381001D01*
X145994093Y-83373318D01*
X146094187Y-83342954D01*
X146186434Y-83293647D01*
X146267289Y-83227291D01*
X146333645Y-83146436D01*
X146382952Y-83054189D01*
X146413316Y-82954095D01*
X146423568Y-82850001D01*
X146413316Y-82745907D01*
X146382952Y-82645813D01*
X146350382Y-82584879D01*
X146350382Y-79945456D01*
X146352950Y-79919382D01*
X146350382Y-79893308D01*
X146350382Y-79893298D01*
X146342699Y-79815288D01*
X146312335Y-79715194D01*
X146301699Y-79695296D01*
X146263028Y-79622946D01*
X146213300Y-79562352D01*
X146213294Y-79562346D01*
X146196672Y-79542092D01*
X146176417Y-79525469D01*
X145773304Y-79122357D01*
X145756673Y-79102093D01*
X145675818Y-79035737D01*
X145583571Y-78986430D01*
X145516042Y-78965945D01*
X147347036Y-77134952D01*
X147367290Y-77118330D01*
X147383912Y-77098076D01*
X147383918Y-77098070D01*
X147433646Y-77037476D01*
X147482953Y-76945228D01*
X147486677Y-76932953D01*
X147513317Y-76845134D01*
X147521000Y-76767124D01*
X147521000Y-76767114D01*
X147523568Y-76741040D01*
X147521000Y-76714966D01*
X147521000Y-76598724D01*
X147571824Y-76649548D01*
X147679268Y-76721340D01*
X147798652Y-76770790D01*
X147925390Y-76796000D01*
X148054610Y-76796000D01*
X148181348Y-76770790D01*
X148300732Y-76721340D01*
X148408176Y-76649548D01*
X148490000Y-76567724D01*
X148571824Y-76649548D01*
X148679268Y-76721340D01*
X148798652Y-76770790D01*
X148925390Y-76796000D01*
X149054610Y-76796000D01*
X149181348Y-76770790D01*
X149200173Y-76762993D01*
X149234634Y-76810480D01*
X149379952Y-76944962D01*
X149548714Y-77048509D01*
X149659625Y-77094439D01*
X149813000Y-76985420D01*
X149813000Y-76317000D01*
X149793000Y-76317000D01*
X149793000Y-75963000D01*
X149813000Y-75963000D01*
X149813000Y-75943000D01*
X150167000Y-75943000D01*
X150167000Y-75963000D01*
G37*
X150167000Y-75963000D02*
X150187000Y-75963000D01*
X150187000Y-76317000D01*
X150167000Y-76317000D01*
X150167000Y-76985420D01*
X150320375Y-77094439D01*
X150431286Y-77048509D01*
X150600048Y-76944962D01*
X150745366Y-76810480D01*
X150779827Y-76762993D01*
X150798652Y-76770790D01*
X150925390Y-76796000D01*
X151054610Y-76796000D01*
X151181348Y-76770790D01*
X151300732Y-76721340D01*
X151408176Y-76649548D01*
X151490000Y-76567724D01*
X151571824Y-76649548D01*
X151679268Y-76721340D01*
X151798652Y-76770790D01*
X151925390Y-76796000D01*
X152054610Y-76796000D01*
X152181348Y-76770790D01*
X152300732Y-76721340D01*
X152408176Y-76649548D01*
X152490000Y-76567724D01*
X152571824Y-76649548D01*
X152679268Y-76721340D01*
X152798652Y-76770790D01*
X152925390Y-76796000D01*
X153054610Y-76796000D01*
X153181348Y-76770790D01*
X153300732Y-76721340D01*
X153408176Y-76649548D01*
X153490000Y-76567724D01*
X153571824Y-76649548D01*
X153679268Y-76721340D01*
X153798652Y-76770790D01*
X153912193Y-76793375D01*
X153137506Y-76793375D01*
X153111434Y-76790807D01*
X153085362Y-76793375D01*
X153085351Y-76793375D01*
X153007341Y-76801058D01*
X152907247Y-76831422D01*
X152881594Y-76845134D01*
X152814999Y-76880729D01*
X152810106Y-76884745D01*
X152734145Y-76947085D01*
X152717518Y-76967345D01*
X149676726Y-80008138D01*
X149656461Y-80024769D01*
X149590105Y-80105624D01*
X149540798Y-80197872D01*
X149510434Y-80297966D01*
X149502751Y-80375976D01*
X149502751Y-80375985D01*
X149500183Y-80402059D01*
X149502751Y-80428133D01*
X149502752Y-84240829D01*
X149453360Y-84220370D01*
X149448154Y-84219334D01*
X149479620Y-84143370D01*
X149497190Y-84055040D01*
X149497190Y-83964980D01*
X149479620Y-83876650D01*
X149445155Y-83793445D01*
X149395120Y-83718562D01*
X149331438Y-83654880D01*
X149256555Y-83604845D01*
X149173350Y-83570380D01*
X149085020Y-83552810D01*
X148994960Y-83552810D01*
X148906630Y-83570380D01*
X148823425Y-83604845D01*
X148748542Y-83654880D01*
X148684860Y-83718562D01*
X148634825Y-83793445D01*
X148600360Y-83876650D01*
X148582790Y-83964980D01*
X148582790Y-84055040D01*
X148600360Y-84143370D01*
X148634825Y-84226575D01*
X148684860Y-84301458D01*
X148748542Y-84365140D01*
X148823425Y-84415175D01*
X148906630Y-84449640D01*
X148911836Y-84450676D01*
X148880370Y-84526640D01*
X148862800Y-84614970D01*
X148862800Y-84705030D01*
X148880370Y-84793360D01*
X148914835Y-84876565D01*
X148964870Y-84951448D01*
X149028552Y-85015130D01*
X149103435Y-85065165D01*
X149122662Y-85073129D01*
X148576537Y-85619255D01*
X148285363Y-85619255D01*
X148207353Y-85626938D01*
X148107259Y-85657302D01*
X148015012Y-85706609D01*
X147934157Y-85772965D01*
X147867801Y-85853820D01*
X147818494Y-85946067D01*
X147788130Y-86046161D01*
X147777878Y-86150255D01*
X147788130Y-86254349D01*
X147818494Y-86354443D01*
X147867801Y-86446690D01*
X147934157Y-86527545D01*
X148015012Y-86593901D01*
X148107259Y-86643208D01*
X148207353Y-86673572D01*
X148285363Y-86681255D01*
X148770409Y-86681255D01*
X148796483Y-86683823D01*
X148822557Y-86681255D01*
X148822567Y-86681255D01*
X148900577Y-86673572D01*
X149000671Y-86643208D01*
X149092918Y-86593901D01*
X149173773Y-86527545D01*
X149190404Y-86507280D01*
X149502751Y-86194933D01*
X149502751Y-86728557D01*
X149500183Y-86754631D01*
X149502751Y-86780705D01*
X149502751Y-86780714D01*
X149510434Y-86858724D01*
X149540798Y-86958818D01*
X149590105Y-87051066D01*
X149656461Y-87131921D01*
X149676726Y-87148552D01*
X150369001Y-87840828D01*
X150369000Y-88575821D01*
X149959127Y-88985695D01*
X149605601Y-88985695D01*
X149630560Y-88925440D01*
X149648130Y-88837110D01*
X149648130Y-88747050D01*
X149630560Y-88658720D01*
X149596095Y-88575515D01*
X149546060Y-88500632D01*
X149482378Y-88436950D01*
X149407495Y-88386915D01*
X149324290Y-88352450D01*
X149298111Y-88347243D01*
X149298111Y-88285309D01*
X149280541Y-88196979D01*
X149246076Y-88113774D01*
X149196041Y-88038891D01*
X149132359Y-87975209D01*
X149057476Y-87925174D01*
X148974271Y-87890709D01*
X148885941Y-87873139D01*
X148795881Y-87873139D01*
X148707551Y-87890709D01*
X148624346Y-87925174D01*
X148549463Y-87975209D01*
X148485781Y-88038891D01*
X148435746Y-88113774D01*
X148401281Y-88196979D01*
X148400561Y-88200600D01*
X148385167Y-88163437D01*
X148335132Y-88088554D01*
X148271450Y-88024872D01*
X148196567Y-87974837D01*
X148113362Y-87940372D01*
X148025032Y-87922802D01*
X147994607Y-87922802D01*
X148003316Y-87894094D01*
X148013568Y-87790000D01*
X148003316Y-87685906D01*
X147972953Y-87585812D01*
X147923646Y-87493564D01*
X147873918Y-87432970D01*
X147510900Y-87069954D01*
X147494270Y-87049690D01*
X147413415Y-86983334D01*
X147321168Y-86934027D01*
X147221074Y-86903663D01*
X147143064Y-86895980D01*
X147143054Y-86895980D01*
X147116980Y-86893412D01*
X147090906Y-86895980D01*
X144306548Y-86895980D01*
X144334949Y-86853474D01*
X144369414Y-86770269D01*
X144386984Y-86681939D01*
X144386984Y-86591879D01*
X144383666Y-86575200D01*
X144393497Y-86598933D01*
X144443532Y-86673816D01*
X144507214Y-86737498D01*
X144582097Y-86787533D01*
X144665302Y-86821998D01*
X144753632Y-86839568D01*
X144843692Y-86839568D01*
X144932022Y-86821998D01*
X145015227Y-86787533D01*
X145090110Y-86737498D01*
X145153792Y-86673816D01*
X145203827Y-86598933D01*
X145238050Y-86516313D01*
X145254422Y-86555839D01*
X145304457Y-86630722D01*
X145368139Y-86694404D01*
X145443022Y-86744439D01*
X145526227Y-86778904D01*
X145614557Y-86796474D01*
X145704617Y-86796474D01*
X145792947Y-86778904D01*
X145876152Y-86744439D01*
X145951035Y-86694404D01*
X146014717Y-86630722D01*
X146030128Y-86607658D01*
X146031623Y-86608657D01*
X146114828Y-86643122D01*
X146203158Y-86660692D01*
X146293218Y-86660692D01*
X146381548Y-86643122D01*
X146464753Y-86608657D01*
X146539636Y-86558622D01*
X146603318Y-86494940D01*
X146653353Y-86420057D01*
X146687818Y-86336852D01*
X146705388Y-86248522D01*
X146705388Y-86158462D01*
X146687818Y-86070132D01*
X146653353Y-85986927D01*
X146603318Y-85912044D01*
X146539636Y-85848362D01*
X146464753Y-85798327D01*
X146381548Y-85763862D01*
X146293218Y-85746292D01*
X146203158Y-85746292D01*
X146114828Y-85763862D01*
X146031623Y-85798327D01*
X145971591Y-85838439D01*
X145986256Y-85764713D01*
X145986256Y-85674653D01*
X145968686Y-85586323D01*
X145934221Y-85503118D01*
X145884186Y-85428235D01*
X145820504Y-85364553D01*
X145745621Y-85314518D01*
X145662416Y-85280053D01*
X145574086Y-85262483D01*
X145484026Y-85262483D01*
X145395696Y-85280053D01*
X145312491Y-85314518D01*
X145237608Y-85364553D01*
X145226967Y-85375194D01*
X145166565Y-85334835D01*
X145083360Y-85300370D01*
X144995030Y-85282800D01*
X144904970Y-85282800D01*
X144816640Y-85300370D01*
X144733435Y-85334835D01*
X144658552Y-85384870D01*
X144594870Y-85448552D01*
X144544835Y-85523435D01*
X144510370Y-85606640D01*
X144492800Y-85694970D01*
X144492800Y-85785030D01*
X144510370Y-85873360D01*
X144544835Y-85956565D01*
X144565870Y-85988046D01*
X144507214Y-86027238D01*
X144443532Y-86090920D01*
X144393497Y-86165803D01*
X144359032Y-86249008D01*
X144341462Y-86337338D01*
X144341462Y-86427398D01*
X144344780Y-86444077D01*
X144334949Y-86420344D01*
X144284914Y-86345461D01*
X144221232Y-86281779D01*
X144146349Y-86231744D01*
X144063144Y-86197279D01*
X143974814Y-86179709D01*
X143884754Y-86179709D01*
X143796424Y-86197279D01*
X143713219Y-86231744D01*
X143638336Y-86281779D01*
X143574654Y-86345461D01*
X143524619Y-86420344D01*
X143490154Y-86503549D01*
X143472584Y-86591879D01*
X143472584Y-86681939D01*
X143490154Y-86770269D01*
X143524619Y-86853474D01*
X143553020Y-86895980D01*
X140365459Y-86895980D01*
X139739341Y-86269863D01*
X139767428Y-86177275D01*
X139775111Y-86099265D01*
X139775111Y-86099255D01*
X139777679Y-86073181D01*
X139775111Y-86047107D01*
X139775111Y-85244958D01*
X140939021Y-85244958D01*
X140939021Y-85335018D01*
X140956591Y-85423348D01*
X140991056Y-85506553D01*
X141041091Y-85581436D01*
X141104773Y-85645118D01*
X141179656Y-85695153D01*
X141262861Y-85729618D01*
X141351191Y-85747188D01*
X141441251Y-85747188D01*
X141529581Y-85729618D01*
X141612786Y-85695153D01*
X141687669Y-85645118D01*
X141751351Y-85581436D01*
X141801386Y-85506553D01*
X141835851Y-85423348D01*
X141853421Y-85335018D01*
X141853421Y-85244958D01*
X141835851Y-85156628D01*
X141801386Y-85073423D01*
X141751351Y-84998540D01*
X141687669Y-84934858D01*
X141612786Y-84884823D01*
X141529581Y-84850358D01*
X141441251Y-84832788D01*
X141351191Y-84832788D01*
X141262861Y-84850358D01*
X141179656Y-84884823D01*
X141104773Y-84934858D01*
X141041091Y-84998540D01*
X140991056Y-85073423D01*
X140956591Y-85156628D01*
X140939021Y-85244958D01*
X139775111Y-85244958D01*
X139775111Y-83780978D01*
X139777679Y-83754904D01*
X139775111Y-83728830D01*
X139775111Y-83728820D01*
X139767428Y-83650810D01*
X139737064Y-83550716D01*
X139722796Y-83524023D01*
X139779132Y-83535229D01*
X139869192Y-83535229D01*
X139957522Y-83517659D01*
X140040727Y-83483194D01*
X140115610Y-83433159D01*
X140179292Y-83369477D01*
X140229327Y-83294594D01*
X140263792Y-83211389D01*
X140281362Y-83123059D01*
X140281362Y-83093596D01*
X140339542Y-83082023D01*
X140422747Y-83047558D01*
X140497630Y-82997523D01*
X140499442Y-82995712D01*
X140506403Y-83002673D01*
X140581286Y-83052708D01*
X140664491Y-83087173D01*
X140752821Y-83104743D01*
X140842881Y-83104743D01*
X140931211Y-83087173D01*
X141014416Y-83052708D01*
X141059188Y-83022792D01*
X141084065Y-83047669D01*
X141158948Y-83097704D01*
X141242153Y-83132169D01*
X141330483Y-83149739D01*
X141420543Y-83149739D01*
X141508873Y-83132169D01*
X141592078Y-83097704D01*
X141633013Y-83070352D01*
X141661236Y-83098575D01*
X141736119Y-83148610D01*
X141819324Y-83183075D01*
X141907654Y-83200645D01*
X141997714Y-83200645D01*
X142086044Y-83183075D01*
X142169249Y-83148610D01*
X142190889Y-83134150D01*
X142235125Y-83178386D01*
X142310008Y-83228421D01*
X142347190Y-83243822D01*
X142337649Y-83291788D01*
X142337649Y-83381848D01*
X142355219Y-83470178D01*
X142389684Y-83553383D01*
X142439719Y-83628266D01*
X142503401Y-83691948D01*
X142578284Y-83741983D01*
X142661489Y-83776448D01*
X142749819Y-83794018D01*
X142839879Y-83794018D01*
X142928209Y-83776448D01*
X143011414Y-83741983D01*
X143086297Y-83691948D01*
X143149979Y-83628266D01*
X143200014Y-83553383D01*
X143234479Y-83470178D01*
X143252049Y-83381848D01*
X143252049Y-83381331D01*
X143274769Y-83383569D01*
X143300843Y-83381001D01*
X145863925Y-83381001D01*
X145889999Y-83383569D01*
X145916073Y-83381001D01*
X145916083Y-83381001D01*
X145994093Y-83373318D01*
X146094187Y-83342954D01*
X146186434Y-83293647D01*
X146267289Y-83227291D01*
X146333645Y-83146436D01*
X146382952Y-83054189D01*
X146413316Y-82954095D01*
X146423568Y-82850001D01*
X146413316Y-82745907D01*
X146382952Y-82645813D01*
X146350382Y-82584879D01*
X146350382Y-79945456D01*
X146352950Y-79919382D01*
X146350382Y-79893308D01*
X146350382Y-79893298D01*
X146342699Y-79815288D01*
X146312335Y-79715194D01*
X146301699Y-79695296D01*
X146263028Y-79622946D01*
X146213300Y-79562352D01*
X146213294Y-79562346D01*
X146196672Y-79542092D01*
X146176417Y-79525469D01*
X145773304Y-79122357D01*
X145756673Y-79102093D01*
X145675818Y-79035737D01*
X145583571Y-78986430D01*
X145516042Y-78965945D01*
X147347036Y-77134952D01*
X147367290Y-77118330D01*
X147383912Y-77098076D01*
X147383918Y-77098070D01*
X147433646Y-77037476D01*
X147482953Y-76945228D01*
X147486677Y-76932953D01*
X147513317Y-76845134D01*
X147521000Y-76767124D01*
X147521000Y-76767114D01*
X147523568Y-76741040D01*
X147521000Y-76714966D01*
X147521000Y-76598724D01*
X147571824Y-76649548D01*
X147679268Y-76721340D01*
X147798652Y-76770790D01*
X147925390Y-76796000D01*
X148054610Y-76796000D01*
X148181348Y-76770790D01*
X148300732Y-76721340D01*
X148408176Y-76649548D01*
X148490000Y-76567724D01*
X148571824Y-76649548D01*
X148679268Y-76721340D01*
X148798652Y-76770790D01*
X148925390Y-76796000D01*
X149054610Y-76796000D01*
X149181348Y-76770790D01*
X149200173Y-76762993D01*
X149234634Y-76810480D01*
X149379952Y-76944962D01*
X149548714Y-77048509D01*
X149659625Y-77094439D01*
X149813000Y-76985420D01*
X149813000Y-76317000D01*
X149793000Y-76317000D01*
X149793000Y-75963000D01*
X149813000Y-75963000D01*
X149813000Y-75943000D01*
X150167000Y-75943000D01*
X150167000Y-75963000D01*
G36*
X157224474Y-81174539D02*
G01*
X157224027Y-81178788D01*
X157195460Y-81470140D01*
X157195460Y-81470159D01*
X157194001Y-81484973D01*
X157194000Y-88243054D01*
X156391089Y-87440143D01*
X156391089Y-81999857D01*
X157226651Y-81164296D01*
X157224474Y-81174539D01*
G37*
X157224474Y-81174539D02*
X157224027Y-81178788D01*
X157195460Y-81470140D01*
X157195460Y-81470159D01*
X157194001Y-81484973D01*
X157194000Y-88243054D01*
X156391089Y-87440143D01*
X156391089Y-81999857D01*
X157226651Y-81164296D01*
X157224474Y-81174539D01*
G36*
X131612883Y-78225000D02*
G01*
X131617343Y-78270284D01*
X131630552Y-78313827D01*
X131652002Y-78353957D01*
X131680868Y-78389132D01*
X131716043Y-78417998D01*
X131756173Y-78439448D01*
X131799716Y-78452657D01*
X131845000Y-78457117D01*
X133795000Y-78457117D01*
X133800000Y-78456625D01*
X133805000Y-78457117D01*
X135755000Y-78457117D01*
X135800284Y-78452657D01*
X135843827Y-78439448D01*
X135883957Y-78417998D01*
X135919132Y-78389132D01*
X135947998Y-78353957D01*
X135969448Y-78313827D01*
X135982657Y-78270284D01*
X135987117Y-78225000D01*
X135987117Y-78096209D01*
X138349774Y-80458867D01*
X138349773Y-83365492D01*
X138347205Y-83391566D01*
X138349773Y-83417640D01*
X138349773Y-83417649D01*
X138357456Y-83495659D01*
X138387820Y-83595753D01*
X138437127Y-83688001D01*
X138503483Y-83768856D01*
X138523747Y-83785486D01*
X138713112Y-83974852D01*
X138713112Y-84226028D01*
X138655826Y-84202299D01*
X138567496Y-84184729D01*
X138517206Y-84184729D01*
X138509630Y-84146640D01*
X138475165Y-84063435D01*
X138425130Y-83988552D01*
X138361448Y-83924870D01*
X138286565Y-83874835D01*
X138203360Y-83840370D01*
X138115030Y-83822800D01*
X138024970Y-83822800D01*
X137936640Y-83840370D01*
X137853435Y-83874835D01*
X137778552Y-83924870D01*
X137714870Y-83988552D01*
X137664835Y-84063435D01*
X137630370Y-84146640D01*
X137612800Y-84234970D01*
X137612800Y-84325030D01*
X137630370Y-84413360D01*
X137664835Y-84496565D01*
X137714870Y-84571448D01*
X137778552Y-84635130D01*
X137853435Y-84685165D01*
X137936640Y-84719630D01*
X138024970Y-84737200D01*
X138075260Y-84737200D01*
X138082836Y-84775289D01*
X138117301Y-84858494D01*
X138167336Y-84933377D01*
X138231018Y-84997059D01*
X138305901Y-85047094D01*
X138389106Y-85081559D01*
X138477436Y-85099129D01*
X138567496Y-85099129D01*
X138655826Y-85081559D01*
X138713111Y-85057830D01*
X138713111Y-85853235D01*
X138660887Y-85905459D01*
X138640622Y-85922090D01*
X138577136Y-85999448D01*
X138574266Y-86002945D01*
X138524959Y-86095193D01*
X138494596Y-86195287D01*
X138484344Y-86299380D01*
X138494596Y-86403473D01*
X138524959Y-86503567D01*
X138574266Y-86595815D01*
X138640622Y-86676670D01*
X138660887Y-86693301D01*
X139590575Y-87622990D01*
X139208257Y-87622990D01*
X138651336Y-87066071D01*
X138612474Y-87027209D01*
X138605568Y-86992491D01*
X138571103Y-86909286D01*
X138521068Y-86834403D01*
X138457386Y-86770721D01*
X138382503Y-86720686D01*
X138299298Y-86686221D01*
X138264581Y-86679315D01*
X136092501Y-84507236D01*
X136092501Y-80634265D01*
X136090024Y-80609115D01*
X136090024Y-80567081D01*
X136072454Y-80478751D01*
X136037989Y-80395546D01*
X135987954Y-80320663D01*
X135924272Y-80256981D01*
X135849389Y-80206946D01*
X135766184Y-80172481D01*
X135677854Y-80154911D01*
X135587794Y-80154911D01*
X135499464Y-80172481D01*
X135453699Y-80191438D01*
X135444479Y-80145086D01*
X135313993Y-79830064D01*
X135124556Y-79546552D01*
X134883448Y-79305444D01*
X134599936Y-79116007D01*
X134284914Y-78985521D01*
X133950489Y-78919000D01*
X133609511Y-78919000D01*
X133275086Y-78985521D01*
X132960064Y-79116007D01*
X132676552Y-79305444D01*
X132435444Y-79546552D01*
X132246007Y-79830064D01*
X132222918Y-79885807D01*
X132176565Y-79854835D01*
X132093360Y-79820370D01*
X132005030Y-79802800D01*
X131914970Y-79802800D01*
X131826640Y-79820370D01*
X131743435Y-79854835D01*
X131668552Y-79904870D01*
X131604870Y-79968552D01*
X131554835Y-80043435D01*
X131520370Y-80126640D01*
X131502800Y-80214970D01*
X131502800Y-80305030D01*
X131520370Y-80393360D01*
X131554835Y-80476565D01*
X131574501Y-80505997D01*
X131574500Y-81381873D01*
X131572636Y-81400799D01*
X131574500Y-81419725D01*
X131574500Y-81419734D01*
X131580078Y-81476369D01*
X131602121Y-81549036D01*
X131614916Y-81572973D01*
X131637918Y-81616007D01*
X131640827Y-81619551D01*
X131686092Y-81674707D01*
X131700803Y-81686780D01*
X132704725Y-82690703D01*
X132716794Y-82705409D01*
X132731500Y-82717478D01*
X132731502Y-82717480D01*
X132775493Y-82753583D01*
X132794445Y-82763713D01*
X132842464Y-82789380D01*
X132915131Y-82811423D01*
X132971766Y-82817001D01*
X132971776Y-82817001D01*
X132990702Y-82818865D01*
X133009628Y-82817001D01*
X134146663Y-82817001D01*
X134101658Y-82862006D01*
X134051623Y-82936889D01*
X134017158Y-83020094D01*
X134013211Y-83039938D01*
X133945282Y-83039938D01*
X133856952Y-83057508D01*
X133773747Y-83091973D01*
X133698864Y-83142008D01*
X133635182Y-83205690D01*
X133585147Y-83280573D01*
X133550682Y-83363778D01*
X133533112Y-83452108D01*
X133533112Y-83542168D01*
X133550682Y-83630498D01*
X133585147Y-83713703D01*
X133620758Y-83766999D01*
X132127946Y-83766999D01*
X131020382Y-82659436D01*
X131020382Y-77781962D01*
X131612883Y-77189462D01*
X131612883Y-78225000D01*
G37*
X131612883Y-78225000D02*
X131617343Y-78270284D01*
X131630552Y-78313827D01*
X131652002Y-78353957D01*
X131680868Y-78389132D01*
X131716043Y-78417998D01*
X131756173Y-78439448D01*
X131799716Y-78452657D01*
X131845000Y-78457117D01*
X133795000Y-78457117D01*
X133800000Y-78456625D01*
X133805000Y-78457117D01*
X135755000Y-78457117D01*
X135800284Y-78452657D01*
X135843827Y-78439448D01*
X135883957Y-78417998D01*
X135919132Y-78389132D01*
X135947998Y-78353957D01*
X135969448Y-78313827D01*
X135982657Y-78270284D01*
X135987117Y-78225000D01*
X135987117Y-78096209D01*
X138349774Y-80458867D01*
X138349773Y-83365492D01*
X138347205Y-83391566D01*
X138349773Y-83417640D01*
X138349773Y-83417649D01*
X138357456Y-83495659D01*
X138387820Y-83595753D01*
X138437127Y-83688001D01*
X138503483Y-83768856D01*
X138523747Y-83785486D01*
X138713112Y-83974852D01*
X138713112Y-84226028D01*
X138655826Y-84202299D01*
X138567496Y-84184729D01*
X138517206Y-84184729D01*
X138509630Y-84146640D01*
X138475165Y-84063435D01*
X138425130Y-83988552D01*
X138361448Y-83924870D01*
X138286565Y-83874835D01*
X138203360Y-83840370D01*
X138115030Y-83822800D01*
X138024970Y-83822800D01*
X137936640Y-83840370D01*
X137853435Y-83874835D01*
X137778552Y-83924870D01*
X137714870Y-83988552D01*
X137664835Y-84063435D01*
X137630370Y-84146640D01*
X137612800Y-84234970D01*
X137612800Y-84325030D01*
X137630370Y-84413360D01*
X137664835Y-84496565D01*
X137714870Y-84571448D01*
X137778552Y-84635130D01*
X137853435Y-84685165D01*
X137936640Y-84719630D01*
X138024970Y-84737200D01*
X138075260Y-84737200D01*
X138082836Y-84775289D01*
X138117301Y-84858494D01*
X138167336Y-84933377D01*
X138231018Y-84997059D01*
X138305901Y-85047094D01*
X138389106Y-85081559D01*
X138477436Y-85099129D01*
X138567496Y-85099129D01*
X138655826Y-85081559D01*
X138713111Y-85057830D01*
X138713111Y-85853235D01*
X138660887Y-85905459D01*
X138640622Y-85922090D01*
X138577136Y-85999448D01*
X138574266Y-86002945D01*
X138524959Y-86095193D01*
X138494596Y-86195287D01*
X138484344Y-86299380D01*
X138494596Y-86403473D01*
X138524959Y-86503567D01*
X138574266Y-86595815D01*
X138640622Y-86676670D01*
X138660887Y-86693301D01*
X139590575Y-87622990D01*
X139208257Y-87622990D01*
X138651336Y-87066071D01*
X138612474Y-87027209D01*
X138605568Y-86992491D01*
X138571103Y-86909286D01*
X138521068Y-86834403D01*
X138457386Y-86770721D01*
X138382503Y-86720686D01*
X138299298Y-86686221D01*
X138264581Y-86679315D01*
X136092501Y-84507236D01*
X136092501Y-80634265D01*
X136090024Y-80609115D01*
X136090024Y-80567081D01*
X136072454Y-80478751D01*
X136037989Y-80395546D01*
X135987954Y-80320663D01*
X135924272Y-80256981D01*
X135849389Y-80206946D01*
X135766184Y-80172481D01*
X135677854Y-80154911D01*
X135587794Y-80154911D01*
X135499464Y-80172481D01*
X135453699Y-80191438D01*
X135444479Y-80145086D01*
X135313993Y-79830064D01*
X135124556Y-79546552D01*
X134883448Y-79305444D01*
X134599936Y-79116007D01*
X134284914Y-78985521D01*
X133950489Y-78919000D01*
X133609511Y-78919000D01*
X133275086Y-78985521D01*
X132960064Y-79116007D01*
X132676552Y-79305444D01*
X132435444Y-79546552D01*
X132246007Y-79830064D01*
X132222918Y-79885807D01*
X132176565Y-79854835D01*
X132093360Y-79820370D01*
X132005030Y-79802800D01*
X131914970Y-79802800D01*
X131826640Y-79820370D01*
X131743435Y-79854835D01*
X131668552Y-79904870D01*
X131604870Y-79968552D01*
X131554835Y-80043435D01*
X131520370Y-80126640D01*
X131502800Y-80214970D01*
X131502800Y-80305030D01*
X131520370Y-80393360D01*
X131554835Y-80476565D01*
X131574501Y-80505997D01*
X131574500Y-81381873D01*
X131572636Y-81400799D01*
X131574500Y-81419725D01*
X131574500Y-81419734D01*
X131580078Y-81476369D01*
X131602121Y-81549036D01*
X131614916Y-81572973D01*
X131637918Y-81616007D01*
X131640827Y-81619551D01*
X131686092Y-81674707D01*
X131700803Y-81686780D01*
X132704725Y-82690703D01*
X132716794Y-82705409D01*
X132731500Y-82717478D01*
X132731502Y-82717480D01*
X132775493Y-82753583D01*
X132794445Y-82763713D01*
X132842464Y-82789380D01*
X132915131Y-82811423D01*
X132971766Y-82817001D01*
X132971776Y-82817001D01*
X132990702Y-82818865D01*
X133009628Y-82817001D01*
X134146663Y-82817001D01*
X134101658Y-82862006D01*
X134051623Y-82936889D01*
X134017158Y-83020094D01*
X134013211Y-83039938D01*
X133945282Y-83039938D01*
X133856952Y-83057508D01*
X133773747Y-83091973D01*
X133698864Y-83142008D01*
X133635182Y-83205690D01*
X133585147Y-83280573D01*
X133550682Y-83363778D01*
X133533112Y-83452108D01*
X133533112Y-83542168D01*
X133550682Y-83630498D01*
X133585147Y-83713703D01*
X133620758Y-83766999D01*
X132127946Y-83766999D01*
X131020382Y-82659436D01*
X131020382Y-77781962D01*
X131612883Y-77189462D01*
X131612883Y-78225000D01*
G36*
X143006813Y-80107131D02*
G01*
X143122953Y-80223271D01*
X142959102Y-80232381D01*
X142906976Y-80388385D01*
X142886287Y-80551559D01*
X142897829Y-80715634D01*
X142941159Y-80874304D01*
X142959102Y-80917619D01*
X143128314Y-80927027D01*
X143480341Y-80575000D01*
X143463371Y-80558030D01*
X143708030Y-80313371D01*
X143725000Y-80330341D01*
X143741971Y-80313371D01*
X143986630Y-80558030D01*
X143969659Y-80575000D01*
X144306856Y-80912197D01*
X144309102Y-80917619D01*
X144312465Y-80917806D01*
X144321686Y-80927027D01*
X144400000Y-80922673D01*
X144478314Y-80927027D01*
X144487535Y-80917806D01*
X144490898Y-80917619D01*
X144492492Y-80912849D01*
X144830341Y-80575000D01*
X144813371Y-80558030D01*
X145058030Y-80313371D01*
X145075000Y-80330341D01*
X145091971Y-80313371D01*
X145288382Y-80509782D01*
X145288382Y-80640218D01*
X145091971Y-80836630D01*
X145075000Y-80819659D01*
X144737803Y-81156856D01*
X144732381Y-81159102D01*
X144732194Y-81162465D01*
X144722973Y-81171686D01*
X144727327Y-81250000D01*
X144722973Y-81328314D01*
X144732194Y-81337535D01*
X144732381Y-81340898D01*
X144737151Y-81342492D01*
X145075000Y-81680341D01*
X145091971Y-81663371D01*
X145288383Y-81859783D01*
X145288383Y-81990217D01*
X145091971Y-82186630D01*
X145075000Y-82169659D01*
X145058030Y-82186630D01*
X144813371Y-81941971D01*
X144830341Y-81925000D01*
X144493144Y-81587803D01*
X144490898Y-81582381D01*
X144487535Y-81582194D01*
X144478314Y-81572973D01*
X144400000Y-81577327D01*
X144321686Y-81572973D01*
X144312465Y-81582194D01*
X144309102Y-81582381D01*
X144307508Y-81587151D01*
X143969659Y-81925000D01*
X143986630Y-81941971D01*
X143741971Y-82186630D01*
X143725000Y-82169659D01*
X143708030Y-82186630D01*
X143463371Y-81941971D01*
X143480341Y-81925000D01*
X143128314Y-81572973D01*
X142959102Y-81582381D01*
X142906976Y-81738385D01*
X142886287Y-81901559D01*
X142897829Y-82065634D01*
X142941159Y-82224304D01*
X142959102Y-82267619D01*
X143057778Y-82273105D01*
X143003197Y-82289662D01*
X142910949Y-82338969D01*
X142830094Y-82405325D01*
X142792532Y-82451095D01*
X142743138Y-82418091D01*
X142659933Y-82383626D01*
X142571603Y-82366056D01*
X142481543Y-82366056D01*
X142393213Y-82383626D01*
X142310008Y-82418091D01*
X142288368Y-82432551D01*
X142244132Y-82388315D01*
X142169249Y-82338280D01*
X142086044Y-82303815D01*
X141997714Y-82286245D01*
X141907654Y-82286245D01*
X141819324Y-82303815D01*
X141736119Y-82338280D01*
X141695184Y-82365632D01*
X141666961Y-82337409D01*
X141592078Y-82287374D01*
X141508873Y-82252909D01*
X141420543Y-82235339D01*
X141330483Y-82235339D01*
X141242153Y-82252909D01*
X141158948Y-82287374D01*
X141114176Y-82317290D01*
X141089299Y-82292413D01*
X141014416Y-82242378D01*
X140931211Y-82207913D01*
X140842881Y-82190343D01*
X140752821Y-82190343D01*
X140664491Y-82207913D01*
X140581286Y-82242378D01*
X140506403Y-82292413D01*
X140504592Y-82294225D01*
X140497630Y-82287263D01*
X140422747Y-82237228D01*
X140339542Y-82202763D01*
X140251212Y-82185193D01*
X140161152Y-82185193D01*
X140072822Y-82202763D01*
X139989617Y-82237228D01*
X139914734Y-82287263D01*
X139851052Y-82350945D01*
X139801017Y-82425828D01*
X139766552Y-82509033D01*
X139748982Y-82597363D01*
X139748982Y-82626826D01*
X139690802Y-82638399D01*
X139607597Y-82672864D01*
X139532714Y-82722899D01*
X139469032Y-82786581D01*
X139418997Y-82861464D01*
X139411773Y-82878904D01*
X139411773Y-81171686D01*
X143372973Y-81171686D01*
X143377327Y-81250000D01*
X143372973Y-81328314D01*
X143382194Y-81337535D01*
X143382381Y-81340898D01*
X143387151Y-81342492D01*
X143725000Y-81680341D01*
X144062197Y-81343144D01*
X144067619Y-81340898D01*
X144067806Y-81337535D01*
X144077027Y-81328314D01*
X144072673Y-81250000D01*
X144077027Y-81171686D01*
X144067806Y-81162465D01*
X144067619Y-81159102D01*
X144062849Y-81157508D01*
X143725000Y-80819659D01*
X143387803Y-81156856D01*
X143382381Y-81159102D01*
X143382194Y-81162465D01*
X143372973Y-81171686D01*
X139411773Y-81171686D01*
X139411773Y-80264992D01*
X139414341Y-80238918D01*
X139411773Y-80212844D01*
X139411773Y-80212835D01*
X139404090Y-80134825D01*
X139373726Y-80034731D01*
X139366209Y-80020667D01*
X139360712Y-80010383D01*
X143103561Y-80010383D01*
X143006813Y-80107131D01*
G37*
X143006813Y-80107131D02*
X143122953Y-80223271D01*
X142959102Y-80232381D01*
X142906976Y-80388385D01*
X142886287Y-80551559D01*
X142897829Y-80715634D01*
X142941159Y-80874304D01*
X142959102Y-80917619D01*
X143128314Y-80927027D01*
X143480341Y-80575000D01*
X143463371Y-80558030D01*
X143708030Y-80313371D01*
X143725000Y-80330341D01*
X143741971Y-80313371D01*
X143986630Y-80558030D01*
X143969659Y-80575000D01*
X144306856Y-80912197D01*
X144309102Y-80917619D01*
X144312465Y-80917806D01*
X144321686Y-80927027D01*
X144400000Y-80922673D01*
X144478314Y-80927027D01*
X144487535Y-80917806D01*
X144490898Y-80917619D01*
X144492492Y-80912849D01*
X144830341Y-80575000D01*
X144813371Y-80558030D01*
X145058030Y-80313371D01*
X145075000Y-80330341D01*
X145091971Y-80313371D01*
X145288382Y-80509782D01*
X145288382Y-80640218D01*
X145091971Y-80836630D01*
X145075000Y-80819659D01*
X144737803Y-81156856D01*
X144732381Y-81159102D01*
X144732194Y-81162465D01*
X144722973Y-81171686D01*
X144727327Y-81250000D01*
X144722973Y-81328314D01*
X144732194Y-81337535D01*
X144732381Y-81340898D01*
X144737151Y-81342492D01*
X145075000Y-81680341D01*
X145091971Y-81663371D01*
X145288383Y-81859783D01*
X145288383Y-81990217D01*
X145091971Y-82186630D01*
X145075000Y-82169659D01*
X145058030Y-82186630D01*
X144813371Y-81941971D01*
X144830341Y-81925000D01*
X144493144Y-81587803D01*
X144490898Y-81582381D01*
X144487535Y-81582194D01*
X144478314Y-81572973D01*
X144400000Y-81577327D01*
X144321686Y-81572973D01*
X144312465Y-81582194D01*
X144309102Y-81582381D01*
X144307508Y-81587151D01*
X143969659Y-81925000D01*
X143986630Y-81941971D01*
X143741971Y-82186630D01*
X143725000Y-82169659D01*
X143708030Y-82186630D01*
X143463371Y-81941971D01*
X143480341Y-81925000D01*
X143128314Y-81572973D01*
X142959102Y-81582381D01*
X142906976Y-81738385D01*
X142886287Y-81901559D01*
X142897829Y-82065634D01*
X142941159Y-82224304D01*
X142959102Y-82267619D01*
X143057778Y-82273105D01*
X143003197Y-82289662D01*
X142910949Y-82338969D01*
X142830094Y-82405325D01*
X142792532Y-82451095D01*
X142743138Y-82418091D01*
X142659933Y-82383626D01*
X142571603Y-82366056D01*
X142481543Y-82366056D01*
X142393213Y-82383626D01*
X142310008Y-82418091D01*
X142288368Y-82432551D01*
X142244132Y-82388315D01*
X142169249Y-82338280D01*
X142086044Y-82303815D01*
X141997714Y-82286245D01*
X141907654Y-82286245D01*
X141819324Y-82303815D01*
X141736119Y-82338280D01*
X141695184Y-82365632D01*
X141666961Y-82337409D01*
X141592078Y-82287374D01*
X141508873Y-82252909D01*
X141420543Y-82235339D01*
X141330483Y-82235339D01*
X141242153Y-82252909D01*
X141158948Y-82287374D01*
X141114176Y-82317290D01*
X141089299Y-82292413D01*
X141014416Y-82242378D01*
X140931211Y-82207913D01*
X140842881Y-82190343D01*
X140752821Y-82190343D01*
X140664491Y-82207913D01*
X140581286Y-82242378D01*
X140506403Y-82292413D01*
X140504592Y-82294225D01*
X140497630Y-82287263D01*
X140422747Y-82237228D01*
X140339542Y-82202763D01*
X140251212Y-82185193D01*
X140161152Y-82185193D01*
X140072822Y-82202763D01*
X139989617Y-82237228D01*
X139914734Y-82287263D01*
X139851052Y-82350945D01*
X139801017Y-82425828D01*
X139766552Y-82509033D01*
X139748982Y-82597363D01*
X139748982Y-82626826D01*
X139690802Y-82638399D01*
X139607597Y-82672864D01*
X139532714Y-82722899D01*
X139469032Y-82786581D01*
X139418997Y-82861464D01*
X139411773Y-82878904D01*
X139411773Y-81171686D01*
X143372973Y-81171686D01*
X143377327Y-81250000D01*
X143372973Y-81328314D01*
X143382194Y-81337535D01*
X143382381Y-81340898D01*
X143387151Y-81342492D01*
X143725000Y-81680341D01*
X144062197Y-81343144D01*
X144067619Y-81340898D01*
X144067806Y-81337535D01*
X144077027Y-81328314D01*
X144072673Y-81250000D01*
X144077027Y-81171686D01*
X144067806Y-81162465D01*
X144067619Y-81159102D01*
X144062849Y-81157508D01*
X143725000Y-80819659D01*
X143387803Y-81156856D01*
X143382381Y-81159102D01*
X143382194Y-81162465D01*
X143372973Y-81171686D01*
X139411773Y-81171686D01*
X139411773Y-80264992D01*
X139414341Y-80238918D01*
X139411773Y-80212844D01*
X139411773Y-80212835D01*
X139404090Y-80134825D01*
X139373726Y-80034731D01*
X139366209Y-80020667D01*
X139360712Y-80010383D01*
X143103561Y-80010383D01*
X143006813Y-80107131D01*
G36*
X130497821Y-75317970D02*
G01*
X128644981Y-77170811D01*
X128624721Y-77187438D01*
X128608094Y-77207698D01*
X128608093Y-77207699D01*
X128558364Y-77268293D01*
X128509057Y-77360541D01*
X128499904Y-77390716D01*
X128479517Y-77457923D01*
X128478694Y-77460635D01*
X128468442Y-77564728D01*
X128471011Y-77590812D01*
X128471011Y-80456100D01*
X128292728Y-80240592D01*
X128273049Y-80221050D01*
X128253644Y-80201234D01*
X128250352Y-80198511D01*
X128023488Y-80013485D01*
X128000370Y-79998126D01*
X127977503Y-79982468D01*
X127973746Y-79980436D01*
X127715264Y-79842999D01*
X127689583Y-79832414D01*
X127664131Y-79821505D01*
X127660050Y-79820241D01*
X127379796Y-79735627D01*
X127352585Y-79730239D01*
X127331000Y-79725651D01*
X127331000Y-75306000D01*
X130507645Y-75306000D01*
X130497821Y-75317970D01*
G37*
X130497821Y-75317970D02*
X128644981Y-77170811D01*
X128624721Y-77187438D01*
X128608094Y-77207698D01*
X128608093Y-77207699D01*
X128558364Y-77268293D01*
X128509057Y-77360541D01*
X128499904Y-77390716D01*
X128479517Y-77457923D01*
X128478694Y-77460635D01*
X128468442Y-77564728D01*
X128471011Y-77590812D01*
X128471011Y-80456100D01*
X128292728Y-80240592D01*
X128273049Y-80221050D01*
X128253644Y-80201234D01*
X128250352Y-80198511D01*
X128023488Y-80013485D01*
X128000370Y-79998126D01*
X127977503Y-79982468D01*
X127973746Y-79980436D01*
X127715264Y-79842999D01*
X127689583Y-79832414D01*
X127664131Y-79821505D01*
X127660050Y-79820241D01*
X127379796Y-79735627D01*
X127352585Y-79730239D01*
X127331000Y-79725651D01*
X127331000Y-75306000D01*
X130507645Y-75306000D01*
X130497821Y-75317970D01*
G36*
X158694000Y-79723412D02*
G01*
X158666398Y-79726313D01*
X158639217Y-79731893D01*
X158611986Y-79737087D01*
X158607896Y-79738322D01*
X158599325Y-79740975D01*
X158602953Y-79734188D01*
X158608591Y-79715602D01*
X158633317Y-79634094D01*
X158641000Y-79556084D01*
X158641000Y-79556074D01*
X158643568Y-79530000D01*
X158641000Y-79503926D01*
X158641000Y-78546073D01*
X158643568Y-78519999D01*
X158641000Y-78493925D01*
X158641000Y-78493916D01*
X158633317Y-78415906D01*
X158602953Y-78315812D01*
X158570395Y-78254900D01*
X158553646Y-78223564D01*
X158503917Y-78162970D01*
X158487290Y-78142710D01*
X158467030Y-78126083D01*
X157945375Y-77604429D01*
X157945375Y-77350459D01*
X157947944Y-77324375D01*
X157937692Y-77220281D01*
X157907328Y-77120187D01*
X157858021Y-77027940D01*
X157791665Y-76947085D01*
X157710810Y-76880729D01*
X157618563Y-76831422D01*
X157518469Y-76801058D01*
X157440459Y-76793375D01*
X157414375Y-76790806D01*
X157388291Y-76793375D01*
X157067807Y-76793375D01*
X157181348Y-76770790D01*
X157300732Y-76721340D01*
X157408176Y-76649548D01*
X157490000Y-76567724D01*
X157571824Y-76649548D01*
X157679268Y-76721340D01*
X157798652Y-76770790D01*
X157925390Y-76796000D01*
X158054610Y-76796000D01*
X158181348Y-76770790D01*
X158300732Y-76721340D01*
X158408176Y-76649548D01*
X158499548Y-76558176D01*
X158571340Y-76450732D01*
X158620790Y-76331348D01*
X158646000Y-76204610D01*
X158646000Y-76075390D01*
X158620790Y-75948652D01*
X158571340Y-75829268D01*
X158499548Y-75721824D01*
X158408176Y-75630452D01*
X158300732Y-75558660D01*
X158181348Y-75509210D01*
X158054610Y-75484000D01*
X157925390Y-75484000D01*
X157798652Y-75509210D01*
X157679268Y-75558660D01*
X157571824Y-75630452D01*
X157490000Y-75712276D01*
X157408176Y-75630452D01*
X157300732Y-75558660D01*
X157181348Y-75509210D01*
X157054610Y-75484000D01*
X156925390Y-75484000D01*
X156798652Y-75509210D01*
X156679268Y-75558660D01*
X156571824Y-75630452D01*
X156490000Y-75712276D01*
X156408176Y-75630452D01*
X156300732Y-75558660D01*
X156181348Y-75509210D01*
X156054610Y-75484000D01*
X155925390Y-75484000D01*
X155798652Y-75509210D01*
X155679268Y-75558660D01*
X155571824Y-75630452D01*
X155490000Y-75712276D01*
X155408176Y-75630452D01*
X155300732Y-75558660D01*
X155181348Y-75509210D01*
X155054610Y-75484000D01*
X154925390Y-75484000D01*
X154798652Y-75509210D01*
X154679268Y-75558660D01*
X154571824Y-75630452D01*
X154490000Y-75712276D01*
X154408176Y-75630452D01*
X154300732Y-75558660D01*
X154181348Y-75509210D01*
X154054610Y-75484000D01*
X153925390Y-75484000D01*
X153798652Y-75509210D01*
X153679268Y-75558660D01*
X153571824Y-75630452D01*
X153490000Y-75712276D01*
X153408176Y-75630452D01*
X153300732Y-75558660D01*
X153181348Y-75509210D01*
X153054610Y-75484000D01*
X152925390Y-75484000D01*
X152798652Y-75509210D01*
X152679268Y-75558660D01*
X152571824Y-75630452D01*
X152490000Y-75712276D01*
X152408176Y-75630452D01*
X152300732Y-75558660D01*
X152181348Y-75509210D01*
X152054610Y-75484000D01*
X151925390Y-75484000D01*
X151798652Y-75509210D01*
X151679268Y-75558660D01*
X151571824Y-75630452D01*
X151490000Y-75712276D01*
X151408176Y-75630452D01*
X151300732Y-75558660D01*
X151181348Y-75509210D01*
X151054610Y-75484000D01*
X150925390Y-75484000D01*
X150798652Y-75509210D01*
X150779827Y-75517007D01*
X150745366Y-75469520D01*
X150600048Y-75335038D01*
X150552722Y-75306000D01*
X158694001Y-75306000D01*
X158694000Y-79723412D01*
G37*
X158694000Y-79723412D02*
X158666398Y-79726313D01*
X158639217Y-79731893D01*
X158611986Y-79737087D01*
X158607896Y-79738322D01*
X158599325Y-79740975D01*
X158602953Y-79734188D01*
X158608591Y-79715602D01*
X158633317Y-79634094D01*
X158641000Y-79556084D01*
X158641000Y-79556074D01*
X158643568Y-79530000D01*
X158641000Y-79503926D01*
X158641000Y-78546073D01*
X158643568Y-78519999D01*
X158641000Y-78493925D01*
X158641000Y-78493916D01*
X158633317Y-78415906D01*
X158602953Y-78315812D01*
X158570395Y-78254900D01*
X158553646Y-78223564D01*
X158503917Y-78162970D01*
X158487290Y-78142710D01*
X158467030Y-78126083D01*
X157945375Y-77604429D01*
X157945375Y-77350459D01*
X157947944Y-77324375D01*
X157937692Y-77220281D01*
X157907328Y-77120187D01*
X157858021Y-77027940D01*
X157791665Y-76947085D01*
X157710810Y-76880729D01*
X157618563Y-76831422D01*
X157518469Y-76801058D01*
X157440459Y-76793375D01*
X157414375Y-76790806D01*
X157388291Y-76793375D01*
X157067807Y-76793375D01*
X157181348Y-76770790D01*
X157300732Y-76721340D01*
X157408176Y-76649548D01*
X157490000Y-76567724D01*
X157571824Y-76649548D01*
X157679268Y-76721340D01*
X157798652Y-76770790D01*
X157925390Y-76796000D01*
X158054610Y-76796000D01*
X158181348Y-76770790D01*
X158300732Y-76721340D01*
X158408176Y-76649548D01*
X158499548Y-76558176D01*
X158571340Y-76450732D01*
X158620790Y-76331348D01*
X158646000Y-76204610D01*
X158646000Y-76075390D01*
X158620790Y-75948652D01*
X158571340Y-75829268D01*
X158499548Y-75721824D01*
X158408176Y-75630452D01*
X158300732Y-75558660D01*
X158181348Y-75509210D01*
X158054610Y-75484000D01*
X157925390Y-75484000D01*
X157798652Y-75509210D01*
X157679268Y-75558660D01*
X157571824Y-75630452D01*
X157490000Y-75712276D01*
X157408176Y-75630452D01*
X157300732Y-75558660D01*
X157181348Y-75509210D01*
X157054610Y-75484000D01*
X156925390Y-75484000D01*
X156798652Y-75509210D01*
X156679268Y-75558660D01*
X156571824Y-75630452D01*
X156490000Y-75712276D01*
X156408176Y-75630452D01*
X156300732Y-75558660D01*
X156181348Y-75509210D01*
X156054610Y-75484000D01*
X155925390Y-75484000D01*
X155798652Y-75509210D01*
X155679268Y-75558660D01*
X155571824Y-75630452D01*
X155490000Y-75712276D01*
X155408176Y-75630452D01*
X155300732Y-75558660D01*
X155181348Y-75509210D01*
X155054610Y-75484000D01*
X154925390Y-75484000D01*
X154798652Y-75509210D01*
X154679268Y-75558660D01*
X154571824Y-75630452D01*
X154490000Y-75712276D01*
X154408176Y-75630452D01*
X154300732Y-75558660D01*
X154181348Y-75509210D01*
X154054610Y-75484000D01*
X153925390Y-75484000D01*
X153798652Y-75509210D01*
X153679268Y-75558660D01*
X153571824Y-75630452D01*
X153490000Y-75712276D01*
X153408176Y-75630452D01*
X153300732Y-75558660D01*
X153181348Y-75509210D01*
X153054610Y-75484000D01*
X152925390Y-75484000D01*
X152798652Y-75509210D01*
X152679268Y-75558660D01*
X152571824Y-75630452D01*
X152490000Y-75712276D01*
X152408176Y-75630452D01*
X152300732Y-75558660D01*
X152181348Y-75509210D01*
X152054610Y-75484000D01*
X151925390Y-75484000D01*
X151798652Y-75509210D01*
X151679268Y-75558660D01*
X151571824Y-75630452D01*
X151490000Y-75712276D01*
X151408176Y-75630452D01*
X151300732Y-75558660D01*
X151181348Y-75509210D01*
X151054610Y-75484000D01*
X150925390Y-75484000D01*
X150798652Y-75509210D01*
X150779827Y-75517007D01*
X150745366Y-75469520D01*
X150600048Y-75335038D01*
X150552722Y-75306000D01*
X158694001Y-75306000D01*
X158694000Y-79723412D01*
G36*
X146167000Y-75963000D02*
G01*
X146187000Y-75963000D01*
X146187000Y-76317000D01*
X146167000Y-76317000D01*
X146167000Y-76337000D01*
X145813000Y-76337000D01*
X145813000Y-76317000D01*
X145793000Y-76317000D01*
X145793000Y-75963000D01*
X145813000Y-75963000D01*
X145813000Y-75943000D01*
X146167000Y-75943000D01*
X146167000Y-75963000D01*
G37*
X146167000Y-75963000D02*
X146187000Y-75963000D01*
X146187000Y-76317000D01*
X146167000Y-76317000D01*
X146167000Y-76337000D01*
X145813000Y-76337000D01*
X145813000Y-76317000D01*
X145793000Y-76317000D01*
X145793000Y-75963000D01*
X145813000Y-75963000D01*
X145813000Y-75943000D01*
X146167000Y-75943000D01*
X146167000Y-75963000D01*
M02*
