G04 #@! TF.GenerationSoftware,KiCad,Pcbnew,5.1.2+dfsg1-1*
G04 #@! TF.CreationDate,2019-05-14T00:22:57+09:00*
G04 #@! TF.ProjectId,breadbee,62726561-6462-4656-952e-6b696361645f,rev?*
G04 #@! TF.SameCoordinates,Original*
G04 #@! TF.FileFunction,Legend,Bot*
G04 #@! TF.FilePolarity,Positive*
%FSLAX46Y46*%
G04 Gerber Fmt 4.6, Leading zero omitted, Abs format (unit mm)*
G04 Created by KiCad (PCBNEW 5.1.2+dfsg1-1) date 2019-05-14 00:22:57*
%MOMM*%
%LPD*%
G04 APERTURE LIST*
%ADD10C,0.125000*%
%ADD11C,0.120000*%
%ADD12C,0.150000*%
G04 APERTURE END LIST*
D10*
X134970476Y-98416190D02*
X134970476Y-97916190D01*
X134970476Y-98106666D02*
X134922857Y-98082857D01*
X134827619Y-98082857D01*
X134780000Y-98106666D01*
X134756190Y-98130476D01*
X134732380Y-98178095D01*
X134732380Y-98320952D01*
X134756190Y-98368571D01*
X134780000Y-98392380D01*
X134827619Y-98416190D01*
X134922857Y-98416190D01*
X134970476Y-98392380D01*
X134518095Y-98416190D02*
X134518095Y-98082857D01*
X134518095Y-98178095D02*
X134494285Y-98130476D01*
X134470476Y-98106666D01*
X134422857Y-98082857D01*
X134375238Y-98082857D01*
X134018095Y-98392380D02*
X134065714Y-98416190D01*
X134160952Y-98416190D01*
X134208571Y-98392380D01*
X134232380Y-98344761D01*
X134232380Y-98154285D01*
X134208571Y-98106666D01*
X134160952Y-98082857D01*
X134065714Y-98082857D01*
X134018095Y-98106666D01*
X133994285Y-98154285D01*
X133994285Y-98201904D01*
X134232380Y-98249523D01*
X133565714Y-98416190D02*
X133565714Y-98154285D01*
X133589523Y-98106666D01*
X133637142Y-98082857D01*
X133732380Y-98082857D01*
X133780000Y-98106666D01*
X133565714Y-98392380D02*
X133613333Y-98416190D01*
X133732380Y-98416190D01*
X133780000Y-98392380D01*
X133803809Y-98344761D01*
X133803809Y-98297142D01*
X133780000Y-98249523D01*
X133732380Y-98225714D01*
X133613333Y-98225714D01*
X133565714Y-98201904D01*
X133113333Y-98416190D02*
X133113333Y-97916190D01*
X133113333Y-98392380D02*
X133160952Y-98416190D01*
X133256190Y-98416190D01*
X133303809Y-98392380D01*
X133327619Y-98368571D01*
X133351428Y-98320952D01*
X133351428Y-98178095D01*
X133327619Y-98130476D01*
X133303809Y-98106666D01*
X133256190Y-98082857D01*
X133160952Y-98082857D01*
X133113333Y-98106666D01*
X132875238Y-98416190D02*
X132875238Y-97916190D01*
X132875238Y-98106666D02*
X132827619Y-98082857D01*
X132732380Y-98082857D01*
X132684761Y-98106666D01*
X132660952Y-98130476D01*
X132637142Y-98178095D01*
X132637142Y-98320952D01*
X132660952Y-98368571D01*
X132684761Y-98392380D01*
X132732380Y-98416190D01*
X132827619Y-98416190D01*
X132875238Y-98392380D01*
X132232380Y-98392380D02*
X132280000Y-98416190D01*
X132375238Y-98416190D01*
X132422857Y-98392380D01*
X132446666Y-98344761D01*
X132446666Y-98154285D01*
X132422857Y-98106666D01*
X132375238Y-98082857D01*
X132280000Y-98082857D01*
X132232380Y-98106666D01*
X132208571Y-98154285D01*
X132208571Y-98201904D01*
X132446666Y-98249523D01*
X131803809Y-98392380D02*
X131851428Y-98416190D01*
X131946666Y-98416190D01*
X131994285Y-98392380D01*
X132018095Y-98344761D01*
X132018095Y-98154285D01*
X131994285Y-98106666D01*
X131946666Y-98082857D01*
X131851428Y-98082857D01*
X131803809Y-98106666D01*
X131780000Y-98154285D01*
X131780000Y-98201904D01*
X132018095Y-98249523D01*
X131184761Y-98416190D02*
X131184761Y-98082857D01*
X131184761Y-98178095D02*
X131160952Y-98130476D01*
X131137142Y-98106666D01*
X131089523Y-98082857D01*
X131041904Y-98082857D01*
X130684761Y-98392380D02*
X130732380Y-98416190D01*
X130827619Y-98416190D01*
X130875238Y-98392380D01*
X130899047Y-98344761D01*
X130899047Y-98154285D01*
X130875238Y-98106666D01*
X130827619Y-98082857D01*
X130732380Y-98082857D01*
X130684761Y-98106666D01*
X130660952Y-98154285D01*
X130660952Y-98201904D01*
X130899047Y-98249523D01*
X130494285Y-98082857D02*
X130375238Y-98416190D01*
X130256190Y-98082857D01*
X129970476Y-97916190D02*
X129922857Y-97916190D01*
X129875238Y-97940000D01*
X129851428Y-97963809D01*
X129827619Y-98011428D01*
X129803809Y-98106666D01*
X129803809Y-98225714D01*
X129827619Y-98320952D01*
X129851428Y-98368571D01*
X129875238Y-98392380D01*
X129922857Y-98416190D01*
X129970476Y-98416190D01*
X130018095Y-98392380D01*
X130041904Y-98368571D01*
X130065714Y-98320952D01*
X130089523Y-98225714D01*
X130089523Y-98106666D01*
X130065714Y-98011428D01*
X130041904Y-97963809D01*
X130018095Y-97940000D01*
X129970476Y-97916190D01*
X129327619Y-97667500D02*
X128875238Y-97667500D01*
X128994285Y-98416190D02*
X128994285Y-97916190D01*
X128994285Y-98392380D02*
X129041904Y-98416190D01*
X129137142Y-98416190D01*
X129184761Y-98392380D01*
X129208571Y-98368571D01*
X129232380Y-98320952D01*
X129232380Y-98178095D01*
X129208571Y-98130476D01*
X129184761Y-98106666D01*
X129137142Y-98082857D01*
X129041904Y-98082857D01*
X128994285Y-98106666D01*
X128875238Y-97667500D02*
X128422857Y-97667500D01*
X128541904Y-98082857D02*
X128541904Y-98487619D01*
X128565714Y-98535238D01*
X128589523Y-98559047D01*
X128637142Y-98582857D01*
X128708571Y-98582857D01*
X128756190Y-98559047D01*
X128541904Y-98392380D02*
X128589523Y-98416190D01*
X128684761Y-98416190D01*
X128732380Y-98392380D01*
X128756190Y-98368571D01*
X128780000Y-98320952D01*
X128780000Y-98178095D01*
X128756190Y-98130476D01*
X128732380Y-98106666D01*
X128684761Y-98082857D01*
X128589523Y-98082857D01*
X128541904Y-98106666D01*
X128422857Y-97667500D02*
X127970476Y-97667500D01*
X128303809Y-98082857D02*
X128303809Y-98582857D01*
X128303809Y-98106666D02*
X128256190Y-98082857D01*
X128160952Y-98082857D01*
X128113333Y-98106666D01*
X128089523Y-98130476D01*
X128065714Y-98178095D01*
X128065714Y-98320952D01*
X128089523Y-98368571D01*
X128113333Y-98392380D01*
X128160952Y-98416190D01*
X128256190Y-98416190D01*
X128303809Y-98392380D01*
D11*
X147514000Y-96884000D02*
G75*
G03X147514000Y-96884000I-700000J0D01*
G01*
D12*
X153900000Y-78950000D02*
X153900000Y-95050000D01*
X128500000Y-95050000D02*
X153900000Y-95050000D01*
X128500000Y-78950000D02*
X128500000Y-95050000D01*
X128500000Y-78950000D02*
X153900000Y-78950000D01*
D11*
X157745000Y-98380000D02*
X155295000Y-98380000D01*
X155945000Y-95160000D02*
X157745000Y-95160000D01*
D12*
X132252380Y-86666666D02*
X132966666Y-86666666D01*
X133109523Y-86619047D01*
X133204761Y-86523809D01*
X133252380Y-86380952D01*
X133252380Y-86285714D01*
X133252380Y-87666666D02*
X133252380Y-87095238D01*
X133252380Y-87380952D02*
X132252380Y-87380952D01*
X132395238Y-87285714D01*
X132490476Y-87190476D01*
X132538095Y-87095238D01*
D10*
X158710952Y-94326190D02*
X158710952Y-94730952D01*
X158687142Y-94778571D01*
X158663333Y-94802380D01*
X158615714Y-94826190D01*
X158520476Y-94826190D01*
X158472857Y-94802380D01*
X158449047Y-94778571D01*
X158425238Y-94730952D01*
X158425238Y-94326190D01*
X157949047Y-94326190D02*
X158187142Y-94326190D01*
X158210952Y-94564285D01*
X158187142Y-94540476D01*
X158139523Y-94516666D01*
X158020476Y-94516666D01*
X157972857Y-94540476D01*
X157949047Y-94564285D01*
X157925238Y-94611904D01*
X157925238Y-94730952D01*
X157949047Y-94778571D01*
X157972857Y-94802380D01*
X158020476Y-94826190D01*
X158139523Y-94826190D01*
X158187142Y-94802380D01*
X158210952Y-94778571D01*
X155788571Y-78258571D02*
X155812380Y-78234761D01*
X155836190Y-78163333D01*
X155836190Y-78115714D01*
X155812380Y-78044285D01*
X155764761Y-77996666D01*
X155717142Y-77972857D01*
X155621904Y-77949047D01*
X155550476Y-77949047D01*
X155455238Y-77972857D01*
X155407619Y-77996666D01*
X155360000Y-78044285D01*
X155336190Y-78115714D01*
X155336190Y-78163333D01*
X155360000Y-78234761D01*
X155383809Y-78258571D01*
X155336190Y-78425238D02*
X155336190Y-78734761D01*
X155526666Y-78568095D01*
X155526666Y-78639523D01*
X155550476Y-78687142D01*
X155574285Y-78710952D01*
X155621904Y-78734761D01*
X155740952Y-78734761D01*
X155788571Y-78710952D01*
X155812380Y-78687142D01*
X155836190Y-78639523D01*
X155836190Y-78496666D01*
X155812380Y-78449047D01*
X155788571Y-78425238D01*
X155502857Y-79163333D02*
X155836190Y-79163333D01*
X155312380Y-79044285D02*
X155669523Y-78925238D01*
X155669523Y-79234761D01*
X156488571Y-78258571D02*
X156512380Y-78234761D01*
X156536190Y-78163333D01*
X156536190Y-78115714D01*
X156512380Y-78044285D01*
X156464761Y-77996666D01*
X156417142Y-77972857D01*
X156321904Y-77949047D01*
X156250476Y-77949047D01*
X156155238Y-77972857D01*
X156107619Y-77996666D01*
X156060000Y-78044285D01*
X156036190Y-78115714D01*
X156036190Y-78163333D01*
X156060000Y-78234761D01*
X156083809Y-78258571D01*
X156036190Y-78425238D02*
X156036190Y-78734761D01*
X156226666Y-78568095D01*
X156226666Y-78639523D01*
X156250476Y-78687142D01*
X156274285Y-78710952D01*
X156321904Y-78734761D01*
X156440952Y-78734761D01*
X156488571Y-78710952D01*
X156512380Y-78687142D01*
X156536190Y-78639523D01*
X156536190Y-78496666D01*
X156512380Y-78449047D01*
X156488571Y-78425238D01*
X156036190Y-78901428D02*
X156036190Y-79210952D01*
X156226666Y-79044285D01*
X156226666Y-79115714D01*
X156250476Y-79163333D01*
X156274285Y-79187142D01*
X156321904Y-79210952D01*
X156440952Y-79210952D01*
X156488571Y-79187142D01*
X156512380Y-79163333D01*
X156536190Y-79115714D01*
X156536190Y-78972857D01*
X156512380Y-78925238D01*
X156488571Y-78901428D01*
X152846190Y-97418571D02*
X152608095Y-97251904D01*
X152846190Y-97132857D02*
X152346190Y-97132857D01*
X152346190Y-97323333D01*
X152370000Y-97370952D01*
X152393809Y-97394761D01*
X152441428Y-97418571D01*
X152512857Y-97418571D01*
X152560476Y-97394761D01*
X152584285Y-97370952D01*
X152608095Y-97323333D01*
X152608095Y-97132857D01*
X152846190Y-97894761D02*
X152846190Y-97609047D01*
X152846190Y-97751904D02*
X152346190Y-97751904D01*
X152417619Y-97704285D01*
X152465238Y-97656666D01*
X152489047Y-97609047D01*
X152346190Y-98061428D02*
X152346190Y-98394761D01*
X152846190Y-98180476D01*
X137515190Y-95864071D02*
X137277095Y-95697404D01*
X137515190Y-95578357D02*
X137015190Y-95578357D01*
X137015190Y-95768833D01*
X137039000Y-95816452D01*
X137062809Y-95840261D01*
X137110428Y-95864071D01*
X137181857Y-95864071D01*
X137229476Y-95840261D01*
X137253285Y-95816452D01*
X137277095Y-95768833D01*
X137277095Y-95578357D01*
X137515190Y-96340261D02*
X137515190Y-96054547D01*
X137515190Y-96197404D02*
X137015190Y-96197404D01*
X137086619Y-96149785D01*
X137134238Y-96102166D01*
X137158047Y-96054547D01*
X137062809Y-96530738D02*
X137039000Y-96554547D01*
X137015190Y-96602166D01*
X137015190Y-96721214D01*
X137039000Y-96768833D01*
X137062809Y-96792642D01*
X137110428Y-96816452D01*
X137158047Y-96816452D01*
X137229476Y-96792642D01*
X137515190Y-96506928D01*
X137515190Y-96816452D01*
X151896190Y-97418571D02*
X151658095Y-97251904D01*
X151896190Y-97132857D02*
X151396190Y-97132857D01*
X151396190Y-97323333D01*
X151420000Y-97370952D01*
X151443809Y-97394761D01*
X151491428Y-97418571D01*
X151562857Y-97418571D01*
X151610476Y-97394761D01*
X151634285Y-97370952D01*
X151658095Y-97323333D01*
X151658095Y-97132857D01*
X151896190Y-97894761D02*
X151896190Y-97609047D01*
X151896190Y-97751904D02*
X151396190Y-97751904D01*
X151467619Y-97704285D01*
X151515238Y-97656666D01*
X151539047Y-97609047D01*
X151896190Y-98370952D02*
X151896190Y-98085238D01*
X151896190Y-98228095D02*
X151396190Y-98228095D01*
X151467619Y-98180476D01*
X151515238Y-98132857D01*
X151539047Y-98085238D01*
M02*
