G04 #@! TF.GenerationSoftware,KiCad,Pcbnew,5.1.4+dfsg1-1*
G04 #@! TF.CreationDate,2019-09-03T22:58:18+09:00*
G04 #@! TF.ProjectId,breadbee,62726561-6462-4656-952e-6b696361645f,rev?*
G04 #@! TF.SameCoordinates,Original*
G04 #@! TF.FileFunction,Legend,Top*
G04 #@! TF.FilePolarity,Positive*
%FSLAX46Y46*%
G04 Gerber Fmt 4.6, Leading zero omitted, Abs format (unit mm)*
G04 Created by KiCad (PCBNEW 5.1.4+dfsg1-1) date 2019-09-03 22:58:18*
%MOMM*%
%LPD*%
G04 APERTURE LIST*
%ADD10C,0.150000*%
%ADD11C,0.120000*%
%ADD12C,0.125000*%
G04 APERTURE END LIST*
D10*
X139638500Y-97074500D02*
X142750000Y-97074500D01*
X139638500Y-96503000D02*
X139638500Y-97074500D01*
X138559000Y-96503000D02*
X139638500Y-96503000D01*
X146750500Y-97138000D02*
X144337500Y-97138000D01*
X146750500Y-96376000D02*
X146750500Y-97138000D01*
X147830000Y-96376000D02*
X146750500Y-96376000D01*
X149608000Y-95169500D02*
X147893500Y-95169500D01*
X149608000Y-97455500D02*
X149608000Y-95169500D01*
X147893500Y-97455500D02*
X149608000Y-97455500D01*
X147893500Y-95169500D02*
X147893500Y-97455500D01*
X147957000Y-95169500D02*
X147893500Y-95169500D01*
X149544500Y-95169500D02*
X147957000Y-95169500D01*
X130939000Y-80628000D02*
X128780000Y-80628000D01*
X130939000Y-80564500D02*
X130939000Y-80628000D01*
X130939000Y-79993000D02*
X130939000Y-80564500D01*
X138559000Y-95423500D02*
X138559000Y-96503000D01*
X138178000Y-95423500D02*
X138559000Y-95423500D01*
X136400000Y-94026500D02*
X138178000Y-94026500D01*
X136400000Y-96947500D02*
X136400000Y-94026500D01*
X138178000Y-96947500D02*
X136400000Y-96947500D01*
X138178000Y-94026500D02*
X138178000Y-96947500D01*
X134495000Y-82533000D02*
X135765000Y-81390000D01*
X134114000Y-82533000D02*
X134495000Y-82533000D01*
X132590000Y-82533000D02*
X134114000Y-82533000D01*
X128780000Y-81644000D02*
X131447000Y-81644000D01*
X137035000Y-76056000D02*
X137035000Y-77199000D01*
X136781000Y-76056000D02*
X137035000Y-76056000D01*
X136781000Y-76818000D02*
X136781000Y-75167000D01*
X132971000Y-76818000D02*
X136781000Y-76818000D01*
X132971000Y-75167000D02*
X132971000Y-76818000D01*
X151005000Y-77072000D02*
X142242000Y-77072000D01*
X155323000Y-78469000D02*
X155323000Y-77072000D01*
X151005000Y-78469000D02*
X155323000Y-78469000D01*
X151005000Y-77072000D02*
X151005000Y-78469000D01*
X142242000Y-77072000D02*
X141988000Y-77326000D01*
D11*
X158270000Y-104330000D02*
X158270000Y-99130000D01*
X130270000Y-104330000D02*
X158270000Y-104330000D01*
X127670000Y-99130000D02*
X158270000Y-99130000D01*
X130270000Y-104330000D02*
X130270000Y-101730000D01*
X130270000Y-101730000D02*
X127670000Y-101730000D01*
X127670000Y-101730000D02*
X127670000Y-99130000D01*
X129000000Y-104330000D02*
X127670000Y-104330000D01*
X127670000Y-104330000D02*
X127670000Y-103000000D01*
X153030000Y-95940000D02*
X156330000Y-95940000D01*
X156330000Y-95940000D02*
X156330000Y-91940000D01*
X143240000Y-79640000D02*
X142790000Y-79640000D01*
X146010000Y-82860000D02*
X146010000Y-82410000D01*
X145560000Y-82860000D02*
X146010000Y-82860000D01*
X142790000Y-82860000D02*
X142790000Y-82410000D01*
X143240000Y-82860000D02*
X142790000Y-82860000D01*
X146010000Y-79640000D02*
X146010000Y-80090000D01*
X145560000Y-79640000D02*
X146010000Y-79640000D01*
D10*
X139040000Y-87915000D02*
X139040000Y-87440000D01*
X139040000Y-87440000D02*
X139515000Y-87440000D01*
X147340000Y-87915000D02*
X147340000Y-87440000D01*
X147340000Y-87440000D02*
X146865000Y-87440000D01*
X147340000Y-95265000D02*
X147340000Y-95740000D01*
X147340000Y-95740000D02*
X146865000Y-95740000D01*
X139040000Y-95265000D02*
X139040000Y-95965000D01*
X128350000Y-83300000D02*
X128350000Y-90700000D01*
X133350000Y-85200000D02*
X133350000Y-83300000D01*
X128350000Y-90700000D02*
X127700000Y-91300000D01*
X128350000Y-83300000D02*
X127700000Y-82700000D01*
X133350000Y-88800000D02*
X133350000Y-90700000D01*
X133350000Y-90700000D02*
X131800000Y-90700000D01*
X133350000Y-83300000D02*
X131800000Y-83300000D01*
X128350000Y-90700000D02*
X129250000Y-90700000D01*
X128350000Y-83300000D02*
X129250000Y-83300000D01*
X128350000Y-91150000D02*
X128350000Y-92000000D01*
X128350000Y-82850000D02*
X128350000Y-82000000D01*
X152169210Y-89225000D02*
G75*
G03X152169210Y-89225000I-359210J0D01*
G01*
D11*
X158550000Y-76835000D02*
X158550000Y-76534493D01*
X158550000Y-75745507D02*
X158550000Y-75445000D01*
X138675000Y-76835000D02*
X158550000Y-76835000D01*
X138675000Y-75445000D02*
X158550000Y-75445000D01*
X138675000Y-76835000D02*
X138675000Y-76748276D01*
X138675000Y-75531724D02*
X138675000Y-75445000D01*
X137990000Y-76835000D02*
X137305000Y-76835000D01*
X137305000Y-76835000D02*
X137305000Y-76140000D01*
X132100000Y-92870000D02*
G75*
G03X132100000Y-92870000I-700000J0D01*
G01*
X128740000Y-96070000D02*
G75*
G03X128740000Y-96070000I-700000J0D01*
G01*
X130560000Y-92880000D02*
G75*
G03X130560000Y-92880000I-700000J0D01*
G01*
X131820000Y-95200000D02*
G75*
G03X131820000Y-95200000I-700000J0D01*
G01*
X130500000Y-94420000D02*
G75*
G03X130500000Y-94420000I-700000J0D01*
G01*
X128950000Y-94530000D02*
G75*
G03X128950000Y-94530000I-700000J0D01*
G01*
X129640000Y-75515000D02*
X129640000Y-78200000D01*
X131560000Y-75515000D02*
X129640000Y-75515000D01*
X131560000Y-78200000D02*
X131560000Y-75515000D01*
X129360000Y-78200000D02*
X129360000Y-75515000D01*
X129360000Y-75515000D02*
X127440000Y-75515000D01*
X127440000Y-75515000D02*
X127440000Y-78200000D01*
X148890000Y-79450000D02*
X148890000Y-81450000D01*
X146690000Y-79450000D02*
X146690000Y-81450000D01*
X142100000Y-82200000D02*
X142100000Y-80200000D01*
X139900000Y-82200000D02*
X139900000Y-80200000D01*
X142090000Y-77590000D02*
X142090000Y-79590000D01*
X139890000Y-77590000D02*
X139890000Y-79590000D01*
D10*
X134285000Y-87025000D02*
X134510000Y-87025000D01*
X134285000Y-83675000D02*
X134585000Y-83675000D01*
X137635000Y-83675000D02*
X137335000Y-83675000D01*
X137635000Y-87025000D02*
X137335000Y-87025000D01*
X134285000Y-87025000D02*
X134285000Y-83675000D01*
X137635000Y-87025000D02*
X137635000Y-83675000D01*
X134510000Y-87025000D02*
X134510000Y-88250000D01*
X156616666Y-97902380D02*
X156616666Y-98616666D01*
X156569047Y-98759523D01*
X156473809Y-98854761D01*
X156330952Y-98902380D01*
X156235714Y-98902380D01*
X157045238Y-97997619D02*
X157092857Y-97950000D01*
X157188095Y-97902380D01*
X157426190Y-97902380D01*
X157521428Y-97950000D01*
X157569047Y-97997619D01*
X157616666Y-98092857D01*
X157616666Y-98188095D01*
X157569047Y-98330952D01*
X156997619Y-98902380D01*
X157616666Y-98902380D01*
D12*
X156738095Y-94178095D02*
X156976190Y-94178095D01*
X156476190Y-94344761D02*
X156738095Y-94178095D01*
X156476190Y-94011428D01*
X156976190Y-93582857D02*
X156976190Y-93868571D01*
X156976190Y-93725714D02*
X156476190Y-93725714D01*
X156547619Y-93773333D01*
X156595238Y-93820952D01*
X156619047Y-93868571D01*
X148397571Y-97189571D02*
X148373761Y-97213380D01*
X148302333Y-97237190D01*
X148254714Y-97237190D01*
X148183285Y-97213380D01*
X148135666Y-97165761D01*
X148111857Y-97118142D01*
X148088047Y-97022904D01*
X148088047Y-96951476D01*
X148111857Y-96856238D01*
X148135666Y-96808619D01*
X148183285Y-96761000D01*
X148254714Y-96737190D01*
X148302333Y-96737190D01*
X148373761Y-96761000D01*
X148397571Y-96784809D01*
X148564238Y-96737190D02*
X148873761Y-96737190D01*
X148707095Y-96927666D01*
X148778523Y-96927666D01*
X148826142Y-96951476D01*
X148849952Y-96975285D01*
X148873761Y-97022904D01*
X148873761Y-97141952D01*
X148849952Y-97189571D01*
X148826142Y-97213380D01*
X148778523Y-97237190D01*
X148635666Y-97237190D01*
X148588047Y-97213380D01*
X148564238Y-97189571D01*
X149159476Y-96951476D02*
X149111857Y-96927666D01*
X149088047Y-96903857D01*
X149064238Y-96856238D01*
X149064238Y-96832428D01*
X149088047Y-96784809D01*
X149111857Y-96761000D01*
X149159476Y-96737190D01*
X149254714Y-96737190D01*
X149302333Y-96761000D01*
X149326142Y-96784809D01*
X149349952Y-96832428D01*
X149349952Y-96856238D01*
X149326142Y-96903857D01*
X149302333Y-96927666D01*
X149254714Y-96951476D01*
X149159476Y-96951476D01*
X149111857Y-96975285D01*
X149088047Y-96999095D01*
X149064238Y-97046714D01*
X149064238Y-97141952D01*
X149088047Y-97189571D01*
X149111857Y-97213380D01*
X149159476Y-97237190D01*
X149254714Y-97237190D01*
X149302333Y-97213380D01*
X149326142Y-97189571D01*
X149349952Y-97141952D01*
X149349952Y-97046714D01*
X149326142Y-96999095D01*
X149302333Y-96975285D01*
X149254714Y-96951476D01*
X149228571Y-98796190D02*
X149061904Y-98558095D01*
X148942857Y-98796190D02*
X148942857Y-98296190D01*
X149133333Y-98296190D01*
X149180952Y-98320000D01*
X149204761Y-98343809D01*
X149228571Y-98391428D01*
X149228571Y-98462857D01*
X149204761Y-98510476D01*
X149180952Y-98534285D01*
X149133333Y-98558095D01*
X148942857Y-98558095D01*
X149419047Y-98343809D02*
X149442857Y-98320000D01*
X149490476Y-98296190D01*
X149609523Y-98296190D01*
X149657142Y-98320000D01*
X149680952Y-98343809D01*
X149704761Y-98391428D01*
X149704761Y-98439047D01*
X149680952Y-98510476D01*
X149395238Y-98796190D01*
X149704761Y-98796190D01*
X149871428Y-98296190D02*
X150180952Y-98296190D01*
X150014285Y-98486666D01*
X150085714Y-98486666D01*
X150133333Y-98510476D01*
X150157142Y-98534285D01*
X150180952Y-98581904D01*
X150180952Y-98700952D01*
X150157142Y-98748571D01*
X150133333Y-98772380D01*
X150085714Y-98796190D01*
X149942857Y-98796190D01*
X149895238Y-98772380D01*
X149871428Y-98748571D01*
X148397571Y-95792571D02*
X148373761Y-95816380D01*
X148302333Y-95840190D01*
X148254714Y-95840190D01*
X148183285Y-95816380D01*
X148135666Y-95768761D01*
X148111857Y-95721142D01*
X148088047Y-95625904D01*
X148088047Y-95554476D01*
X148111857Y-95459238D01*
X148135666Y-95411619D01*
X148183285Y-95364000D01*
X148254714Y-95340190D01*
X148302333Y-95340190D01*
X148373761Y-95364000D01*
X148397571Y-95387809D01*
X148564238Y-95340190D02*
X148873761Y-95340190D01*
X148707095Y-95530666D01*
X148778523Y-95530666D01*
X148826142Y-95554476D01*
X148849952Y-95578285D01*
X148873761Y-95625904D01*
X148873761Y-95744952D01*
X148849952Y-95792571D01*
X148826142Y-95816380D01*
X148778523Y-95840190D01*
X148635666Y-95840190D01*
X148588047Y-95816380D01*
X148564238Y-95792571D01*
X149040428Y-95340190D02*
X149373761Y-95340190D01*
X149159476Y-95840190D01*
X141861047Y-83656190D02*
X141861047Y-84060952D01*
X141884857Y-84108571D01*
X141908666Y-84132380D01*
X141956285Y-84156190D01*
X142051523Y-84156190D01*
X142099142Y-84132380D01*
X142122952Y-84108571D01*
X142146761Y-84060952D01*
X142146761Y-83656190D01*
X142337238Y-83656190D02*
X142646761Y-83656190D01*
X142480095Y-83846666D01*
X142551523Y-83846666D01*
X142599142Y-83870476D01*
X142622952Y-83894285D01*
X142646761Y-83941904D01*
X142646761Y-84060952D01*
X142622952Y-84108571D01*
X142599142Y-84132380D01*
X142551523Y-84156190D01*
X142408666Y-84156190D01*
X142361047Y-84132380D01*
X142337238Y-84108571D01*
X129093571Y-81362190D02*
X128926904Y-81124095D01*
X128807857Y-81362190D02*
X128807857Y-80862190D01*
X128998333Y-80862190D01*
X129045952Y-80886000D01*
X129069761Y-80909809D01*
X129093571Y-80957428D01*
X129093571Y-81028857D01*
X129069761Y-81076476D01*
X129045952Y-81100285D01*
X128998333Y-81124095D01*
X128807857Y-81124095D01*
X129284047Y-80909809D02*
X129307857Y-80886000D01*
X129355476Y-80862190D01*
X129474523Y-80862190D01*
X129522142Y-80886000D01*
X129545952Y-80909809D01*
X129569761Y-80957428D01*
X129569761Y-81005047D01*
X129545952Y-81076476D01*
X129260238Y-81362190D01*
X129569761Y-81362190D01*
X129760238Y-80909809D02*
X129784047Y-80886000D01*
X129831666Y-80862190D01*
X129950714Y-80862190D01*
X129998333Y-80886000D01*
X130022142Y-80909809D01*
X130045952Y-80957428D01*
X130045952Y-81005047D01*
X130022142Y-81076476D01*
X129736428Y-81362190D01*
X130045952Y-81362190D01*
X135570571Y-75774190D02*
X135403904Y-75536095D01*
X135284857Y-75774190D02*
X135284857Y-75274190D01*
X135475333Y-75274190D01*
X135522952Y-75298000D01*
X135546761Y-75321809D01*
X135570571Y-75369428D01*
X135570571Y-75440857D01*
X135546761Y-75488476D01*
X135522952Y-75512285D01*
X135475333Y-75536095D01*
X135284857Y-75536095D01*
X135761047Y-75321809D02*
X135784857Y-75298000D01*
X135832476Y-75274190D01*
X135951523Y-75274190D01*
X135999142Y-75298000D01*
X136022952Y-75321809D01*
X136046761Y-75369428D01*
X136046761Y-75417047D01*
X136022952Y-75488476D01*
X135737238Y-75774190D01*
X136046761Y-75774190D01*
X136522952Y-75774190D02*
X136237238Y-75774190D01*
X136380095Y-75774190D02*
X136380095Y-75274190D01*
X136332476Y-75345619D01*
X136284857Y-75393238D01*
X136237238Y-75417047D01*
X144788571Y-86006190D02*
X144621904Y-85768095D01*
X144502857Y-86006190D02*
X144502857Y-85506190D01*
X144693333Y-85506190D01*
X144740952Y-85530000D01*
X144764761Y-85553809D01*
X144788571Y-85601428D01*
X144788571Y-85672857D01*
X144764761Y-85720476D01*
X144740952Y-85744285D01*
X144693333Y-85768095D01*
X144502857Y-85768095D01*
X144979047Y-85553809D02*
X145002857Y-85530000D01*
X145050476Y-85506190D01*
X145169523Y-85506190D01*
X145217142Y-85530000D01*
X145240952Y-85553809D01*
X145264761Y-85601428D01*
X145264761Y-85649047D01*
X145240952Y-85720476D01*
X144955238Y-86006190D01*
X145264761Y-86006190D01*
X145574285Y-85506190D02*
X145621904Y-85506190D01*
X145669523Y-85530000D01*
X145693333Y-85553809D01*
X145717142Y-85601428D01*
X145740952Y-85696666D01*
X145740952Y-85815714D01*
X145717142Y-85910952D01*
X145693333Y-85958571D01*
X145669523Y-85982380D01*
X145621904Y-86006190D01*
X145574285Y-86006190D01*
X145526666Y-85982380D01*
X145502857Y-85958571D01*
X145479047Y-85910952D01*
X145455238Y-85815714D01*
X145455238Y-85696666D01*
X145479047Y-85601428D01*
X145502857Y-85553809D01*
X145526666Y-85530000D01*
X145574285Y-85506190D01*
X148778571Y-83756190D02*
X148611904Y-83518095D01*
X148492857Y-83756190D02*
X148492857Y-83256190D01*
X148683333Y-83256190D01*
X148730952Y-83280000D01*
X148754761Y-83303809D01*
X148778571Y-83351428D01*
X148778571Y-83422857D01*
X148754761Y-83470476D01*
X148730952Y-83494285D01*
X148683333Y-83518095D01*
X148492857Y-83518095D01*
X149254761Y-83756190D02*
X148969047Y-83756190D01*
X149111904Y-83756190D02*
X149111904Y-83256190D01*
X149064285Y-83327619D01*
X149016666Y-83375238D01*
X148969047Y-83399047D01*
X149492857Y-83756190D02*
X149588095Y-83756190D01*
X149635714Y-83732380D01*
X149659523Y-83708571D01*
X149707142Y-83637142D01*
X149730952Y-83541904D01*
X149730952Y-83351428D01*
X149707142Y-83303809D01*
X149683333Y-83280000D01*
X149635714Y-83256190D01*
X149540476Y-83256190D01*
X149492857Y-83280000D01*
X149469047Y-83303809D01*
X149445238Y-83351428D01*
X149445238Y-83470476D01*
X149469047Y-83518095D01*
X149492857Y-83541904D01*
X149540476Y-83565714D01*
X149635714Y-83565714D01*
X149683333Y-83541904D01*
X149707142Y-83518095D01*
X149730952Y-83470476D01*
X151886190Y-80421428D02*
X151648095Y-80588095D01*
X151886190Y-80707142D02*
X151386190Y-80707142D01*
X151386190Y-80516666D01*
X151410000Y-80469047D01*
X151433809Y-80445238D01*
X151481428Y-80421428D01*
X151552857Y-80421428D01*
X151600476Y-80445238D01*
X151624285Y-80469047D01*
X151648095Y-80516666D01*
X151648095Y-80707142D01*
X151886190Y-79945238D02*
X151886190Y-80230952D01*
X151886190Y-80088095D02*
X151386190Y-80088095D01*
X151457619Y-80135714D01*
X151505238Y-80183333D01*
X151529047Y-80230952D01*
X151600476Y-79659523D02*
X151576666Y-79707142D01*
X151552857Y-79730952D01*
X151505238Y-79754761D01*
X151481428Y-79754761D01*
X151433809Y-79730952D01*
X151410000Y-79707142D01*
X151386190Y-79659523D01*
X151386190Y-79564285D01*
X151410000Y-79516666D01*
X151433809Y-79492857D01*
X151481428Y-79469047D01*
X151505238Y-79469047D01*
X151552857Y-79492857D01*
X151576666Y-79516666D01*
X151600476Y-79564285D01*
X151600476Y-79659523D01*
X151624285Y-79707142D01*
X151648095Y-79730952D01*
X151695714Y-79754761D01*
X151790952Y-79754761D01*
X151838571Y-79730952D01*
X151862380Y-79707142D01*
X151886190Y-79659523D01*
X151886190Y-79564285D01*
X151862380Y-79516666D01*
X151838571Y-79492857D01*
X151790952Y-79469047D01*
X151695714Y-79469047D01*
X151648095Y-79492857D01*
X151624285Y-79516666D01*
X151600476Y-79564285D01*
D10*
D12*
X145718571Y-86638571D02*
X145694761Y-86662380D01*
X145623333Y-86686190D01*
X145575714Y-86686190D01*
X145504285Y-86662380D01*
X145456666Y-86614761D01*
X145432857Y-86567142D01*
X145409047Y-86471904D01*
X145409047Y-86400476D01*
X145432857Y-86305238D01*
X145456666Y-86257619D01*
X145504285Y-86210000D01*
X145575714Y-86186190D01*
X145623333Y-86186190D01*
X145694761Y-86210000D01*
X145718571Y-86233809D01*
X145885238Y-86186190D02*
X146194761Y-86186190D01*
X146028095Y-86376666D01*
X146099523Y-86376666D01*
X146147142Y-86400476D01*
X146170952Y-86424285D01*
X146194761Y-86471904D01*
X146194761Y-86590952D01*
X146170952Y-86638571D01*
X146147142Y-86662380D01*
X146099523Y-86686190D01*
X145956666Y-86686190D01*
X145909047Y-86662380D01*
X145885238Y-86638571D01*
X146623333Y-86186190D02*
X146528095Y-86186190D01*
X146480476Y-86210000D01*
X146456666Y-86233809D01*
X146409047Y-86305238D01*
X146385238Y-86400476D01*
X146385238Y-86590952D01*
X146409047Y-86638571D01*
X146432857Y-86662380D01*
X146480476Y-86686190D01*
X146575714Y-86686190D01*
X146623333Y-86662380D01*
X146647142Y-86638571D01*
X146670952Y-86590952D01*
X146670952Y-86471904D01*
X146647142Y-86424285D01*
X146623333Y-86400476D01*
X146575714Y-86376666D01*
X146480476Y-86376666D01*
X146432857Y-86400476D01*
X146409047Y-86424285D01*
X146385238Y-86471904D01*
X149288571Y-85231428D02*
X149312380Y-85255238D01*
X149336190Y-85326666D01*
X149336190Y-85374285D01*
X149312380Y-85445714D01*
X149264761Y-85493333D01*
X149217142Y-85517142D01*
X149121904Y-85540952D01*
X149050476Y-85540952D01*
X148955238Y-85517142D01*
X148907619Y-85493333D01*
X148860000Y-85445714D01*
X148836190Y-85374285D01*
X148836190Y-85326666D01*
X148860000Y-85255238D01*
X148883809Y-85231428D01*
X148836190Y-85064761D02*
X148836190Y-84755238D01*
X149026666Y-84921904D01*
X149026666Y-84850476D01*
X149050476Y-84802857D01*
X149074285Y-84779047D01*
X149121904Y-84755238D01*
X149240952Y-84755238D01*
X149288571Y-84779047D01*
X149312380Y-84802857D01*
X149336190Y-84850476D01*
X149336190Y-84993333D01*
X149312380Y-85040952D01*
X149288571Y-85064761D01*
X148836190Y-84302857D02*
X148836190Y-84540952D01*
X149074285Y-84564761D01*
X149050476Y-84540952D01*
X149026666Y-84493333D01*
X149026666Y-84374285D01*
X149050476Y-84326666D01*
X149074285Y-84302857D01*
X149121904Y-84279047D01*
X149240952Y-84279047D01*
X149288571Y-84302857D01*
X149312380Y-84326666D01*
X149336190Y-84374285D01*
X149336190Y-84493333D01*
X149312380Y-84540952D01*
X149288571Y-84564761D01*
X148683571Y-90603840D02*
X148516904Y-90365745D01*
X148397857Y-90603840D02*
X148397857Y-90103840D01*
X148588333Y-90103840D01*
X148635952Y-90127650D01*
X148659761Y-90151459D01*
X148683571Y-90199078D01*
X148683571Y-90270507D01*
X148659761Y-90318126D01*
X148635952Y-90341935D01*
X148588333Y-90365745D01*
X148397857Y-90365745D01*
X149159761Y-90603840D02*
X148874047Y-90603840D01*
X149016904Y-90603840D02*
X149016904Y-90103840D01*
X148969285Y-90175269D01*
X148921666Y-90222888D01*
X148874047Y-90246697D01*
X149326428Y-90103840D02*
X149635952Y-90103840D01*
X149469285Y-90294316D01*
X149540714Y-90294316D01*
X149588333Y-90318126D01*
X149612142Y-90341935D01*
X149635952Y-90389554D01*
X149635952Y-90508602D01*
X149612142Y-90556221D01*
X149588333Y-90580030D01*
X149540714Y-90603840D01*
X149397857Y-90603840D01*
X149350238Y-90580030D01*
X149326428Y-90556221D01*
X148668571Y-89626190D02*
X148501904Y-89388095D01*
X148382857Y-89626190D02*
X148382857Y-89126190D01*
X148573333Y-89126190D01*
X148620952Y-89150000D01*
X148644761Y-89173809D01*
X148668571Y-89221428D01*
X148668571Y-89292857D01*
X148644761Y-89340476D01*
X148620952Y-89364285D01*
X148573333Y-89388095D01*
X148382857Y-89388095D01*
X149144761Y-89626190D02*
X148859047Y-89626190D01*
X149001904Y-89626190D02*
X149001904Y-89126190D01*
X148954285Y-89197619D01*
X148906666Y-89245238D01*
X148859047Y-89269047D01*
X149573333Y-89292857D02*
X149573333Y-89626190D01*
X149454285Y-89102380D02*
X149335238Y-89459523D01*
X149644761Y-89459523D01*
X148658571Y-92546190D02*
X148491904Y-92308095D01*
X148372857Y-92546190D02*
X148372857Y-92046190D01*
X148563333Y-92046190D01*
X148610952Y-92070000D01*
X148634761Y-92093809D01*
X148658571Y-92141428D01*
X148658571Y-92212857D01*
X148634761Y-92260476D01*
X148610952Y-92284285D01*
X148563333Y-92308095D01*
X148372857Y-92308095D01*
X149134761Y-92546190D02*
X148849047Y-92546190D01*
X148991904Y-92546190D02*
X148991904Y-92046190D01*
X148944285Y-92117619D01*
X148896666Y-92165238D01*
X148849047Y-92189047D01*
X149587142Y-92046190D02*
X149349047Y-92046190D01*
X149325238Y-92284285D01*
X149349047Y-92260476D01*
X149396666Y-92236666D01*
X149515714Y-92236666D01*
X149563333Y-92260476D01*
X149587142Y-92284285D01*
X149610952Y-92331904D01*
X149610952Y-92450952D01*
X149587142Y-92498571D01*
X149563333Y-92522380D01*
X149515714Y-92546190D01*
X149396666Y-92546190D01*
X149349047Y-92522380D01*
X149325238Y-92498571D01*
X148668571Y-91596190D02*
X148501904Y-91358095D01*
X148382857Y-91596190D02*
X148382857Y-91096190D01*
X148573333Y-91096190D01*
X148620952Y-91120000D01*
X148644761Y-91143809D01*
X148668571Y-91191428D01*
X148668571Y-91262857D01*
X148644761Y-91310476D01*
X148620952Y-91334285D01*
X148573333Y-91358095D01*
X148382857Y-91358095D01*
X149144761Y-91596190D02*
X148859047Y-91596190D01*
X149001904Y-91596190D02*
X149001904Y-91096190D01*
X148954285Y-91167619D01*
X148906666Y-91215238D01*
X148859047Y-91239047D01*
X149573333Y-91096190D02*
X149478095Y-91096190D01*
X149430476Y-91120000D01*
X149406666Y-91143809D01*
X149359047Y-91215238D01*
X149335238Y-91310476D01*
X149335238Y-91500952D01*
X149359047Y-91548571D01*
X149382857Y-91572380D01*
X149430476Y-91596190D01*
X149525714Y-91596190D01*
X149573333Y-91572380D01*
X149597142Y-91548571D01*
X149620952Y-91500952D01*
X149620952Y-91381904D01*
X149597142Y-91334285D01*
X149573333Y-91310476D01*
X149525714Y-91286666D01*
X149430476Y-91286666D01*
X149382857Y-91310476D01*
X149359047Y-91334285D01*
X149335238Y-91381904D01*
X148778571Y-82768571D02*
X148754761Y-82792380D01*
X148683333Y-82816190D01*
X148635714Y-82816190D01*
X148564285Y-82792380D01*
X148516666Y-82744761D01*
X148492857Y-82697142D01*
X148469047Y-82601904D01*
X148469047Y-82530476D01*
X148492857Y-82435238D01*
X148516666Y-82387619D01*
X148564285Y-82340000D01*
X148635714Y-82316190D01*
X148683333Y-82316190D01*
X148754761Y-82340000D01*
X148778571Y-82363809D01*
X148945238Y-82316190D02*
X149254761Y-82316190D01*
X149088095Y-82506666D01*
X149159523Y-82506666D01*
X149207142Y-82530476D01*
X149230952Y-82554285D01*
X149254761Y-82601904D01*
X149254761Y-82720952D01*
X149230952Y-82768571D01*
X149207142Y-82792380D01*
X149159523Y-82816190D01*
X149016666Y-82816190D01*
X148969047Y-82792380D01*
X148945238Y-82768571D01*
X149445238Y-82363809D02*
X149469047Y-82340000D01*
X149516666Y-82316190D01*
X149635714Y-82316190D01*
X149683333Y-82340000D01*
X149707142Y-82363809D01*
X149730952Y-82411428D01*
X149730952Y-82459047D01*
X149707142Y-82530476D01*
X149421428Y-82816190D01*
X149730952Y-82816190D01*
X143638571Y-84621428D02*
X143662380Y-84645238D01*
X143686190Y-84716666D01*
X143686190Y-84764285D01*
X143662380Y-84835714D01*
X143614761Y-84883333D01*
X143567142Y-84907142D01*
X143471904Y-84930952D01*
X143400476Y-84930952D01*
X143305238Y-84907142D01*
X143257619Y-84883333D01*
X143210000Y-84835714D01*
X143186190Y-84764285D01*
X143186190Y-84716666D01*
X143210000Y-84645238D01*
X143233809Y-84621428D01*
X143186190Y-84454761D02*
X143186190Y-84145238D01*
X143376666Y-84311904D01*
X143376666Y-84240476D01*
X143400476Y-84192857D01*
X143424285Y-84169047D01*
X143471904Y-84145238D01*
X143590952Y-84145238D01*
X143638571Y-84169047D01*
X143662380Y-84192857D01*
X143686190Y-84240476D01*
X143686190Y-84383333D01*
X143662380Y-84430952D01*
X143638571Y-84454761D01*
X143686190Y-83669047D02*
X143686190Y-83954761D01*
X143686190Y-83811904D02*
X143186190Y-83811904D01*
X143257619Y-83859523D01*
X143305238Y-83907142D01*
X143329047Y-83954761D01*
X149794571Y-81568571D02*
X149770761Y-81592380D01*
X149699333Y-81616190D01*
X149651714Y-81616190D01*
X149580285Y-81592380D01*
X149532666Y-81544761D01*
X149508857Y-81497142D01*
X149485047Y-81401904D01*
X149485047Y-81330476D01*
X149508857Y-81235238D01*
X149532666Y-81187619D01*
X149580285Y-81140000D01*
X149651714Y-81116190D01*
X149699333Y-81116190D01*
X149770761Y-81140000D01*
X149794571Y-81163809D01*
X149985047Y-81163809D02*
X150008857Y-81140000D01*
X150056476Y-81116190D01*
X150175523Y-81116190D01*
X150223142Y-81140000D01*
X150246952Y-81163809D01*
X150270761Y-81211428D01*
X150270761Y-81259047D01*
X150246952Y-81330476D01*
X149961238Y-81616190D01*
X150270761Y-81616190D01*
X150437428Y-81116190D02*
X150746952Y-81116190D01*
X150580285Y-81306666D01*
X150651714Y-81306666D01*
X150699333Y-81330476D01*
X150723142Y-81354285D01*
X150746952Y-81401904D01*
X150746952Y-81520952D01*
X150723142Y-81568571D01*
X150699333Y-81592380D01*
X150651714Y-81616190D01*
X150508857Y-81616190D01*
X150461238Y-81592380D01*
X150437428Y-81568571D01*
X154112571Y-78266571D02*
X154088761Y-78290380D01*
X154017333Y-78314190D01*
X153969714Y-78314190D01*
X153898285Y-78290380D01*
X153850666Y-78242761D01*
X153826857Y-78195142D01*
X153803047Y-78099904D01*
X153803047Y-78028476D01*
X153826857Y-77933238D01*
X153850666Y-77885619D01*
X153898285Y-77838000D01*
X153969714Y-77814190D01*
X154017333Y-77814190D01*
X154088761Y-77838000D01*
X154112571Y-77861809D01*
X154303047Y-77861809D02*
X154326857Y-77838000D01*
X154374476Y-77814190D01*
X154493523Y-77814190D01*
X154541142Y-77838000D01*
X154564952Y-77861809D01*
X154588761Y-77909428D01*
X154588761Y-77957047D01*
X154564952Y-78028476D01*
X154279238Y-78314190D01*
X154588761Y-78314190D01*
X154755428Y-77814190D02*
X155088761Y-77814190D01*
X154874476Y-78314190D01*
X134935571Y-76615571D02*
X134911761Y-76639380D01*
X134840333Y-76663190D01*
X134792714Y-76663190D01*
X134721285Y-76639380D01*
X134673666Y-76591761D01*
X134649857Y-76544142D01*
X134626047Y-76448904D01*
X134626047Y-76377476D01*
X134649857Y-76282238D01*
X134673666Y-76234619D01*
X134721285Y-76187000D01*
X134792714Y-76163190D01*
X134840333Y-76163190D01*
X134911761Y-76187000D01*
X134935571Y-76210809D01*
X135126047Y-76210809D02*
X135149857Y-76187000D01*
X135197476Y-76163190D01*
X135316523Y-76163190D01*
X135364142Y-76187000D01*
X135387952Y-76210809D01*
X135411761Y-76258428D01*
X135411761Y-76306047D01*
X135387952Y-76377476D01*
X135102238Y-76663190D01*
X135411761Y-76663190D01*
X135697476Y-76377476D02*
X135649857Y-76353666D01*
X135626047Y-76329857D01*
X135602238Y-76282238D01*
X135602238Y-76258428D01*
X135626047Y-76210809D01*
X135649857Y-76187000D01*
X135697476Y-76163190D01*
X135792714Y-76163190D01*
X135840333Y-76187000D01*
X135864142Y-76210809D01*
X135887952Y-76258428D01*
X135887952Y-76282238D01*
X135864142Y-76329857D01*
X135840333Y-76353666D01*
X135792714Y-76377476D01*
X135697476Y-76377476D01*
X135649857Y-76401285D01*
X135626047Y-76425095D01*
X135602238Y-76472714D01*
X135602238Y-76567952D01*
X135626047Y-76615571D01*
X135649857Y-76639380D01*
X135697476Y-76663190D01*
X135792714Y-76663190D01*
X135840333Y-76639380D01*
X135864142Y-76615571D01*
X135887952Y-76567952D01*
X135887952Y-76472714D01*
X135864142Y-76425095D01*
X135840333Y-76401285D01*
X135792714Y-76377476D01*
X132133571Y-82600428D02*
X132157380Y-82624238D01*
X132181190Y-82695666D01*
X132181190Y-82743285D01*
X132157380Y-82814714D01*
X132109761Y-82862333D01*
X132062142Y-82886142D01*
X131966904Y-82909952D01*
X131895476Y-82909952D01*
X131800238Y-82886142D01*
X131752619Y-82862333D01*
X131705000Y-82814714D01*
X131681190Y-82743285D01*
X131681190Y-82695666D01*
X131705000Y-82624238D01*
X131728809Y-82600428D01*
X131728809Y-82409952D02*
X131705000Y-82386142D01*
X131681190Y-82338523D01*
X131681190Y-82219476D01*
X131705000Y-82171857D01*
X131728809Y-82148047D01*
X131776428Y-82124238D01*
X131824047Y-82124238D01*
X131895476Y-82148047D01*
X132181190Y-82433761D01*
X132181190Y-82124238D01*
X132181190Y-81886142D02*
X132181190Y-81790904D01*
X132157380Y-81743285D01*
X132133571Y-81719476D01*
X132062142Y-81671857D01*
X131966904Y-81648047D01*
X131776428Y-81648047D01*
X131728809Y-81671857D01*
X131705000Y-81695666D01*
X131681190Y-81743285D01*
X131681190Y-81838523D01*
X131705000Y-81886142D01*
X131728809Y-81909952D01*
X131776428Y-81933761D01*
X131895476Y-81933761D01*
X131943095Y-81909952D01*
X131966904Y-81886142D01*
X131990714Y-81838523D01*
X131990714Y-81743285D01*
X131966904Y-81695666D01*
X131943095Y-81671857D01*
X131895476Y-81648047D01*
X152588571Y-78266571D02*
X152564761Y-78290380D01*
X152493333Y-78314190D01*
X152445714Y-78314190D01*
X152374285Y-78290380D01*
X152326666Y-78242761D01*
X152302857Y-78195142D01*
X152279047Y-78099904D01*
X152279047Y-78028476D01*
X152302857Y-77933238D01*
X152326666Y-77885619D01*
X152374285Y-77838000D01*
X152445714Y-77814190D01*
X152493333Y-77814190D01*
X152564761Y-77838000D01*
X152588571Y-77861809D01*
X152755238Y-77814190D02*
X153064761Y-77814190D01*
X152898095Y-78004666D01*
X152969523Y-78004666D01*
X153017142Y-78028476D01*
X153040952Y-78052285D01*
X153064761Y-78099904D01*
X153064761Y-78218952D01*
X153040952Y-78266571D01*
X153017142Y-78290380D01*
X152969523Y-78314190D01*
X152826666Y-78314190D01*
X152779047Y-78290380D01*
X152755238Y-78266571D01*
X153374285Y-77814190D02*
X153421904Y-77814190D01*
X153469523Y-77838000D01*
X153493333Y-77861809D01*
X153517142Y-77909428D01*
X153540952Y-78004666D01*
X153540952Y-78123714D01*
X153517142Y-78218952D01*
X153493333Y-78266571D01*
X153469523Y-78290380D01*
X153421904Y-78314190D01*
X153374285Y-78314190D01*
X153326666Y-78290380D01*
X153302857Y-78266571D01*
X153279047Y-78218952D01*
X153255238Y-78123714D01*
X153255238Y-78004666D01*
X153279047Y-77909428D01*
X153302857Y-77861809D01*
X153326666Y-77838000D01*
X153374285Y-77814190D01*
X142166571Y-85775428D02*
X142190380Y-85799238D01*
X142214190Y-85870666D01*
X142214190Y-85918285D01*
X142190380Y-85989714D01*
X142142761Y-86037333D01*
X142095142Y-86061142D01*
X141999904Y-86084952D01*
X141928476Y-86084952D01*
X141833238Y-86061142D01*
X141785619Y-86037333D01*
X141738000Y-85989714D01*
X141714190Y-85918285D01*
X141714190Y-85870666D01*
X141738000Y-85799238D01*
X141761809Y-85775428D01*
X142214190Y-85299238D02*
X142214190Y-85584952D01*
X142214190Y-85442095D02*
X141714190Y-85442095D01*
X141785619Y-85489714D01*
X141833238Y-85537333D01*
X141857047Y-85584952D01*
X142214190Y-84823047D02*
X142214190Y-85108761D01*
X142214190Y-84965904D02*
X141714190Y-84965904D01*
X141785619Y-85013523D01*
X141833238Y-85061142D01*
X141857047Y-85108761D01*
X148049047Y-93752690D02*
X148049047Y-94157452D01*
X148072857Y-94205071D01*
X148096666Y-94228880D01*
X148144285Y-94252690D01*
X148239523Y-94252690D01*
X148287142Y-94228880D01*
X148310952Y-94205071D01*
X148334761Y-94157452D01*
X148334761Y-93752690D01*
X148834761Y-94252690D02*
X148549047Y-94252690D01*
X148691904Y-94252690D02*
X148691904Y-93752690D01*
X148644285Y-93824119D01*
X148596666Y-93871738D01*
X148549047Y-93895547D01*
X132804333Y-90895190D02*
X132804333Y-91252333D01*
X132780523Y-91323761D01*
X132732904Y-91371380D01*
X132661476Y-91395190D01*
X132613857Y-91395190D01*
X132994809Y-90895190D02*
X133304333Y-90895190D01*
X133137666Y-91085666D01*
X133209095Y-91085666D01*
X133256714Y-91109476D01*
X133280523Y-91133285D01*
X133304333Y-91180904D01*
X133304333Y-91299952D01*
X133280523Y-91347571D01*
X133256714Y-91371380D01*
X133209095Y-91395190D01*
X133066238Y-91395190D01*
X133018619Y-91371380D01*
X132994809Y-91347571D01*
X151606190Y-82532952D02*
X152010952Y-82532952D01*
X152058571Y-82509142D01*
X152082380Y-82485333D01*
X152106190Y-82437714D01*
X152106190Y-82342476D01*
X152082380Y-82294857D01*
X152058571Y-82271047D01*
X152010952Y-82247238D01*
X151606190Y-82247238D01*
X151653809Y-82032952D02*
X151630000Y-82009142D01*
X151606190Y-81961523D01*
X151606190Y-81842476D01*
X151630000Y-81794857D01*
X151653809Y-81771047D01*
X151701428Y-81747238D01*
X151749047Y-81747238D01*
X151820476Y-81771047D01*
X152106190Y-82056761D01*
X152106190Y-81747238D01*
X158077333Y-77052190D02*
X158077333Y-77409333D01*
X158053523Y-77480761D01*
X158005904Y-77528380D01*
X157934476Y-77552190D01*
X157886857Y-77552190D01*
X158529714Y-77218857D02*
X158529714Y-77552190D01*
X158410666Y-77028380D02*
X158291619Y-77385523D01*
X158601142Y-77385523D01*
X136208571Y-97798571D02*
X136184761Y-97822380D01*
X136113333Y-97846190D01*
X136065714Y-97846190D01*
X135994285Y-97822380D01*
X135946666Y-97774761D01*
X135922857Y-97727142D01*
X135899047Y-97631904D01*
X135899047Y-97560476D01*
X135922857Y-97465238D01*
X135946666Y-97417619D01*
X135994285Y-97370000D01*
X136065714Y-97346190D01*
X136113333Y-97346190D01*
X136184761Y-97370000D01*
X136208571Y-97393809D01*
X136399047Y-97393809D02*
X136422857Y-97370000D01*
X136470476Y-97346190D01*
X136589523Y-97346190D01*
X136637142Y-97370000D01*
X136660952Y-97393809D01*
X136684761Y-97441428D01*
X136684761Y-97489047D01*
X136660952Y-97560476D01*
X136375238Y-97846190D01*
X136684761Y-97846190D01*
X137113333Y-97346190D02*
X137018095Y-97346190D01*
X136970476Y-97370000D01*
X136946666Y-97393809D01*
X136899047Y-97465238D01*
X136875238Y-97560476D01*
X136875238Y-97750952D01*
X136899047Y-97798571D01*
X136922857Y-97822380D01*
X136970476Y-97846190D01*
X137065714Y-97846190D01*
X137113333Y-97822380D01*
X137137142Y-97798571D01*
X137160952Y-97750952D01*
X137160952Y-97631904D01*
X137137142Y-97584285D01*
X137113333Y-97560476D01*
X137065714Y-97536666D01*
X136970476Y-97536666D01*
X136922857Y-97560476D01*
X136899047Y-97584285D01*
X136875238Y-97631904D01*
X136198571Y-98748571D02*
X136174761Y-98772380D01*
X136103333Y-98796190D01*
X136055714Y-98796190D01*
X135984285Y-98772380D01*
X135936666Y-98724761D01*
X135912857Y-98677142D01*
X135889047Y-98581904D01*
X135889047Y-98510476D01*
X135912857Y-98415238D01*
X135936666Y-98367619D01*
X135984285Y-98320000D01*
X136055714Y-98296190D01*
X136103333Y-98296190D01*
X136174761Y-98320000D01*
X136198571Y-98343809D01*
X136389047Y-98343809D02*
X136412857Y-98320000D01*
X136460476Y-98296190D01*
X136579523Y-98296190D01*
X136627142Y-98320000D01*
X136650952Y-98343809D01*
X136674761Y-98391428D01*
X136674761Y-98439047D01*
X136650952Y-98510476D01*
X136365238Y-98796190D01*
X136674761Y-98796190D01*
X137103333Y-98462857D02*
X137103333Y-98796190D01*
X136984285Y-98272380D02*
X136865238Y-98629523D01*
X137174761Y-98629523D01*
X136967571Y-95348071D02*
X136943761Y-95371880D01*
X136872333Y-95395690D01*
X136824714Y-95395690D01*
X136753285Y-95371880D01*
X136705666Y-95324261D01*
X136681857Y-95276642D01*
X136658047Y-95181404D01*
X136658047Y-95109976D01*
X136681857Y-95014738D01*
X136705666Y-94967119D01*
X136753285Y-94919500D01*
X136824714Y-94895690D01*
X136872333Y-94895690D01*
X136943761Y-94919500D01*
X136967571Y-94943309D01*
X137158047Y-94943309D02*
X137181857Y-94919500D01*
X137229476Y-94895690D01*
X137348523Y-94895690D01*
X137396142Y-94919500D01*
X137419952Y-94943309D01*
X137443761Y-94990928D01*
X137443761Y-95038547D01*
X137419952Y-95109976D01*
X137134238Y-95395690D01*
X137443761Y-95395690D01*
X137896142Y-94895690D02*
X137658047Y-94895690D01*
X137634238Y-95133785D01*
X137658047Y-95109976D01*
X137705666Y-95086166D01*
X137824714Y-95086166D01*
X137872333Y-95109976D01*
X137896142Y-95133785D01*
X137919952Y-95181404D01*
X137919952Y-95300452D01*
X137896142Y-95348071D01*
X137872333Y-95371880D01*
X137824714Y-95395690D01*
X137705666Y-95395690D01*
X137658047Y-95371880D01*
X137634238Y-95348071D01*
X136967571Y-96745071D02*
X136943761Y-96768880D01*
X136872333Y-96792690D01*
X136824714Y-96792690D01*
X136753285Y-96768880D01*
X136705666Y-96721261D01*
X136681857Y-96673642D01*
X136658047Y-96578404D01*
X136658047Y-96506976D01*
X136681857Y-96411738D01*
X136705666Y-96364119D01*
X136753285Y-96316500D01*
X136824714Y-96292690D01*
X136872333Y-96292690D01*
X136943761Y-96316500D01*
X136967571Y-96340309D01*
X137158047Y-96340309D02*
X137181857Y-96316500D01*
X137229476Y-96292690D01*
X137348523Y-96292690D01*
X137396142Y-96316500D01*
X137419952Y-96340309D01*
X137443761Y-96387928D01*
X137443761Y-96435547D01*
X137419952Y-96506976D01*
X137134238Y-96792690D01*
X137443761Y-96792690D01*
X137753285Y-96292690D02*
X137800904Y-96292690D01*
X137848523Y-96316500D01*
X137872333Y-96340309D01*
X137896142Y-96387928D01*
X137919952Y-96483166D01*
X137919952Y-96602214D01*
X137896142Y-96697452D01*
X137872333Y-96745071D01*
X137848523Y-96768880D01*
X137800904Y-96792690D01*
X137753285Y-96792690D01*
X137705666Y-96768880D01*
X137681857Y-96745071D01*
X137658047Y-96697452D01*
X137634238Y-96602214D01*
X137634238Y-96483166D01*
X137658047Y-96387928D01*
X137681857Y-96340309D01*
X137705666Y-96316500D01*
X137753285Y-96292690D01*
X148688571Y-93438571D02*
X148664761Y-93462380D01*
X148593333Y-93486190D01*
X148545714Y-93486190D01*
X148474285Y-93462380D01*
X148426666Y-93414761D01*
X148402857Y-93367142D01*
X148379047Y-93271904D01*
X148379047Y-93200476D01*
X148402857Y-93105238D01*
X148426666Y-93057619D01*
X148474285Y-93010000D01*
X148545714Y-92986190D01*
X148593333Y-92986190D01*
X148664761Y-93010000D01*
X148688571Y-93033809D01*
X148879047Y-93033809D02*
X148902857Y-93010000D01*
X148950476Y-92986190D01*
X149069523Y-92986190D01*
X149117142Y-93010000D01*
X149140952Y-93033809D01*
X149164761Y-93081428D01*
X149164761Y-93129047D01*
X149140952Y-93200476D01*
X148855238Y-93486190D01*
X149164761Y-93486190D01*
X149640952Y-93486190D02*
X149355238Y-93486190D01*
X149498095Y-93486190D02*
X149498095Y-92986190D01*
X149450476Y-93057619D01*
X149402857Y-93105238D01*
X149355238Y-93129047D01*
X137118571Y-93723571D02*
X137094761Y-93747380D01*
X137023333Y-93771190D01*
X136975714Y-93771190D01*
X136904285Y-93747380D01*
X136856666Y-93699761D01*
X136832857Y-93652142D01*
X136809047Y-93556904D01*
X136809047Y-93485476D01*
X136832857Y-93390238D01*
X136856666Y-93342619D01*
X136904285Y-93295000D01*
X136975714Y-93271190D01*
X137023333Y-93271190D01*
X137094761Y-93295000D01*
X137118571Y-93318809D01*
X137309047Y-93318809D02*
X137332857Y-93295000D01*
X137380476Y-93271190D01*
X137499523Y-93271190D01*
X137547142Y-93295000D01*
X137570952Y-93318809D01*
X137594761Y-93366428D01*
X137594761Y-93414047D01*
X137570952Y-93485476D01*
X137285238Y-93771190D01*
X137594761Y-93771190D01*
X137785238Y-93318809D02*
X137809047Y-93295000D01*
X137856666Y-93271190D01*
X137975714Y-93271190D01*
X138023333Y-93295000D01*
X138047142Y-93318809D01*
X138070952Y-93366428D01*
X138070952Y-93414047D01*
X138047142Y-93485476D01*
X137761428Y-93771190D01*
X138070952Y-93771190D01*
X148397571Y-96491071D02*
X148373761Y-96514880D01*
X148302333Y-96538690D01*
X148254714Y-96538690D01*
X148183285Y-96514880D01*
X148135666Y-96467261D01*
X148111857Y-96419642D01*
X148088047Y-96324404D01*
X148088047Y-96252976D01*
X148111857Y-96157738D01*
X148135666Y-96110119D01*
X148183285Y-96062500D01*
X148254714Y-96038690D01*
X148302333Y-96038690D01*
X148373761Y-96062500D01*
X148397571Y-96086309D01*
X148873761Y-96538690D02*
X148588047Y-96538690D01*
X148730904Y-96538690D02*
X148730904Y-96038690D01*
X148683285Y-96110119D01*
X148635666Y-96157738D01*
X148588047Y-96181547D01*
X149111857Y-96538690D02*
X149207095Y-96538690D01*
X149254714Y-96514880D01*
X149278523Y-96491071D01*
X149326142Y-96419642D01*
X149349952Y-96324404D01*
X149349952Y-96133928D01*
X149326142Y-96086309D01*
X149302333Y-96062500D01*
X149254714Y-96038690D01*
X149159476Y-96038690D01*
X149111857Y-96062500D01*
X149088047Y-96086309D01*
X149064238Y-96133928D01*
X149064238Y-96252976D01*
X149088047Y-96300595D01*
X149111857Y-96324404D01*
X149159476Y-96348214D01*
X149254714Y-96348214D01*
X149302333Y-96324404D01*
X149326142Y-96300595D01*
X149349952Y-96252976D01*
X136967571Y-96046571D02*
X136943761Y-96070380D01*
X136872333Y-96094190D01*
X136824714Y-96094190D01*
X136753285Y-96070380D01*
X136705666Y-96022761D01*
X136681857Y-95975142D01*
X136658047Y-95879904D01*
X136658047Y-95808476D01*
X136681857Y-95713238D01*
X136705666Y-95665619D01*
X136753285Y-95618000D01*
X136824714Y-95594190D01*
X136872333Y-95594190D01*
X136943761Y-95618000D01*
X136967571Y-95641809D01*
X137443761Y-96094190D02*
X137158047Y-96094190D01*
X137300904Y-96094190D02*
X137300904Y-95594190D01*
X137253285Y-95665619D01*
X137205666Y-95713238D01*
X137158047Y-95737047D01*
X137872333Y-95760857D02*
X137872333Y-96094190D01*
X137753285Y-95570380D02*
X137634238Y-95927523D01*
X137943761Y-95927523D01*
X138408571Y-84661428D02*
X138432380Y-84685238D01*
X138456190Y-84756666D01*
X138456190Y-84804285D01*
X138432380Y-84875714D01*
X138384761Y-84923333D01*
X138337142Y-84947142D01*
X138241904Y-84970952D01*
X138170476Y-84970952D01*
X138075238Y-84947142D01*
X138027619Y-84923333D01*
X137980000Y-84875714D01*
X137956190Y-84804285D01*
X137956190Y-84756666D01*
X137980000Y-84685238D01*
X138003809Y-84661428D01*
X138456190Y-84185238D02*
X138456190Y-84470952D01*
X138456190Y-84328095D02*
X137956190Y-84328095D01*
X138027619Y-84375714D01*
X138075238Y-84423333D01*
X138099047Y-84470952D01*
X137956190Y-83732857D02*
X137956190Y-83970952D01*
X138194285Y-83994761D01*
X138170476Y-83970952D01*
X138146666Y-83923333D01*
X138146666Y-83804285D01*
X138170476Y-83756666D01*
X138194285Y-83732857D01*
X138241904Y-83709047D01*
X138360952Y-83709047D01*
X138408571Y-83732857D01*
X138432380Y-83756666D01*
X138456190Y-83804285D01*
X138456190Y-83923333D01*
X138432380Y-83970952D01*
X138408571Y-83994761D01*
X150383571Y-86746428D02*
X150407380Y-86770238D01*
X150431190Y-86841666D01*
X150431190Y-86889285D01*
X150407380Y-86960714D01*
X150359761Y-87008333D01*
X150312142Y-87032142D01*
X150216904Y-87055952D01*
X150145476Y-87055952D01*
X150050238Y-87032142D01*
X150002619Y-87008333D01*
X149955000Y-86960714D01*
X149931190Y-86889285D01*
X149931190Y-86841666D01*
X149955000Y-86770238D01*
X149978809Y-86746428D01*
X150431190Y-86270238D02*
X150431190Y-86555952D01*
X150431190Y-86413095D02*
X149931190Y-86413095D01*
X150002619Y-86460714D01*
X150050238Y-86508333D01*
X150074047Y-86555952D01*
X149931190Y-85841666D02*
X149931190Y-85936904D01*
X149955000Y-85984523D01*
X149978809Y-86008333D01*
X150050238Y-86055952D01*
X150145476Y-86079761D01*
X150335952Y-86079761D01*
X150383571Y-86055952D01*
X150407380Y-86032142D01*
X150431190Y-85984523D01*
X150431190Y-85889285D01*
X150407380Y-85841666D01*
X150383571Y-85817857D01*
X150335952Y-85794047D01*
X150216904Y-85794047D01*
X150169285Y-85817857D01*
X150145476Y-85841666D01*
X150121666Y-85889285D01*
X150121666Y-85984523D01*
X150145476Y-86032142D01*
X150169285Y-86055952D01*
X150216904Y-86079761D01*
X150788571Y-95788571D02*
X150764761Y-95812380D01*
X150693333Y-95836190D01*
X150645714Y-95836190D01*
X150574285Y-95812380D01*
X150526666Y-95764761D01*
X150502857Y-95717142D01*
X150479047Y-95621904D01*
X150479047Y-95550476D01*
X150502857Y-95455238D01*
X150526666Y-95407619D01*
X150574285Y-95360000D01*
X150645714Y-95336190D01*
X150693333Y-95336190D01*
X150764761Y-95360000D01*
X150788571Y-95383809D01*
X151264761Y-95836190D02*
X150979047Y-95836190D01*
X151121904Y-95836190D02*
X151121904Y-95336190D01*
X151074285Y-95407619D01*
X151026666Y-95455238D01*
X150979047Y-95479047D01*
X151431428Y-95336190D02*
X151764761Y-95336190D01*
X151550476Y-95836190D01*
X148198571Y-86558571D02*
X148174761Y-86582380D01*
X148103333Y-86606190D01*
X148055714Y-86606190D01*
X147984285Y-86582380D01*
X147936666Y-86534761D01*
X147912857Y-86487142D01*
X147889047Y-86391904D01*
X147889047Y-86320476D01*
X147912857Y-86225238D01*
X147936666Y-86177619D01*
X147984285Y-86130000D01*
X148055714Y-86106190D01*
X148103333Y-86106190D01*
X148174761Y-86130000D01*
X148198571Y-86153809D01*
X148674761Y-86606190D02*
X148389047Y-86606190D01*
X148531904Y-86606190D02*
X148531904Y-86106190D01*
X148484285Y-86177619D01*
X148436666Y-86225238D01*
X148389047Y-86249047D01*
X148960476Y-86320476D02*
X148912857Y-86296666D01*
X148889047Y-86272857D01*
X148865238Y-86225238D01*
X148865238Y-86201428D01*
X148889047Y-86153809D01*
X148912857Y-86130000D01*
X148960476Y-86106190D01*
X149055714Y-86106190D01*
X149103333Y-86130000D01*
X149127142Y-86153809D01*
X149150952Y-86201428D01*
X149150952Y-86225238D01*
X149127142Y-86272857D01*
X149103333Y-86296666D01*
X149055714Y-86320476D01*
X148960476Y-86320476D01*
X148912857Y-86344285D01*
X148889047Y-86368095D01*
X148865238Y-86415714D01*
X148865238Y-86510952D01*
X148889047Y-86558571D01*
X148912857Y-86582380D01*
X148960476Y-86606190D01*
X149055714Y-86606190D01*
X149103333Y-86582380D01*
X149127142Y-86558571D01*
X149150952Y-86510952D01*
X149150952Y-86415714D01*
X149127142Y-86368095D01*
X149103333Y-86344285D01*
X149055714Y-86320476D01*
X141404571Y-85775428D02*
X141428380Y-85799238D01*
X141452190Y-85870666D01*
X141452190Y-85918285D01*
X141428380Y-85989714D01*
X141380761Y-86037333D01*
X141333142Y-86061142D01*
X141237904Y-86084952D01*
X141166476Y-86084952D01*
X141071238Y-86061142D01*
X141023619Y-86037333D01*
X140976000Y-85989714D01*
X140952190Y-85918285D01*
X140952190Y-85870666D01*
X140976000Y-85799238D01*
X140999809Y-85775428D01*
X141452190Y-85299238D02*
X141452190Y-85584952D01*
X141452190Y-85442095D02*
X140952190Y-85442095D01*
X141023619Y-85489714D01*
X141071238Y-85537333D01*
X141095047Y-85584952D01*
X140952190Y-85132571D02*
X140952190Y-84823047D01*
X141142666Y-84989714D01*
X141142666Y-84918285D01*
X141166476Y-84870666D01*
X141190285Y-84846857D01*
X141237904Y-84823047D01*
X141356952Y-84823047D01*
X141404571Y-84846857D01*
X141428380Y-84870666D01*
X141452190Y-84918285D01*
X141452190Y-85061142D01*
X141428380Y-85108761D01*
X141404571Y-85132571D01*
X136967571Y-94649571D02*
X136943761Y-94673380D01*
X136872333Y-94697190D01*
X136824714Y-94697190D01*
X136753285Y-94673380D01*
X136705666Y-94625761D01*
X136681857Y-94578142D01*
X136658047Y-94482904D01*
X136658047Y-94411476D01*
X136681857Y-94316238D01*
X136705666Y-94268619D01*
X136753285Y-94221000D01*
X136824714Y-94197190D01*
X136872333Y-94197190D01*
X136943761Y-94221000D01*
X136967571Y-94244809D01*
X137443761Y-94697190D02*
X137158047Y-94697190D01*
X137300904Y-94697190D02*
X137300904Y-94197190D01*
X137253285Y-94268619D01*
X137205666Y-94316238D01*
X137158047Y-94340047D01*
X137634238Y-94244809D02*
X137658047Y-94221000D01*
X137705666Y-94197190D01*
X137824714Y-94197190D01*
X137872333Y-94221000D01*
X137896142Y-94244809D01*
X137919952Y-94292428D01*
X137919952Y-94340047D01*
X137896142Y-94411476D01*
X137610428Y-94697190D01*
X137919952Y-94697190D01*
X148498571Y-88698571D02*
X148474761Y-88722380D01*
X148403333Y-88746190D01*
X148355714Y-88746190D01*
X148284285Y-88722380D01*
X148236666Y-88674761D01*
X148212857Y-88627142D01*
X148189047Y-88531904D01*
X148189047Y-88460476D01*
X148212857Y-88365238D01*
X148236666Y-88317619D01*
X148284285Y-88270000D01*
X148355714Y-88246190D01*
X148403333Y-88246190D01*
X148474761Y-88270000D01*
X148498571Y-88293809D01*
X148974761Y-88746190D02*
X148689047Y-88746190D01*
X148831904Y-88746190D02*
X148831904Y-88246190D01*
X148784285Y-88317619D01*
X148736666Y-88365238D01*
X148689047Y-88389047D01*
X149284285Y-88246190D02*
X149331904Y-88246190D01*
X149379523Y-88270000D01*
X149403333Y-88293809D01*
X149427142Y-88341428D01*
X149450952Y-88436666D01*
X149450952Y-88555714D01*
X149427142Y-88650952D01*
X149403333Y-88698571D01*
X149379523Y-88722380D01*
X149331904Y-88746190D01*
X149284285Y-88746190D01*
X149236666Y-88722380D01*
X149212857Y-88698571D01*
X149189047Y-88650952D01*
X149165238Y-88555714D01*
X149165238Y-88436666D01*
X149189047Y-88341428D01*
X149212857Y-88293809D01*
X149236666Y-88270000D01*
X149284285Y-88246190D01*
X135366666Y-90138571D02*
X135342857Y-90162380D01*
X135271428Y-90186190D01*
X135223809Y-90186190D01*
X135152380Y-90162380D01*
X135104761Y-90114761D01*
X135080952Y-90067142D01*
X135057142Y-89971904D01*
X135057142Y-89900476D01*
X135080952Y-89805238D01*
X135104761Y-89757619D01*
X135152380Y-89710000D01*
X135223809Y-89686190D01*
X135271428Y-89686190D01*
X135342857Y-89710000D01*
X135366666Y-89733809D01*
X135604761Y-90186190D02*
X135700000Y-90186190D01*
X135747619Y-90162380D01*
X135771428Y-90138571D01*
X135819047Y-90067142D01*
X135842857Y-89971904D01*
X135842857Y-89781428D01*
X135819047Y-89733809D01*
X135795238Y-89710000D01*
X135747619Y-89686190D01*
X135652380Y-89686190D01*
X135604761Y-89710000D01*
X135580952Y-89733809D01*
X135557142Y-89781428D01*
X135557142Y-89900476D01*
X135580952Y-89948095D01*
X135604761Y-89971904D01*
X135652380Y-89995714D01*
X135747619Y-89995714D01*
X135795238Y-89971904D01*
X135819047Y-89948095D01*
X135842857Y-89900476D01*
X131805952Y-76626190D02*
X131805952Y-76126190D01*
X131925000Y-76126190D01*
X131996428Y-76150000D01*
X132044047Y-76197619D01*
X132067857Y-76245238D01*
X132091666Y-76340476D01*
X132091666Y-76411904D01*
X132067857Y-76507142D01*
X132044047Y-76554761D01*
X131996428Y-76602380D01*
X131925000Y-76626190D01*
X131805952Y-76626190D01*
X132567857Y-76626190D02*
X132282142Y-76626190D01*
X132425000Y-76626190D02*
X132425000Y-76126190D01*
X132377380Y-76197619D01*
X132329761Y-76245238D01*
X132282142Y-76269047D01*
X131805952Y-75901190D02*
X131805952Y-75401190D01*
X131925000Y-75401190D01*
X131996428Y-75425000D01*
X132044047Y-75472619D01*
X132067857Y-75520238D01*
X132091666Y-75615476D01*
X132091666Y-75686904D01*
X132067857Y-75782142D01*
X132044047Y-75829761D01*
X131996428Y-75877380D01*
X131925000Y-75901190D01*
X131805952Y-75901190D01*
X132282142Y-75448809D02*
X132305952Y-75425000D01*
X132353571Y-75401190D01*
X132472619Y-75401190D01*
X132520238Y-75425000D01*
X132544047Y-75448809D01*
X132567857Y-75496428D01*
X132567857Y-75544047D01*
X132544047Y-75615476D01*
X132258333Y-75901190D01*
X132567857Y-75901190D01*
X128649071Y-80409690D02*
X128482404Y-80171595D01*
X128363357Y-80409690D02*
X128363357Y-79909690D01*
X128553833Y-79909690D01*
X128601452Y-79933500D01*
X128625261Y-79957309D01*
X128649071Y-80004928D01*
X128649071Y-80076357D01*
X128625261Y-80123976D01*
X128601452Y-80147785D01*
X128553833Y-80171595D01*
X128363357Y-80171595D01*
X129125261Y-80409690D02*
X128839547Y-80409690D01*
X128982404Y-80409690D02*
X128982404Y-79909690D01*
X128934785Y-79981119D01*
X128887166Y-80028738D01*
X128839547Y-80052547D01*
X129434785Y-79909690D02*
X129482404Y-79909690D01*
X129530023Y-79933500D01*
X129553833Y-79957309D01*
X129577642Y-80004928D01*
X129601452Y-80100166D01*
X129601452Y-80219214D01*
X129577642Y-80314452D01*
X129553833Y-80362071D01*
X129530023Y-80385880D01*
X129482404Y-80409690D01*
X129434785Y-80409690D01*
X129387166Y-80385880D01*
X129363357Y-80362071D01*
X129339547Y-80314452D01*
X129315738Y-80219214D01*
X129315738Y-80100166D01*
X129339547Y-80004928D01*
X129363357Y-79957309D01*
X129387166Y-79933500D01*
X129434785Y-79909690D01*
X130093666Y-80409690D02*
X129927000Y-80171595D01*
X129807952Y-80409690D02*
X129807952Y-79909690D01*
X129998428Y-79909690D01*
X130046047Y-79933500D01*
X130069857Y-79957309D01*
X130093666Y-80004928D01*
X130093666Y-80076357D01*
X130069857Y-80123976D01*
X130046047Y-80147785D01*
X129998428Y-80171595D01*
X129807952Y-80171595D01*
X130331761Y-80409690D02*
X130427000Y-80409690D01*
X130474619Y-80385880D01*
X130498428Y-80362071D01*
X130546047Y-80290642D01*
X130569857Y-80195404D01*
X130569857Y-80004928D01*
X130546047Y-79957309D01*
X130522238Y-79933500D01*
X130474619Y-79909690D01*
X130379380Y-79909690D01*
X130331761Y-79933500D01*
X130307952Y-79957309D01*
X130284142Y-80004928D01*
X130284142Y-80123976D01*
X130307952Y-80171595D01*
X130331761Y-80195404D01*
X130379380Y-80219214D01*
X130474619Y-80219214D01*
X130522238Y-80195404D01*
X130546047Y-80171595D01*
X130569857Y-80123976D01*
X154566666Y-97548571D02*
X154542857Y-97572380D01*
X154471428Y-97596190D01*
X154423809Y-97596190D01*
X154352380Y-97572380D01*
X154304761Y-97524761D01*
X154280952Y-97477142D01*
X154257142Y-97381904D01*
X154257142Y-97310476D01*
X154280952Y-97215238D01*
X154304761Y-97167619D01*
X154352380Y-97120000D01*
X154423809Y-97096190D01*
X154471428Y-97096190D01*
X154542857Y-97120000D01*
X154566666Y-97143809D01*
X154733333Y-97096190D02*
X155066666Y-97096190D01*
X154852380Y-97596190D01*
X154606666Y-90758571D02*
X154582857Y-90782380D01*
X154511428Y-90806190D01*
X154463809Y-90806190D01*
X154392380Y-90782380D01*
X154344761Y-90734761D01*
X154320952Y-90687142D01*
X154297142Y-90591904D01*
X154297142Y-90520476D01*
X154320952Y-90425238D01*
X154344761Y-90377619D01*
X154392380Y-90330000D01*
X154463809Y-90306190D01*
X154511428Y-90306190D01*
X154582857Y-90330000D01*
X154606666Y-90353809D01*
X154892380Y-90520476D02*
X154844761Y-90496666D01*
X154820952Y-90472857D01*
X154797142Y-90425238D01*
X154797142Y-90401428D01*
X154820952Y-90353809D01*
X154844761Y-90330000D01*
X154892380Y-90306190D01*
X154987619Y-90306190D01*
X155035238Y-90330000D01*
X155059047Y-90353809D01*
X155082857Y-90401428D01*
X155082857Y-90425238D01*
X155059047Y-90472857D01*
X155035238Y-90496666D01*
X154987619Y-90520476D01*
X154892380Y-90520476D01*
X154844761Y-90544285D01*
X154820952Y-90568095D01*
X154797142Y-90615714D01*
X154797142Y-90710952D01*
X154820952Y-90758571D01*
X154844761Y-90782380D01*
X154892380Y-90806190D01*
X154987619Y-90806190D01*
X155035238Y-90782380D01*
X155059047Y-90758571D01*
X155082857Y-90710952D01*
X155082857Y-90615714D01*
X155059047Y-90568095D01*
X155035238Y-90544285D01*
X154987619Y-90520476D01*
X152736190Y-92893333D02*
X152498095Y-93060000D01*
X152736190Y-93179047D02*
X152236190Y-93179047D01*
X152236190Y-92988571D01*
X152260000Y-92940952D01*
X152283809Y-92917142D01*
X152331428Y-92893333D01*
X152402857Y-92893333D01*
X152450476Y-92917142D01*
X152474285Y-92940952D01*
X152498095Y-92988571D01*
X152498095Y-93179047D01*
X152450476Y-92607619D02*
X152426666Y-92655238D01*
X152402857Y-92679047D01*
X152355238Y-92702857D01*
X152331428Y-92702857D01*
X152283809Y-92679047D01*
X152260000Y-92655238D01*
X152236190Y-92607619D01*
X152236190Y-92512380D01*
X152260000Y-92464761D01*
X152283809Y-92440952D01*
X152331428Y-92417142D01*
X152355238Y-92417142D01*
X152402857Y-92440952D01*
X152426666Y-92464761D01*
X152450476Y-92512380D01*
X152450476Y-92607619D01*
X152474285Y-92655238D01*
X152498095Y-92679047D01*
X152545714Y-92702857D01*
X152640952Y-92702857D01*
X152688571Y-92679047D01*
X152712380Y-92655238D01*
X152736190Y-92607619D01*
X152736190Y-92512380D01*
X152712380Y-92464761D01*
X152688571Y-92440952D01*
X152640952Y-92417142D01*
X152545714Y-92417142D01*
X152498095Y-92440952D01*
X152474285Y-92464761D01*
X152450476Y-92512380D01*
X154858666Y-79338571D02*
X154834857Y-79362380D01*
X154763428Y-79386190D01*
X154715809Y-79386190D01*
X154644380Y-79362380D01*
X154596761Y-79314761D01*
X154572952Y-79267142D01*
X154549142Y-79171904D01*
X154549142Y-79100476D01*
X154572952Y-79005238D01*
X154596761Y-78957619D01*
X154644380Y-78910000D01*
X154715809Y-78886190D01*
X154763428Y-78886190D01*
X154834857Y-78910000D01*
X154858666Y-78933809D01*
X155311047Y-78886190D02*
X155072952Y-78886190D01*
X155049142Y-79124285D01*
X155072952Y-79100476D01*
X155120571Y-79076666D01*
X155239619Y-79076666D01*
X155287238Y-79100476D01*
X155311047Y-79124285D01*
X155334857Y-79171904D01*
X155334857Y-79290952D01*
X155311047Y-79338571D01*
X155287238Y-79362380D01*
X155239619Y-79386190D01*
X155120571Y-79386190D01*
X155072952Y-79362380D01*
X155049142Y-79338571D01*
X131617666Y-81314571D02*
X131593857Y-81338380D01*
X131522428Y-81362190D01*
X131474809Y-81362190D01*
X131403380Y-81338380D01*
X131355761Y-81290761D01*
X131331952Y-81243142D01*
X131308142Y-81147904D01*
X131308142Y-81076476D01*
X131331952Y-80981238D01*
X131355761Y-80933619D01*
X131403380Y-80886000D01*
X131474809Y-80862190D01*
X131522428Y-80862190D01*
X131593857Y-80886000D01*
X131617666Y-80909809D01*
X132046238Y-80862190D02*
X131951000Y-80862190D01*
X131903380Y-80886000D01*
X131879571Y-80909809D01*
X131831952Y-80981238D01*
X131808142Y-81076476D01*
X131808142Y-81266952D01*
X131831952Y-81314571D01*
X131855761Y-81338380D01*
X131903380Y-81362190D01*
X131998619Y-81362190D01*
X132046238Y-81338380D01*
X132070047Y-81314571D01*
X132093857Y-81266952D01*
X132093857Y-81147904D01*
X132070047Y-81100285D01*
X132046238Y-81076476D01*
X131998619Y-81052666D01*
X131903380Y-81052666D01*
X131855761Y-81076476D01*
X131831952Y-81100285D01*
X131808142Y-81147904D01*
X151556666Y-78266571D02*
X151532857Y-78290380D01*
X151461428Y-78314190D01*
X151413809Y-78314190D01*
X151342380Y-78290380D01*
X151294761Y-78242761D01*
X151270952Y-78195142D01*
X151247142Y-78099904D01*
X151247142Y-78028476D01*
X151270952Y-77933238D01*
X151294761Y-77885619D01*
X151342380Y-77838000D01*
X151413809Y-77814190D01*
X151461428Y-77814190D01*
X151532857Y-77838000D01*
X151556666Y-77861809D01*
X152032857Y-78314190D02*
X151747142Y-78314190D01*
X151890000Y-78314190D02*
X151890000Y-77814190D01*
X151842380Y-77885619D01*
X151794761Y-77933238D01*
X151747142Y-77957047D01*
X149896666Y-77938571D02*
X149872857Y-77962380D01*
X149801428Y-77986190D01*
X149753809Y-77986190D01*
X149682380Y-77962380D01*
X149634761Y-77914761D01*
X149610952Y-77867142D01*
X149587142Y-77771904D01*
X149587142Y-77700476D01*
X149610952Y-77605238D01*
X149634761Y-77557619D01*
X149682380Y-77510000D01*
X149753809Y-77486190D01*
X149801428Y-77486190D01*
X149872857Y-77510000D01*
X149896666Y-77533809D01*
X150087142Y-77533809D02*
X150110952Y-77510000D01*
X150158571Y-77486190D01*
X150277619Y-77486190D01*
X150325238Y-77510000D01*
X150349047Y-77533809D01*
X150372857Y-77581428D01*
X150372857Y-77629047D01*
X150349047Y-77700476D01*
X150063333Y-77986190D01*
X150372857Y-77986190D01*
X133903666Y-76615571D02*
X133879857Y-76639380D01*
X133808428Y-76663190D01*
X133760809Y-76663190D01*
X133689380Y-76639380D01*
X133641761Y-76591761D01*
X133617952Y-76544142D01*
X133594142Y-76448904D01*
X133594142Y-76377476D01*
X133617952Y-76282238D01*
X133641761Y-76234619D01*
X133689380Y-76187000D01*
X133760809Y-76163190D01*
X133808428Y-76163190D01*
X133879857Y-76187000D01*
X133903666Y-76210809D01*
X134070333Y-76163190D02*
X134379857Y-76163190D01*
X134213190Y-76353666D01*
X134284619Y-76353666D01*
X134332238Y-76377476D01*
X134356047Y-76401285D01*
X134379857Y-76448904D01*
X134379857Y-76567952D01*
X134356047Y-76615571D01*
X134332238Y-76639380D01*
X134284619Y-76663190D01*
X134141761Y-76663190D01*
X134094142Y-76639380D01*
X134070333Y-76615571D01*
X130601666Y-81314571D02*
X130577857Y-81338380D01*
X130506428Y-81362190D01*
X130458809Y-81362190D01*
X130387380Y-81338380D01*
X130339761Y-81290761D01*
X130315952Y-81243142D01*
X130292142Y-81147904D01*
X130292142Y-81076476D01*
X130315952Y-80981238D01*
X130339761Y-80933619D01*
X130387380Y-80886000D01*
X130458809Y-80862190D01*
X130506428Y-80862190D01*
X130577857Y-80886000D01*
X130601666Y-80909809D01*
X131030238Y-81028857D02*
X131030238Y-81362190D01*
X130911190Y-80838380D02*
X130792142Y-81195523D01*
X131101666Y-81195523D01*
X148762666Y-82124190D02*
X148524571Y-82124190D01*
X148524571Y-81624190D01*
X149191238Y-82124190D02*
X148905523Y-82124190D01*
X149048380Y-82124190D02*
X149048380Y-81624190D01*
X149000761Y-81695619D01*
X148953142Y-81743238D01*
X148905523Y-81767047D01*
X140986666Y-83246190D02*
X140748571Y-83246190D01*
X140748571Y-82746190D01*
X141129523Y-82793809D02*
X141153333Y-82770000D01*
X141200952Y-82746190D01*
X141320000Y-82746190D01*
X141367619Y-82770000D01*
X141391428Y-82793809D01*
X141415238Y-82841428D01*
X141415238Y-82889047D01*
X141391428Y-82960476D01*
X141105714Y-83246190D01*
X141415238Y-83246190D01*
X151556666Y-77552190D02*
X151318571Y-77552190D01*
X151318571Y-77052190D01*
X151675714Y-77052190D02*
X151985238Y-77052190D01*
X151818571Y-77242666D01*
X151890000Y-77242666D01*
X151937619Y-77266476D01*
X151961428Y-77290285D01*
X151985238Y-77337904D01*
X151985238Y-77456952D01*
X151961428Y-77504571D01*
X151937619Y-77528380D01*
X151890000Y-77552190D01*
X151747142Y-77552190D01*
X151699523Y-77528380D01*
X151675714Y-77504571D01*
X133522666Y-75774190D02*
X133356000Y-75536095D01*
X133236952Y-75774190D02*
X133236952Y-75274190D01*
X133427428Y-75274190D01*
X133475047Y-75298000D01*
X133498857Y-75321809D01*
X133522666Y-75369428D01*
X133522666Y-75440857D01*
X133498857Y-75488476D01*
X133475047Y-75512285D01*
X133427428Y-75536095D01*
X133236952Y-75536095D01*
X133689333Y-75274190D02*
X133998857Y-75274190D01*
X133832190Y-75464666D01*
X133903619Y-75464666D01*
X133951238Y-75488476D01*
X133975047Y-75512285D01*
X133998857Y-75559904D01*
X133998857Y-75678952D01*
X133975047Y-75726571D01*
X133951238Y-75750380D01*
X133903619Y-75774190D01*
X133760761Y-75774190D01*
X133713142Y-75750380D01*
X133689333Y-75726571D01*
X154350666Y-77552190D02*
X154184000Y-77314095D01*
X154064952Y-77552190D02*
X154064952Y-77052190D01*
X154255428Y-77052190D01*
X154303047Y-77076000D01*
X154326857Y-77099809D01*
X154350666Y-77147428D01*
X154350666Y-77218857D01*
X154326857Y-77266476D01*
X154303047Y-77290285D01*
X154255428Y-77314095D01*
X154064952Y-77314095D01*
X154517333Y-77052190D02*
X154850666Y-77052190D01*
X154636380Y-77552190D01*
X138856666Y-83648190D02*
X138690000Y-83410095D01*
X138570952Y-83648190D02*
X138570952Y-83148190D01*
X138761428Y-83148190D01*
X138809047Y-83172000D01*
X138832857Y-83195809D01*
X138856666Y-83243428D01*
X138856666Y-83314857D01*
X138832857Y-83362476D01*
X138809047Y-83386285D01*
X138761428Y-83410095D01*
X138570952Y-83410095D01*
X139285238Y-83148190D02*
X139190000Y-83148190D01*
X139142380Y-83172000D01*
X139118571Y-83195809D01*
X139070952Y-83267238D01*
X139047142Y-83362476D01*
X139047142Y-83552952D01*
X139070952Y-83600571D01*
X139094761Y-83624380D01*
X139142380Y-83648190D01*
X139237619Y-83648190D01*
X139285238Y-83624380D01*
X139309047Y-83600571D01*
X139332857Y-83552952D01*
X139332857Y-83433904D01*
X139309047Y-83386285D01*
X139285238Y-83362476D01*
X139237619Y-83338666D01*
X139142380Y-83338666D01*
X139094761Y-83362476D01*
X139070952Y-83386285D01*
X139047142Y-83433904D01*
X131554166Y-80536690D02*
X131387500Y-80298595D01*
X131268452Y-80536690D02*
X131268452Y-80036690D01*
X131458928Y-80036690D01*
X131506547Y-80060500D01*
X131530357Y-80084309D01*
X131554166Y-80131928D01*
X131554166Y-80203357D01*
X131530357Y-80250976D01*
X131506547Y-80274785D01*
X131458928Y-80298595D01*
X131268452Y-80298595D01*
X132006547Y-80036690D02*
X131768452Y-80036690D01*
X131744642Y-80274785D01*
X131768452Y-80250976D01*
X131816071Y-80227166D01*
X131935119Y-80227166D01*
X131982738Y-80250976D01*
X132006547Y-80274785D01*
X132030357Y-80322404D01*
X132030357Y-80441452D01*
X132006547Y-80489071D01*
X131982738Y-80512880D01*
X131935119Y-80536690D01*
X131816071Y-80536690D01*
X131768452Y-80512880D01*
X131744642Y-80489071D01*
X134538666Y-75774190D02*
X134372000Y-75536095D01*
X134252952Y-75774190D02*
X134252952Y-75274190D01*
X134443428Y-75274190D01*
X134491047Y-75298000D01*
X134514857Y-75321809D01*
X134538666Y-75369428D01*
X134538666Y-75440857D01*
X134514857Y-75488476D01*
X134491047Y-75512285D01*
X134443428Y-75536095D01*
X134252952Y-75536095D01*
X134967238Y-75440857D02*
X134967238Y-75774190D01*
X134848190Y-75250380D02*
X134729142Y-75607523D01*
X135038666Y-75607523D01*
X149946666Y-78876190D02*
X149780000Y-78638095D01*
X149660952Y-78876190D02*
X149660952Y-78376190D01*
X149851428Y-78376190D01*
X149899047Y-78400000D01*
X149922857Y-78423809D01*
X149946666Y-78471428D01*
X149946666Y-78542857D01*
X149922857Y-78590476D01*
X149899047Y-78614285D01*
X149851428Y-78638095D01*
X149660952Y-78638095D01*
X150422857Y-78876190D02*
X150137142Y-78876190D01*
X150280000Y-78876190D02*
X150280000Y-78376190D01*
X150232380Y-78447619D01*
X150184761Y-78495238D01*
X150137142Y-78519047D01*
X152826666Y-77552190D02*
X152660000Y-77314095D01*
X152540952Y-77552190D02*
X152540952Y-77052190D01*
X152731428Y-77052190D01*
X152779047Y-77076000D01*
X152802857Y-77099809D01*
X152826666Y-77147428D01*
X152826666Y-77218857D01*
X152802857Y-77266476D01*
X152779047Y-77290285D01*
X152731428Y-77314095D01*
X152540952Y-77314095D01*
X153017142Y-77099809D02*
X153040952Y-77076000D01*
X153088571Y-77052190D01*
X153207619Y-77052190D01*
X153255238Y-77076000D01*
X153279047Y-77099809D01*
X153302857Y-77147428D01*
X153302857Y-77195047D01*
X153279047Y-77266476D01*
X152993333Y-77552190D01*
X153302857Y-77552190D01*
X137461190Y-88280952D02*
X137865952Y-88280952D01*
X137913571Y-88257142D01*
X137937380Y-88233333D01*
X137961190Y-88185714D01*
X137961190Y-88090476D01*
X137937380Y-88042857D01*
X137913571Y-88019047D01*
X137865952Y-87995238D01*
X137461190Y-87995238D01*
X137627857Y-87542857D02*
X137961190Y-87542857D01*
X137437380Y-87661904D02*
X137794523Y-87780952D01*
X137794523Y-87471428D01*
M02*
