M48
; DRILL file {KiCad 5.1.2+dfsg1-1} date Tue 14 May 2019 00:23:00 JST
; FORMAT={-:-/ absolute / inch / decimal}
; #@! TF.CreationDate,2019-05-14T00:23:00+09:00
; #@! TF.GenerationSoftware,Kicad,Pcbnew,5.1.2+dfsg1-1
FMAT,2
INCH
T1C0.0079
T2C0.0118
T3C0.0162
T4C0.0197
T5C0.0394
T6C0.0217
T7C0.1181
%
G90
G05
T1
X5.0539Y-3.8339
X5.0551Y-3.0394
X5.0902Y-3.9055
X5.1254Y-3.9061
X5.1374Y-3.1677
X5.1953Y-3.1598
X5.2068Y-3.5773
X5.2077Y-3.5545
X5.2176Y-3.6018
X5.2209Y-3.5354
X5.2538Y-3.5904
X5.2722Y-3.577
X5.2752Y-3.2873
X5.287Y-3.3665
X5.2873Y-3.3897
X5.2878Y-3.5603
X5.2936Y-3.2738
X5.3034Y-3.5437
X5.3234Y-3.5326
X5.3276Y-3.9343
X5.3327Y-3.8945
X5.3399Y-3.1737
X5.3402Y-3.1496
X5.3435Y-3.5588
X5.3476Y-3.6993
X5.3476Y-3.6765
X5.3573Y-3.5401
X5.3714Y-3.648
X5.3843Y-3.6807
X5.3917Y-3.8807
X5.4274Y-3.367
X5.4358Y-3.3181
X5.4382Y-3.5545
X5.4396Y-3.4302
X5.442Y-3.2708
X5.4508Y-3.8161
X5.4536Y-3.3324
X5.4731Y-3.3976
X5.4805Y-3.8191
X5.5049Y-3.2708
X5.5199Y-3.2536
X5.5283Y-3.8169
X5.5343Y-3.9083
X5.5432Y-3.2538
X5.5524Y-3.8169
X5.566Y-3.2556
X5.5668Y-3.3579
X5.5776Y-3.8169
X5.5887Y-3.2576
X5.6039Y-3.8161
X5.6113Y-3.2608
X5.6218Y-3.281
X5.6311Y-3.1291
X5.6354Y-3.2618
X5.6665Y-3.4109
X5.6709Y-3.3703
X5.7007Y-3.4009
X5.7067Y-3.3756
X5.713Y-3.8091
X5.7291Y-3.9043
X5.7295Y-3.3748
X5.7346Y-3.3992
X5.735Y-3.8151
X5.7409Y-3.1464
X5.7437Y-3.2618
X5.7578Y-3.3938
X5.7918Y-3.8499
X5.7988Y-3.3362
X5.8063Y-3.4563
X5.8229Y-3.4797
X5.8276Y-4.0315
X5.8375Y-3.4972
X5.8386Y-3.6713
X5.839Y-3.3917
X5.8401Y-3.8543
X5.8422Y-3.7195
X5.8568Y-3.4772
X5.8677Y-3.3075
X5.8721Y-3.4941
X5.8745Y-3.4213
X5.8787Y-3.3331
X5.8801Y-3.9043
X5.8819Y-3.6256
X5.9299Y-3.7575
X5.9301Y-3.8843
X5.9375Y-3.3971
X5.9376Y-3.3743
X5.9409Y-3.4878
X5.9498Y-3.2833
X5.9515Y-3.3186
X5.953Y-3.1626
X5.9965Y-3.6476
X6.0417Y-3.7992
X6.1449Y-3.1197
X6.1516Y-3.0949
X6.1619Y-3.4252
X6.1974Y-3.0443
X6.2063Y-3.8886
X6.2236Y-3.0465
X6.2401Y-4.1143
X5.6585Y-3.1722
X5.6585Y-3.2254
X5.7116Y-3.1722
X5.7116Y-3.2254
T2
X5.1959Y-3.4764
X5.1966Y-3.3789
T3
X5.54Y-3.5085
X5.54Y-3.5734
X5.54Y-3.6384
X5.54Y-3.7033
X5.6049Y-3.5085
X5.6049Y-3.5734
X5.6049Y-3.6384
X5.6049Y-3.7033
X5.6699Y-3.5085
X5.6699Y-3.5734
X5.6699Y-3.6384
X5.6699Y-3.7033
X5.7348Y-3.5085
X5.7348Y-3.5734
X5.7348Y-3.6384
X5.7348Y-3.7033
T4
X5.4327Y-2.9976
X5.472Y-2.9976
X5.5114Y-2.9976
X5.5508Y-2.9976
X5.5902Y-2.9976
X5.6295Y-2.9976
X5.6689Y-2.9976
X5.7083Y-2.9976
X5.7476Y-2.9976
X5.787Y-2.9976
X5.8264Y-2.9976
X5.8657Y-2.9976
X5.9051Y-2.9976
X5.9445Y-2.9976
X5.9839Y-2.9976
X6.0232Y-2.9976
X6.0626Y-2.9976
X6.102Y-2.9976
X6.1413Y-2.9976
X6.1807Y-2.9976
X6.2201Y-2.9976
X5.2291Y-3.0551
X5.2291Y-3.7945
X5.3063Y-3.0551
X5.3063Y-3.7945
T5
X5.0787Y-3.9551
X5.0787Y-4.0551
X5.1787Y-3.9551
X5.1787Y-4.0551
X5.2787Y-3.9551
X5.2787Y-4.0551
X5.3787Y-3.9551
X5.3787Y-4.0551
X5.4787Y-3.9551
X5.4787Y-4.0551
X5.5787Y-3.9551
X5.5787Y-4.0551
X5.6787Y-3.9551
X5.6787Y-4.0551
X5.7787Y-3.9551
X5.7787Y-4.0551
X5.8787Y-3.9551
X5.8787Y-4.0551
X5.9787Y-3.9551
X5.9787Y-4.0551
X6.0787Y-3.9551
X6.0787Y-4.0551
X6.1787Y-3.9551
X6.1787Y-4.0551
T6
X5.2224Y-3.3465
X5.2224Y-3.5039
T7
X5.2669Y-3.1752
X5.2669Y-3.6752
T0
M30
