G04 #@! TF.GenerationSoftware,KiCad,Pcbnew,5.1.2+dfsg1-1*
G04 #@! TF.CreationDate,2019-07-11T20:13:02+09:00*
G04 #@! TF.ProjectId,slice_sdusbios,736c6963-655f-4736-9475-7362696f732e,rev?*
G04 #@! TF.SameCoordinates,Original*
G04 #@! TF.FileFunction,Soldermask,Bot*
G04 #@! TF.FilePolarity,Negative*
%FSLAX46Y46*%
G04 Gerber Fmt 4.6, Leading zero omitted, Abs format (unit mm)*
G04 Created by KiCad (PCBNEW 5.1.2+dfsg1-1) date 2019-07-11 20:13:02*
%MOMM*%
%LPD*%
G04 APERTURE LIST*
%ADD10C,0.150000*%
G04 APERTURE END LIST*
D10*
G36*
X145579618Y-84027965D02*
G01*
X145612433Y-84037919D01*
X145642665Y-84054079D01*
X145669170Y-84075830D01*
X145690921Y-84102335D01*
X145707081Y-84132567D01*
X145717035Y-84165382D01*
X145721000Y-84205640D01*
X145721000Y-84794360D01*
X145717035Y-84834618D01*
X145707081Y-84867433D01*
X145690921Y-84897665D01*
X145672016Y-84920701D01*
X145658402Y-84941075D01*
X145649025Y-84963714D01*
X145644244Y-84987747D01*
X145644244Y-85012251D01*
X145649024Y-85036285D01*
X145658401Y-85058924D01*
X145672016Y-85079299D01*
X145690921Y-85102335D01*
X145707081Y-85132567D01*
X145717035Y-85165382D01*
X145721000Y-85205640D01*
X145721000Y-85794360D01*
X145717035Y-85834618D01*
X145707081Y-85867433D01*
X145690921Y-85897665D01*
X145672016Y-85920701D01*
X145658402Y-85941075D01*
X145649025Y-85963714D01*
X145644244Y-85987747D01*
X145644244Y-86012251D01*
X145649024Y-86036285D01*
X145658401Y-86058924D01*
X145672016Y-86079299D01*
X145690921Y-86102335D01*
X145707081Y-86132567D01*
X145717035Y-86165382D01*
X145721000Y-86205640D01*
X145721000Y-86794360D01*
X145717035Y-86834618D01*
X145707081Y-86867433D01*
X145690921Y-86897665D01*
X145672016Y-86920701D01*
X145658402Y-86941075D01*
X145649025Y-86963714D01*
X145644244Y-86987747D01*
X145644244Y-87012251D01*
X145649024Y-87036285D01*
X145658401Y-87058924D01*
X145672016Y-87079299D01*
X145690921Y-87102335D01*
X145707081Y-87132567D01*
X145717035Y-87165382D01*
X145721000Y-87205640D01*
X145721000Y-87794360D01*
X145717035Y-87834618D01*
X145707081Y-87867433D01*
X145690921Y-87897665D01*
X145672016Y-87920701D01*
X145658402Y-87941075D01*
X145649025Y-87963714D01*
X145644244Y-87987747D01*
X145644244Y-88012251D01*
X145649024Y-88036285D01*
X145658401Y-88058924D01*
X145672016Y-88079299D01*
X145690921Y-88102335D01*
X145707081Y-88132567D01*
X145717035Y-88165382D01*
X145721000Y-88205640D01*
X145721000Y-88794360D01*
X145717035Y-88834618D01*
X145707081Y-88867433D01*
X145690921Y-88897665D01*
X145672016Y-88920701D01*
X145658402Y-88941075D01*
X145649025Y-88963714D01*
X145644244Y-88987747D01*
X145644244Y-89012251D01*
X145649024Y-89036285D01*
X145658401Y-89058924D01*
X145672016Y-89079299D01*
X145690921Y-89102335D01*
X145707081Y-89132567D01*
X145717035Y-89165382D01*
X145721000Y-89205640D01*
X145721000Y-89794360D01*
X145717035Y-89834618D01*
X145707081Y-89867433D01*
X145690921Y-89897665D01*
X145672016Y-89920701D01*
X145658402Y-89941075D01*
X145649025Y-89963714D01*
X145644244Y-89987747D01*
X145644244Y-90012251D01*
X145649024Y-90036285D01*
X145658401Y-90058924D01*
X145672016Y-90079299D01*
X145690921Y-90102335D01*
X145707081Y-90132567D01*
X145717035Y-90165382D01*
X145721000Y-90205640D01*
X145721000Y-90794360D01*
X145717035Y-90834618D01*
X145707081Y-90867433D01*
X145690921Y-90897665D01*
X145672016Y-90920701D01*
X145658402Y-90941075D01*
X145649025Y-90963714D01*
X145644244Y-90987747D01*
X145644244Y-91012251D01*
X145649024Y-91036285D01*
X145658401Y-91058924D01*
X145672016Y-91079299D01*
X145690921Y-91102335D01*
X145707081Y-91132567D01*
X145717035Y-91165382D01*
X145721000Y-91205640D01*
X145721000Y-91794360D01*
X145717035Y-91834618D01*
X145707081Y-91867433D01*
X145690921Y-91897665D01*
X145672016Y-91920701D01*
X145658402Y-91941075D01*
X145649025Y-91963714D01*
X145644244Y-91987747D01*
X145644244Y-92012251D01*
X145649024Y-92036285D01*
X145658401Y-92058924D01*
X145672016Y-92079299D01*
X145690921Y-92102335D01*
X145707081Y-92132567D01*
X145717035Y-92165382D01*
X145721000Y-92205640D01*
X145721000Y-92794360D01*
X145717035Y-92834618D01*
X145707081Y-92867433D01*
X145690921Y-92897665D01*
X145672016Y-92920701D01*
X145658402Y-92941075D01*
X145649025Y-92963714D01*
X145644244Y-92987747D01*
X145644244Y-93012251D01*
X145649024Y-93036285D01*
X145658401Y-93058924D01*
X145672016Y-93079299D01*
X145690921Y-93102335D01*
X145707081Y-93132567D01*
X145717035Y-93165382D01*
X145721000Y-93205640D01*
X145721000Y-93794360D01*
X145717035Y-93834618D01*
X145707081Y-93867433D01*
X145690921Y-93897665D01*
X145672016Y-93920701D01*
X145658402Y-93941075D01*
X145649025Y-93963714D01*
X145644244Y-93987747D01*
X145644244Y-94012251D01*
X145649024Y-94036285D01*
X145658401Y-94058924D01*
X145672016Y-94079299D01*
X145690921Y-94102335D01*
X145707081Y-94132567D01*
X145717035Y-94165382D01*
X145721000Y-94205640D01*
X145721000Y-94794360D01*
X145717035Y-94834618D01*
X145707081Y-94867433D01*
X145690921Y-94897665D01*
X145672016Y-94920701D01*
X145658402Y-94941075D01*
X145649025Y-94963714D01*
X145644244Y-94987747D01*
X145644244Y-95012251D01*
X145649024Y-95036285D01*
X145658401Y-95058924D01*
X145672016Y-95079299D01*
X145690921Y-95102335D01*
X145707081Y-95132567D01*
X145717035Y-95165382D01*
X145721000Y-95205640D01*
X145721000Y-95794360D01*
X145717035Y-95834618D01*
X145707081Y-95867433D01*
X145690921Y-95897665D01*
X145672016Y-95920701D01*
X145658402Y-95941075D01*
X145649025Y-95963714D01*
X145644244Y-95987747D01*
X145644244Y-96012251D01*
X145649024Y-96036285D01*
X145658401Y-96058924D01*
X145672016Y-96079299D01*
X145690921Y-96102335D01*
X145707081Y-96132567D01*
X145717035Y-96165382D01*
X145721000Y-96205640D01*
X145721000Y-96794360D01*
X145717035Y-96834618D01*
X145707081Y-96867433D01*
X145690921Y-96897665D01*
X145672016Y-96920701D01*
X145658402Y-96941075D01*
X145649025Y-96963714D01*
X145644244Y-96987747D01*
X145644244Y-97012251D01*
X145649024Y-97036285D01*
X145658401Y-97058924D01*
X145672016Y-97079299D01*
X145690921Y-97102335D01*
X145707081Y-97132567D01*
X145717035Y-97165382D01*
X145721000Y-97205640D01*
X145721000Y-97794360D01*
X145717035Y-97834618D01*
X145707081Y-97867433D01*
X145690921Y-97897665D01*
X145672016Y-97920701D01*
X145658402Y-97941075D01*
X145649025Y-97963714D01*
X145644244Y-97987747D01*
X145644244Y-98012251D01*
X145649024Y-98036285D01*
X145658401Y-98058924D01*
X145672016Y-98079299D01*
X145690921Y-98102335D01*
X145707081Y-98132567D01*
X145717035Y-98165382D01*
X145721000Y-98205640D01*
X145721000Y-98794360D01*
X145717035Y-98834618D01*
X145707081Y-98867433D01*
X145690921Y-98897665D01*
X145672016Y-98920701D01*
X145658402Y-98941075D01*
X145649025Y-98963714D01*
X145644244Y-98987747D01*
X145644244Y-99012251D01*
X145649024Y-99036285D01*
X145658401Y-99058924D01*
X145672016Y-99079299D01*
X145690921Y-99102335D01*
X145707081Y-99132567D01*
X145717035Y-99165382D01*
X145721000Y-99205640D01*
X145721000Y-99794360D01*
X145717035Y-99834618D01*
X145707081Y-99867433D01*
X145690921Y-99897665D01*
X145672016Y-99920701D01*
X145658402Y-99941075D01*
X145649025Y-99963714D01*
X145644244Y-99987747D01*
X145644244Y-100012251D01*
X145649024Y-100036285D01*
X145658401Y-100058924D01*
X145672016Y-100079299D01*
X145690921Y-100102335D01*
X145707081Y-100132567D01*
X145717035Y-100165382D01*
X145721000Y-100205640D01*
X145721000Y-100794360D01*
X145717035Y-100834618D01*
X145707081Y-100867433D01*
X145690921Y-100897665D01*
X145672016Y-100920701D01*
X145658402Y-100941075D01*
X145649025Y-100963714D01*
X145644244Y-100987747D01*
X145644244Y-101012251D01*
X145649024Y-101036285D01*
X145658401Y-101058924D01*
X145672016Y-101079299D01*
X145690921Y-101102335D01*
X145707081Y-101132567D01*
X145717035Y-101165382D01*
X145721000Y-101205640D01*
X145721000Y-101794360D01*
X145717035Y-101834618D01*
X145707081Y-101867433D01*
X145690921Y-101897665D01*
X145672016Y-101920701D01*
X145658402Y-101941075D01*
X145649025Y-101963714D01*
X145644244Y-101987747D01*
X145644244Y-102012251D01*
X145649024Y-102036285D01*
X145658401Y-102058924D01*
X145672016Y-102079299D01*
X145690921Y-102102335D01*
X145707081Y-102132567D01*
X145717035Y-102165382D01*
X145721000Y-102205640D01*
X145721000Y-102794360D01*
X145717035Y-102834618D01*
X145707081Y-102867433D01*
X145690921Y-102897665D01*
X145672016Y-102920701D01*
X145658402Y-102941075D01*
X145649025Y-102963714D01*
X145644244Y-102987747D01*
X145644244Y-103012251D01*
X145649024Y-103036285D01*
X145658401Y-103058924D01*
X145672016Y-103079299D01*
X145690921Y-103102335D01*
X145707081Y-103132567D01*
X145717035Y-103165382D01*
X145721000Y-103205640D01*
X145721000Y-103794360D01*
X145717035Y-103834618D01*
X145707081Y-103867433D01*
X145690921Y-103897665D01*
X145672016Y-103920701D01*
X145658402Y-103941075D01*
X145649025Y-103963714D01*
X145644244Y-103987747D01*
X145644244Y-104012251D01*
X145649024Y-104036285D01*
X145658401Y-104058924D01*
X145672016Y-104079299D01*
X145690921Y-104102335D01*
X145707081Y-104132567D01*
X145717035Y-104165382D01*
X145721000Y-104205640D01*
X145721000Y-104794360D01*
X145717035Y-104834618D01*
X145707081Y-104867433D01*
X145690921Y-104897665D01*
X145669170Y-104924170D01*
X145642665Y-104945921D01*
X145612433Y-104962081D01*
X145579618Y-104972035D01*
X145539360Y-104976000D01*
X143800640Y-104976000D01*
X143760382Y-104972035D01*
X143727567Y-104962081D01*
X143697335Y-104945921D01*
X143670830Y-104924170D01*
X143649079Y-104897665D01*
X143632919Y-104867433D01*
X143622965Y-104834618D01*
X143619000Y-104794360D01*
X143619000Y-104205640D01*
X143622965Y-104165382D01*
X143632919Y-104132567D01*
X143649079Y-104102335D01*
X143667984Y-104079299D01*
X143681598Y-104058925D01*
X143690975Y-104036286D01*
X143695756Y-104012253D01*
X143695756Y-103987749D01*
X143690976Y-103963715D01*
X143681599Y-103941076D01*
X143667984Y-103920701D01*
X143649079Y-103897665D01*
X143632919Y-103867433D01*
X143622965Y-103834618D01*
X143619000Y-103794360D01*
X143619000Y-103205640D01*
X143622965Y-103165382D01*
X143632919Y-103132567D01*
X143649079Y-103102335D01*
X143667984Y-103079299D01*
X143681598Y-103058925D01*
X143690975Y-103036286D01*
X143695756Y-103012253D01*
X143695756Y-102987749D01*
X143690976Y-102963715D01*
X143681599Y-102941076D01*
X143667984Y-102920701D01*
X143649079Y-102897665D01*
X143632919Y-102867433D01*
X143622965Y-102834618D01*
X143619000Y-102794360D01*
X143619000Y-102205640D01*
X143622965Y-102165382D01*
X143632919Y-102132567D01*
X143649079Y-102102335D01*
X143667984Y-102079299D01*
X143681598Y-102058925D01*
X143690975Y-102036286D01*
X143695756Y-102012253D01*
X143695756Y-101987749D01*
X143690976Y-101963715D01*
X143681599Y-101941076D01*
X143667984Y-101920701D01*
X143649079Y-101897665D01*
X143632919Y-101867433D01*
X143622965Y-101834618D01*
X143619000Y-101794360D01*
X143619000Y-101205640D01*
X143622965Y-101165382D01*
X143632919Y-101132567D01*
X143649079Y-101102335D01*
X143667984Y-101079299D01*
X143681598Y-101058925D01*
X143690975Y-101036286D01*
X143695756Y-101012253D01*
X143695756Y-100987749D01*
X143690976Y-100963715D01*
X143681599Y-100941076D01*
X143667984Y-100920701D01*
X143649079Y-100897665D01*
X143632919Y-100867433D01*
X143622965Y-100834618D01*
X143619000Y-100794360D01*
X143619000Y-100205640D01*
X143622965Y-100165382D01*
X143632919Y-100132567D01*
X143649079Y-100102335D01*
X143667984Y-100079299D01*
X143681598Y-100058925D01*
X143690975Y-100036286D01*
X143695756Y-100012253D01*
X143695756Y-99987749D01*
X143690976Y-99963715D01*
X143681599Y-99941076D01*
X143667984Y-99920701D01*
X143649079Y-99897665D01*
X143632919Y-99867433D01*
X143622965Y-99834618D01*
X143619000Y-99794360D01*
X143619000Y-99205640D01*
X143622965Y-99165382D01*
X143632919Y-99132567D01*
X143649079Y-99102335D01*
X143667984Y-99079299D01*
X143681598Y-99058925D01*
X143690975Y-99036286D01*
X143695756Y-99012253D01*
X143695756Y-98987749D01*
X143690976Y-98963715D01*
X143681599Y-98941076D01*
X143667984Y-98920701D01*
X143649079Y-98897665D01*
X143632919Y-98867433D01*
X143622965Y-98834618D01*
X143619000Y-98794360D01*
X143619000Y-98205640D01*
X143622965Y-98165382D01*
X143632919Y-98132567D01*
X143649079Y-98102335D01*
X143667984Y-98079299D01*
X143681598Y-98058925D01*
X143690975Y-98036286D01*
X143695756Y-98012253D01*
X143695756Y-97987749D01*
X143690976Y-97963715D01*
X143681599Y-97941076D01*
X143667984Y-97920701D01*
X143649079Y-97897665D01*
X143632919Y-97867433D01*
X143622965Y-97834618D01*
X143619000Y-97794360D01*
X143619000Y-97205640D01*
X143622965Y-97165382D01*
X143632919Y-97132567D01*
X143649079Y-97102335D01*
X143667984Y-97079299D01*
X143681598Y-97058925D01*
X143690975Y-97036286D01*
X143695756Y-97012253D01*
X143695756Y-96987749D01*
X143690976Y-96963715D01*
X143681599Y-96941076D01*
X143667984Y-96920701D01*
X143649079Y-96897665D01*
X143632919Y-96867433D01*
X143622965Y-96834618D01*
X143619000Y-96794360D01*
X143619000Y-96205640D01*
X143622965Y-96165382D01*
X143632919Y-96132567D01*
X143649079Y-96102335D01*
X143667984Y-96079299D01*
X143681598Y-96058925D01*
X143690975Y-96036286D01*
X143695756Y-96012253D01*
X143695756Y-95987749D01*
X143690976Y-95963715D01*
X143681599Y-95941076D01*
X143667984Y-95920701D01*
X143649079Y-95897665D01*
X143632919Y-95867433D01*
X143622965Y-95834618D01*
X143619000Y-95794360D01*
X143619000Y-95205640D01*
X143622965Y-95165382D01*
X143632919Y-95132567D01*
X143649079Y-95102335D01*
X143667984Y-95079299D01*
X143681598Y-95058925D01*
X143690975Y-95036286D01*
X143695756Y-95012253D01*
X143695756Y-94987749D01*
X143690976Y-94963715D01*
X143681599Y-94941076D01*
X143667984Y-94920701D01*
X143649079Y-94897665D01*
X143632919Y-94867433D01*
X143622965Y-94834618D01*
X143619000Y-94794360D01*
X143619000Y-94205640D01*
X143622965Y-94165382D01*
X143632919Y-94132567D01*
X143649079Y-94102335D01*
X143667984Y-94079299D01*
X143681598Y-94058925D01*
X143690975Y-94036286D01*
X143695756Y-94012253D01*
X143695756Y-93987749D01*
X143690976Y-93963715D01*
X143681599Y-93941076D01*
X143667984Y-93920701D01*
X143649079Y-93897665D01*
X143632919Y-93867433D01*
X143622965Y-93834618D01*
X143619000Y-93794360D01*
X143619000Y-93205640D01*
X143622965Y-93165382D01*
X143632919Y-93132567D01*
X143649079Y-93102335D01*
X143667984Y-93079299D01*
X143681598Y-93058925D01*
X143690975Y-93036286D01*
X143695756Y-93012253D01*
X143695756Y-92987749D01*
X143690976Y-92963715D01*
X143681599Y-92941076D01*
X143667984Y-92920701D01*
X143649079Y-92897665D01*
X143632919Y-92867433D01*
X143622965Y-92834618D01*
X143619000Y-92794360D01*
X143619000Y-92205640D01*
X143622965Y-92165382D01*
X143632919Y-92132567D01*
X143649079Y-92102335D01*
X143667984Y-92079299D01*
X143681598Y-92058925D01*
X143690975Y-92036286D01*
X143695756Y-92012253D01*
X143695756Y-91987749D01*
X143690976Y-91963715D01*
X143681599Y-91941076D01*
X143667984Y-91920701D01*
X143649079Y-91897665D01*
X143632919Y-91867433D01*
X143622965Y-91834618D01*
X143619000Y-91794360D01*
X143619000Y-91205640D01*
X143622965Y-91165382D01*
X143632919Y-91132567D01*
X143649079Y-91102335D01*
X143667984Y-91079299D01*
X143681598Y-91058925D01*
X143690975Y-91036286D01*
X143695756Y-91012253D01*
X143695756Y-90987749D01*
X143690976Y-90963715D01*
X143681599Y-90941076D01*
X143667984Y-90920701D01*
X143649079Y-90897665D01*
X143632919Y-90867433D01*
X143622965Y-90834618D01*
X143619000Y-90794360D01*
X143619000Y-90205640D01*
X143622965Y-90165382D01*
X143632919Y-90132567D01*
X143649079Y-90102335D01*
X143667984Y-90079299D01*
X143681598Y-90058925D01*
X143690975Y-90036286D01*
X143695756Y-90012253D01*
X143695756Y-89987749D01*
X143690976Y-89963715D01*
X143681599Y-89941076D01*
X143667984Y-89920701D01*
X143649079Y-89897665D01*
X143632919Y-89867433D01*
X143622965Y-89834618D01*
X143619000Y-89794360D01*
X143619000Y-89205640D01*
X143622965Y-89165382D01*
X143632919Y-89132567D01*
X143649079Y-89102335D01*
X143667984Y-89079299D01*
X143681598Y-89058925D01*
X143690975Y-89036286D01*
X143695756Y-89012253D01*
X143695756Y-88987749D01*
X143690976Y-88963715D01*
X143681599Y-88941076D01*
X143667984Y-88920701D01*
X143649079Y-88897665D01*
X143632919Y-88867433D01*
X143622965Y-88834618D01*
X143619000Y-88794360D01*
X143619000Y-88205640D01*
X143622965Y-88165382D01*
X143632919Y-88132567D01*
X143649079Y-88102335D01*
X143667984Y-88079299D01*
X143681598Y-88058925D01*
X143690975Y-88036286D01*
X143695756Y-88012253D01*
X143695756Y-87987749D01*
X143690976Y-87963715D01*
X143681599Y-87941076D01*
X143667984Y-87920701D01*
X143649079Y-87897665D01*
X143632919Y-87867433D01*
X143622965Y-87834618D01*
X143619000Y-87794360D01*
X143619000Y-87205640D01*
X143622965Y-87165382D01*
X143632919Y-87132567D01*
X143649079Y-87102335D01*
X143667984Y-87079299D01*
X143681598Y-87058925D01*
X143690975Y-87036286D01*
X143695756Y-87012253D01*
X143695756Y-86987749D01*
X143690976Y-86963715D01*
X143681599Y-86941076D01*
X143667984Y-86920701D01*
X143649079Y-86897665D01*
X143632919Y-86867433D01*
X143622965Y-86834618D01*
X143619000Y-86794360D01*
X143619000Y-86205640D01*
X143622965Y-86165382D01*
X143632919Y-86132567D01*
X143649079Y-86102335D01*
X143667984Y-86079299D01*
X143681598Y-86058925D01*
X143690975Y-86036286D01*
X143695756Y-86012253D01*
X143695756Y-85987749D01*
X143690976Y-85963715D01*
X143681599Y-85941076D01*
X143667984Y-85920701D01*
X143649079Y-85897665D01*
X143632919Y-85867433D01*
X143622965Y-85834618D01*
X143619000Y-85794360D01*
X143619000Y-85205640D01*
X143622965Y-85165382D01*
X143632919Y-85132567D01*
X143649079Y-85102335D01*
X143667984Y-85079299D01*
X143681598Y-85058925D01*
X143690975Y-85036286D01*
X143695756Y-85012253D01*
X143695756Y-84987749D01*
X143690976Y-84963715D01*
X143681599Y-84941076D01*
X143667984Y-84920701D01*
X143649079Y-84897665D01*
X143632919Y-84867433D01*
X143622965Y-84834618D01*
X143619000Y-84794360D01*
X143619000Y-84205640D01*
X143622965Y-84165382D01*
X143632919Y-84132567D01*
X143649079Y-84102335D01*
X143670830Y-84075830D01*
X143697335Y-84054079D01*
X143727567Y-84037919D01*
X143760382Y-84027965D01*
X143800640Y-84024000D01*
X145539360Y-84024000D01*
X145579618Y-84027965D01*
X145579618Y-84027965D01*
G37*
G36*
X161210442Y-102805518D02*
G01*
X161276627Y-102812037D01*
X161446466Y-102863557D01*
X161446468Y-102863558D01*
X161458943Y-102870226D01*
X161602991Y-102947222D01*
X161632485Y-102971427D01*
X161740186Y-103059814D01*
X161823448Y-103161271D01*
X161852778Y-103197009D01*
X161936443Y-103353534D01*
X161987963Y-103523373D01*
X162005359Y-103700000D01*
X161987963Y-103876627D01*
X161939531Y-104036285D01*
X161936442Y-104046468D01*
X161927012Y-104064110D01*
X161852778Y-104202991D01*
X161842455Y-104215569D01*
X161740186Y-104340186D01*
X161638729Y-104423448D01*
X161602991Y-104452778D01*
X161446466Y-104536443D01*
X161276627Y-104587963D01*
X161210443Y-104594481D01*
X161144260Y-104601000D01*
X161055740Y-104601000D01*
X160989557Y-104594481D01*
X160923373Y-104587963D01*
X160753534Y-104536443D01*
X160597009Y-104452778D01*
X160561271Y-104423448D01*
X160459814Y-104340186D01*
X160357545Y-104215569D01*
X160347222Y-104202991D01*
X160272988Y-104064110D01*
X160263558Y-104046468D01*
X160260469Y-104036285D01*
X160212037Y-103876627D01*
X160194641Y-103700000D01*
X160212037Y-103523373D01*
X160263557Y-103353534D01*
X160347222Y-103197009D01*
X160376552Y-103161271D01*
X160459814Y-103059814D01*
X160567515Y-102971427D01*
X160597009Y-102947222D01*
X160741057Y-102870226D01*
X160753532Y-102863558D01*
X160753534Y-102863557D01*
X160923373Y-102812037D01*
X160989557Y-102805519D01*
X161055740Y-102799000D01*
X161144260Y-102799000D01*
X161210442Y-102805518D01*
X161210442Y-102805518D01*
G37*
G36*
X149301000Y-104601000D02*
G01*
X147499000Y-104601000D01*
X147499000Y-102799000D01*
X149301000Y-102799000D01*
X149301000Y-104601000D01*
X149301000Y-104601000D01*
G37*
G36*
X151050442Y-102805518D02*
G01*
X151116627Y-102812037D01*
X151286466Y-102863557D01*
X151286468Y-102863558D01*
X151298943Y-102870226D01*
X151442991Y-102947222D01*
X151472485Y-102971427D01*
X151580186Y-103059814D01*
X151663448Y-103161271D01*
X151692778Y-103197009D01*
X151776443Y-103353534D01*
X151827963Y-103523373D01*
X151845359Y-103700000D01*
X151827963Y-103876627D01*
X151779531Y-104036285D01*
X151776442Y-104046468D01*
X151767012Y-104064110D01*
X151692778Y-104202991D01*
X151682455Y-104215569D01*
X151580186Y-104340186D01*
X151478729Y-104423448D01*
X151442991Y-104452778D01*
X151286466Y-104536443D01*
X151116627Y-104587963D01*
X151050443Y-104594481D01*
X150984260Y-104601000D01*
X150895740Y-104601000D01*
X150829557Y-104594481D01*
X150763373Y-104587963D01*
X150593534Y-104536443D01*
X150437009Y-104452778D01*
X150401271Y-104423448D01*
X150299814Y-104340186D01*
X150197545Y-104215569D01*
X150187222Y-104202991D01*
X150112988Y-104064110D01*
X150103558Y-104046468D01*
X150100469Y-104036285D01*
X150052037Y-103876627D01*
X150034641Y-103700000D01*
X150052037Y-103523373D01*
X150103557Y-103353534D01*
X150187222Y-103197009D01*
X150216552Y-103161271D01*
X150299814Y-103059814D01*
X150407515Y-102971427D01*
X150437009Y-102947222D01*
X150581057Y-102870226D01*
X150593532Y-102863558D01*
X150593534Y-102863557D01*
X150763373Y-102812037D01*
X150829557Y-102805519D01*
X150895740Y-102799000D01*
X150984260Y-102799000D01*
X151050442Y-102805518D01*
X151050442Y-102805518D01*
G37*
G36*
X153590442Y-102805518D02*
G01*
X153656627Y-102812037D01*
X153826466Y-102863557D01*
X153826468Y-102863558D01*
X153838943Y-102870226D01*
X153982991Y-102947222D01*
X154012485Y-102971427D01*
X154120186Y-103059814D01*
X154203448Y-103161271D01*
X154232778Y-103197009D01*
X154316443Y-103353534D01*
X154367963Y-103523373D01*
X154385359Y-103700000D01*
X154367963Y-103876627D01*
X154319531Y-104036285D01*
X154316442Y-104046468D01*
X154307012Y-104064110D01*
X154232778Y-104202991D01*
X154222455Y-104215569D01*
X154120186Y-104340186D01*
X154018729Y-104423448D01*
X153982991Y-104452778D01*
X153826466Y-104536443D01*
X153656627Y-104587963D01*
X153590443Y-104594481D01*
X153524260Y-104601000D01*
X153435740Y-104601000D01*
X153369557Y-104594481D01*
X153303373Y-104587963D01*
X153133534Y-104536443D01*
X152977009Y-104452778D01*
X152941271Y-104423448D01*
X152839814Y-104340186D01*
X152737545Y-104215569D01*
X152727222Y-104202991D01*
X152652988Y-104064110D01*
X152643558Y-104046468D01*
X152640469Y-104036285D01*
X152592037Y-103876627D01*
X152574641Y-103700000D01*
X152592037Y-103523373D01*
X152643557Y-103353534D01*
X152727222Y-103197009D01*
X152756552Y-103161271D01*
X152839814Y-103059814D01*
X152947515Y-102971427D01*
X152977009Y-102947222D01*
X153121057Y-102870226D01*
X153133532Y-102863558D01*
X153133534Y-102863557D01*
X153303373Y-102812037D01*
X153369557Y-102805519D01*
X153435740Y-102799000D01*
X153524260Y-102799000D01*
X153590442Y-102805518D01*
X153590442Y-102805518D01*
G37*
G36*
X156130442Y-102805518D02*
G01*
X156196627Y-102812037D01*
X156366466Y-102863557D01*
X156366468Y-102863558D01*
X156378943Y-102870226D01*
X156522991Y-102947222D01*
X156552485Y-102971427D01*
X156660186Y-103059814D01*
X156743448Y-103161271D01*
X156772778Y-103197009D01*
X156856443Y-103353534D01*
X156907963Y-103523373D01*
X156925359Y-103700000D01*
X156907963Y-103876627D01*
X156859531Y-104036285D01*
X156856442Y-104046468D01*
X156847012Y-104064110D01*
X156772778Y-104202991D01*
X156762455Y-104215569D01*
X156660186Y-104340186D01*
X156558729Y-104423448D01*
X156522991Y-104452778D01*
X156366466Y-104536443D01*
X156196627Y-104587963D01*
X156130443Y-104594481D01*
X156064260Y-104601000D01*
X155975740Y-104601000D01*
X155909557Y-104594481D01*
X155843373Y-104587963D01*
X155673534Y-104536443D01*
X155517009Y-104452778D01*
X155481271Y-104423448D01*
X155379814Y-104340186D01*
X155277545Y-104215569D01*
X155267222Y-104202991D01*
X155192988Y-104064110D01*
X155183558Y-104046468D01*
X155180469Y-104036285D01*
X155132037Y-103876627D01*
X155114641Y-103700000D01*
X155132037Y-103523373D01*
X155183557Y-103353534D01*
X155267222Y-103197009D01*
X155296552Y-103161271D01*
X155379814Y-103059814D01*
X155487515Y-102971427D01*
X155517009Y-102947222D01*
X155661057Y-102870226D01*
X155673532Y-102863558D01*
X155673534Y-102863557D01*
X155843373Y-102812037D01*
X155909557Y-102805519D01*
X155975740Y-102799000D01*
X156064260Y-102799000D01*
X156130442Y-102805518D01*
X156130442Y-102805518D01*
G37*
G36*
X158670442Y-102805518D02*
G01*
X158736627Y-102812037D01*
X158906466Y-102863557D01*
X158906468Y-102863558D01*
X158918943Y-102870226D01*
X159062991Y-102947222D01*
X159092485Y-102971427D01*
X159200186Y-103059814D01*
X159283448Y-103161271D01*
X159312778Y-103197009D01*
X159396443Y-103353534D01*
X159447963Y-103523373D01*
X159465359Y-103700000D01*
X159447963Y-103876627D01*
X159399531Y-104036285D01*
X159396442Y-104046468D01*
X159387012Y-104064110D01*
X159312778Y-104202991D01*
X159302455Y-104215569D01*
X159200186Y-104340186D01*
X159098729Y-104423448D01*
X159062991Y-104452778D01*
X158906466Y-104536443D01*
X158736627Y-104587963D01*
X158670443Y-104594481D01*
X158604260Y-104601000D01*
X158515740Y-104601000D01*
X158449557Y-104594481D01*
X158383373Y-104587963D01*
X158213534Y-104536443D01*
X158057009Y-104452778D01*
X158021271Y-104423448D01*
X157919814Y-104340186D01*
X157817545Y-104215569D01*
X157807222Y-104202991D01*
X157732988Y-104064110D01*
X157723558Y-104046468D01*
X157720469Y-104036285D01*
X157672037Y-103876627D01*
X157654641Y-103700000D01*
X157672037Y-103523373D01*
X157723557Y-103353534D01*
X157807222Y-103197009D01*
X157836552Y-103161271D01*
X157919814Y-103059814D01*
X158027515Y-102971427D01*
X158057009Y-102947222D01*
X158201057Y-102870226D01*
X158213532Y-102863558D01*
X158213534Y-102863557D01*
X158383373Y-102812037D01*
X158449557Y-102805519D01*
X158515740Y-102799000D01*
X158604260Y-102799000D01*
X158670442Y-102805518D01*
X158670442Y-102805518D01*
G37*
G36*
X153590443Y-100265519D02*
G01*
X153656627Y-100272037D01*
X153826466Y-100323557D01*
X153982991Y-100407222D01*
X154018729Y-100436552D01*
X154120186Y-100519814D01*
X154203448Y-100621271D01*
X154232778Y-100657009D01*
X154316443Y-100813534D01*
X154367963Y-100983373D01*
X154385359Y-101160000D01*
X154367963Y-101336627D01*
X154316443Y-101506466D01*
X154232778Y-101662991D01*
X154203448Y-101698729D01*
X154120186Y-101800186D01*
X154018729Y-101883448D01*
X153982991Y-101912778D01*
X153826466Y-101996443D01*
X153656627Y-102047963D01*
X153590442Y-102054482D01*
X153524260Y-102061000D01*
X153435740Y-102061000D01*
X153369558Y-102054482D01*
X153303373Y-102047963D01*
X153133534Y-101996443D01*
X152977009Y-101912778D01*
X152941271Y-101883448D01*
X152839814Y-101800186D01*
X152756552Y-101698729D01*
X152727222Y-101662991D01*
X152643557Y-101506466D01*
X152592037Y-101336627D01*
X152574641Y-101160000D01*
X152592037Y-100983373D01*
X152643557Y-100813534D01*
X152727222Y-100657009D01*
X152756552Y-100621271D01*
X152839814Y-100519814D01*
X152941271Y-100436552D01*
X152977009Y-100407222D01*
X153133534Y-100323557D01*
X153303373Y-100272037D01*
X153369558Y-100265518D01*
X153435740Y-100259000D01*
X153524260Y-100259000D01*
X153590443Y-100265519D01*
X153590443Y-100265519D01*
G37*
G36*
X148510443Y-100265519D02*
G01*
X148576627Y-100272037D01*
X148746466Y-100323557D01*
X148902991Y-100407222D01*
X148938729Y-100436552D01*
X149040186Y-100519814D01*
X149123448Y-100621271D01*
X149152778Y-100657009D01*
X149236443Y-100813534D01*
X149287963Y-100983373D01*
X149305359Y-101160000D01*
X149287963Y-101336627D01*
X149236443Y-101506466D01*
X149152778Y-101662991D01*
X149123448Y-101698729D01*
X149040186Y-101800186D01*
X148938729Y-101883448D01*
X148902991Y-101912778D01*
X148746466Y-101996443D01*
X148576627Y-102047963D01*
X148510442Y-102054482D01*
X148444260Y-102061000D01*
X148355740Y-102061000D01*
X148289558Y-102054482D01*
X148223373Y-102047963D01*
X148053534Y-101996443D01*
X147897009Y-101912778D01*
X147861271Y-101883448D01*
X147759814Y-101800186D01*
X147676552Y-101698729D01*
X147647222Y-101662991D01*
X147563557Y-101506466D01*
X147512037Y-101336627D01*
X147494641Y-101160000D01*
X147512037Y-100983373D01*
X147563557Y-100813534D01*
X147647222Y-100657009D01*
X147676552Y-100621271D01*
X147759814Y-100519814D01*
X147861271Y-100436552D01*
X147897009Y-100407222D01*
X148053534Y-100323557D01*
X148223373Y-100272037D01*
X148289558Y-100265518D01*
X148355740Y-100259000D01*
X148444260Y-100259000D01*
X148510443Y-100265519D01*
X148510443Y-100265519D01*
G37*
G36*
X151050443Y-100265519D02*
G01*
X151116627Y-100272037D01*
X151286466Y-100323557D01*
X151442991Y-100407222D01*
X151478729Y-100436552D01*
X151580186Y-100519814D01*
X151663448Y-100621271D01*
X151692778Y-100657009D01*
X151776443Y-100813534D01*
X151827963Y-100983373D01*
X151845359Y-101160000D01*
X151827963Y-101336627D01*
X151776443Y-101506466D01*
X151692778Y-101662991D01*
X151663448Y-101698729D01*
X151580186Y-101800186D01*
X151478729Y-101883448D01*
X151442991Y-101912778D01*
X151286466Y-101996443D01*
X151116627Y-102047963D01*
X151050442Y-102054482D01*
X150984260Y-102061000D01*
X150895740Y-102061000D01*
X150829558Y-102054482D01*
X150763373Y-102047963D01*
X150593534Y-101996443D01*
X150437009Y-101912778D01*
X150401271Y-101883448D01*
X150299814Y-101800186D01*
X150216552Y-101698729D01*
X150187222Y-101662991D01*
X150103557Y-101506466D01*
X150052037Y-101336627D01*
X150034641Y-101160000D01*
X150052037Y-100983373D01*
X150103557Y-100813534D01*
X150187222Y-100657009D01*
X150216552Y-100621271D01*
X150299814Y-100519814D01*
X150401271Y-100436552D01*
X150437009Y-100407222D01*
X150593534Y-100323557D01*
X150763373Y-100272037D01*
X150829558Y-100265518D01*
X150895740Y-100259000D01*
X150984260Y-100259000D01*
X151050443Y-100265519D01*
X151050443Y-100265519D01*
G37*
G36*
X156130443Y-100265519D02*
G01*
X156196627Y-100272037D01*
X156366466Y-100323557D01*
X156522991Y-100407222D01*
X156558729Y-100436552D01*
X156660186Y-100519814D01*
X156743448Y-100621271D01*
X156772778Y-100657009D01*
X156856443Y-100813534D01*
X156907963Y-100983373D01*
X156925359Y-101160000D01*
X156907963Y-101336627D01*
X156856443Y-101506466D01*
X156772778Y-101662991D01*
X156743448Y-101698729D01*
X156660186Y-101800186D01*
X156558729Y-101883448D01*
X156522991Y-101912778D01*
X156366466Y-101996443D01*
X156196627Y-102047963D01*
X156130442Y-102054482D01*
X156064260Y-102061000D01*
X155975740Y-102061000D01*
X155909558Y-102054482D01*
X155843373Y-102047963D01*
X155673534Y-101996443D01*
X155517009Y-101912778D01*
X155481271Y-101883448D01*
X155379814Y-101800186D01*
X155296552Y-101698729D01*
X155267222Y-101662991D01*
X155183557Y-101506466D01*
X155132037Y-101336627D01*
X155114641Y-101160000D01*
X155132037Y-100983373D01*
X155183557Y-100813534D01*
X155267222Y-100657009D01*
X155296552Y-100621271D01*
X155379814Y-100519814D01*
X155481271Y-100436552D01*
X155517009Y-100407222D01*
X155673534Y-100323557D01*
X155843373Y-100272037D01*
X155909558Y-100265518D01*
X155975740Y-100259000D01*
X156064260Y-100259000D01*
X156130443Y-100265519D01*
X156130443Y-100265519D01*
G37*
G36*
X158670443Y-100265519D02*
G01*
X158736627Y-100272037D01*
X158906466Y-100323557D01*
X159062991Y-100407222D01*
X159098729Y-100436552D01*
X159200186Y-100519814D01*
X159283448Y-100621271D01*
X159312778Y-100657009D01*
X159396443Y-100813534D01*
X159447963Y-100983373D01*
X159465359Y-101160000D01*
X159447963Y-101336627D01*
X159396443Y-101506466D01*
X159312778Y-101662991D01*
X159283448Y-101698729D01*
X159200186Y-101800186D01*
X159098729Y-101883448D01*
X159062991Y-101912778D01*
X158906466Y-101996443D01*
X158736627Y-102047963D01*
X158670442Y-102054482D01*
X158604260Y-102061000D01*
X158515740Y-102061000D01*
X158449558Y-102054482D01*
X158383373Y-102047963D01*
X158213534Y-101996443D01*
X158057009Y-101912778D01*
X158021271Y-101883448D01*
X157919814Y-101800186D01*
X157836552Y-101698729D01*
X157807222Y-101662991D01*
X157723557Y-101506466D01*
X157672037Y-101336627D01*
X157654641Y-101160000D01*
X157672037Y-100983373D01*
X157723557Y-100813534D01*
X157807222Y-100657009D01*
X157836552Y-100621271D01*
X157919814Y-100519814D01*
X158021271Y-100436552D01*
X158057009Y-100407222D01*
X158213534Y-100323557D01*
X158383373Y-100272037D01*
X158449558Y-100265518D01*
X158515740Y-100259000D01*
X158604260Y-100259000D01*
X158670443Y-100265519D01*
X158670443Y-100265519D01*
G37*
G36*
X161210443Y-100265519D02*
G01*
X161276627Y-100272037D01*
X161446466Y-100323557D01*
X161602991Y-100407222D01*
X161638729Y-100436552D01*
X161740186Y-100519814D01*
X161823448Y-100621271D01*
X161852778Y-100657009D01*
X161936443Y-100813534D01*
X161987963Y-100983373D01*
X162005359Y-101160000D01*
X161987963Y-101336627D01*
X161936443Y-101506466D01*
X161852778Y-101662991D01*
X161823448Y-101698729D01*
X161740186Y-101800186D01*
X161638729Y-101883448D01*
X161602991Y-101912778D01*
X161446466Y-101996443D01*
X161276627Y-102047963D01*
X161210442Y-102054482D01*
X161144260Y-102061000D01*
X161055740Y-102061000D01*
X160989558Y-102054482D01*
X160923373Y-102047963D01*
X160753534Y-101996443D01*
X160597009Y-101912778D01*
X160561271Y-101883448D01*
X160459814Y-101800186D01*
X160376552Y-101698729D01*
X160347222Y-101662991D01*
X160263557Y-101506466D01*
X160212037Y-101336627D01*
X160194641Y-101160000D01*
X160212037Y-100983373D01*
X160263557Y-100813534D01*
X160347222Y-100657009D01*
X160376552Y-100621271D01*
X160459814Y-100519814D01*
X160561271Y-100436552D01*
X160597009Y-100407222D01*
X160753534Y-100323557D01*
X160923373Y-100272037D01*
X160989558Y-100265518D01*
X161055740Y-100259000D01*
X161144260Y-100259000D01*
X161210443Y-100265519D01*
X161210443Y-100265519D01*
G37*
M02*
