G04 #@! TF.GenerationSoftware,KiCad,Pcbnew,5.1.2+dfsg1-1*
G04 #@! TF.CreationDate,2019-07-11T20:13:02+09:00*
G04 #@! TF.ProjectId,slice_sdusbios,736c6963-655f-4736-9475-7362696f732e,rev?*
G04 #@! TF.SameCoordinates,Original*
G04 #@! TF.FileFunction,Soldermask,Top*
G04 #@! TF.FilePolarity,Negative*
%FSLAX46Y46*%
G04 Gerber Fmt 4.6, Leading zero omitted, Abs format (unit mm)*
G04 Created by KiCad (PCBNEW 5.1.2+dfsg1-1) date 2019-07-11 20:13:02*
%MOMM*%
%LPD*%
G04 APERTURE LIST*
%ADD10C,0.150000*%
G04 APERTURE END LIST*
D10*
G36*
X145726000Y-84976000D02*
G01*
X145700025Y-84976000D01*
X145675639Y-84978402D01*
X145652190Y-84985515D01*
X145630579Y-84997066D01*
X145611637Y-85012611D01*
X145596092Y-85031553D01*
X145584541Y-85053164D01*
X145577428Y-85076613D01*
X145575026Y-85100999D01*
X145577428Y-85125385D01*
X145584541Y-85148834D01*
X145603396Y-85180292D01*
X145647694Y-85234269D01*
X145691894Y-85316961D01*
X145719113Y-85406688D01*
X145728303Y-85500000D01*
X145719113Y-85593312D01*
X145691894Y-85683039D01*
X145647694Y-85765731D01*
X145588211Y-85838211D01*
X145515731Y-85897694D01*
X145515726Y-85897697D01*
X145508808Y-85903374D01*
X145491481Y-85920701D01*
X145477867Y-85941075D01*
X145468490Y-85963714D01*
X145463709Y-85987747D01*
X145463709Y-86012251D01*
X145468489Y-86036285D01*
X145477866Y-86058924D01*
X145491480Y-86079298D01*
X145508808Y-86096626D01*
X145515726Y-86102303D01*
X145515731Y-86102306D01*
X145588211Y-86161789D01*
X145647694Y-86234269D01*
X145691894Y-86316961D01*
X145719113Y-86406688D01*
X145728303Y-86500000D01*
X145719113Y-86593312D01*
X145691894Y-86683039D01*
X145647694Y-86765731D01*
X145588211Y-86838211D01*
X145515731Y-86897694D01*
X145515726Y-86897697D01*
X145508808Y-86903374D01*
X145491481Y-86920701D01*
X145477867Y-86941075D01*
X145468490Y-86963714D01*
X145463709Y-86987747D01*
X145463709Y-87012251D01*
X145468489Y-87036285D01*
X145477866Y-87058924D01*
X145491480Y-87079298D01*
X145508808Y-87096626D01*
X145515726Y-87102303D01*
X145515731Y-87102306D01*
X145588211Y-87161789D01*
X145647694Y-87234269D01*
X145691894Y-87316961D01*
X145719113Y-87406688D01*
X145728303Y-87500000D01*
X145719113Y-87593312D01*
X145691894Y-87683039D01*
X145647694Y-87765731D01*
X145588211Y-87838211D01*
X145515731Y-87897694D01*
X145515726Y-87897697D01*
X145508808Y-87903374D01*
X145491481Y-87920701D01*
X145477867Y-87941075D01*
X145468490Y-87963714D01*
X145463709Y-87987747D01*
X145463709Y-88012251D01*
X145468489Y-88036285D01*
X145477866Y-88058924D01*
X145491480Y-88079298D01*
X145508808Y-88096626D01*
X145515726Y-88102303D01*
X145515731Y-88102306D01*
X145588211Y-88161789D01*
X145647694Y-88234269D01*
X145691894Y-88316961D01*
X145719113Y-88406688D01*
X145728303Y-88500000D01*
X145719113Y-88593312D01*
X145691894Y-88683039D01*
X145647694Y-88765731D01*
X145588211Y-88838211D01*
X145515731Y-88897694D01*
X145515726Y-88897697D01*
X145508808Y-88903374D01*
X145491481Y-88920701D01*
X145477867Y-88941075D01*
X145468490Y-88963714D01*
X145463709Y-88987747D01*
X145463709Y-89012251D01*
X145468489Y-89036285D01*
X145477866Y-89058924D01*
X145491480Y-89079298D01*
X145508808Y-89096626D01*
X145515726Y-89102303D01*
X145515731Y-89102306D01*
X145588211Y-89161789D01*
X145647694Y-89234269D01*
X145691894Y-89316961D01*
X145719113Y-89406688D01*
X145728303Y-89500000D01*
X145719113Y-89593312D01*
X145691894Y-89683039D01*
X145647694Y-89765731D01*
X145588211Y-89838211D01*
X145515731Y-89897694D01*
X145515726Y-89897697D01*
X145508808Y-89903374D01*
X145491481Y-89920701D01*
X145477867Y-89941075D01*
X145468490Y-89963714D01*
X145463709Y-89987747D01*
X145463709Y-90012251D01*
X145468489Y-90036285D01*
X145477866Y-90058924D01*
X145491480Y-90079298D01*
X145508808Y-90096626D01*
X145515726Y-90102303D01*
X145515731Y-90102306D01*
X145588211Y-90161789D01*
X145647694Y-90234269D01*
X145691894Y-90316961D01*
X145719113Y-90406688D01*
X145728303Y-90500000D01*
X145719113Y-90593312D01*
X145691894Y-90683039D01*
X145647694Y-90765731D01*
X145588211Y-90838211D01*
X145515731Y-90897694D01*
X145515726Y-90897697D01*
X145508808Y-90903374D01*
X145491481Y-90920701D01*
X145477867Y-90941075D01*
X145468490Y-90963714D01*
X145463709Y-90987747D01*
X145463709Y-91012251D01*
X145468489Y-91036285D01*
X145477866Y-91058924D01*
X145491480Y-91079298D01*
X145508808Y-91096626D01*
X145515726Y-91102303D01*
X145515731Y-91102306D01*
X145588211Y-91161789D01*
X145647694Y-91234269D01*
X145691894Y-91316961D01*
X145719113Y-91406688D01*
X145728303Y-91500000D01*
X145719113Y-91593312D01*
X145691894Y-91683039D01*
X145647694Y-91765731D01*
X145588211Y-91838211D01*
X145515731Y-91897694D01*
X145515726Y-91897697D01*
X145508808Y-91903374D01*
X145491481Y-91920701D01*
X145477867Y-91941075D01*
X145468490Y-91963714D01*
X145463709Y-91987747D01*
X145463709Y-92012251D01*
X145468489Y-92036285D01*
X145477866Y-92058924D01*
X145491480Y-92079298D01*
X145508808Y-92096626D01*
X145515726Y-92102303D01*
X145515731Y-92102306D01*
X145588211Y-92161789D01*
X145647694Y-92234269D01*
X145691894Y-92316961D01*
X145719113Y-92406688D01*
X145728303Y-92500000D01*
X145719113Y-92593312D01*
X145691894Y-92683039D01*
X145647694Y-92765731D01*
X145588211Y-92838211D01*
X145515731Y-92897694D01*
X145515726Y-92897697D01*
X145508808Y-92903374D01*
X145491481Y-92920701D01*
X145477867Y-92941075D01*
X145468490Y-92963714D01*
X145463709Y-92987747D01*
X145463709Y-93012251D01*
X145468489Y-93036285D01*
X145477866Y-93058924D01*
X145491480Y-93079298D01*
X145508808Y-93096626D01*
X145515726Y-93102303D01*
X145515731Y-93102306D01*
X145588211Y-93161789D01*
X145647694Y-93234269D01*
X145691894Y-93316961D01*
X145719113Y-93406688D01*
X145728303Y-93500000D01*
X145719113Y-93593312D01*
X145691894Y-93683039D01*
X145647694Y-93765731D01*
X145588211Y-93838211D01*
X145515731Y-93897694D01*
X145515726Y-93897697D01*
X145508808Y-93903374D01*
X145491481Y-93920701D01*
X145477867Y-93941075D01*
X145468490Y-93963714D01*
X145463709Y-93987747D01*
X145463709Y-94012251D01*
X145468489Y-94036285D01*
X145477866Y-94058924D01*
X145491480Y-94079298D01*
X145508808Y-94096626D01*
X145515726Y-94102303D01*
X145515731Y-94102306D01*
X145588211Y-94161789D01*
X145647694Y-94234269D01*
X145691894Y-94316961D01*
X145719113Y-94406688D01*
X145728303Y-94500000D01*
X145719113Y-94593312D01*
X145691894Y-94683039D01*
X145647694Y-94765731D01*
X145588211Y-94838211D01*
X145515731Y-94897694D01*
X145515726Y-94897697D01*
X145508808Y-94903374D01*
X145491481Y-94920701D01*
X145477867Y-94941075D01*
X145468490Y-94963714D01*
X145463709Y-94987747D01*
X145463709Y-95012251D01*
X145468489Y-95036285D01*
X145477866Y-95058924D01*
X145491480Y-95079298D01*
X145508808Y-95096626D01*
X145515726Y-95102303D01*
X145515731Y-95102306D01*
X145588211Y-95161789D01*
X145647694Y-95234269D01*
X145691894Y-95316961D01*
X145719113Y-95406688D01*
X145728303Y-95500000D01*
X145719113Y-95593312D01*
X145691894Y-95683039D01*
X145647694Y-95765731D01*
X145588211Y-95838211D01*
X145515731Y-95897694D01*
X145515726Y-95897697D01*
X145508808Y-95903374D01*
X145491481Y-95920701D01*
X145477867Y-95941075D01*
X145468490Y-95963714D01*
X145463709Y-95987747D01*
X145463709Y-96012251D01*
X145468489Y-96036285D01*
X145477866Y-96058924D01*
X145491480Y-96079298D01*
X145508808Y-96096626D01*
X145515726Y-96102303D01*
X145515731Y-96102306D01*
X145588211Y-96161789D01*
X145647694Y-96234269D01*
X145691894Y-96316961D01*
X145719113Y-96406688D01*
X145728303Y-96500000D01*
X145719113Y-96593312D01*
X145691894Y-96683039D01*
X145647694Y-96765731D01*
X145588211Y-96838211D01*
X145515731Y-96897694D01*
X145515726Y-96897697D01*
X145508808Y-96903374D01*
X145491481Y-96920701D01*
X145477867Y-96941075D01*
X145468490Y-96963714D01*
X145463709Y-96987747D01*
X145463709Y-97012251D01*
X145468489Y-97036285D01*
X145477866Y-97058924D01*
X145491480Y-97079298D01*
X145508808Y-97096626D01*
X145515726Y-97102303D01*
X145515731Y-97102306D01*
X145588211Y-97161789D01*
X145647694Y-97234269D01*
X145691894Y-97316961D01*
X145719113Y-97406688D01*
X145728303Y-97500000D01*
X145719113Y-97593312D01*
X145691894Y-97683039D01*
X145647694Y-97765731D01*
X145588211Y-97838211D01*
X145515731Y-97897694D01*
X145515726Y-97897697D01*
X145508808Y-97903374D01*
X145491481Y-97920701D01*
X145477867Y-97941075D01*
X145468490Y-97963714D01*
X145463709Y-97987747D01*
X145463709Y-98012251D01*
X145468489Y-98036285D01*
X145477866Y-98058924D01*
X145491480Y-98079298D01*
X145508808Y-98096626D01*
X145515726Y-98102303D01*
X145515731Y-98102306D01*
X145588211Y-98161789D01*
X145647694Y-98234269D01*
X145691894Y-98316961D01*
X145719113Y-98406688D01*
X145728303Y-98500000D01*
X145719113Y-98593312D01*
X145691894Y-98683039D01*
X145647694Y-98765731D01*
X145588211Y-98838211D01*
X145515731Y-98897694D01*
X145515726Y-98897697D01*
X145508808Y-98903374D01*
X145491481Y-98920701D01*
X145477867Y-98941075D01*
X145468490Y-98963714D01*
X145463709Y-98987747D01*
X145463709Y-99012251D01*
X145468489Y-99036285D01*
X145477866Y-99058924D01*
X145491480Y-99079298D01*
X145508808Y-99096626D01*
X145515726Y-99102303D01*
X145515731Y-99102306D01*
X145588211Y-99161789D01*
X145647694Y-99234269D01*
X145691894Y-99316961D01*
X145719113Y-99406688D01*
X145728303Y-99500000D01*
X145719113Y-99593312D01*
X145691894Y-99683039D01*
X145647694Y-99765731D01*
X145588211Y-99838211D01*
X145515731Y-99897694D01*
X145515726Y-99897697D01*
X145508808Y-99903374D01*
X145491481Y-99920701D01*
X145477867Y-99941075D01*
X145468490Y-99963714D01*
X145463709Y-99987747D01*
X145463709Y-100012251D01*
X145468489Y-100036285D01*
X145477866Y-100058924D01*
X145491480Y-100079298D01*
X145508808Y-100096626D01*
X145515726Y-100102303D01*
X145515731Y-100102306D01*
X145588211Y-100161789D01*
X145647694Y-100234269D01*
X145691894Y-100316961D01*
X145719113Y-100406688D01*
X145728303Y-100500000D01*
X145719113Y-100593312D01*
X145691894Y-100683039D01*
X145647694Y-100765731D01*
X145588211Y-100838211D01*
X145515731Y-100897694D01*
X145515726Y-100897697D01*
X145508808Y-100903374D01*
X145491481Y-100920701D01*
X145477867Y-100941075D01*
X145468490Y-100963714D01*
X145463709Y-100987747D01*
X145463709Y-101012251D01*
X145468489Y-101036285D01*
X145477866Y-101058924D01*
X145491480Y-101079298D01*
X145508808Y-101096626D01*
X145515726Y-101102303D01*
X145515731Y-101102306D01*
X145588211Y-101161789D01*
X145647694Y-101234269D01*
X145691894Y-101316961D01*
X145719113Y-101406688D01*
X145728303Y-101500000D01*
X145719113Y-101593312D01*
X145691894Y-101683039D01*
X145647694Y-101765731D01*
X145588211Y-101838211D01*
X145515731Y-101897694D01*
X145515726Y-101897697D01*
X145508808Y-101903374D01*
X145491481Y-101920701D01*
X145477867Y-101941075D01*
X145468490Y-101963714D01*
X145463709Y-101987747D01*
X145463709Y-102012251D01*
X145468489Y-102036285D01*
X145477866Y-102058924D01*
X145491480Y-102079298D01*
X145508808Y-102096626D01*
X145515726Y-102102303D01*
X145515731Y-102102306D01*
X145588211Y-102161789D01*
X145647694Y-102234269D01*
X145691894Y-102316961D01*
X145719113Y-102406688D01*
X145728303Y-102500000D01*
X145719113Y-102593312D01*
X145691894Y-102683039D01*
X145647694Y-102765731D01*
X145588211Y-102838211D01*
X145515731Y-102897694D01*
X145515726Y-102897697D01*
X145508808Y-102903374D01*
X145491481Y-102920701D01*
X145477867Y-102941075D01*
X145468490Y-102963714D01*
X145463709Y-102987747D01*
X145463709Y-103012251D01*
X145468489Y-103036285D01*
X145477866Y-103058924D01*
X145491480Y-103079298D01*
X145508808Y-103096626D01*
X145515726Y-103102303D01*
X145515731Y-103102306D01*
X145588211Y-103161789D01*
X145647694Y-103234269D01*
X145691894Y-103316961D01*
X145719113Y-103406688D01*
X145728303Y-103500000D01*
X145719113Y-103593312D01*
X145691894Y-103683039D01*
X145647694Y-103765731D01*
X145588211Y-103838211D01*
X145515731Y-103897694D01*
X145515726Y-103897697D01*
X145508808Y-103903374D01*
X145491481Y-103920701D01*
X145477867Y-103941075D01*
X145468490Y-103963714D01*
X145463709Y-103987747D01*
X145463709Y-104012251D01*
X145468489Y-104036285D01*
X145477866Y-104058924D01*
X145491480Y-104079298D01*
X145508808Y-104096626D01*
X145515726Y-104102303D01*
X145515731Y-104102306D01*
X145588211Y-104161789D01*
X145647694Y-104234269D01*
X145691894Y-104316961D01*
X145719113Y-104406688D01*
X145728303Y-104500000D01*
X145719113Y-104593312D01*
X145691894Y-104683039D01*
X145647694Y-104765731D01*
X145588211Y-104838211D01*
X145515731Y-104897694D01*
X145433039Y-104941894D01*
X145343312Y-104969113D01*
X145273384Y-104976000D01*
X145226616Y-104976000D01*
X145156688Y-104969113D01*
X145066961Y-104941894D01*
X144984269Y-104897694D01*
X144911789Y-104838211D01*
X144852306Y-104765731D01*
X144808106Y-104683039D01*
X144780887Y-104593312D01*
X144771697Y-104500000D01*
X144780887Y-104406688D01*
X144808106Y-104316961D01*
X144852306Y-104234269D01*
X144911789Y-104161789D01*
X144984269Y-104102306D01*
X144984274Y-104102303D01*
X144991192Y-104096626D01*
X145008519Y-104079299D01*
X145022133Y-104058925D01*
X145031510Y-104036286D01*
X145036291Y-104012253D01*
X145036291Y-103987749D01*
X145031511Y-103963715D01*
X145022134Y-103941076D01*
X145008520Y-103920702D01*
X144991192Y-103903374D01*
X144984274Y-103897697D01*
X144984269Y-103897694D01*
X144911789Y-103838211D01*
X144852306Y-103765731D01*
X144808106Y-103683039D01*
X144780887Y-103593312D01*
X144771697Y-103500000D01*
X144780887Y-103406688D01*
X144808106Y-103316961D01*
X144852306Y-103234269D01*
X144911789Y-103161789D01*
X144984269Y-103102306D01*
X144984274Y-103102303D01*
X144991192Y-103096626D01*
X145008519Y-103079299D01*
X145022133Y-103058925D01*
X145031510Y-103036286D01*
X145036291Y-103012253D01*
X145036291Y-102987749D01*
X145031511Y-102963715D01*
X145022134Y-102941076D01*
X145008520Y-102920702D01*
X144991192Y-102903374D01*
X144984274Y-102897697D01*
X144984269Y-102897694D01*
X144911789Y-102838211D01*
X144852306Y-102765731D01*
X144808106Y-102683039D01*
X144780887Y-102593312D01*
X144771697Y-102500000D01*
X144780887Y-102406688D01*
X144808106Y-102316961D01*
X144852306Y-102234269D01*
X144911789Y-102161789D01*
X144984269Y-102102306D01*
X144984274Y-102102303D01*
X144991192Y-102096626D01*
X145008519Y-102079299D01*
X145022133Y-102058925D01*
X145031510Y-102036286D01*
X145036291Y-102012253D01*
X145036291Y-101987749D01*
X145031511Y-101963715D01*
X145022134Y-101941076D01*
X145008520Y-101920702D01*
X144991192Y-101903374D01*
X144984274Y-101897697D01*
X144984269Y-101897694D01*
X144911789Y-101838211D01*
X144852306Y-101765731D01*
X144808106Y-101683039D01*
X144780887Y-101593312D01*
X144771697Y-101500000D01*
X144780887Y-101406688D01*
X144808106Y-101316961D01*
X144852306Y-101234269D01*
X144911789Y-101161789D01*
X144984269Y-101102306D01*
X144984274Y-101102303D01*
X144991192Y-101096626D01*
X145008519Y-101079299D01*
X145022133Y-101058925D01*
X145031510Y-101036286D01*
X145036291Y-101012253D01*
X145036291Y-100987749D01*
X145031511Y-100963715D01*
X145022134Y-100941076D01*
X145008520Y-100920702D01*
X144991192Y-100903374D01*
X144984274Y-100897697D01*
X144984269Y-100897694D01*
X144911789Y-100838211D01*
X144852306Y-100765731D01*
X144808106Y-100683039D01*
X144780887Y-100593312D01*
X144771697Y-100500000D01*
X144780887Y-100406688D01*
X144808106Y-100316961D01*
X144852306Y-100234269D01*
X144911789Y-100161789D01*
X144984269Y-100102306D01*
X144984274Y-100102303D01*
X144991192Y-100096626D01*
X145008519Y-100079299D01*
X145022133Y-100058925D01*
X145031510Y-100036286D01*
X145036291Y-100012253D01*
X145036291Y-99987749D01*
X145031511Y-99963715D01*
X145022134Y-99941076D01*
X145008520Y-99920702D01*
X144991192Y-99903374D01*
X144984274Y-99897697D01*
X144984269Y-99897694D01*
X144911789Y-99838211D01*
X144852306Y-99765731D01*
X144808106Y-99683039D01*
X144780887Y-99593312D01*
X144771697Y-99500000D01*
X144780887Y-99406688D01*
X144808106Y-99316961D01*
X144852306Y-99234269D01*
X144911789Y-99161789D01*
X144984269Y-99102306D01*
X144984274Y-99102303D01*
X144991192Y-99096626D01*
X145008519Y-99079299D01*
X145022133Y-99058925D01*
X145031510Y-99036286D01*
X145036291Y-99012253D01*
X145036291Y-98987749D01*
X145031511Y-98963715D01*
X145022134Y-98941076D01*
X145008520Y-98920702D01*
X144991192Y-98903374D01*
X144984274Y-98897697D01*
X144984269Y-98897694D01*
X144911789Y-98838211D01*
X144852306Y-98765731D01*
X144808106Y-98683039D01*
X144780887Y-98593312D01*
X144771697Y-98500000D01*
X144780887Y-98406688D01*
X144808106Y-98316961D01*
X144852306Y-98234269D01*
X144911789Y-98161789D01*
X144984269Y-98102306D01*
X144984274Y-98102303D01*
X144991192Y-98096626D01*
X145008519Y-98079299D01*
X145022133Y-98058925D01*
X145031510Y-98036286D01*
X145036291Y-98012253D01*
X145036291Y-97987749D01*
X145031511Y-97963715D01*
X145022134Y-97941076D01*
X145008520Y-97920702D01*
X144991192Y-97903374D01*
X144984274Y-97897697D01*
X144984269Y-97897694D01*
X144911789Y-97838211D01*
X144852306Y-97765731D01*
X144808106Y-97683039D01*
X144780887Y-97593312D01*
X144771697Y-97500000D01*
X144780887Y-97406688D01*
X144808106Y-97316961D01*
X144852306Y-97234269D01*
X144911789Y-97161789D01*
X144984269Y-97102306D01*
X144984274Y-97102303D01*
X144991192Y-97096626D01*
X145008519Y-97079299D01*
X145022133Y-97058925D01*
X145031510Y-97036286D01*
X145036291Y-97012253D01*
X145036291Y-96987749D01*
X145031511Y-96963715D01*
X145022134Y-96941076D01*
X145008520Y-96920702D01*
X144991192Y-96903374D01*
X144984274Y-96897697D01*
X144984269Y-96897694D01*
X144911789Y-96838211D01*
X144852306Y-96765731D01*
X144808106Y-96683039D01*
X144780887Y-96593312D01*
X144771697Y-96500000D01*
X144780887Y-96406688D01*
X144808106Y-96316961D01*
X144852306Y-96234269D01*
X144911789Y-96161789D01*
X144984269Y-96102306D01*
X144984274Y-96102303D01*
X144991192Y-96096626D01*
X145008519Y-96079299D01*
X145022133Y-96058925D01*
X145031510Y-96036286D01*
X145036291Y-96012253D01*
X145036291Y-95987749D01*
X145031511Y-95963715D01*
X145022134Y-95941076D01*
X145008520Y-95920702D01*
X144991192Y-95903374D01*
X144984274Y-95897697D01*
X144984269Y-95897694D01*
X144911789Y-95838211D01*
X144852306Y-95765731D01*
X144808106Y-95683039D01*
X144780887Y-95593312D01*
X144771697Y-95500000D01*
X144780887Y-95406688D01*
X144808106Y-95316961D01*
X144852306Y-95234269D01*
X144911789Y-95161789D01*
X144984269Y-95102306D01*
X144984274Y-95102303D01*
X144991192Y-95096626D01*
X145008519Y-95079299D01*
X145022133Y-95058925D01*
X145031510Y-95036286D01*
X145036291Y-95012253D01*
X145036291Y-94987749D01*
X145031511Y-94963715D01*
X145022134Y-94941076D01*
X145008520Y-94920702D01*
X144991192Y-94903374D01*
X144984274Y-94897697D01*
X144984269Y-94897694D01*
X144911789Y-94838211D01*
X144852306Y-94765731D01*
X144808106Y-94683039D01*
X144780887Y-94593312D01*
X144771697Y-94500000D01*
X144780887Y-94406688D01*
X144808106Y-94316961D01*
X144852306Y-94234269D01*
X144911789Y-94161789D01*
X144984269Y-94102306D01*
X144984274Y-94102303D01*
X144991192Y-94096626D01*
X145008519Y-94079299D01*
X145022133Y-94058925D01*
X145031510Y-94036286D01*
X145036291Y-94012253D01*
X145036291Y-93987749D01*
X145031511Y-93963715D01*
X145022134Y-93941076D01*
X145008520Y-93920702D01*
X144991192Y-93903374D01*
X144984274Y-93897697D01*
X144984269Y-93897694D01*
X144911789Y-93838211D01*
X144852306Y-93765731D01*
X144808106Y-93683039D01*
X144780887Y-93593312D01*
X144771697Y-93500000D01*
X144780887Y-93406688D01*
X144808106Y-93316961D01*
X144852306Y-93234269D01*
X144911789Y-93161789D01*
X144984269Y-93102306D01*
X144984274Y-93102303D01*
X144991192Y-93096626D01*
X145008519Y-93079299D01*
X145022133Y-93058925D01*
X145031510Y-93036286D01*
X145036291Y-93012253D01*
X145036291Y-92987749D01*
X145031511Y-92963715D01*
X145022134Y-92941076D01*
X145008520Y-92920702D01*
X144991192Y-92903374D01*
X144984274Y-92897697D01*
X144984269Y-92897694D01*
X144911789Y-92838211D01*
X144852306Y-92765731D01*
X144808106Y-92683039D01*
X144780887Y-92593312D01*
X144771697Y-92500000D01*
X144780887Y-92406688D01*
X144808106Y-92316961D01*
X144852306Y-92234269D01*
X144911789Y-92161789D01*
X144984269Y-92102306D01*
X144984274Y-92102303D01*
X144991192Y-92096626D01*
X145008519Y-92079299D01*
X145022133Y-92058925D01*
X145031510Y-92036286D01*
X145036291Y-92012253D01*
X145036291Y-91987749D01*
X145031511Y-91963715D01*
X145022134Y-91941076D01*
X145008520Y-91920702D01*
X144991192Y-91903374D01*
X144984274Y-91897697D01*
X144984269Y-91897694D01*
X144911789Y-91838211D01*
X144852306Y-91765731D01*
X144808106Y-91683039D01*
X144780887Y-91593312D01*
X144771697Y-91500000D01*
X144780887Y-91406688D01*
X144808106Y-91316961D01*
X144852306Y-91234269D01*
X144911789Y-91161789D01*
X144984269Y-91102306D01*
X144984274Y-91102303D01*
X144991192Y-91096626D01*
X145008519Y-91079299D01*
X145022133Y-91058925D01*
X145031510Y-91036286D01*
X145036291Y-91012253D01*
X145036291Y-90987749D01*
X145031511Y-90963715D01*
X145022134Y-90941076D01*
X145008520Y-90920702D01*
X144991192Y-90903374D01*
X144984274Y-90897697D01*
X144984269Y-90897694D01*
X144911789Y-90838211D01*
X144852306Y-90765731D01*
X144808106Y-90683039D01*
X144780887Y-90593312D01*
X144771697Y-90500000D01*
X144780887Y-90406688D01*
X144808106Y-90316961D01*
X144852306Y-90234269D01*
X144911789Y-90161789D01*
X144984269Y-90102306D01*
X144984274Y-90102303D01*
X144991192Y-90096626D01*
X145008519Y-90079299D01*
X145022133Y-90058925D01*
X145031510Y-90036286D01*
X145036291Y-90012253D01*
X145036291Y-89987749D01*
X145031511Y-89963715D01*
X145022134Y-89941076D01*
X145008520Y-89920702D01*
X144991192Y-89903374D01*
X144984274Y-89897697D01*
X144984269Y-89897694D01*
X144911789Y-89838211D01*
X144852306Y-89765731D01*
X144808106Y-89683039D01*
X144780887Y-89593312D01*
X144771697Y-89500000D01*
X144780887Y-89406688D01*
X144808106Y-89316961D01*
X144852306Y-89234269D01*
X144911789Y-89161789D01*
X144984269Y-89102306D01*
X144984274Y-89102303D01*
X144991192Y-89096626D01*
X145008519Y-89079299D01*
X145022133Y-89058925D01*
X145031510Y-89036286D01*
X145036291Y-89012253D01*
X145036291Y-88987749D01*
X145031511Y-88963715D01*
X145022134Y-88941076D01*
X145008520Y-88920702D01*
X144991192Y-88903374D01*
X144984274Y-88897697D01*
X144984269Y-88897694D01*
X144911789Y-88838211D01*
X144852306Y-88765731D01*
X144808106Y-88683039D01*
X144780887Y-88593312D01*
X144771697Y-88500000D01*
X144780887Y-88406688D01*
X144808106Y-88316961D01*
X144852306Y-88234269D01*
X144911789Y-88161789D01*
X144984269Y-88102306D01*
X144984274Y-88102303D01*
X144991192Y-88096626D01*
X145008519Y-88079299D01*
X145022133Y-88058925D01*
X145031510Y-88036286D01*
X145036291Y-88012253D01*
X145036291Y-87987749D01*
X145031511Y-87963715D01*
X145022134Y-87941076D01*
X145008520Y-87920702D01*
X144991192Y-87903374D01*
X144984274Y-87897697D01*
X144984269Y-87897694D01*
X144911789Y-87838211D01*
X144852306Y-87765731D01*
X144808106Y-87683039D01*
X144780887Y-87593312D01*
X144771697Y-87500000D01*
X144780887Y-87406688D01*
X144808106Y-87316961D01*
X144852306Y-87234269D01*
X144911789Y-87161789D01*
X144984269Y-87102306D01*
X144984274Y-87102303D01*
X144991192Y-87096626D01*
X145008519Y-87079299D01*
X145022133Y-87058925D01*
X145031510Y-87036286D01*
X145036291Y-87012253D01*
X145036291Y-86987749D01*
X145031511Y-86963715D01*
X145022134Y-86941076D01*
X145008520Y-86920702D01*
X144991192Y-86903374D01*
X144984274Y-86897697D01*
X144984269Y-86897694D01*
X144911789Y-86838211D01*
X144852306Y-86765731D01*
X144808106Y-86683039D01*
X144780887Y-86593312D01*
X144771697Y-86500000D01*
X144780887Y-86406688D01*
X144808106Y-86316961D01*
X144852306Y-86234269D01*
X144911789Y-86161789D01*
X144984269Y-86102306D01*
X144984274Y-86102303D01*
X144991192Y-86096626D01*
X145008519Y-86079299D01*
X145022133Y-86058925D01*
X145031510Y-86036286D01*
X145036291Y-86012253D01*
X145036291Y-85987749D01*
X145031511Y-85963715D01*
X145022134Y-85941076D01*
X145008520Y-85920702D01*
X144991192Y-85903374D01*
X144984274Y-85897697D01*
X144984269Y-85897694D01*
X144911789Y-85838211D01*
X144852306Y-85765731D01*
X144808106Y-85683039D01*
X144780887Y-85593312D01*
X144771697Y-85500000D01*
X144780887Y-85406688D01*
X144808106Y-85316961D01*
X144852306Y-85234269D01*
X144896606Y-85180289D01*
X144910214Y-85159923D01*
X144919592Y-85137284D01*
X144924372Y-85113251D01*
X144924372Y-85088747D01*
X144919592Y-85064714D01*
X144910214Y-85042075D01*
X144896600Y-85021700D01*
X144879273Y-85004373D01*
X144858899Y-84990760D01*
X144836260Y-84981382D01*
X144799975Y-84976000D01*
X144774000Y-84976000D01*
X144774000Y-84024000D01*
X145726000Y-84024000D01*
X145726000Y-84976000D01*
X145726000Y-84976000D01*
G37*
G36*
X156130442Y-102805518D02*
G01*
X156196627Y-102812037D01*
X156366466Y-102863557D01*
X156522991Y-102947222D01*
X156549665Y-102969113D01*
X156660186Y-103059814D01*
X156743448Y-103161271D01*
X156772778Y-103197009D01*
X156856443Y-103353534D01*
X156907963Y-103523373D01*
X156925359Y-103700000D01*
X156907963Y-103876627D01*
X156859531Y-104036285D01*
X156856442Y-104046468D01*
X156838894Y-104079298D01*
X156772778Y-104202991D01*
X156747109Y-104234269D01*
X156660186Y-104340186D01*
X156579149Y-104406690D01*
X156522991Y-104452778D01*
X156366466Y-104536443D01*
X156196627Y-104587963D01*
X156130443Y-104594481D01*
X156064260Y-104601000D01*
X155975740Y-104601000D01*
X155909557Y-104594481D01*
X155843373Y-104587963D01*
X155673534Y-104536443D01*
X155517009Y-104452778D01*
X155460851Y-104406690D01*
X155379814Y-104340186D01*
X155292891Y-104234269D01*
X155267222Y-104202991D01*
X155201106Y-104079298D01*
X155183558Y-104046468D01*
X155180469Y-104036285D01*
X155132037Y-103876627D01*
X155114641Y-103700000D01*
X155132037Y-103523373D01*
X155183557Y-103353534D01*
X155267222Y-103197009D01*
X155296552Y-103161271D01*
X155379814Y-103059814D01*
X155490335Y-102969113D01*
X155517009Y-102947222D01*
X155673534Y-102863557D01*
X155843373Y-102812037D01*
X155909557Y-102805519D01*
X155975740Y-102799000D01*
X156064260Y-102799000D01*
X156130442Y-102805518D01*
X156130442Y-102805518D01*
G37*
G36*
X158670442Y-102805518D02*
G01*
X158736627Y-102812037D01*
X158906466Y-102863557D01*
X159062991Y-102947222D01*
X159089665Y-102969113D01*
X159200186Y-103059814D01*
X159283448Y-103161271D01*
X159312778Y-103197009D01*
X159396443Y-103353534D01*
X159447963Y-103523373D01*
X159465359Y-103700000D01*
X159447963Y-103876627D01*
X159399531Y-104036285D01*
X159396442Y-104046468D01*
X159378894Y-104079298D01*
X159312778Y-104202991D01*
X159287109Y-104234269D01*
X159200186Y-104340186D01*
X159119149Y-104406690D01*
X159062991Y-104452778D01*
X158906466Y-104536443D01*
X158736627Y-104587963D01*
X158670443Y-104594481D01*
X158604260Y-104601000D01*
X158515740Y-104601000D01*
X158449557Y-104594481D01*
X158383373Y-104587963D01*
X158213534Y-104536443D01*
X158057009Y-104452778D01*
X158000851Y-104406690D01*
X157919814Y-104340186D01*
X157832891Y-104234269D01*
X157807222Y-104202991D01*
X157741106Y-104079298D01*
X157723558Y-104046468D01*
X157720469Y-104036285D01*
X157672037Y-103876627D01*
X157654641Y-103700000D01*
X157672037Y-103523373D01*
X157723557Y-103353534D01*
X157807222Y-103197009D01*
X157836552Y-103161271D01*
X157919814Y-103059814D01*
X158030335Y-102969113D01*
X158057009Y-102947222D01*
X158213534Y-102863557D01*
X158383373Y-102812037D01*
X158449557Y-102805519D01*
X158515740Y-102799000D01*
X158604260Y-102799000D01*
X158670442Y-102805518D01*
X158670442Y-102805518D01*
G37*
G36*
X153590442Y-102805518D02*
G01*
X153656627Y-102812037D01*
X153826466Y-102863557D01*
X153982991Y-102947222D01*
X154009665Y-102969113D01*
X154120186Y-103059814D01*
X154203448Y-103161271D01*
X154232778Y-103197009D01*
X154316443Y-103353534D01*
X154367963Y-103523373D01*
X154385359Y-103700000D01*
X154367963Y-103876627D01*
X154319531Y-104036285D01*
X154316442Y-104046468D01*
X154298894Y-104079298D01*
X154232778Y-104202991D01*
X154207109Y-104234269D01*
X154120186Y-104340186D01*
X154039149Y-104406690D01*
X153982991Y-104452778D01*
X153826466Y-104536443D01*
X153656627Y-104587963D01*
X153590443Y-104594481D01*
X153524260Y-104601000D01*
X153435740Y-104601000D01*
X153369557Y-104594481D01*
X153303373Y-104587963D01*
X153133534Y-104536443D01*
X152977009Y-104452778D01*
X152920851Y-104406690D01*
X152839814Y-104340186D01*
X152752891Y-104234269D01*
X152727222Y-104202991D01*
X152661106Y-104079298D01*
X152643558Y-104046468D01*
X152640469Y-104036285D01*
X152592037Y-103876627D01*
X152574641Y-103700000D01*
X152592037Y-103523373D01*
X152643557Y-103353534D01*
X152727222Y-103197009D01*
X152756552Y-103161271D01*
X152839814Y-103059814D01*
X152950335Y-102969113D01*
X152977009Y-102947222D01*
X153133534Y-102863557D01*
X153303373Y-102812037D01*
X153369557Y-102805519D01*
X153435740Y-102799000D01*
X153524260Y-102799000D01*
X153590442Y-102805518D01*
X153590442Y-102805518D01*
G37*
G36*
X149301000Y-104601000D02*
G01*
X147499000Y-104601000D01*
X147499000Y-102799000D01*
X149301000Y-102799000D01*
X149301000Y-104601000D01*
X149301000Y-104601000D01*
G37*
G36*
X161210442Y-102805518D02*
G01*
X161276627Y-102812037D01*
X161446466Y-102863557D01*
X161602991Y-102947222D01*
X161629665Y-102969113D01*
X161740186Y-103059814D01*
X161823448Y-103161271D01*
X161852778Y-103197009D01*
X161936443Y-103353534D01*
X161987963Y-103523373D01*
X162005359Y-103700000D01*
X161987963Y-103876627D01*
X161939531Y-104036285D01*
X161936442Y-104046468D01*
X161918894Y-104079298D01*
X161852778Y-104202991D01*
X161827109Y-104234269D01*
X161740186Y-104340186D01*
X161659149Y-104406690D01*
X161602991Y-104452778D01*
X161446466Y-104536443D01*
X161276627Y-104587963D01*
X161210443Y-104594481D01*
X161144260Y-104601000D01*
X161055740Y-104601000D01*
X160989557Y-104594481D01*
X160923373Y-104587963D01*
X160753534Y-104536443D01*
X160597009Y-104452778D01*
X160540851Y-104406690D01*
X160459814Y-104340186D01*
X160372891Y-104234269D01*
X160347222Y-104202991D01*
X160281106Y-104079298D01*
X160263558Y-104046468D01*
X160260469Y-104036285D01*
X160212037Y-103876627D01*
X160194641Y-103700000D01*
X160212037Y-103523373D01*
X160263557Y-103353534D01*
X160347222Y-103197009D01*
X160376552Y-103161271D01*
X160459814Y-103059814D01*
X160570335Y-102969113D01*
X160597009Y-102947222D01*
X160753534Y-102863557D01*
X160923373Y-102812037D01*
X160989557Y-102805519D01*
X161055740Y-102799000D01*
X161144260Y-102799000D01*
X161210442Y-102805518D01*
X161210442Y-102805518D01*
G37*
G36*
X151050442Y-102805518D02*
G01*
X151116627Y-102812037D01*
X151286466Y-102863557D01*
X151442991Y-102947222D01*
X151469665Y-102969113D01*
X151580186Y-103059814D01*
X151663448Y-103161271D01*
X151692778Y-103197009D01*
X151776443Y-103353534D01*
X151827963Y-103523373D01*
X151845359Y-103700000D01*
X151827963Y-103876627D01*
X151779531Y-104036285D01*
X151776442Y-104046468D01*
X151758894Y-104079298D01*
X151692778Y-104202991D01*
X151667109Y-104234269D01*
X151580186Y-104340186D01*
X151499149Y-104406690D01*
X151442991Y-104452778D01*
X151286466Y-104536443D01*
X151116627Y-104587963D01*
X151050443Y-104594481D01*
X150984260Y-104601000D01*
X150895740Y-104601000D01*
X150829557Y-104594481D01*
X150763373Y-104587963D01*
X150593534Y-104536443D01*
X150437009Y-104452778D01*
X150380851Y-104406690D01*
X150299814Y-104340186D01*
X150212891Y-104234269D01*
X150187222Y-104202991D01*
X150121106Y-104079298D01*
X150103558Y-104046468D01*
X150100469Y-104036285D01*
X150052037Y-103876627D01*
X150034641Y-103700000D01*
X150052037Y-103523373D01*
X150103557Y-103353534D01*
X150187222Y-103197009D01*
X150216552Y-103161271D01*
X150299814Y-103059814D01*
X150410335Y-102969113D01*
X150437009Y-102947222D01*
X150593534Y-102863557D01*
X150763373Y-102812037D01*
X150829557Y-102805519D01*
X150895740Y-102799000D01*
X150984260Y-102799000D01*
X151050442Y-102805518D01*
X151050442Y-102805518D01*
G37*
G36*
X148510443Y-100265519D02*
G01*
X148576627Y-100272037D01*
X148746466Y-100323557D01*
X148902991Y-100407222D01*
X148938729Y-100436552D01*
X149040186Y-100519814D01*
X149100503Y-100593312D01*
X149152778Y-100657009D01*
X149194610Y-100735271D01*
X149210891Y-100765729D01*
X149236443Y-100813534D01*
X149287963Y-100983373D01*
X149305359Y-101160000D01*
X149287963Y-101336627D01*
X149236443Y-101506466D01*
X149152778Y-101662991D01*
X149136325Y-101683039D01*
X149040186Y-101800186D01*
X148938729Y-101883448D01*
X148902991Y-101912778D01*
X148746466Y-101996443D01*
X148576627Y-102047963D01*
X148510442Y-102054482D01*
X148444260Y-102061000D01*
X148355740Y-102061000D01*
X148289558Y-102054482D01*
X148223373Y-102047963D01*
X148053534Y-101996443D01*
X147897009Y-101912778D01*
X147861271Y-101883448D01*
X147759814Y-101800186D01*
X147663675Y-101683039D01*
X147647222Y-101662991D01*
X147563557Y-101506466D01*
X147512037Y-101336627D01*
X147494641Y-101160000D01*
X147512037Y-100983373D01*
X147563557Y-100813534D01*
X147589110Y-100765729D01*
X147605389Y-100735272D01*
X147647222Y-100657009D01*
X147699497Y-100593312D01*
X147759814Y-100519814D01*
X147861271Y-100436552D01*
X147897009Y-100407222D01*
X148053534Y-100323557D01*
X148223373Y-100272037D01*
X148289558Y-100265518D01*
X148355740Y-100259000D01*
X148444260Y-100259000D01*
X148510443Y-100265519D01*
X148510443Y-100265519D01*
G37*
G36*
X151050443Y-100265519D02*
G01*
X151116627Y-100272037D01*
X151286466Y-100323557D01*
X151442991Y-100407222D01*
X151478729Y-100436552D01*
X151580186Y-100519814D01*
X151640503Y-100593312D01*
X151692778Y-100657009D01*
X151734610Y-100735271D01*
X151750891Y-100765729D01*
X151776443Y-100813534D01*
X151827963Y-100983373D01*
X151845359Y-101160000D01*
X151827963Y-101336627D01*
X151776443Y-101506466D01*
X151692778Y-101662991D01*
X151676325Y-101683039D01*
X151580186Y-101800186D01*
X151478729Y-101883448D01*
X151442991Y-101912778D01*
X151286466Y-101996443D01*
X151116627Y-102047963D01*
X151050442Y-102054482D01*
X150984260Y-102061000D01*
X150895740Y-102061000D01*
X150829558Y-102054482D01*
X150763373Y-102047963D01*
X150593534Y-101996443D01*
X150437009Y-101912778D01*
X150401271Y-101883448D01*
X150299814Y-101800186D01*
X150203675Y-101683039D01*
X150187222Y-101662991D01*
X150103557Y-101506466D01*
X150052037Y-101336627D01*
X150034641Y-101160000D01*
X150052037Y-100983373D01*
X150103557Y-100813534D01*
X150129110Y-100765729D01*
X150145389Y-100735272D01*
X150187222Y-100657009D01*
X150239497Y-100593312D01*
X150299814Y-100519814D01*
X150401271Y-100436552D01*
X150437009Y-100407222D01*
X150593534Y-100323557D01*
X150763373Y-100272037D01*
X150829558Y-100265518D01*
X150895740Y-100259000D01*
X150984260Y-100259000D01*
X151050443Y-100265519D01*
X151050443Y-100265519D01*
G37*
G36*
X153590443Y-100265519D02*
G01*
X153656627Y-100272037D01*
X153826466Y-100323557D01*
X153982991Y-100407222D01*
X154018729Y-100436552D01*
X154120186Y-100519814D01*
X154180503Y-100593312D01*
X154232778Y-100657009D01*
X154274610Y-100735271D01*
X154290891Y-100765729D01*
X154316443Y-100813534D01*
X154367963Y-100983373D01*
X154385359Y-101160000D01*
X154367963Y-101336627D01*
X154316443Y-101506466D01*
X154232778Y-101662991D01*
X154216325Y-101683039D01*
X154120186Y-101800186D01*
X154018729Y-101883448D01*
X153982991Y-101912778D01*
X153826466Y-101996443D01*
X153656627Y-102047963D01*
X153590442Y-102054482D01*
X153524260Y-102061000D01*
X153435740Y-102061000D01*
X153369558Y-102054482D01*
X153303373Y-102047963D01*
X153133534Y-101996443D01*
X152977009Y-101912778D01*
X152941271Y-101883448D01*
X152839814Y-101800186D01*
X152743675Y-101683039D01*
X152727222Y-101662991D01*
X152643557Y-101506466D01*
X152592037Y-101336627D01*
X152574641Y-101160000D01*
X152592037Y-100983373D01*
X152643557Y-100813534D01*
X152669110Y-100765729D01*
X152685389Y-100735272D01*
X152727222Y-100657009D01*
X152779497Y-100593312D01*
X152839814Y-100519814D01*
X152941271Y-100436552D01*
X152977009Y-100407222D01*
X153133534Y-100323557D01*
X153303373Y-100272037D01*
X153369558Y-100265518D01*
X153435740Y-100259000D01*
X153524260Y-100259000D01*
X153590443Y-100265519D01*
X153590443Y-100265519D01*
G37*
G36*
X156130443Y-100265519D02*
G01*
X156196627Y-100272037D01*
X156366466Y-100323557D01*
X156522991Y-100407222D01*
X156558729Y-100436552D01*
X156660186Y-100519814D01*
X156720503Y-100593312D01*
X156772778Y-100657009D01*
X156814610Y-100735271D01*
X156830891Y-100765729D01*
X156856443Y-100813534D01*
X156907963Y-100983373D01*
X156925359Y-101160000D01*
X156907963Y-101336627D01*
X156856443Y-101506466D01*
X156772778Y-101662991D01*
X156756325Y-101683039D01*
X156660186Y-101800186D01*
X156558729Y-101883448D01*
X156522991Y-101912778D01*
X156366466Y-101996443D01*
X156196627Y-102047963D01*
X156130442Y-102054482D01*
X156064260Y-102061000D01*
X155975740Y-102061000D01*
X155909558Y-102054482D01*
X155843373Y-102047963D01*
X155673534Y-101996443D01*
X155517009Y-101912778D01*
X155481271Y-101883448D01*
X155379814Y-101800186D01*
X155283675Y-101683039D01*
X155267222Y-101662991D01*
X155183557Y-101506466D01*
X155132037Y-101336627D01*
X155114641Y-101160000D01*
X155132037Y-100983373D01*
X155183557Y-100813534D01*
X155209110Y-100765729D01*
X155225389Y-100735272D01*
X155267222Y-100657009D01*
X155319497Y-100593312D01*
X155379814Y-100519814D01*
X155481271Y-100436552D01*
X155517009Y-100407222D01*
X155673534Y-100323557D01*
X155843373Y-100272037D01*
X155909558Y-100265518D01*
X155975740Y-100259000D01*
X156064260Y-100259000D01*
X156130443Y-100265519D01*
X156130443Y-100265519D01*
G37*
G36*
X161210443Y-100265519D02*
G01*
X161276627Y-100272037D01*
X161446466Y-100323557D01*
X161602991Y-100407222D01*
X161638729Y-100436552D01*
X161740186Y-100519814D01*
X161800503Y-100593312D01*
X161852778Y-100657009D01*
X161894610Y-100735271D01*
X161910891Y-100765729D01*
X161936443Y-100813534D01*
X161987963Y-100983373D01*
X162005359Y-101160000D01*
X161987963Y-101336627D01*
X161936443Y-101506466D01*
X161852778Y-101662991D01*
X161836325Y-101683039D01*
X161740186Y-101800186D01*
X161638729Y-101883448D01*
X161602991Y-101912778D01*
X161446466Y-101996443D01*
X161276627Y-102047963D01*
X161210442Y-102054482D01*
X161144260Y-102061000D01*
X161055740Y-102061000D01*
X160989558Y-102054482D01*
X160923373Y-102047963D01*
X160753534Y-101996443D01*
X160597009Y-101912778D01*
X160561271Y-101883448D01*
X160459814Y-101800186D01*
X160363675Y-101683039D01*
X160347222Y-101662991D01*
X160263557Y-101506466D01*
X160212037Y-101336627D01*
X160194641Y-101160000D01*
X160212037Y-100983373D01*
X160263557Y-100813534D01*
X160289110Y-100765729D01*
X160305389Y-100735272D01*
X160347222Y-100657009D01*
X160399497Y-100593312D01*
X160459814Y-100519814D01*
X160561271Y-100436552D01*
X160597009Y-100407222D01*
X160753534Y-100323557D01*
X160923373Y-100272037D01*
X160989558Y-100265518D01*
X161055740Y-100259000D01*
X161144260Y-100259000D01*
X161210443Y-100265519D01*
X161210443Y-100265519D01*
G37*
G36*
X158670443Y-100265519D02*
G01*
X158736627Y-100272037D01*
X158906466Y-100323557D01*
X159062991Y-100407222D01*
X159098729Y-100436552D01*
X159200186Y-100519814D01*
X159260503Y-100593312D01*
X159312778Y-100657009D01*
X159354610Y-100735271D01*
X159370891Y-100765729D01*
X159396443Y-100813534D01*
X159447963Y-100983373D01*
X159465359Y-101160000D01*
X159447963Y-101336627D01*
X159396443Y-101506466D01*
X159312778Y-101662991D01*
X159296325Y-101683039D01*
X159200186Y-101800186D01*
X159098729Y-101883448D01*
X159062991Y-101912778D01*
X158906466Y-101996443D01*
X158736627Y-102047963D01*
X158670442Y-102054482D01*
X158604260Y-102061000D01*
X158515740Y-102061000D01*
X158449558Y-102054482D01*
X158383373Y-102047963D01*
X158213534Y-101996443D01*
X158057009Y-101912778D01*
X158021271Y-101883448D01*
X157919814Y-101800186D01*
X157823675Y-101683039D01*
X157807222Y-101662991D01*
X157723557Y-101506466D01*
X157672037Y-101336627D01*
X157654641Y-101160000D01*
X157672037Y-100983373D01*
X157723557Y-100813534D01*
X157749110Y-100765729D01*
X157765389Y-100735272D01*
X157807222Y-100657009D01*
X157859497Y-100593312D01*
X157919814Y-100519814D01*
X158021271Y-100436552D01*
X158057009Y-100407222D01*
X158213534Y-100323557D01*
X158383373Y-100272037D01*
X158449558Y-100265518D01*
X158515740Y-100259000D01*
X158604260Y-100259000D01*
X158670443Y-100265519D01*
X158670443Y-100265519D01*
G37*
G36*
X162121000Y-99231000D02*
G01*
X160119000Y-99231000D01*
X160119000Y-97229000D01*
X162121000Y-97229000D01*
X162121000Y-99231000D01*
X162121000Y-99231000D01*
G37*
G36*
X162121000Y-96431000D02*
G01*
X160119000Y-96431000D01*
X160119000Y-94429000D01*
X162121000Y-94429000D01*
X162121000Y-96431000D01*
X162121000Y-96431000D01*
G37*
G36*
X159221000Y-95781000D02*
G01*
X157719000Y-95781000D01*
X157719000Y-92679000D01*
X159221000Y-92679000D01*
X159221000Y-95781000D01*
X159221000Y-95781000D01*
G37*
G36*
X162121000Y-94031000D02*
G01*
X160119000Y-94031000D01*
X160119000Y-92029000D01*
X162121000Y-92029000D01*
X162121000Y-94031000D01*
X162121000Y-94031000D01*
G37*
G36*
X162121000Y-91231000D02*
G01*
X160119000Y-91231000D01*
X160119000Y-89229000D01*
X162121000Y-89229000D01*
X162121000Y-91231000D01*
X162121000Y-91231000D01*
G37*
G36*
X158001938Y-90191716D02*
G01*
X158022557Y-90197971D01*
X158041553Y-90208124D01*
X158058208Y-90221792D01*
X158071876Y-90238447D01*
X158082029Y-90257443D01*
X158088284Y-90278062D01*
X158091000Y-90305640D01*
X158091000Y-90764360D01*
X158088284Y-90791938D01*
X158082029Y-90812557D01*
X158071876Y-90831553D01*
X158058208Y-90848208D01*
X158041553Y-90861876D01*
X158022557Y-90872029D01*
X158001938Y-90878284D01*
X157974360Y-90881000D01*
X157465640Y-90881000D01*
X157438062Y-90878284D01*
X157417443Y-90872029D01*
X157398447Y-90861876D01*
X157381792Y-90848208D01*
X157368124Y-90831553D01*
X157357971Y-90812557D01*
X157351716Y-90791938D01*
X157349000Y-90764360D01*
X157349000Y-90305640D01*
X157351716Y-90278062D01*
X157357971Y-90257443D01*
X157368124Y-90238447D01*
X157381792Y-90221792D01*
X157398447Y-90208124D01*
X157417443Y-90197971D01*
X157438062Y-90191716D01*
X157465640Y-90189000D01*
X157974360Y-90189000D01*
X158001938Y-90191716D01*
X158001938Y-90191716D01*
G37*
G36*
X154701938Y-90191716D02*
G01*
X154722557Y-90197971D01*
X154741553Y-90208124D01*
X154758208Y-90221792D01*
X154771876Y-90238447D01*
X154782029Y-90257443D01*
X154788284Y-90278062D01*
X154791000Y-90305640D01*
X154791000Y-90764360D01*
X154788284Y-90791938D01*
X154782029Y-90812557D01*
X154771876Y-90831553D01*
X154758208Y-90848208D01*
X154741553Y-90861876D01*
X154722557Y-90872029D01*
X154701938Y-90878284D01*
X154674360Y-90881000D01*
X154165640Y-90881000D01*
X154138062Y-90878284D01*
X154117443Y-90872029D01*
X154098447Y-90861876D01*
X154081792Y-90848208D01*
X154068124Y-90831553D01*
X154057971Y-90812557D01*
X154051716Y-90791938D01*
X154049000Y-90764360D01*
X154049000Y-90305640D01*
X154051716Y-90278062D01*
X154057971Y-90257443D01*
X154068124Y-90238447D01*
X154081792Y-90221792D01*
X154098447Y-90208124D01*
X154117443Y-90197971D01*
X154138062Y-90191716D01*
X154165640Y-90189000D01*
X154674360Y-90189000D01*
X154701938Y-90191716D01*
X154701938Y-90191716D01*
G37*
G36*
X152501938Y-90191716D02*
G01*
X152522557Y-90197971D01*
X152541553Y-90208124D01*
X152558208Y-90221792D01*
X152571876Y-90238447D01*
X152582029Y-90257443D01*
X152588284Y-90278062D01*
X152591000Y-90305640D01*
X152591000Y-90764360D01*
X152588284Y-90791938D01*
X152582029Y-90812557D01*
X152571876Y-90831553D01*
X152558208Y-90848208D01*
X152541553Y-90861876D01*
X152522557Y-90872029D01*
X152501938Y-90878284D01*
X152474360Y-90881000D01*
X151965640Y-90881000D01*
X151938062Y-90878284D01*
X151917443Y-90872029D01*
X151898447Y-90861876D01*
X151881792Y-90848208D01*
X151868124Y-90831553D01*
X151857971Y-90812557D01*
X151851716Y-90791938D01*
X151849000Y-90764360D01*
X151849000Y-90305640D01*
X151851716Y-90278062D01*
X151857971Y-90257443D01*
X151868124Y-90238447D01*
X151881792Y-90221792D01*
X151898447Y-90208124D01*
X151917443Y-90197971D01*
X151938062Y-90191716D01*
X151965640Y-90189000D01*
X152474360Y-90189000D01*
X152501938Y-90191716D01*
X152501938Y-90191716D01*
G37*
G36*
X156901938Y-90191716D02*
G01*
X156922557Y-90197971D01*
X156941553Y-90208124D01*
X156958208Y-90221792D01*
X156971876Y-90238447D01*
X156982029Y-90257443D01*
X156988284Y-90278062D01*
X156991000Y-90305640D01*
X156991000Y-90764360D01*
X156988284Y-90791938D01*
X156982029Y-90812557D01*
X156971876Y-90831553D01*
X156958208Y-90848208D01*
X156941553Y-90861876D01*
X156922557Y-90872029D01*
X156901938Y-90878284D01*
X156874360Y-90881000D01*
X156365640Y-90881000D01*
X156338062Y-90878284D01*
X156317443Y-90872029D01*
X156298447Y-90861876D01*
X156281792Y-90848208D01*
X156268124Y-90831553D01*
X156257971Y-90812557D01*
X156251716Y-90791938D01*
X156249000Y-90764360D01*
X156249000Y-90305640D01*
X156251716Y-90278062D01*
X156257971Y-90257443D01*
X156268124Y-90238447D01*
X156281792Y-90221792D01*
X156298447Y-90208124D01*
X156317443Y-90197971D01*
X156338062Y-90191716D01*
X156365640Y-90189000D01*
X156874360Y-90189000D01*
X156901938Y-90191716D01*
X156901938Y-90191716D01*
G37*
G36*
X150301938Y-90191716D02*
G01*
X150322557Y-90197971D01*
X150341553Y-90208124D01*
X150358208Y-90221792D01*
X150371876Y-90238447D01*
X150382029Y-90257443D01*
X150388284Y-90278062D01*
X150391000Y-90305640D01*
X150391000Y-90764360D01*
X150388284Y-90791938D01*
X150382029Y-90812557D01*
X150371876Y-90831553D01*
X150358208Y-90848208D01*
X150341553Y-90861876D01*
X150322557Y-90872029D01*
X150301938Y-90878284D01*
X150274360Y-90881000D01*
X149765640Y-90881000D01*
X149738062Y-90878284D01*
X149717443Y-90872029D01*
X149698447Y-90861876D01*
X149681792Y-90848208D01*
X149668124Y-90831553D01*
X149657971Y-90812557D01*
X149651716Y-90791938D01*
X149649000Y-90764360D01*
X149649000Y-90305640D01*
X149651716Y-90278062D01*
X149657971Y-90257443D01*
X149668124Y-90238447D01*
X149681792Y-90221792D01*
X149698447Y-90208124D01*
X149717443Y-90197971D01*
X149738062Y-90191716D01*
X149765640Y-90189000D01*
X150274360Y-90189000D01*
X150301938Y-90191716D01*
X150301938Y-90191716D01*
G37*
G36*
X151401938Y-90191716D02*
G01*
X151422557Y-90197971D01*
X151441553Y-90208124D01*
X151458208Y-90221792D01*
X151471876Y-90238447D01*
X151482029Y-90257443D01*
X151488284Y-90278062D01*
X151491000Y-90305640D01*
X151491000Y-90764360D01*
X151488284Y-90791938D01*
X151482029Y-90812557D01*
X151471876Y-90831553D01*
X151458208Y-90848208D01*
X151441553Y-90861876D01*
X151422557Y-90872029D01*
X151401938Y-90878284D01*
X151374360Y-90881000D01*
X150865640Y-90881000D01*
X150838062Y-90878284D01*
X150817443Y-90872029D01*
X150798447Y-90861876D01*
X150781792Y-90848208D01*
X150768124Y-90831553D01*
X150757971Y-90812557D01*
X150751716Y-90791938D01*
X150749000Y-90764360D01*
X150749000Y-90305640D01*
X150751716Y-90278062D01*
X150757971Y-90257443D01*
X150768124Y-90238447D01*
X150781792Y-90221792D01*
X150798447Y-90208124D01*
X150817443Y-90197971D01*
X150838062Y-90191716D01*
X150865640Y-90189000D01*
X151374360Y-90189000D01*
X151401938Y-90191716D01*
X151401938Y-90191716D01*
G37*
G36*
X156901938Y-89221716D02*
G01*
X156922557Y-89227971D01*
X156941553Y-89238124D01*
X156958208Y-89251792D01*
X156971876Y-89268447D01*
X156982029Y-89287443D01*
X156988284Y-89308062D01*
X156991000Y-89335640D01*
X156991000Y-89794360D01*
X156988284Y-89821938D01*
X156982029Y-89842557D01*
X156971876Y-89861553D01*
X156958208Y-89878208D01*
X156941553Y-89891876D01*
X156922557Y-89902029D01*
X156901938Y-89908284D01*
X156874360Y-89911000D01*
X156365640Y-89911000D01*
X156338062Y-89908284D01*
X156317443Y-89902029D01*
X156298447Y-89891876D01*
X156281792Y-89878208D01*
X156268124Y-89861553D01*
X156257971Y-89842557D01*
X156251716Y-89821938D01*
X156249000Y-89794360D01*
X156249000Y-89335640D01*
X156251716Y-89308062D01*
X156257971Y-89287443D01*
X156268124Y-89268447D01*
X156281792Y-89251792D01*
X156298447Y-89238124D01*
X156317443Y-89227971D01*
X156338062Y-89221716D01*
X156365640Y-89219000D01*
X156874360Y-89219000D01*
X156901938Y-89221716D01*
X156901938Y-89221716D01*
G37*
G36*
X158001938Y-89221716D02*
G01*
X158022557Y-89227971D01*
X158041553Y-89238124D01*
X158058208Y-89251792D01*
X158071876Y-89268447D01*
X158082029Y-89287443D01*
X158088284Y-89308062D01*
X158091000Y-89335640D01*
X158091000Y-89794360D01*
X158088284Y-89821938D01*
X158082029Y-89842557D01*
X158071876Y-89861553D01*
X158058208Y-89878208D01*
X158041553Y-89891876D01*
X158022557Y-89902029D01*
X158001938Y-89908284D01*
X157974360Y-89911000D01*
X157465640Y-89911000D01*
X157438062Y-89908284D01*
X157417443Y-89902029D01*
X157398447Y-89891876D01*
X157381792Y-89878208D01*
X157368124Y-89861553D01*
X157357971Y-89842557D01*
X157351716Y-89821938D01*
X157349000Y-89794360D01*
X157349000Y-89335640D01*
X157351716Y-89308062D01*
X157357971Y-89287443D01*
X157368124Y-89268447D01*
X157381792Y-89251792D01*
X157398447Y-89238124D01*
X157417443Y-89227971D01*
X157438062Y-89221716D01*
X157465640Y-89219000D01*
X157974360Y-89219000D01*
X158001938Y-89221716D01*
X158001938Y-89221716D01*
G37*
G36*
X154701938Y-89221716D02*
G01*
X154722557Y-89227971D01*
X154741553Y-89238124D01*
X154758208Y-89251792D01*
X154771876Y-89268447D01*
X154782029Y-89287443D01*
X154788284Y-89308062D01*
X154791000Y-89335640D01*
X154791000Y-89794360D01*
X154788284Y-89821938D01*
X154782029Y-89842557D01*
X154771876Y-89861553D01*
X154758208Y-89878208D01*
X154741553Y-89891876D01*
X154722557Y-89902029D01*
X154701938Y-89908284D01*
X154674360Y-89911000D01*
X154165640Y-89911000D01*
X154138062Y-89908284D01*
X154117443Y-89902029D01*
X154098447Y-89891876D01*
X154081792Y-89878208D01*
X154068124Y-89861553D01*
X154057971Y-89842557D01*
X154051716Y-89821938D01*
X154049000Y-89794360D01*
X154049000Y-89335640D01*
X154051716Y-89308062D01*
X154057971Y-89287443D01*
X154068124Y-89268447D01*
X154081792Y-89251792D01*
X154098447Y-89238124D01*
X154117443Y-89227971D01*
X154138062Y-89221716D01*
X154165640Y-89219000D01*
X154674360Y-89219000D01*
X154701938Y-89221716D01*
X154701938Y-89221716D01*
G37*
G36*
X152501938Y-89221716D02*
G01*
X152522557Y-89227971D01*
X152541553Y-89238124D01*
X152558208Y-89251792D01*
X152571876Y-89268447D01*
X152582029Y-89287443D01*
X152588284Y-89308062D01*
X152591000Y-89335640D01*
X152591000Y-89794360D01*
X152588284Y-89821938D01*
X152582029Y-89842557D01*
X152571876Y-89861553D01*
X152558208Y-89878208D01*
X152541553Y-89891876D01*
X152522557Y-89902029D01*
X152501938Y-89908284D01*
X152474360Y-89911000D01*
X151965640Y-89911000D01*
X151938062Y-89908284D01*
X151917443Y-89902029D01*
X151898447Y-89891876D01*
X151881792Y-89878208D01*
X151868124Y-89861553D01*
X151857971Y-89842557D01*
X151851716Y-89821938D01*
X151849000Y-89794360D01*
X151849000Y-89335640D01*
X151851716Y-89308062D01*
X151857971Y-89287443D01*
X151868124Y-89268447D01*
X151881792Y-89251792D01*
X151898447Y-89238124D01*
X151917443Y-89227971D01*
X151938062Y-89221716D01*
X151965640Y-89219000D01*
X152474360Y-89219000D01*
X152501938Y-89221716D01*
X152501938Y-89221716D01*
G37*
G36*
X151401938Y-89221716D02*
G01*
X151422557Y-89227971D01*
X151441553Y-89238124D01*
X151458208Y-89251792D01*
X151471876Y-89268447D01*
X151482029Y-89287443D01*
X151488284Y-89308062D01*
X151491000Y-89335640D01*
X151491000Y-89794360D01*
X151488284Y-89821938D01*
X151482029Y-89842557D01*
X151471876Y-89861553D01*
X151458208Y-89878208D01*
X151441553Y-89891876D01*
X151422557Y-89902029D01*
X151401938Y-89908284D01*
X151374360Y-89911000D01*
X150865640Y-89911000D01*
X150838062Y-89908284D01*
X150817443Y-89902029D01*
X150798447Y-89891876D01*
X150781792Y-89878208D01*
X150768124Y-89861553D01*
X150757971Y-89842557D01*
X150751716Y-89821938D01*
X150749000Y-89794360D01*
X150749000Y-89335640D01*
X150751716Y-89308062D01*
X150757971Y-89287443D01*
X150768124Y-89268447D01*
X150781792Y-89251792D01*
X150798447Y-89238124D01*
X150817443Y-89227971D01*
X150838062Y-89221716D01*
X150865640Y-89219000D01*
X151374360Y-89219000D01*
X151401938Y-89221716D01*
X151401938Y-89221716D01*
G37*
G36*
X150301938Y-89221716D02*
G01*
X150322557Y-89227971D01*
X150341553Y-89238124D01*
X150358208Y-89251792D01*
X150371876Y-89268447D01*
X150382029Y-89287443D01*
X150388284Y-89308062D01*
X150391000Y-89335640D01*
X150391000Y-89794360D01*
X150388284Y-89821938D01*
X150382029Y-89842557D01*
X150371876Y-89861553D01*
X150358208Y-89878208D01*
X150341553Y-89891876D01*
X150322557Y-89902029D01*
X150301938Y-89908284D01*
X150274360Y-89911000D01*
X149765640Y-89911000D01*
X149738062Y-89908284D01*
X149717443Y-89902029D01*
X149698447Y-89891876D01*
X149681792Y-89878208D01*
X149668124Y-89861553D01*
X149657971Y-89842557D01*
X149651716Y-89821938D01*
X149649000Y-89794360D01*
X149649000Y-89335640D01*
X149651716Y-89308062D01*
X149657971Y-89287443D01*
X149668124Y-89268447D01*
X149681792Y-89251792D01*
X149698447Y-89238124D01*
X149717443Y-89227971D01*
X149738062Y-89221716D01*
X149765640Y-89219000D01*
X150274360Y-89219000D01*
X150301938Y-89221716D01*
X150301938Y-89221716D01*
G37*
G36*
X161401938Y-88121716D02*
G01*
X161422557Y-88127971D01*
X161441553Y-88138124D01*
X161458208Y-88151792D01*
X161471876Y-88168447D01*
X161482029Y-88187443D01*
X161488284Y-88208062D01*
X161491000Y-88235640D01*
X161491000Y-88694360D01*
X161488284Y-88721938D01*
X161482029Y-88742557D01*
X161471876Y-88761553D01*
X161458208Y-88778208D01*
X161441553Y-88791876D01*
X161422557Y-88802029D01*
X161401938Y-88808284D01*
X161374360Y-88811000D01*
X160865640Y-88811000D01*
X160838062Y-88808284D01*
X160817443Y-88802029D01*
X160798447Y-88791876D01*
X160781792Y-88778208D01*
X160768124Y-88761553D01*
X160757971Y-88742557D01*
X160751716Y-88721938D01*
X160749000Y-88694360D01*
X160749000Y-88235640D01*
X160751716Y-88208062D01*
X160757971Y-88187443D01*
X160768124Y-88168447D01*
X160781792Y-88151792D01*
X160798447Y-88138124D01*
X160817443Y-88127971D01*
X160838062Y-88121716D01*
X160865640Y-88119000D01*
X161374360Y-88119000D01*
X161401938Y-88121716D01*
X161401938Y-88121716D01*
G37*
G36*
X153721000Y-88366000D02*
G01*
X152919000Y-88366000D01*
X152919000Y-87014000D01*
X153721000Y-87014000D01*
X153721000Y-88366000D01*
X153721000Y-88366000D01*
G37*
G36*
X150421000Y-88366000D02*
G01*
X149619000Y-88366000D01*
X149619000Y-87014000D01*
X150421000Y-87014000D01*
X150421000Y-88366000D01*
X150421000Y-88366000D01*
G37*
G36*
X151521000Y-88366000D02*
G01*
X150719000Y-88366000D01*
X150719000Y-87014000D01*
X151521000Y-87014000D01*
X151521000Y-88366000D01*
X151521000Y-88366000D01*
G37*
G36*
X159521000Y-87166000D02*
G01*
X158245999Y-87166000D01*
X158221613Y-87168402D01*
X158198164Y-87175515D01*
X158176553Y-87187066D01*
X158157611Y-87202611D01*
X158142066Y-87221553D01*
X158130515Y-87243164D01*
X158123402Y-87266613D01*
X158121000Y-87290999D01*
X158121000Y-88366000D01*
X157319000Y-88366000D01*
X157319000Y-87014000D01*
X158094001Y-87014000D01*
X158118387Y-87011598D01*
X158141836Y-87004485D01*
X158163447Y-86992934D01*
X158182389Y-86977389D01*
X158197934Y-86958447D01*
X158209485Y-86936836D01*
X158216598Y-86913387D01*
X158219000Y-86889001D01*
X158219000Y-83274000D01*
X159521000Y-83274000D01*
X159521000Y-87166000D01*
X159521000Y-87166000D01*
G37*
G36*
X157021000Y-88366000D02*
G01*
X156219000Y-88366000D01*
X156219000Y-87014000D01*
X157021000Y-87014000D01*
X157021000Y-88366000D01*
X157021000Y-88366000D01*
G37*
G36*
X152621000Y-88366000D02*
G01*
X151819000Y-88366000D01*
X151819000Y-87014000D01*
X152621000Y-87014000D01*
X152621000Y-88366000D01*
X152621000Y-88366000D01*
G37*
G36*
X154821000Y-88366000D02*
G01*
X154019000Y-88366000D01*
X154019000Y-87014000D01*
X154821000Y-87014000D01*
X154821000Y-88366000D01*
X154821000Y-88366000D01*
G37*
G36*
X155921000Y-88366000D02*
G01*
X155119000Y-88366000D01*
X155119000Y-87014000D01*
X155921000Y-87014000D01*
X155921000Y-88366000D01*
X155921000Y-88366000D01*
G37*
G36*
X161401938Y-87151716D02*
G01*
X161422557Y-87157971D01*
X161441553Y-87168124D01*
X161458208Y-87181792D01*
X161471876Y-87198447D01*
X161482029Y-87217443D01*
X161488284Y-87238062D01*
X161491000Y-87265640D01*
X161491000Y-87724360D01*
X161488284Y-87751938D01*
X161482029Y-87772557D01*
X161471876Y-87791553D01*
X161458208Y-87808208D01*
X161441553Y-87821876D01*
X161422557Y-87832029D01*
X161401938Y-87838284D01*
X161374360Y-87841000D01*
X160865640Y-87841000D01*
X160838062Y-87838284D01*
X160817443Y-87832029D01*
X160798447Y-87821876D01*
X160781792Y-87808208D01*
X160768124Y-87791553D01*
X160757971Y-87772557D01*
X160751716Y-87751938D01*
X160749000Y-87724360D01*
X160749000Y-87265640D01*
X160751716Y-87238062D01*
X160757971Y-87217443D01*
X160768124Y-87198447D01*
X160781792Y-87181792D01*
X160798447Y-87168124D01*
X160817443Y-87157971D01*
X160838062Y-87151716D01*
X160865640Y-87149000D01*
X161374360Y-87149000D01*
X161401938Y-87151716D01*
X161401938Y-87151716D01*
G37*
G36*
X149676000Y-84226000D02*
G01*
X148845999Y-84226000D01*
X148821613Y-84228402D01*
X148798164Y-84235515D01*
X148776553Y-84247066D01*
X148757611Y-84262611D01*
X148742066Y-84281553D01*
X148730515Y-84303164D01*
X148723402Y-84326613D01*
X148721000Y-84350999D01*
X148721000Y-85094001D01*
X148723402Y-85118387D01*
X148730515Y-85141836D01*
X148742066Y-85163447D01*
X148757611Y-85182389D01*
X148776553Y-85197934D01*
X148798164Y-85209485D01*
X148821613Y-85216598D01*
X148845999Y-85219000D01*
X149176000Y-85219000D01*
X149176000Y-86721000D01*
X147624000Y-86721000D01*
X147624000Y-85195999D01*
X147621598Y-85171613D01*
X147619000Y-85163048D01*
X147619000Y-84369000D01*
X148499001Y-84369000D01*
X148523387Y-84366598D01*
X148546836Y-84359485D01*
X148568447Y-84347934D01*
X148587389Y-84332389D01*
X148602934Y-84313447D01*
X148614485Y-84291836D01*
X148621598Y-84268387D01*
X148624000Y-84244001D01*
X148624000Y-83274000D01*
X149676000Y-83274000D01*
X149676000Y-84226000D01*
X149676000Y-84226000D01*
G37*
G36*
X147221938Y-85471716D02*
G01*
X147242557Y-85477971D01*
X147261553Y-85488124D01*
X147278208Y-85501792D01*
X147291876Y-85518447D01*
X147302029Y-85537443D01*
X147308284Y-85558062D01*
X147311000Y-85585640D01*
X147311000Y-86044360D01*
X147308284Y-86071938D01*
X147302029Y-86092557D01*
X147291876Y-86111553D01*
X147278208Y-86128208D01*
X147261553Y-86141876D01*
X147242557Y-86152029D01*
X147221938Y-86158284D01*
X147194360Y-86161000D01*
X146685640Y-86161000D01*
X146658062Y-86158284D01*
X146637443Y-86152029D01*
X146618447Y-86141876D01*
X146601792Y-86128208D01*
X146588124Y-86111553D01*
X146577971Y-86092557D01*
X146571716Y-86071938D01*
X146569000Y-86044360D01*
X146569000Y-85585640D01*
X146571716Y-85558062D01*
X146577971Y-85537443D01*
X146588124Y-85518447D01*
X146601792Y-85501792D01*
X146618447Y-85488124D01*
X146637443Y-85477971D01*
X146658062Y-85471716D01*
X146685640Y-85469000D01*
X147194360Y-85469000D01*
X147221938Y-85471716D01*
X147221938Y-85471716D01*
G37*
G36*
X147221938Y-84501716D02*
G01*
X147242557Y-84507971D01*
X147261553Y-84518124D01*
X147278208Y-84531792D01*
X147291876Y-84548447D01*
X147302029Y-84567443D01*
X147308284Y-84588062D01*
X147311000Y-84615640D01*
X147311000Y-85074360D01*
X147308284Y-85101938D01*
X147302029Y-85122557D01*
X147291876Y-85141553D01*
X147278208Y-85158208D01*
X147261553Y-85171876D01*
X147242557Y-85182029D01*
X147221938Y-85188284D01*
X147194360Y-85191000D01*
X146685640Y-85191000D01*
X146658062Y-85188284D01*
X146637443Y-85182029D01*
X146618447Y-85171876D01*
X146601792Y-85158208D01*
X146588124Y-85141553D01*
X146577971Y-85122557D01*
X146571716Y-85101938D01*
X146569000Y-85074360D01*
X146569000Y-84615640D01*
X146571716Y-84588062D01*
X146577971Y-84567443D01*
X146588124Y-84548447D01*
X146601792Y-84531792D01*
X146618447Y-84518124D01*
X146637443Y-84507971D01*
X146658062Y-84501716D01*
X146685640Y-84499000D01*
X147194360Y-84499000D01*
X147221938Y-84501716D01*
X147221938Y-84501716D01*
G37*
M02*
