G04 #@! TF.GenerationSoftware,KiCad,Pcbnew,5.1.2+dfsg1-1*
G04 #@! TF.CreationDate,2019-07-11T20:13:02+09:00*
G04 #@! TF.ProjectId,slice_sdusbios,736c6963-655f-4736-9475-7362696f732e,rev?*
G04 #@! TF.SameCoordinates,Original*
G04 #@! TF.FileFunction,Legend,Top*
G04 #@! TF.FilePolarity,Positive*
%FSLAX46Y46*%
G04 Gerber Fmt 4.6, Leading zero omitted, Abs format (unit mm)*
G04 Created by KiCad (PCBNEW 5.1.2+dfsg1-1) date 2019-07-11 20:13:02*
%MOMM*%
%LPD*%
G04 APERTURE LIST*
%ADD10C,0.150000*%
%ADD11C,0.120000*%
G04 APERTURE END LIST*
D10*
X149760000Y-83520000D02*
X158160000Y-83520000D01*
X147870000Y-83520000D02*
X148560000Y-83520000D01*
X147870000Y-83520000D02*
X147870000Y-84270000D01*
X159270000Y-89020000D02*
X159270000Y-87230000D01*
X147870000Y-89020000D02*
X147870000Y-86770000D01*
X159270000Y-89020000D02*
X147870000Y-89020000D01*
D11*
X144555000Y-105060000D02*
X144855507Y-105060000D01*
X145644493Y-105060000D02*
X145945000Y-105060000D01*
X144555000Y-85185000D02*
X144555000Y-105060000D01*
X145945000Y-85185000D02*
X145945000Y-105060000D01*
X144555000Y-85185000D02*
X144641724Y-85185000D01*
X145858276Y-85185000D02*
X145945000Y-85185000D01*
X144555000Y-84500000D02*
X144555000Y-83815000D01*
X144555000Y-83815000D02*
X145250000Y-83815000D01*
X147070000Y-105030000D02*
X147070000Y-103700000D01*
X148400000Y-105030000D02*
X147070000Y-105030000D01*
X147070000Y-102430000D02*
X147070000Y-99830000D01*
X149670000Y-102430000D02*
X147070000Y-102430000D01*
X149670000Y-105030000D02*
X149670000Y-102430000D01*
X147070000Y-99830000D02*
X162430000Y-99830000D01*
X149670000Y-105030000D02*
X162430000Y-105030000D01*
X162430000Y-105030000D02*
X162430000Y-99830000D01*
D10*
X163270000Y-98380000D02*
X163270000Y-99230000D01*
X163270000Y-90080000D02*
X163270000Y-89230000D01*
X163270000Y-97930000D02*
X162370000Y-97930000D01*
X163270000Y-90530000D02*
X162370000Y-90530000D01*
X158270000Y-97930000D02*
X159820000Y-97930000D01*
X158270000Y-90530000D02*
X159820000Y-90530000D01*
X158270000Y-92430000D02*
X158270000Y-90530000D01*
X163270000Y-97930000D02*
X163920000Y-98530000D01*
X163270000Y-90530000D02*
X163920000Y-89930000D01*
X158270000Y-96030000D02*
X158270000Y-97930000D01*
X163270000Y-97930000D02*
X163270000Y-90530000D01*
X160186666Y-83372380D02*
X160186666Y-84086666D01*
X160139047Y-84229523D01*
X160043809Y-84324761D01*
X159900952Y-84372380D01*
X159805714Y-84372380D01*
X160567619Y-83372380D02*
X161186666Y-83372380D01*
X160853333Y-83753333D01*
X160996190Y-83753333D01*
X161091428Y-83800952D01*
X161139047Y-83848571D01*
X161186666Y-83943809D01*
X161186666Y-84181904D01*
X161139047Y-84277142D01*
X161091428Y-84324761D01*
X160996190Y-84372380D01*
X160710476Y-84372380D01*
X160615238Y-84324761D01*
X160567619Y-84277142D01*
X147016666Y-96142380D02*
X147016666Y-96856666D01*
X146969047Y-96999523D01*
X146873809Y-97094761D01*
X146730952Y-97142380D01*
X146635714Y-97142380D01*
X148016666Y-97142380D02*
X147445238Y-97142380D01*
X147730952Y-97142380D02*
X147730952Y-96142380D01*
X147635714Y-96285238D01*
X147540476Y-96380476D01*
X147445238Y-96428095D01*
X155236666Y-98532380D02*
X155236666Y-99246666D01*
X155189047Y-99389523D01*
X155093809Y-99484761D01*
X154950952Y-99532380D01*
X154855714Y-99532380D01*
X155665238Y-98627619D02*
X155712857Y-98580000D01*
X155808095Y-98532380D01*
X156046190Y-98532380D01*
X156141428Y-98580000D01*
X156189047Y-98627619D01*
X156236666Y-98722857D01*
X156236666Y-98818095D01*
X156189047Y-98960952D01*
X155617619Y-99532380D01*
X156236666Y-99532380D01*
X157022380Y-98238333D02*
X157736666Y-98238333D01*
X157879523Y-98285952D01*
X157974761Y-98381190D01*
X158022380Y-98524047D01*
X158022380Y-98619285D01*
X157355714Y-97333571D02*
X158022380Y-97333571D01*
X156974761Y-97571666D02*
X157689047Y-97809761D01*
X157689047Y-97190714D01*
X147572380Y-87916666D02*
X147096190Y-88250000D01*
X147572380Y-88488095D02*
X146572380Y-88488095D01*
X146572380Y-88107142D01*
X146620000Y-88011904D01*
X146667619Y-87964285D01*
X146762857Y-87916666D01*
X146905714Y-87916666D01*
X147000952Y-87964285D01*
X147048571Y-88011904D01*
X147096190Y-88107142D01*
X147096190Y-88488095D01*
X147000952Y-87345238D02*
X146953333Y-87440476D01*
X146905714Y-87488095D01*
X146810476Y-87535714D01*
X146762857Y-87535714D01*
X146667619Y-87488095D01*
X146620000Y-87440476D01*
X146572380Y-87345238D01*
X146572380Y-87154761D01*
X146620000Y-87059523D01*
X146667619Y-87011904D01*
X146762857Y-86964285D01*
X146810476Y-86964285D01*
X146905714Y-87011904D01*
X146953333Y-87059523D01*
X147000952Y-87154761D01*
X147000952Y-87345238D01*
X147048571Y-87440476D01*
X147096190Y-87488095D01*
X147191428Y-87535714D01*
X147381904Y-87535714D01*
X147477142Y-87488095D01*
X147524761Y-87440476D01*
X147572380Y-87345238D01*
X147572380Y-87154761D01*
X147524761Y-87059523D01*
X147477142Y-87011904D01*
X147381904Y-86964285D01*
X147191428Y-86964285D01*
X147096190Y-87011904D01*
X147048571Y-87059523D01*
X147000952Y-87154761D01*
X157442380Y-92426666D02*
X156966190Y-92760000D01*
X157442380Y-92998095D02*
X156442380Y-92998095D01*
X156442380Y-92617142D01*
X156490000Y-92521904D01*
X156537619Y-92474285D01*
X156632857Y-92426666D01*
X156775714Y-92426666D01*
X156870952Y-92474285D01*
X156918571Y-92521904D01*
X156966190Y-92617142D01*
X156966190Y-92998095D01*
X156442380Y-92093333D02*
X156442380Y-91426666D01*
X157442380Y-91855238D01*
X156212380Y-92426666D02*
X155736190Y-92760000D01*
X156212380Y-92998095D02*
X155212380Y-92998095D01*
X155212380Y-92617142D01*
X155260000Y-92521904D01*
X155307619Y-92474285D01*
X155402857Y-92426666D01*
X155545714Y-92426666D01*
X155640952Y-92474285D01*
X155688571Y-92521904D01*
X155736190Y-92617142D01*
X155736190Y-92998095D01*
X155212380Y-91569523D02*
X155212380Y-91760000D01*
X155260000Y-91855238D01*
X155307619Y-91902857D01*
X155450476Y-91998095D01*
X155640952Y-92045714D01*
X156021904Y-92045714D01*
X156117142Y-91998095D01*
X156164761Y-91950476D01*
X156212380Y-91855238D01*
X156212380Y-91664761D01*
X156164761Y-91569523D01*
X156117142Y-91521904D01*
X156021904Y-91474285D01*
X155783809Y-91474285D01*
X155688571Y-91521904D01*
X155640952Y-91569523D01*
X155593333Y-91664761D01*
X155593333Y-91855238D01*
X155640952Y-91950476D01*
X155688571Y-91998095D01*
X155783809Y-92045714D01*
X154872380Y-92436666D02*
X154396190Y-92770000D01*
X154872380Y-93008095D02*
X153872380Y-93008095D01*
X153872380Y-92627142D01*
X153920000Y-92531904D01*
X153967619Y-92484285D01*
X154062857Y-92436666D01*
X154205714Y-92436666D01*
X154300952Y-92484285D01*
X154348571Y-92531904D01*
X154396190Y-92627142D01*
X154396190Y-93008095D01*
X153872380Y-91531904D02*
X153872380Y-92008095D01*
X154348571Y-92055714D01*
X154300952Y-92008095D01*
X154253333Y-91912857D01*
X154253333Y-91674761D01*
X154300952Y-91579523D01*
X154348571Y-91531904D01*
X154443809Y-91484285D01*
X154681904Y-91484285D01*
X154777142Y-91531904D01*
X154824761Y-91579523D01*
X154872380Y-91674761D01*
X154872380Y-91912857D01*
X154824761Y-92008095D01*
X154777142Y-92055714D01*
X152752380Y-92436666D02*
X152276190Y-92770000D01*
X152752380Y-93008095D02*
X151752380Y-93008095D01*
X151752380Y-92627142D01*
X151800000Y-92531904D01*
X151847619Y-92484285D01*
X151942857Y-92436666D01*
X152085714Y-92436666D01*
X152180952Y-92484285D01*
X152228571Y-92531904D01*
X152276190Y-92627142D01*
X152276190Y-93008095D01*
X152085714Y-91579523D02*
X152752380Y-91579523D01*
X151704761Y-91817619D02*
X152419047Y-92055714D01*
X152419047Y-91436666D01*
X151382380Y-92436666D02*
X150906190Y-92770000D01*
X151382380Y-93008095D02*
X150382380Y-93008095D01*
X150382380Y-92627142D01*
X150430000Y-92531904D01*
X150477619Y-92484285D01*
X150572857Y-92436666D01*
X150715714Y-92436666D01*
X150810952Y-92484285D01*
X150858571Y-92531904D01*
X150906190Y-92627142D01*
X150906190Y-93008095D01*
X150382380Y-92103333D02*
X150382380Y-91484285D01*
X150763333Y-91817619D01*
X150763333Y-91674761D01*
X150810952Y-91579523D01*
X150858571Y-91531904D01*
X150953809Y-91484285D01*
X151191904Y-91484285D01*
X151287142Y-91531904D01*
X151334761Y-91579523D01*
X151382380Y-91674761D01*
X151382380Y-91960476D01*
X151334761Y-92055714D01*
X151287142Y-92103333D01*
X150012380Y-92426666D02*
X149536190Y-92760000D01*
X150012380Y-92998095D02*
X149012380Y-92998095D01*
X149012380Y-92617142D01*
X149060000Y-92521904D01*
X149107619Y-92474285D01*
X149202857Y-92426666D01*
X149345714Y-92426666D01*
X149440952Y-92474285D01*
X149488571Y-92521904D01*
X149536190Y-92617142D01*
X149536190Y-92998095D01*
X149107619Y-92045714D02*
X149060000Y-91998095D01*
X149012380Y-91902857D01*
X149012380Y-91664761D01*
X149060000Y-91569523D01*
X149107619Y-91521904D01*
X149202857Y-91474285D01*
X149298095Y-91474285D01*
X149440952Y-91521904D01*
X150012380Y-92093333D01*
X150012380Y-91474285D01*
X162792380Y-88146666D02*
X162316190Y-88480000D01*
X162792380Y-88718095D02*
X161792380Y-88718095D01*
X161792380Y-88337142D01*
X161840000Y-88241904D01*
X161887619Y-88194285D01*
X161982857Y-88146666D01*
X162125714Y-88146666D01*
X162220952Y-88194285D01*
X162268571Y-88241904D01*
X162316190Y-88337142D01*
X162316190Y-88718095D01*
X162792380Y-87194285D02*
X162792380Y-87765714D01*
X162792380Y-87480000D02*
X161792380Y-87480000D01*
X161935238Y-87575238D01*
X162030476Y-87670476D01*
X162078095Y-87765714D01*
M02*
