M48
; DRILL file {KiCad 5.1.2+dfsg1-1} date Thu 11 Jul 2019 20:12:46 JST
; FORMAT={-:-/ absolute / inch / decimal}
; #@! TF.CreationDate,2019-07-11T20:12:46+09:00
; #@! TF.GenerationSoftware,Kicad,Pcbnew,5.1.2+dfsg1-1
FMAT,2
INCH
T1C0.0157
T2C0.0197
T3C0.0394
T4C0.0217
%
G90
G05
T1
X5.7961Y-3.2972
X5.8268Y-3.8189
X5.8571Y-3.5472
X5.9055Y-3.7402
X5.9449Y-3.3858
X5.9577Y-3.6352
X5.9843Y-3.7402
X5.9933Y-3.6039
X6.0299Y-3.8018
X6.0362Y-3.5197
X6.0787Y-3.6063
X6.1Y-3.7732
X6.1024Y-3.3465
X6.1417Y-3.8189
X6.1417Y-3.8976
X6.1811Y-3.3465
X6.378Y-3.3071
X6.378Y-3.3858
T2
X5.7185Y-3.3268
X5.7185Y-3.3661
X5.7185Y-3.4055
X5.7185Y-3.4449
X5.7185Y-3.4843
X5.7185Y-3.5236
X5.7185Y-3.563
X5.7185Y-3.6024
X5.7185Y-3.6417
X5.7185Y-3.6811
X5.7185Y-3.7205
X5.7185Y-3.7598
X5.7185Y-3.7992
X5.7185Y-3.8386
X5.7185Y-3.878
X5.7185Y-3.9173
X5.7185Y-3.9567
X5.7185Y-3.9961
X5.7185Y-4.0354
X5.7185Y-4.0748
X5.7185Y-4.1142
T3
X5.8425Y-3.9827
X5.8425Y-4.0827
X5.9425Y-3.9827
X5.9425Y-4.0827
X6.0425Y-3.9827
X6.0425Y-4.0827
X6.1425Y-3.9827
X6.1425Y-4.0827
X6.2425Y-3.9827
X6.2425Y-4.0827
X6.3425Y-3.9827
X6.3425Y-4.0827
T4
X6.2587Y-3.6311
X6.2587Y-3.7886
T0
M30
